  0
SECTION
  2
HEADER
  9
$ACADVER
  1
AC1014
  9
$HANDSEED
  5
FFFF
  9
$MEASUREMENT
 70
     1
  0
ENDSEC
  0
SECTION
  2
TABLES
  0
TABLE
  2
VPORT
  5
8
330
0
100
AcDbSymbolTable
 70
     4
  0
VPORT
  5
2E
330
8
100
AcDbSymbolTableRecord
100
AcDbViewportTableRecord
  2
*ACTIVE
 70
     0
 10
0.0
 20
0.0
 11
1.0
 21
1.0
 12
210.0
 22
148.5
 13
0.0
 23
0.0
 14
10.0
 24
10.0
 15
10.0
 25
10.0
 16
0.0
 26
0.0
 36
1.0
 17
0.0
 27
0.0
 37
0.0
 40
341.0
 41
1.24
 42
50.0
 43
0.0
 44
0.0
 50
0.0
 51
0.0
 71
     0
 72
   100
 73
     1
 74
     3
 75
     0
 76
     0
 77
     0
 78
     0
  0
ENDTAB
  0
TABLE
  2
LTYPE
  5
5
330
0
100
AcDbSymbolTable
 70
     1
  0
LTYPE
  5
14
330
5
100
AcDbSymbolTableRecord
100
AcDbLinetypeTableRecord
  2
BYBLOCK
 70
     0
  3

 72
    65
 73
     0
 40
0.0
  0
LTYPE
  5
15
330
5
100
AcDbSymbolTableRecord
100
AcDbLinetypeTableRecord
  2
BYLAYER
 70
     0
  3

 72
    65
 73
     0
 40
0.0
  0
LTYPE
  5
16
330
5
100
AcDbSymbolTableRecord
100
AcDbLinetypeTableRecord
  2
CONTINUOUS
 70
     0
  3
Solid line
 72
    65
 73
     0
 40
0.0
  0
ENDTAB
  0
TABLE
  2
LAYER
  5
2
100
AcDbSymbolTable
 70
1
  0
LAYER
  5
50
100
AcDbSymbolTableRecord
100
AcDbLayerTableRecord
  2
0
 70
0
  6
CONTINUOUS
  0
ENDTAB
  0
TABLE
  2
STYLE
  5
3
330
0
100
AcDbSymbolTable
 70
     1
  0
STYLE
  5
11
330
3
100
AcDbSymbolTableRecord
100
AcDbTextStyleTableRecord
  2
STANDARD
 70
     0
 40
0.0
 41
1.0
 50
0.0
 71
     0
 42
2.5
  3
txt
  4

  0
ENDTAB
  0
TABLE
  2
VIEW
  5
6
330
0
100
AcDbSymbolTable
 70
     0
  0
ENDTAB
  0
TABLE
  2
UCS
  5
7
330
0
100
AcDbSymbolTable
 70
     0
  0
ENDTAB
  0
TABLE
  2
APPID
  5
9
330
0
100
AcDbSymbolTable
 70
     2
  0
APPID
  5
12
330
9
100
AcDbSymbolTableRecord
100
AcDbRegAppTableRecord
  2
ACAD
 70
     0
  0
ENDTAB
  0
TABLE
  2
DIMSTYLE
  5
A
330
0
100
AcDbSymbolTable
 70
     1
  0
DIMSTYLE
105
27
330
A
100
AcDbSymbolTableRecord
100
AcDbDimStyleTableRecord
  2
ISO-25
 70
     0
  3

  4

  5

  6

  7

 40
1.0
 41
2.5
 42
0.625
 43
3.75
 44
1.25
 45
0.0
 46
0.0
 47
0.0
 48
0.0
140
2.5
141
2.5
142
0.0
143
0.03937007874016
144
1.0
145
0.0
146
1.0
147
0.625
 71
     0
 72
     0
 73
     0
 74
     0
 75
     0
 76
     0
 77
     1
 78
     8
170
     0
171
     3
172
     1
173
     0
174
     0
175
     0
176
     0
177
     0
178
     0
270
     2
271
     2
272
     2
273
     2
274
     3
340
11
275
     0
280
     0
281
     0
282
     0
283
     0
284
     8
285
     0
286
     0
287
     3
288
     0
  0
ENDTAB
  0
TABLE
  2
BLOCK_RECORD
  5
1
330
0
100
AcDbSymbolTable
 70
     1
  0
BLOCK_RECORD
  5
1F
330
1
100
AcDbSymbolTableRecord
100
AcDbBlockTableRecord
  2
*MODEL_SPACE
  0
BLOCK_RECORD
  5
1B
330
1
100
AcDbSymbolTableRecord
100
AcDbBlockTableRecord
  2
*PAPER_SPACE
  0
ENDTAB
  0
ENDSEC
  0
SECTION
  2
BLOCKS
  0
BLOCK
  5
20
330
1F
100
AcDbEntity
  8
0
100
AcDbBlockBegin
  2
*MODEL_SPACE
 70
     0
 10
0.0
 20
0.0
 30
0.0
  3
*MODEL_SPACE
  1

  0
ENDBLK
  5
21
330
1F
100
AcDbEntity
  8
0
100
AcDbBlockEnd
  0
BLOCK
  5
1C
330
1B
100
AcDbEntity
 67
     1
  8
0
100
AcDbBlockBegin
  2
*PAPER_SPACE
  1

  0
ENDBLK
  5
1D
330
1B
100
AcDbEntity
 67
     1
  8
0
100
AcDbBlockEnd
  0
ENDSEC
  0
SECTION
  2
ENTITIES
  0
SPLINE
  5
100
100
AcDbEntity
  8
0
 62
7
100
AcDbSpline
 70
8
 71
3
 72
8
 73
4
 74
0
 40
0
 40
0
 40
0
 40
0
 40
1
 40
1
 40
1
 40
1
 10
138.228840
 20
1.353328
 30
0.0
 10
135.553720
 20
2.361784
 30
0.0
 10
134.549736
 20
2.389944
 30
0.0
 10
131.066152
 20
1.554240
 30
0.0
  0
SPLINE
  5
101
100
AcDbEntity
  8
0
 62
7
100
AcDbSpline
 70
8
 71
3
 72
8
 73
4
 74
0
 40
0
 40
0
 40
0
 40
0
 40
1
 40
1
 40
1
 40
1
 10
131.066152
 20
1.554240
 30
0.0
 10
124.961200
 20
0.089688
 30
0.0
 10
124.046392
 20
0.491840
 30
0.0
 10
124.302192
 20
4.527768
 30
0.0
  0
SPLINE
  5
102
100
AcDbEntity
  8
0
 62
7
100
AcDbSpline
 70
8
 71
3
 72
8
 73
4
 74
0
 40
0
 40
0
 40
0
 40
0
 40
1
 40
1
 40
1
 40
1
 10
124.302192
 20
4.527768
 30
0.0
 10
124.628904
 20
9.682576
 30
0.0
 10
122.256984
 20
18.709376
 30
0.0
 10
119.823408
 20
21.572624
 30
0.0
  0
SPLINE
  5
103
100
AcDbEntity
  8
0
 62
7
100
AcDbSpline
 70
8
 71
3
 72
8
 73
4
 74
0
 40
0
 40
0
 40
0
 40
0
 40
1
 40
1
 40
1
 40
1
 10
119.823408
 20
21.572624
 30
0.0
 10
116.262576
 20
25.762176
 30
0.0
 10
115.246576
 20
28.393568
 30
0.0
 10
115.755672
 20
32.107848
 30
0.0
  0
SPLINE
  5
104
100
AcDbEntity
  8
0
 62
7
100
AcDbSpline
 70
8
 71
3
 72
8
 73
4
 74
0
 40
0
 40
0
 40
0
 40
0
 40
1
 40
1
 40
1
 40
1
 10
115.755672
 20
32.107848
 30
0.0
 10
116.305472
 20
36.119128
 30
0.0
 10
115.249416
 20
40.533912
 30
0.0
 10
113.323064
 20
42.277248
 30
0.0
  0
SPLINE
  5
105
100
AcDbEntity
  8
0
 62
7
100
AcDbSpline
 70
8
 71
3
 72
8
 73
4
 74
0
 40
0
 40
0
 40
0
 40
0
 40
1
 40
1
 40
1
 40
1
 10
113.323064
 20
42.277248
 30
0.0
 10
112.465536
 20
43.053304
 30
0.0
 10
109.140640
 20
43.960632
 30
0.0
 10
104.725808
 20
44.623376
 30
0.0
  0
SPLINE
  5
106
100
AcDbEntity
  8
0
 62
7
100
AcDbSpline
 70
8
 71
3
 72
8
 73
4
 74
0
 40
0
 40
0
 40
0
 40
0
 40
1
 40
1
 40
1
 40
1
 10
104.725808
 20
44.623376
 30
0.0
 10
96.493600
 20
45.859152
 30
0.0
 10
92.715920
 20
47.218320
 30
0.0
 10
91.325576
 20
49.444624
 30
0.0
  0
SPLINE
  5
107
100
AcDbEntity
  8
0
 62
7
100
AcDbSpline
 70
8
 71
3
 72
8
 73
4
 74
0
 40
0
 40
0
 40
0
 40
0
 40
1
 40
1
 40
1
 40
1
 10
91.325576
 20
49.444624
 30
0.0
 10
90.791328
 20
50.300088
 30
0.0
 10
90.119048
 20
51.000000
 30
0.0
 10
89.831608
 20
51.000000
 30
0.0
  0
SPLINE
  5
108
100
AcDbEntity
  8
0
 62
7
100
AcDbSpline
 70
8
 71
3
 72
8
 73
4
 74
0
 40
0
 40
0
 40
0
 40
0
 40
1
 40
1
 40
1
 40
1
 10
89.831608
 20
51.000000
 30
0.0
 10
89.544160
 20
51.000000
 30
0.0
 10
87.396928
 20
48.721872
 30
0.0
 10
85.059976
 20
45.937504
 30
0.0
  0
SPLINE
  5
109
100
AcDbEntity
  8
0
 62
7
100
AcDbSpline
 70
8
 71
3
 72
8
 73
4
 74
0
 40
0
 40
0
 40
0
 40
0
 40
1
 40
1
 40
1
 40
1
 10
85.059976
 20
45.937504
 30
0.0
 10
78.070884
 20
37.610312
 30
0.0
 10
71.801004
 20
31.446800
 30
0.0
 10
68.720548
 20
29.875264
 30
0.0
  0
SPLINE
  5
10a
100
AcDbEntity
  8
0
 62
7
100
AcDbSpline
 70
8
 71
3
 72
8
 73
4
 74
0
 40
0
 40
0
 40
0
 40
0
 40
1
 40
1
 40
1
 40
1
 10
68.720548
 20
29.875264
 30
0.0
 10
66.102092
 20
28.539432
 30
0.0
 10
64.346100
 20
28.401320
 30
0.0
 10
50.704676
 20
28.458280
 30
0.0
  0
SPLINE
  5
10b
100
AcDbEntity
  8
0
 62
7
100
AcDbSpline
 70
8
 71
3
 72
8
 73
4
 74
0
 40
0
 40
0
 40
0
 40
0
 40
1
 40
1
 40
1
 40
1
 10
33.871852
 20
25.698200
 30
0.0
 10
32.926852
 20
24.145448
 30
0.0
 10
31.323724
 20
21.728224
 30
0.0
 10
30.309356
 20
20.326600
 30
0.0
  0
SPLINE
  5
10c
100
AcDbEntity
  8
0
 62
7
100
AcDbSpline
 70
8
 71
3
 72
8
 73
4
 74
0
 40
0
 40
0
 40
0
 40
0
 40
1
 40
1
 40
1
 40
1
 10
30.309356
 20
20.326600
 30
0.0
 10
28.953820
 20
18.453560
 30
0.0
 10
28.465044
 20
16.813752
 30
0.0
 10
28.465044
 20
14.139096
 30
0.0
  0
SPLINE
  5
10d
100
AcDbEntity
  8
0
 62
7
100
AcDbSpline
 70
8
 71
3
 72
8
 73
4
 74
0
 40
0
 40
0
 40
0
 40
0
 40
1
 40
1
 40
1
 40
1
 10
28.465044
 20
14.139096
 30
0.0
 10
28.465044
 20
9.942248
 30
0.0
 10
27.961772
 20
9.745120
 30
0.0
 10
23.590044
 20
12.229616
 30
0.0
  0
SPLINE
  5
10e
100
AcDbEntity
  8
0
 62
7
100
AcDbSpline
 70
8
 71
3
 72
8
 73
4
 74
0
 40
0
 40
0
 40
0
 40
0
 40
1
 40
1
 40
1
 40
1
 10
23.590044
 20
12.229616
 30
0.0
 10
20.199596
 20
14.156432
 30
0.0
 10
20.497756
 20
11.905760
 30
0.0
 10
21.225684
 20
30.077240
 30
0.0
  0
SPLINE
  5
10f
100
AcDbEntity
  8
0
 62
7
100
AcDbSpline
 70
8
 71
3
 72
8
 73
4
 74
0
 40
0
 40
0
 40
0
 40
0
 40
1
 40
1
 40
1
 40
1
 10
21.225684
 20
30.077240
 30
0.0
 10
21.400892
 20
34.450976
 30
0.0
 10
21.917580
 20
38.727064
 30
0.0
 10
22.373884
 20
39.579672
 30
0.0
  0
SPLINE
  5
110
100
AcDbEntity
  8
0
 62
7
100
AcDbSpline
 70
8
 71
3
 72
8
 73
4
 74
0
 40
0
 40
0
 40
0
 40
0
 40
1
 40
1
 40
1
 40
1
 10
22.373884
 20
39.579672
 30
0.0
 10
22.830188
 20
40.432288
 30
0.0
 10
24.408532
 20
41.527568
 30
0.0
 10
25.881308
 20
42.013624
 30
0.0
  0
SPLINE
  5
111
100
AcDbEntity
  8
0
 62
7
100
AcDbSpline
 70
8
 71
3
 72
8
 73
4
 74
0
 40
0
 40
0
 40
0
 40
0
 40
1
 40
1
 40
1
 40
1
 10
25.881308
 20
42.013624
 30
0.0
 10
28.177548
 20
42.771448
 30
0.0
 10
28.764876
 20
42.711144
 30
0.0
 10
30.003356
 20
41.590336
 30
0.0
  0
SPLINE
  5
112
100
AcDbEntity
  8
0
 62
7
100
AcDbSpline
 70
8
 71
3
 72
8
 73
4
 74
0
 40
0
 40
0
 40
0
 40
0
 40
1
 40
1
 40
1
 40
1
 10
30.003356
 20
41.590336
 30
0.0
 10
31.385732
 20
40.339296
 30
0.0
 10
31.703820
 20
40.400416
 30
0.0
 10
37.427228
 20
43.016656
 30
0.0
  0
SPLINE
  5
113
100
AcDbEntity
  8
0
 62
7
100
AcDbSpline
 70
8
 71
3
 72
8
 73
4
 74
0
 40
0
 40
0
 40
0
 40
0
 40
1
 40
1
 40
1
 40
1
 10
37.427228
 20
43.016656
 30
0.0
 10
42.430244
 20
45.303592
 30
0.0
 10
44.238412
 20
45.750464
 30
0.0
 10
48.498444
 20
45.752816
 30
0.0
  0
SPLINE
  5
114
100
AcDbEntity
  8
0
 62
7
100
AcDbSpline
 70
8
 71
3
 72
8
 73
4
 74
0
 40
0
 40
0
 40
0
 40
0
 40
1
 40
1
 40
1
 40
1
 10
48.498444
 20
45.752816
 30
0.0
 10
55.182580
 20
45.756816
 30
0.0
 10
57.712356
 20
47.282104
 30
0.0
 10
60.577284
 20
53.037128
 30
0.0
  0
SPLINE
  5
115
100
AcDbEntity
  8
0
 62
7
100
AcDbSpline
 70
8
 71
3
 72
8
 73
4
 74
0
 40
0
 40
0
 40
0
 40
0
 40
1
 40
1
 40
1
 40
1
 10
60.577284
 20
53.037128
 30
0.0
 10
61.764988
 20
55.422960
 30
0.0
 10
63.813052
 20
61.718944
 30
0.0
 10
65.128540
 20
67.028216
 30
0.0
  0
SPLINE
  5
116
100
AcDbEntity
  8
0
 62
7
100
AcDbSpline
 70
8
 71
3
 72
8
 73
4
 74
0
 40
0
 40
0
 40
0
 40
0
 40
1
 40
1
 40
1
 40
1
 10
65.128540
 20
67.028216
 30
0.0
 10
66.444028
 20
72.337472
 30
0.0
 10
67.981556
 20
77.573328
 30
0.0
 10
68.545268
 20
78.663432
 30
0.0
  0
SPLINE
  5
117
100
AcDbEntity
  8
0
 62
7
100
AcDbSpline
 70
8
 71
3
 72
8
 73
4
 74
0
 40
0
 40
0
 40
0
 40
0
 40
1
 40
1
 40
1
 40
1
 10
68.545268
 20
78.663432
 30
0.0
 10
69.108988
 20
79.753536
 30
0.0
 10
71.455708
 20
82.428672
 30
0.0
 10
73.760212
 20
84.608176
 30
0.0
  0
SPLINE
  5
118
100
AcDbEntity
  8
0
 62
7
100
AcDbSpline
 70
8
 71
3
 72
8
 73
4
 74
0
 40
0
 40
0
 40
0
 40
0
 40
1
 40
1
 40
1
 40
1
 10
73.760212
 20
84.608176
 30
0.0
 10
79.330684
 20
89.876497
 30
0.0
 10
79.919868
 20
91.045177
 30
0.0
 10
77.982228
 20
92.982817
 30
0.0
  0
SPLINE
  5
119
100
AcDbEntity
  8
0
 62
7
100
AcDbSpline
 70
8
 71
3
 72
8
 73
4
 74
0
 40
0
 40
0
 40
0
 40
0
 40
1
 40
1
 40
1
 40
1
 10
77.982228
 20
92.982817
 30
0.0
 10
77.147772
 20
93.817265
 30
0.0
 10
75.925044
 20
94.500001
 30
0.0
 10
75.265044
 20
94.500001
 30
0.0
  0
SPLINE
  5
11a
100
AcDbEntity
  8
0
 62
7
100
AcDbSpline
 70
8
 71
3
 72
8
 73
4
 74
0
 40
0
 40
0
 40
0
 40
0
 40
1
 40
1
 40
1
 40
1
 10
75.265044
 20
94.500001
 30
0.0
 10
73.944636
 20
94.500001
 30
0.0
 10
69.425036
 20
90.284281
 30
0.0
 10
68.832548
 20
88.500000
 30
0.0
  0
SPLINE
  5
11b
100
AcDbEntity
  8
0
 62
7
100
AcDbSpline
 70
8
 71
3
 72
8
 73
4
 74
0
 40
0
 40
0
 40
0
 40
0
 40
1
 40
1
 40
1
 40
1
 10
68.832548
 20
88.500000
 30
0.0
 10
68.526788
 20
87.579224
 30
0.0
 10
68.249868
 20
87.547536
 30
0.0
 10
67.307068
 20
88.325440
 30
0.0
  0
SPLINE
  5
11c
100
AcDbEntity
  8
0
 62
7
100
AcDbSpline
 70
8
 71
3
 72
8
 73
4
 74
0
 40
0
 40
0
 40
0
 40
0
 40
1
 40
1
 40
1
 40
1
 10
67.307068
 20
88.325440
 30
0.0
 10
66.673524
 20
88.848177
 30
0.0
 10
65.588964
 20
89.058609
 30
0.0
 10
64.896940
 20
88.793057
 30
0.0
  0
SPLINE
  5
11d
100
AcDbEntity
  8
0
 62
7
100
AcDbSpline
 70
8
 71
3
 72
8
 73
4
 74
0
 40
0
 40
0
 40
0
 40
0
 40
1
 40
1
 40
1
 40
1
 10
64.896940
 20
88.793057
 30
0.0
 10
64.123028
 20
88.496080
 30
0.0
 10
62.978588
 20
88.930393
 30
0.0
 10
61.923716
 20
89.921393
 30
0.0
  0
LWPOLYLINE
  5
11e
100
AcDbEntity
  8
0
 62
7
100
AcDbPolyline
 90
3
 70
1
 10
50.704676
 20
28.458280
 30
0.0
 10
35.590044
 20
28.521400
 30
0.0
 10
33.871852
 20
25.698200
 30
0.0
  0
SPLINE
  5
11f
100
AcDbEntity
  8
0
 62
7
100
AcDbSpline
 70
8
 71
3
 72
8
 73
4
 74
0
 40
0
 40
0
 40
0
 40
0
 40
1
 40
1
 40
1
 40
1
 10
58.281084
 20
90.016273
 30
0.0
 10
57.220884
 20
89.182329
 30
0.0
 10
55.968044
 20
88.500000
 30
0.0
 10
55.497004
 20
88.500000
 30
0.0
  0
SPLINE
  5
120
100
AcDbEntity
  8
0
 62
7
100
AcDbSpline
 70
8
 71
3
 72
8
 73
4
 74
0
 40
0
 40
0
 40
0
 40
0
 40
1
 40
1
 40
1
 40
1
 10
55.497004
 20
88.500000
 30
0.0
 10
55.025956
 20
88.500000
 30
0.0
 10
53.584900
 20
87.954104
 30
0.0
 10
52.294660
 20
87.286888
 30
0.0
  0
SPLINE
  5
121
100
AcDbEntity
  8
0
 62
7
100
AcDbSpline
 70
8
 71
3
 72
8
 73
4
 74
0
 40
0
 40
0
 40
0
 40
0
 40
1
 40
1
 40
1
 40
1
 10
52.294660
 20
87.286888
 30
0.0
 10
50.106388
 20
86.155296
 30
0.0
 10
49.883940
 20
86.162440
 30
0.0
 10
48.983956
 20
87.393248
 30
0.0
  0
SPLINE
  5
122
100
AcDbEntity
  8
0
 62
7
100
AcDbSpline
 70
8
 71
3
 72
8
 73
4
 74
0
 40
0
 40
0
 40
0
 40
0
 40
1
 40
1
 40
1
 40
1
 10
48.983956
 20
87.393248
 30
0.0
 10
48.453300
 20
88.118952
 30
0.0
 10
47.895788
 20
89.082761
 30
0.0
 10
47.745028
 20
89.535041
 30
0.0
  0
SPLINE
  5
123
100
AcDbEntity
  8
0
 62
7
100
AcDbSpline
 70
8
 71
3
 72
8
 73
4
 74
0
 40
0
 40
0
 40
0
 40
0
 40
1
 40
1
 40
1
 40
1
 10
47.745028
 20
89.535041
 30
0.0
 10
47.552828
 20
90.111633
 30
0.0
 10
46.836108
 20
90.068113
 30
0.0
 10
45.346524
 20
89.389417
 30
0.0
  0
SPLINE
  5
124
100
AcDbEntity
  8
0
 62
7
100
AcDbSpline
 70
8
 71
3
 72
8
 73
4
 74
0
 40
0
 40
0
 40
0
 40
0
 40
1
 40
1
 40
1
 40
1
 10
45.346524
 20
89.389417
 30
0.0
 10
43.553580
 20
88.572496
 30
0.0
 10
43.046356
 20
88.597256
 30
0.0
 10
42.095516
 20
89.548105
 30
0.0
  0
SPLINE
  5
125
100
AcDbEntity
  8
0
 62
7
100
AcDbSpline
 70
8
 71
3
 72
8
 73
4
 74
0
 40
0
 40
0
 40
0
 40
0
 40
1
 40
1
 40
1
 40
1
 10
42.095516
 20
89.548105
 30
0.0
 10
41.194308
 20
90.449305
 30
0.0
 10
41.153268
 20
90.896873
 30
0.0
 10
41.890396
 20
91.785057
 30
0.0
  0
SPLINE
  5
126
100
AcDbEntity
  8
0
 62
7
100
AcDbSpline
 70
8
 71
3
 72
8
 73
4
 74
0
 40
0
 40
0
 40
0
 40
0
 40
1
 40
1
 40
1
 40
1
 10
41.890396
 20
91.785057
 30
0.0
 10
42.642900
 20
92.691769
 30
0.0
 10
42.527924
 20
93.047361
 30
0.0
 10
41.263468
 20
93.724081
 30
0.0
  0
SPLINE
  5
127
100
AcDbEntity
  8
0
 62
7
100
AcDbSpline
 70
8
 71
3
 72
8
 73
4
 74
0
 40
0
 40
0
 40
0
 40
0
 40
1
 40
1
 40
1
 40
1
 10
41.263468
 20
93.724081
 30
0.0
 10
40.271932
 20
94.254737
 30
0.0
 10
39.715044
 20
95.298745
 30
0.0
 10
39.715044
 20
96.626937
 30
0.0
  0
SPLINE
  5
128
100
AcDbEntity
  8
0
 62
7
100
AcDbSpline
 70
8
 71
3
 72
8
 73
4
 74
0
 40
0
 40
0
 40
0
 40
0
 40
1
 40
1
 40
1
 40
1
 10
39.715044
 20
96.626937
 30
0.0
 10
39.715044
 20
98.342289
 30
0.0
 10
40.298892
 20
98.984761
 30
0.0
 10
43.090044
 20
100.340801
 30
0.0
  0
SPLINE
  5
129
100
AcDbEntity
  8
0
 62
7
100
AcDbSpline
 70
8
 71
3
 72
8
 73
4
 74
0
 40
0
 40
0
 40
0
 40
0
 40
1
 40
1
 40
1
 40
1
 10
43.090044
 20
100.340801
 30
0.0
 10
44.946292
 20
101.242641
 30
0.0
 10
46.465044
 20
102.302473
 30
0.0
 10
46.465044
 20
102.695993
 30
0.0
  0
SPLINE
  5
12a
100
AcDbEntity
  8
0
 62
7
100
AcDbSpline
 70
8
 71
3
 72
8
 73
4
 74
0
 40
0
 40
0
 40
0
 40
0
 40
1
 40
1
 40
1
 40
1
 10
46.465044
 20
102.695993
 30
0.0
 10
46.465044
 20
104.377537
 30
0.0
 10
44.570020
 20
104.277569
 30
0.0
 10
40.323916
 20
102.372033
 30
0.0
  0
SPLINE
  5
12b
100
AcDbEntity
  8
0
 62
7
100
AcDbSpline
 70
8
 71
3
 72
8
 73
4
 74
0
 40
0
 40
0
 40
0
 40
0
 40
1
 40
1
 40
1
 40
1
 10
40.323916
 20
102.372033
 30
0.0
 10
36.549996
 20
100.678401
 30
0.0
 10
35.483244
 20
100.478753
 30
0.0
 10
33.947228
 20
101.178601
 30
0.0
  0
SPLINE
  5
12c
100
AcDbEntity
  8
0
 62
7
100
AcDbSpline
 70
8
 71
3
 72
8
 73
4
 74
0
 40
0
 40
0
 40
0
 40
0
 40
1
 40
1
 40
1
 40
1
 10
33.947228
 20
101.178601
 30
0.0
 10
32.932708
 20
101.640857
 30
0.0
 10
31.790428
 20
101.826105
 30
0.0
 10
31.408836
 20
101.590265
 30
0.0
  0
SPLINE
  5
12d
100
AcDbEntity
  8
0
 62
7
100
AcDbSpline
 70
8
 71
3
 72
8
 73
4
 74
0
 40
0
 40
0
 40
0
 40
0
 40
1
 40
1
 40
1
 40
1
 10
31.408836
 20
101.590265
 30
0.0
 10
31.027252
 20
101.354433
 30
0.0
 10
30.715044
 20
101.856393
 30
0.0
 10
30.715044
 20
102.705737
 30
0.0
  0
SPLINE
  5
12e
100
AcDbEntity
  8
0
 62
7
100
AcDbSpline
 70
8
 71
3
 72
8
 73
4
 74
0
 40
0
 40
0
 40
0
 40
0
 40
1
 40
1
 40
1
 40
1
 10
30.715044
 20
102.705737
 30
0.0
 10
30.715044
 20
104.530305
 30
0.0
 10
30.627452
 20
104.545089
 30
0.0
 10
27.503452
 20
103.247785
 30
0.0
  0
SPLINE
  5
12f
100
AcDbEntity
  8
0
 62
7
100
AcDbSpline
 70
8
 71
3
 72
8
 73
4
 74
0
 40
0
 40
0
 40
0
 40
0
 40
1
 40
1
 40
1
 40
1
 10
27.503452
 20
103.247785
 30
0.0
 10
21.918916
 20
100.928689
 30
0.0
 10
21.091196
 20
100.996249
 30
0.0
 10
19.890828
 20
103.869129
 30
0.0
  0
SPLINE
  5
130
100
AcDbEntity
  8
0
 62
7
100
AcDbSpline
 70
8
 71
3
 72
8
 73
4
 74
0
 40
0
 40
0
 40
0
 40
0
 40
1
 40
1
 40
1
 40
1
 10
19.890828
 20
103.869129
 30
0.0
 10
19.189692
 20
105.547193
 30
0.0
 10
18.022660
 20
106.780993
 30
0.0
 10
16.688820
 20
107.254321
 30
0.0
  0
SPLINE
  5
131
100
AcDbEntity
  8
0
 62
7
100
AcDbSpline
 70
8
 71
3
 72
8
 73
4
 74
0
 40
0
 40
0
 40
0
 40
0
 40
1
 40
1
 40
1
 40
1
 10
16.688820
 20
107.254321
 30
0.0
 10
11.784164
 20
108.994809
 30
0.0
 10
10.984908
 20
110.312649
 30
0.0
 10
14.000628
 20
111.686705
 30
0.0
  0
SPLINE
  5
132
100
AcDbEntity
  8
0
 62
7
100
AcDbSpline
 70
8
 71
3
 72
8
 73
4
 74
0
 40
0
 40
0
 40
0
 40
0
 40
1
 40
1
 40
1
 40
1
 10
14.000628
 20
111.686705
 30
0.0
 10
15.972052
 20
112.584945
 30
0.0
 10
16.005468
 20
112.682761
 30
0.0
 10
14.673604
 20
113.656641
 30
0.0
  0
SPLINE
  5
133
100
AcDbEntity
  8
0
 62
7
100
AcDbSpline
 70
8
 71
3
 72
8
 73
4
 74
0
 40
0
 40
0
 40
0
 40
0
 40
1
 40
1
 40
1
 40
1
 10
14.673604
 20
113.656641
 30
0.0
 10
13.798692
 20
114.296393
 30
0.0
 10
13.418500
 20
115.241017
 30
0.0
 10
13.661668
 20
116.170897
 30
0.0
  0
SPLINE
  5
134
100
AcDbEntity
  8
0
 62
7
100
AcDbSpline
 70
8
 71
3
 72
8
 73
4
 74
0
 40
0
 40
0
 40
0
 40
0
 40
1
 40
1
 40
1
 40
1
 10
13.661668
 20
116.170897
 30
0.0
 10
13.958620
 20
117.306433
 30
0.0
 10
13.535972
 20
117.839985
 30
0.0
 10
11.883108
 20
118.416177
 30
0.0
  0
SPLINE
  5
135
100
AcDbEntity
  8
0
 62
7
100
AcDbSpline
 70
8
 71
3
 72
8
 73
4
 74
0
 40
0
 40
0
 40
0
 40
0
 40
1
 40
1
 40
1
 40
1
 10
11.883108
 20
118.416177
 30
0.0
 10
9.942788
 20
119.092577
 30
0.0
 10
9.561444
 20
119.602321
 30
0.0
 10
9.779100
 20
121.228648
 30
0.0
  0
SPLINE
  5
136
100
AcDbEntity
  8
0
 62
7
100
AcDbSpline
 70
8
 71
3
 72
8
 73
4
 74
0
 40
0
 40
0
 40
0
 40
0
 40
1
 40
1
 40
1
 40
1
 10
9.779100
 20
121.228648
 30
0.0
 10
9.891100
 20
122.065523
 30
0.0
 10
7.905828
 20
122.976632
 30
0.0
 10
5.944420
 20
122.988515
 30
0.0
  0
SPLINE
  5
137
100
AcDbEntity
  8
0
 62
7
100
AcDbSpline
 70
8
 71
3
 72
8
 73
4
 74
0
 40
0
 40
0
 40
0
 40
0
 40
1
 40
1
 40
1
 40
1
 10
5.944420
 20
122.988515
 30
0.0
 10
3.715964
 20
123.002011
 30
0.0
 10
0.499620
 20
125.044670
 30
0.0
 10
1.121756
 20
126.051317
 30
0.0
  0
SPLINE
  5
138
100
AcDbEntity
  8
0
 62
7
100
AcDbSpline
 70
8
 71
3
 72
8
 73
4
 74
0
 40
0
 40
0
 40
0
 40
0
 40
1
 40
1
 40
1
 40
1
 10
1.121756
 20
126.051317
 30
0.0
 10
1.359252
 20
126.435593
 30
0.0
 10
2.518548
 20
126.750000
 30
0.0
 10
3.697964
 20
126.750000
 30
0.0
  0
SPLINE
  5
139
100
AcDbEntity
  8
0
 62
7
100
AcDbSpline
 70
8
 71
3
 72
8
 73
4
 74
0
 40
0
 40
0
 40
0
 40
0
 40
1
 40
1
 40
1
 40
1
 10
3.697964
 20
126.750000
 30
0.0
 10
8.293996
 20
126.750000
 30
0.0
 10
9.450340
 20
128.399586
 30
0.0
 10
6.638260
 20
130.944489
 30
0.0
  0
SPLINE
  5
13a
100
AcDbEntity
  8
0
 62
7
100
AcDbSpline
 70
8
 71
3
 72
8
 73
4
 74
0
 40
0
 40
0
 40
0
 40
0
 40
1
 40
1
 40
1
 40
1
 10
6.638260
 20
130.944489
 30
0.0
 10
5.201380
 20
132.244845
 30
0.0
 10
2.965044
 20
135.832802
 30
0.0
 10
2.965044
 20
136.837755
 30
0.0
  0
SPLINE
  5
13b
100
AcDbEntity
  8
0
 62
7
100
AcDbSpline
 70
8
 71
3
 72
8
 73
4
 74
0
 40
0
 40
0
 40
0
 40
0
 40
1
 40
1
 40
1
 40
1
 10
2.965044
 20
136.837755
 30
0.0
 10
2.965044
 20
137.807933
 30
0.0
 10
5.696204
 20
137.102572
 30
0.0
 10
9.622260
 20
135.118434
 30
0.0
  0
SPLINE
  5
13c
100
AcDbEntity
  8
0
 62
7
100
AcDbSpline
 70
8
 71
3
 72
8
 73
4
 74
0
 40
0
 40
0
 40
0
 40
0
 40
1
 40
1
 40
1
 40
1
 10
9.622260
 20
135.118434
 30
0.0
 10
11.942044
 20
133.946074
 30
0.0
 10
14.780812
 20
132.755220
 30
0.0
 10
15.930644
 20
132.472093
 30
0.0
  0
SPLINE
  5
13d
100
AcDbEntity
  8
0
 62
7
100
AcDbSpline
 70
8
 71
3
 72
8
 73
4
 74
0
 40
0
 40
0
 40
0
 40
0
 40
1
 40
1
 40
1
 40
1
 10
15.930644
 20
132.472093
 30
0.0
 10
18.591068
 20
131.817006
 30
0.0
 10
23.354564
 20
133.082316
 30
0.0
 10
24.976948
 20
134.875031
 30
0.0
  0
SPLINE
  5
13e
100
AcDbEntity
  8
0
 62
7
100
AcDbSpline
 70
8
 71
3
 72
8
 73
4
 74
0
 40
0
 40
0
 40
0
 40
0
 40
1
 40
1
 40
1
 40
1
 10
24.976948
 20
134.875031
 30
0.0
 10
26.152764
 20
136.174292
 30
0.0
 10
26.093788
 20
136.453064
 30
0.0
 10
23.984700
 20
139.565694
 30
0.0
  0
SPLINE
  5
13f
100
AcDbEntity
  8
0
 62
7
100
AcDbSpline
 70
8
 71
3
 72
8
 73
4
 74
0
 40
0
 40
0
 40
0
 40
0
 40
1
 40
1
 40
1
 40
1
 10
23.984700
 20
139.565694
 30
0.0
 10
22.751396
 20
141.385812
 30
0.0
 10
21.736196
 20
143.128125
 30
0.0
 10
21.728692
 20
143.437500
 30
0.0
  0
SPLINE
  5
140
100
AcDbEntity
  8
0
 62
7
100
AcDbSpline
 70
8
 71
3
 72
8
 73
4
 74
0
 40
0
 40
0
 40
0
 40
0
 40
1
 40
1
 40
1
 40
1
 10
21.728692
 20
143.437500
 30
0.0
 10
21.721492
 20
143.746875
 30
0.0
 10
22.932404
 20
144.000000
 30
0.0
 10
24.420284
 20
144.000000
 30
0.0
  0
SPLINE
  5
141
100
AcDbEntity
  8
0
 62
7
100
AcDbSpline
 70
8
 71
3
 72
8
 73
4
 74
0
 40
0
 40
0
 40
0
 40
0
 40
1
 40
1
 40
1
 40
1
 10
24.420284
 20
144.000000
 30
0.0
 10
26.701116
 20
144.000000
 30
0.0
 10
27.041340
 20
144.205910
 30
0.0
 10
26.588948
 20
145.312500
 30
0.0
  0
SPLINE
  5
142
100
AcDbEntity
  8
0
 62
7
100
AcDbSpline
 70
8
 71
3
 72
8
 73
4
 74
0
 40
0
 40
0
 40
0
 40
0
 40
1
 40
1
 40
1
 40
1
 10
26.588948
 20
145.312500
 30
0.0
 10
23.709700
 20
152.355269
 30
0.0
 10
24.703724
 20
154.410519
 30
0.0
 10
29.148940
 20
150.605578
 30
0.0
  0
SPLINE
  5
143
100
AcDbEntity
  8
0
 62
7
100
AcDbSpline
 70
8
 71
3
 72
8
 73
4
 74
0
 40
0
 40
0
 40
0
 40
0
 40
1
 40
1
 40
1
 40
1
 10
29.148940
 20
150.605578
 30
0.0
 10
33.823060
 20
146.604702
 30
0.0
 10
40.073084
 20
143.894945
 30
0.0
 10
46.979740
 20
142.874862
 30
0.0
  0
SPLINE
  5
144
100
AcDbEntity
  8
0
 62
7
100
AcDbSpline
 70
8
 71
3
 72
8
 73
4
 74
0
 40
0
 40
0
 40
0
 40
0
 40
1
 40
1
 40
1
 40
1
 10
46.979740
 20
142.874862
 30
0.0
 10
55.443676
 20
141.624776
 30
0.0
 10
58.275556
 20
139.566406
 30
0.0
 10
63.489004
 20
130.875000
 30
0.0
  0
SPLINE
  5
145
100
AcDbEntity
  8
0
 62
7
100
AcDbSpline
 70
8
 71
3
 72
8
 73
4
 74
0
 40
0
 40
0
 40
0
 40
0
 40
1
 40
1
 40
1
 40
1
 10
63.489004
 20
130.875000
 30
0.0
 10
66.612196
 20
125.668290
 30
0.0
 10
70.714020
 20
121.086246
 30
0.0
 10
73.615300
 20
119.563185
 30
0.0
  0
SPLINE
  5
146
100
AcDbEntity
  8
0
 62
7
100
AcDbSpline
 70
8
 71
3
 72
8
 73
4
 74
0
 40
0
 40
0
 40
0
 40
0
 40
1
 40
1
 40
1
 40
1
 10
73.615300
 20
119.563185
 30
0.0
 10
76.820860
 20
117.880385
 30
0.0
 10
81.407192
 20
118.181921
 30
0.0
 10
82.797520
 20
120.166881
 30
0.0
  0
SPLINE
  5
147
100
AcDbEntity
  8
0
 62
7
100
AcDbSpline
 70
8
 71
3
 72
8
 73
4
 74
0
 40
0
 40
0
 40
0
 40
0
 40
1
 40
1
 40
1
 40
1
 10
82.797520
 20
120.166881
 30
0.0
 10
84.341320
 20
122.370964
 30
0.0
 10
84.278208
 20
124.451722
 30
0.0
 10
82.652552
 20
124.946723
 30
0.0
  0
SPLINE
  5
148
100
AcDbEntity
  8
0
 62
7
100
AcDbSpline
 70
8
 71
3
 72
8
 73
4
 74
0
 40
0
 40
0
 40
0
 40
0
 40
1
 40
1
 40
1
 40
1
 10
82.652552
 20
124.946723
 30
0.0
 10
81.930672
 20
125.166529
 30
0.0
 10
79.577396
 20
126.160246
 30
0.0
 10
77.423036
 20
127.154983
 30
0.0
  0
SPLINE
  5
149
100
AcDbEntity
  8
0
 62
7
100
AcDbSpline
 70
8
 71
3
 72
8
 73
4
 74
0
 40
0
 40
0
 40
0
 40
0
 40
1
 40
1
 40
1
 40
1
 10
77.423036
 20
127.154983
 30
0.0
 10
73.007772
 20
129.193662
 30
0.0
 10
69.012028
 20
133.957521
 30
0.0
 10
67.113700
 20
139.446104
 30
0.0
  0
SPLINE
  5
14a
100
AcDbEntity
  8
0
 62
7
100
AcDbSpline
 70
8
 71
3
 72
8
 73
4
 74
0
 40
0
 40
0
 40
0
 40
0
 40
1
 40
1
 40
1
 40
1
 10
67.113700
 20
139.446104
 30
0.0
 10
65.253708
 20
144.823875
 30
0.0
 10
65.600588
 20
147.228418
 30
0.0
 10
68.777540
 20
150.979794
 30
0.0
  0
SPLINE
  5
14b
100
AcDbEntity
  8
0
 62
7
100
AcDbSpline
 70
8
 71
3
 72
8
 73
4
 74
0
 40
0
 40
0
 40
0
 40
0
 40
1
 40
1
 40
1
 40
1
 10
68.777540
 20
150.979794
 30
0.0
 10
70.324420
 20
152.806357
 30
0.0
 10
72.160924
 20
155.351090
 30
0.0
 10
72.858676
 20
156.634756
 30
0.0
  0
SPLINE
  5
14c
100
AcDbEntity
  8
0
 62
7
100
AcDbSpline
 70
8
 71
3
 72
8
 73
4
 74
0
 40
0
 40
0
 40
0
 40
0
 40
1
 40
1
 40
1
 40
1
 10
72.858676
 20
156.634756
 30
0.0
 10
74.533436
 20
159.715857
 30
0.0
 10
78.402460
 20
161.993723
 30
0.0
 10
81.966952
 20
161.997196
 30
0.0
  0
SPLINE
  5
14d
100
AcDbEntity
  8
0
 62
7
100
AcDbSpline
 70
8
 71
3
 72
8
 73
4
 74
0
 40
0
 40
0
 40
0
 40
0
 40
1
 40
1
 40
1
 40
1
 10
81.966952
 20
161.997196
 30
0.0
 10
83.549240
 20
161.998716
 30
0.0
 10
87.033864
 20
162.583555
 30
0.0
 10
89.710536
 20
163.296789
 30
0.0
  0
LWPOLYLINE
  5
14e
100
AcDbEntity
  8
0
 62
7
100
AcDbPolyline
 90
3
 70
1
 10
61.923716
 20
89.921393
 30
0.0
 10
60.208716
 20
91.532553
 30
0.0
 10
58.281084
 20
90.016273
 30
0.0
  0
SPLINE
  5
14f
100
AcDbEntity
  8
0
 62
7
100
AcDbSpline
 70
8
 71
3
 72
8
 73
4
 74
0
 40
0
 40
0
 40
0
 40
0
 40
1
 40
1
 40
1
 40
1
 10
97.846472
 20
160.859289
 30
0.0
 10
99.644552
 20
158.805430
 30
0.0
 10
101.687352
 20
155.606250
 30
0.0
 10
102.386024
 20
153.750000
 30
0.0
  0
SPLINE
  5
150
100
AcDbEntity
  8
0
 62
7
100
AcDbSpline
 70
8
 71
3
 72
8
 73
4
 74
0
 40
0
 40
0
 40
0
 40
0
 40
1
 40
1
 40
1
 40
1
 10
102.386024
 20
153.750000
 30
0.0
 10
103.084704
 20
151.893750
 30
0.0
 10
104.806272
 20
149.167518
 30
0.0
 10
106.211736
 20
147.691708
 30
0.0
  0
SPLINE
  5
151
100
AcDbEntity
  8
0
 62
7
100
AcDbSpline
 70
8
 71
3
 72
8
 73
4
 74
0
 40
0
 40
0
 40
0
 40
0
 40
1
 40
1
 40
1
 40
1
 10
106.211736
 20
147.691708
 30
0.0
 10
107.825752
 20
145.996912
 30
0.0
 10
108.599408
 20
144.571315
 30
0.0
 10
108.311824
 20
143.821901
 30
0.0
  0
SPLINE
  5
152
100
AcDbEntity
  8
0
 62
7
100
AcDbSpline
 70
8
 71
3
 72
8
 73
4
 74
0
 40
0
 40
0
 40
0
 40
0
 40
1
 40
1
 40
1
 40
1
 10
108.311824
 20
143.821901
 30
0.0
 10
108.061408
 20
143.169318
 30
0.0
 10
108.387184
 20
141.609184
 30
0.0
 10
109.035784
 20
140.354938
 30
0.0
  0
SPLINE
  5
153
100
AcDbEntity
  8
0
 62
7
100
AcDbSpline
 70
8
 71
3
 72
8
 73
4
 74
0
 40
0
 40
0
 40
0
 40
0
 40
1
 40
1
 40
1
 40
1
 10
109.035784
 20
140.354938
 30
0.0
 10
110.810296
 20
136.923414
 30
0.0
 10
110.504992
 20
135.928402
 30
0.0
 10
107.152832
 20
134.218262
 30
0.0
  0
SPLINE
  5
154
100
AcDbEntity
  8
0
 62
7
100
AcDbSpline
 70
8
 71
3
 72
8
 73
4
 74
0
 40
0
 40
0
 40
0
 40
0
 40
1
 40
1
 40
1
 40
1
 10
107.152832
 20
134.218262
 30
0.0
 10
105.024728
 20
133.132581
 30
0.0
 10
104.223984
 20
132.308485
 30
0.0
 10
104.527832
 20
131.516678
 30
0.0
  0
SPLINE
  5
155
100
AcDbEntity
  8
0
 62
7
100
AcDbSpline
 70
8
 71
3
 72
8
 73
4
 74
0
 40
0
 40
0
 40
0
 40
0
 40
1
 40
1
 40
1
 40
1
 10
104.527832
 20
131.516678
 30
0.0
 10
104.768304
 20
130.890030
 30
0.0
 10
104.965048
 20
130.236172
 30
0.0
 10
104.965048
 20
130.063660
 30
0.0
  0
SPLINE
  5
156
100
AcDbEntity
  8
0
 62
7
100
AcDbSpline
 70
8
 71
3
 72
8
 73
4
 74
0
 40
0
 40
0
 40
0
 40
0
 40
1
 40
1
 40
1
 40
1
 10
104.965048
 20
130.063660
 30
0.0
 10
104.965048
 20
129.254354
 30
0.0
 10
107.439376
 20
129.945788
 30
0.0
 10
112.091136
 20
132.054997
 30
0.0
  0
SPLINE
  5
157
100
AcDbEntity
  8
0
 62
7
100
AcDbSpline
 70
8
 71
3
 72
8
 73
4
 74
0
 40
0
 40
0
 40
0
 40
0
 40
1
 40
1
 40
1
 40
1
 10
112.091136
 20
132.054997
 30
0.0
 10
115.259192
 20
133.491460
 30
0.0
 10
117.816648
 20
134.198874
 30
0.0
 10
118.878376
 20
133.932398
 30
0.0
  0
SPLINE
  5
158
100
AcDbEntity
  8
0
 62
7
100
AcDbSpline
 70
8
 71
3
 72
8
 73
4
 74
0
 40
0
 40
0
 40
0
 40
0
 40
1
 40
1
 40
1
 40
1
 10
118.878376
 20
133.932398
 30
0.0
 10
120.141208
 20
133.615446
 30
0.0
 10
124.626176
 20
135.791450
 30
0.0
 10
136.211048
 20
142.341807
 30
0.0
  0
SPLINE
  5
159
100
AcDbEntity
  8
0
 62
7
100
AcDbSpline
 70
8
 71
3
 72
8
 73
4
 74
0
 40
0
 40
0
 40
0
 40
0
 40
1
 40
1
 40
1
 40
1
 10
136.211048
 20
142.341807
 30
0.0
 10
149.284704
 20
149.733960
 30
0.0
 10
151.840048
 20
151.454116
 30
0.0
 10
151.840048
 20
152.862635
 30
0.0
  0
SPLINE
  5
15a
100
AcDbEntity
  8
0
 62
7
100
AcDbSpline
 70
8
 71
3
 72
8
 73
4
 74
0
 40
0
 40
0
 40
0
 40
0
 40
1
 40
1
 40
1
 40
1
 10
151.840048
 20
152.862635
 30
0.0
 10
151.840048
 20
154.968567
 30
0.0
 10
153.540984
 20
156.121419
 30
0.0
 10
155.158080
 20
155.111522
 30
0.0
  0
SPLINE
  5
15b
100
AcDbEntity
  8
0
 62
7
100
AcDbSpline
 70
8
 71
3
 72
8
 73
4
 74
0
 40
0
 40
0
 40
0
 40
0
 40
1
 40
1
 40
1
 40
1
 10
155.158080
 20
155.111522
 30
0.0
 10
156.062616
 20
154.546631
 30
0.0
 10
157.415536
 20
154.981556
 30
0.0
 10
160.621496
 20
156.867852
 30
0.0
  0
SPLINE
  5
15c
100
AcDbEntity
  8
0
 62
7
100
AcDbSpline
 70
8
 71
3
 72
8
 73
4
 74
0
 40
0
 40
0
 40
0
 40
0
 40
1
 40
1
 40
1
 40
1
 10
160.621496
 20
156.867852
 30
0.0
 10
164.144888
 20
158.940914
 30
0.0
 10
164.813864
 20
159.654930
 30
0.0
 10
164.485296
 20
160.991787
 30
0.0
  0
SPLINE
  5
15d
100
AcDbEntity
  8
0
 62
7
100
AcDbSpline
 70
8
 71
3
 72
8
 73
4
 74
0
 40
0
 40
0
 40
0
 40
0
 40
1
 40
1
 40
1
 40
1
 10
164.485296
 20
160.991787
 30
0.0
 10
163.936192
 20
163.225978
 30
0.0
 10
166.329968
 20
163.865458
 30
0.0
 10
170.878536
 20
162.699694
 30
0.0
  0
SPLINE
  5
15e
100
AcDbEntity
  8
0
 62
7
100
AcDbSpline
 70
8
 71
3
 72
8
 73
4
 74
0
 40
0
 40
0
 40
0
 40
0
 40
1
 40
1
 40
1
 40
1
 10
170.878536
 20
162.699694
 30
0.0
 10
175.097216
 20
161.618477
 30
0.0
 10
177.232928
 20
162.023057
 30
0.0
 10
180.759600
 20
164.571522
 30
0.0
  0
SPLINE
  5
15f
100
AcDbEntity
  8
0
 62
7
100
AcDbSpline
 70
8
 71
3
 72
8
 73
4
 74
0
 40
0
 40
0
 40
0
 40
0
 40
1
 40
1
 40
1
 40
1
 10
180.759600
 20
164.571522
 30
0.0
 10
185.708312
 20
168.147592
 30
0.0
 10
187.270504
 20
168.838748
 30
0.0
 10
187.725384
 20
167.653368
 30
0.0
  0
SPLINE
  5
160
100
AcDbEntity
  8
0
 62
7
100
AcDbSpline
 70
8
 71
3
 72
8
 73
4
 74
0
 40
0
 40
0
 40
0
 40
0
 40
1
 40
1
 40
1
 40
1
 10
187.725384
 20
167.653368
 30
0.0
 10
187.990152
 20
166.963388
 30
0.0
 10
186.903896
 20
165.876848
 30
0.0
 10
184.611008
 20
164.538160
 30
0.0
  0
SPLINE
  5
161
100
AcDbEntity
  8
0
 62
7
100
AcDbSpline
 70
8
 71
3
 72
8
 73
4
 74
0
 40
0
 40
0
 40
0
 40
0
 40
1
 40
1
 40
1
 40
1
 10
184.611008
 20
164.538160
 30
0.0
 10
180.744024
 20
162.280456
 30
0.0
 10
174.747008
 20
156.840397
 30
0.0
 10
174.727440
 20
155.572499
 30
0.0
  0
SPLINE
  5
162
100
AcDbEntity
  8
0
 62
7
100
AcDbSpline
 70
8
 71
3
 72
8
 73
4
 74
0
 40
0
 40
0
 40
0
 40
0
 40
1
 40
1
 40
1
 40
1
 10
174.727440
 20
155.572499
 30
0.0
 10
174.694080
 20
153.411009
 30
0.0
 10
169.258248
 20
148.681493
 30
0.0
 10
163.706072
 20
145.983193
 30
0.0
  0
LWPOLYLINE
  5
163
100
AcDbEntity
  8
0
 62
7
100
AcDbPolyline
 90
3
 70
1
 10
89.710536
 20
163.296789
 30
0.0
 10
94.577224
 20
164.593578
 30
0.0
 10
97.846472
 20
160.859289
 30
0.0
  0
SPLINE
  5
164
100
AcDbEntity
  8
0
 62
7
100
AcDbSpline
 70
8
 71
3
 72
8
 73
4
 74
0
 40
0
 40
0
 40
0
 40
0
 40
1
 40
1
 40
1
 40
1
 10
157.797888
 20
139.608193
 30
0.0
 10
157.839888
 20
136.138049
 30
0.0
 10
157.825408
 20
136.117976
 30
0.0
 10
153.936600
 20
134.250000
 30
0.0
  0
SPLINE
  5
165
100
AcDbEntity
  8
0
 62
7
100
AcDbSpline
 70
8
 71
3
 72
8
 73
4
 74
0
 40
0
 40
0
 40
0
 40
0
 40
1
 40
1
 40
1
 40
1
 10
153.936600
 20
134.250000
 30
0.0
 10
151.789704
 20
133.218750
 30
0.0
 10
150.017824
 20
132.139903
 30
0.0
 10
149.999096
 20
131.852563
 30
0.0
  0
SPLINE
  5
166
100
AcDbEntity
  8
0
 62
7
100
AcDbSpline
 70
8
 71
3
 72
8
 73
4
 74
0
 40
0
 40
0
 40
0
 40
0
 40
1
 40
1
 40
1
 40
1
 10
149.999096
 20
131.852563
 30
0.0
 10
149.941896
 20
130.974442
 30
0.0
 10
161.113136
 20
112.768257
 30
0.0
 10
162.327656
 20
111.760289
 30
0.0
  0
SPLINE
  5
167
100
AcDbEntity
  8
0
 62
7
100
AcDbSpline
 70
8
 71
3
 72
8
 73
4
 74
0
 40
0
 40
0
 40
0
 40
0
 40
1
 40
1
 40
1
 40
1
 10
162.327656
 20
111.760289
 30
0.0
 10
164.053136
 20
110.328265
 30
0.0
 10
163.734144
 20
109.667761
 30
0.0
 10
160.526800
 20
108.031497
 30
0.0
  0
LWPOLYLINE
  5
168
100
AcDbEntity
  8
0
 62
7
100
AcDbPolyline
 90
3
 70
1
 10
163.706072
 20
145.983193
 30
0.0
 10
157.755728
 20
143.091386
 30
0.0
 10
157.797888
 20
139.608193
 30
0.0
  0
SPLINE
  5
169
100
AcDbEntity
  8
0
 62
7
100
AcDbSpline
 70
8
 71
3
 72
8
 73
4
 74
0
 40
0
 40
0
 40
0
 40
0
 40
1
 40
1
 40
1
 40
1
 10
155.658744
 20
109.825457
 30
0.0
 10
152.178512
 20
115.763993
 30
0.0
 10
150.089264
 20
117.750001
 30
0.0
 10
147.322208
 20
117.750001
 30
0.0
  0
SPLINE
  5
16a
100
AcDbEntity
  8
0
 62
7
100
AcDbSpline
 70
8
 71
3
 72
8
 73
4
 74
0
 40
0
 40
0
 40
0
 40
0
 40
1
 40
1
 40
1
 40
1
 10
147.322208
 20
117.750001
 30
0.0
 10
142.231776
 20
117.750001
 30
0.0
 10
138.715048
 20
115.293713
 30
0.0
 10
138.715048
 20
111.738249
 30
0.0
  0
SPLINE
  5
16b
100
AcDbEntity
  8
0
 62
7
100
AcDbSpline
 70
8
 71
3
 72
8
 73
4
 74
0
 40
0
 40
0
 40
0
 40
0
 40
1
 40
1
 40
1
 40
1
 10
138.715048
 20
111.738249
 30
0.0
 10
138.715048
 20
108.507265
 30
0.0
 10
136.174424
 20
106.392321
 30
0.0
 10
127.465048
 20
102.373217
 30
0.0
  0
SPLINE
  5
16c
100
AcDbEntity
  8
0
 62
7
100
AcDbSpline
 70
8
 71
3
 72
8
 73
4
 74
0
 40
0
 40
0
 40
0
 40
0
 40
1
 40
1
 40
1
 40
1
 10
127.465048
 20
102.373217
 30
0.0
 10
123.133800
 20
100.374473
 30
0.0
 10
119.043776
 20
98.279417
 30
0.0
 10
118.376112
 20
97.717529
 30
0.0
  0
SPLINE
  5
16d
100
AcDbEntity
  8
0
 62
7
100
AcDbSpline
 70
8
 71
3
 72
8
 73
4
 74
0
 40
0
 40
0
 40
0
 40
0
 40
1
 40
1
 40
1
 40
1
 10
118.376112
 20
97.717529
 30
0.0
 10
115.797848
 20
95.547737
 30
0.0
 10
112.353776
 20
86.414040
 30
0.0
 10
111.713616
 20
80.048544
 30
0.0
  0
SPLINE
  5
16e
100
AcDbEntity
  8
0
 62
7
100
AcDbSpline
 70
8
 71
3
 72
8
 73
4
 74
0
 40
0
 40
0
 40
0
 40
0
 40
1
 40
1
 40
1
 40
1
 10
111.713616
 20
80.048544
 30
0.0
 10
111.372144
 20
76.653088
 30
0.0
 10
110.751560
 20
72.783280
 30
0.0
 10
110.334536
 20
71.448952
 30
0.0
  0
SPLINE
  5
16f
100
AcDbEntity
  8
0
 62
7
100
AcDbSpline
 70
8
 71
3
 72
8
 73
4
 74
0
 40
0
 40
0
 40
0
 40
0
 40
1
 40
1
 40
1
 40
1
 10
110.334536
 20
71.448952
 30
0.0
 10
109.469520
 20
68.681168
 30
0.0
 10
109.916392
 20
68.253648
 30
0.0
 10
117.989896
 20
64.125000
 30
0.0
  0
SPLINE
  5
170
100
AcDbEntity
  8
0
 62
7
100
AcDbSpline
 70
8
 71
3
 72
8
 73
4
 74
0
 40
0
 40
0
 40
0
 40
0
 40
1
 40
1
 40
1
 40
1
 10
117.989896
 20
64.125000
 30
0.0
 10
126.834400
 20
59.602080
 30
0.0
 10
131.948832
 20
53.481160
 30
0.0
 10
133.343416
 20
45.750000
 30
0.0
  0
SPLINE
  5
171
100
AcDbEntity
  8
0
 62
7
100
AcDbSpline
 70
8
 71
3
 72
8
 73
4
 74
0
 40
0
 40
0
 40
0
 40
0
 40
1
 40
1
 40
1
 40
1
 10
133.343416
 20
45.750000
 30
0.0
 10
133.752656
 20
43.481248
 30
0.0
 10
134.129720
 20
35.910016
 30
0.0
 10
134.181320
 20
28.925032
 30
0.0
  0
SPLINE
  5
172
100
AcDbEntity
  8
0
 62
7
100
AcDbSpline
 70
8
 71
3
 72
8
 73
4
 74
0
 40
0
 40
0
 40
0
 40
0
 40
1
 40
1
 40
1
 40
1
 10
134.181320
 20
28.925032
 30
0.0
 10
134.289000
 20
14.349168
 30
0.0
 10
134.851608
 20
12.337224
 30
0.0
 10
139.719392
 20
9.120568
 30
0.0
  0
SPLINE
  5
173
100
AcDbEntity
  8
0
 62
7
100
AcDbSpline
 70
8
 71
3
 72
8
 73
4
 74
0
 40
0
 40
0
 40
0
 40
0
 40
1
 40
1
 40
1
 40
1
 10
139.719392
 20
9.120568
 30
0.0
 10
142.239976
 20
7.454960
 30
0.0
 10
143.615720
 20
7.115376
 30
0.0
 10
148.039680
 20
7.066792
 30
0.0
  0
SPLINE
  5
174
100
AcDbEntity
  8
0
 62
7
100
AcDbSpline
 70
8
 71
3
 72
8
 73
4
 74
0
 40
0
 40
0
 40
0
 40
0
 40
1
 40
1
 40
1
 40
1
 10
148.039680
 20
7.066792
 30
0.0
 10
154.775864
 20
6.992872
 30
0.0
 10
154.666520
 20
7.027832
 30
0.0
 10
153.714504
 20
5.248984
 30
0.0
  0
SPLINE
  5
175
100
AcDbEntity
  8
0
 62
7
100
AcDbSpline
 70
8
 71
3
 72
8
 73
4
 74
0
 40
0
 40
0
 40
0
 40
0
 40
1
 40
1
 40
1
 40
1
 10
153.714504
 20
5.248984
 30
0.0
 10
152.658408
 20
3.275656
 30
0.0
 10
146.077912
 20
-0.024336
 30
0.0
 10
143.427480
 20
0.090240
 30
0.0
  0
SPLINE
  5
176
100
AcDbEntity
  8
0
 62
7
100
AcDbSpline
 70
8
 71
3
 72
8
 73
4
 74
0
 40
0
 40
0
 40
0
 40
0
 40
1
 40
1
 40
1
 40
1
 10
143.427480
 20
0.090240
 30
0.0
 10
142.279392
 20
0.139920
 30
0.0
 10
139.940008
 20
0.708264
 30
0.0
 10
138.228848
 20
1.353328
 30
0.0
  0
LWPOLYLINE
  5
177
100
AcDbEntity
  8
0
 62
7
100
AcDbPolyline
 90
3
 70
1
 10
160.526800
 20
108.031497
 30
0.0
 10
157.588536
 20
106.532513
 30
0.0
 10
155.658744
 20
109.825457
 30
0.0
  0
SPLINE
  5
178
100
AcDbEntity
  8
0
 62
7
100
AcDbSpline
 70
8
 71
3
 72
8
 73
4
 74
0
 40
0
 40
0
 40
0
 40
0
 40
1
 40
1
 40
1
 40
1
 10
125.839912
 20
112.157321
 30
0.0
 10
129.063008
 20
113.114481
 30
0.0
 10
130.074760
 20
113.860345
 30
0.0
 10
131.689776
 20
116.469825
 30
0.0
  0
SPLINE
  5
179
100
AcDbEntity
  8
0
 62
7
100
AcDbSpline
 70
8
 71
3
 72
8
 73
4
 74
0
 40
0
 40
0
 40
0
 40
0
 40
1
 40
1
 40
1
 40
1
 10
131.689776
 20
116.469825
 30
0.0
 10
134.446784
 20
120.924511
 30
0.0
 10
138.010008
 20
124.500000
 30
0.0
 10
139.692408
 20
124.500000
 30
0.0
  0
SPLINE
  5
17a
100
AcDbEntity
  8
0
 62
7
100
AcDbSpline
 70
8
 71
3
 72
8
 73
4
 74
0
 40
0
 40
0
 40
0
 40
0
 40
1
 40
1
 40
1
 40
1
 10
139.692408
 20
124.500000
 30
0.0
 10
140.668616
 20
124.500000
 30
0.0
 10
140.980384
 20
124.141328
 30
0.0
 10
140.670280
 20
123.375000
 30
0.0
  0
SPLINE
  5
17b
100
AcDbEntity
  8
0
 62
7
100
AcDbSpline
 70
8
 71
3
 72
8
 73
4
 74
0
 40
0
 40
0
 40
0
 40
0
 40
1
 40
1
 40
1
 40
1
 10
140.670280
 20
123.375000
 30
0.0
 10
140.419896
 20
122.756250
 30
0.0
 10
140.021216
 20
121.772502
 30
0.0
 10
139.784312
 20
121.188894
 30
0.0
  0
SPLINE
  5
17c
100
AcDbEntity
  8
0
 62
7
100
AcDbSpline
 70
8
 71
3
 72
8
 73
4
 74
0
 40
0
 40
0
 40
0
 40
0
 40
1
 40
1
 40
1
 40
1
 10
139.784312
 20
121.188894
 30
0.0
 10
139.438640
 20
120.337309
 30
0.0
 10
139.993984
 20
120.207929
 30
0.0
 10
142.596816
 20
120.533650
 30
0.0
  0
SPLINE
  5
17d
100
AcDbEntity
  8
0
 62
7
100
AcDbSpline
 70
8
 71
3
 72
8
 73
4
 74
0
 40
0
 40
0
 40
0
 40
0
 40
1
 40
1
 40
1
 40
1
 10
142.596816
 20
120.533650
 30
0.0
 10
144.380592
 20
120.756876
 30
0.0
 10
146.172600
 20
121.246304
 30
0.0
 10
146.579056
 20
121.621269
 30
0.0
  0
SPLINE
  5
17e
100
AcDbEntity
  8
0
 62
7
100
AcDbSpline
 70
8
 71
3
 72
8
 73
4
 74
0
 40
0
 40
0
 40
0
 40
0
 40
1
 40
1
 40
1
 40
1
 10
146.579056
 20
121.621269
 30
0.0
 10
147.638136
 20
122.598296
 30
0.0
 10
145.505128
 20
126.086970
 30
0.0
 10
142.996008
 20
127.481580
 30
0.0
  0
SPLINE
  5
17f
100
AcDbEntity
  8
0
 62
7
100
AcDbSpline
 70
8
 71
3
 72
8
 73
4
 74
0
 40
0
 40
0
 40
0
 40
0
 40
1
 40
1
 40
1
 40
1
 10
142.996008
 20
127.481580
 30
0.0
 10
141.070560
 20
128.551778
 30
0.0
 10
140.711520
 20
128.500165
 30
0.0
 10
137.389432
 20
126.675618
 30
0.0
  0
SPLINE
  5
180
100
AcDbEntity
  8
0
 62
7
100
AcDbSpline
 70
8
 71
3
 72
8
 73
4
 74
0
 40
0
 40
0
 40
0
 40
0
 40
1
 40
1
 40
1
 40
1
 10
137.389432
 20
126.675618
 30
0.0
 10
130.287752
 20
122.775265
 30
0.0
 10
121.072976
 20
116.948273
 30
0.0
 10
120.380616
 20
115.920049
 30
0.0
  0
SPLINE
  5
181
100
AcDbEntity
  8
0
 62
7
100
AcDbSpline
 70
8
 71
3
 72
8
 73
4
 74
0
 40
0
 40
0
 40
0
 40
0
 40
1
 40
1
 40
1
 40
1
 10
120.380616
 20
115.920049
 30
0.0
 10
119.764448
 20
115.004985
 30
0.0
 10
120.828536
 20
111.000001
 30
0.0
 10
121.687832
 20
111.000001
 30
0.0
  0
SPLINE
  5
182
100
AcDbEntity
  8
0
 62
7
100
AcDbSpline
 70
8
 71
3
 72
8
 73
4
 74
0
 40
0
 40
0
 40
0
 40
0
 40
1
 40
1
 40
1
 40
1
 10
121.687832
 20
111.000001
 30
0.0
 10
121.828064
 20
111.000001
 30
0.0
 10
123.696496
 20
111.520793
 30
0.0
 10
125.839912
 20
112.157321
 30
0.0
  0
LWPOLYLINE
  5
183
100
AcDbEntity
  8
0
 62
7
100
AcDbPolyline
 90
2
 70
1
 10
138.228848
 20
1.353328
 30
0.0
 10
138.228840
 20
1.353328
 30
0.0
  0
SPLINE
  5
184
100
AcDbEntity
  8
0
 62
7
100
AcDbSpline
 70
8
 71
3
 72
8
 73
4
 74
0
 40
0
 40
0
 40
0
 40
0
 40
1
 40
1
 40
1
 40
1
 10
155.812536
 20
137.036906
 30
0.0
 10
157.804752
 20
139.209106
 30
0.0
 10
157.670648
 20
140.457905
 30
0.0
 10
155.427392
 20
140.623170
 30
0.0
  0
SPLINE
  5
185
100
AcDbEntity
  8
0
 62
7
100
AcDbSpline
 70
8
 71
3
 72
8
 73
4
 74
0
 40
0
 40
0
 40
0
 40
0
 40
1
 40
1
 40
1
 40
1
 10
155.427392
 20
140.623170
 30
0.0
 10
154.265560
 20
140.708764
 30
0.0
 10
153.741984
 20
140.197210
 30
0.0
 10
153.438544
 20
138.679995
 30
0.0
  0
SPLINE
  5
186
100
AcDbEntity
  8
0
 62
7
100
AcDbSpline
 70
8
 71
3
 72
8
 73
4
 74
0
 40
0
 40
0
 40
0
 40
0
 40
1
 40
1
 40
1
 40
1
 10
153.438544
 20
138.679995
 30
0.0
 10
152.942992
 20
136.202237
 30
0.0
 10
150.099112
 20
134.946911
 30
0.0
 10
149.085320
 20
136.758434
 30
0.0
  0
SPLINE
  5
187
100
AcDbEntity
  8
0
 62
7
100
AcDbSpline
 70
8
 71
3
 72
8
 73
4
 74
0
 40
0
 40
0
 40
0
 40
0
 40
1
 40
1
 40
1
 40
1
 10
149.085320
 20
136.758434
 30
0.0
 10
148.353200
 20
138.066655
 30
0.0
 10
146.215040
 20
137.620394
 30
0.0
 10
146.215040
 20
136.159370
 30
0.0
  0
SPLINE
  5
188
100
AcDbEntity
  8
0
 62
7
100
AcDbSpline
 70
8
 71
3
 72
8
 73
4
 74
0
 40
0
 40
0
 40
0
 40
0
 40
1
 40
1
 40
1
 40
1
 10
146.215040
 20
136.159370
 30
0.0
 10
146.215040
 20
135.647788
 30
0.0
 10
146.974416
 20
134.888694
 30
0.0
 10
147.902536
 20
134.472492
 30
0.0
  0
SPLINE
  5
189
100
AcDbEntity
  8
0
 62
7
100
AcDbSpline
 70
8
 71
3
 72
8
 73
4
 74
0
 40
0
 40
0
 40
0
 40
0
 40
1
 40
1
 40
1
 40
1
 10
147.902536
 20
134.472492
 30
0.0
 10
150.122968
 20
133.476779
 30
0.0
 10
153.573304
 20
134.595375
 30
0.0
 10
155.812536
 20
137.036906
 30
0.0
  0
LWPOLYLINE
  5
18a
100
AcDbEntity
  8
0
 62
7
100
AcDbPolyline
 90
2
 70
1
 10
125.839912
 20
112.157321
 30
0.0
 10
125.839912
 20
112.157321
 30
0.0
  0
LWPOLYLINE
  5
18b
100
AcDbEntity
  8
0
 62
7
100
AcDbPolyline
 90
2
 70
1
 10
155.812536
 20
137.036906
 30
0.0
 10
155.812536
 20
137.036906
 30
0.0
  0
ENDSEC
  0
SECTION
  2
OBJECTS
  0
DICTIONARY
  5
C
330
0
100
AcDbDictionary
  3
ACAD_GROUP
350
D
  3
ACAD_MLINESTYLE
350
17
  0
DICTIONARY
  5
D
330
C
100
AcDbDictionary
  0
DICTIONARY
  5
1A
330
C
100
AcDbDictionary
  0
DICTIONARY
  5
17
330
C
100
AcDbDictionary
  3
STANDARD
350
18
  0
DICTIONARY
  5
19
330
C
100
AcDbDictionary
  0
ENDSEC
  0
EOF
