  0
SECTION
  2
HEADER
  9
$ACADVER
  1
AC1014
  9
$HANDSEED
  5
FFFF
  9
$MEASUREMENT
 70
     1
  0
ENDSEC
  0
SECTION
  2
TABLES
  0
TABLE
  2
VPORT
  5
8
330
0
100
AcDbSymbolTable
 70
     4
  0
VPORT
  5
2E
330
8
100
AcDbSymbolTableRecord
100
AcDbViewportTableRecord
  2
*ACTIVE
 70
     0
 10
0.0
 20
0.0
 11
1.0
 21
1.0
 12
210.0
 22
148.5
 13
0.0
 23
0.0
 14
10.0
 24
10.0
 15
10.0
 25
10.0
 16
0.0
 26
0.0
 36
1.0
 17
0.0
 27
0.0
 37
0.0
 40
341.0
 41
1.24
 42
50.0
 43
0.0
 44
0.0
 50
0.0
 51
0.0
 71
     0
 72
   100
 73
     1
 74
     3
 75
     0
 76
     0
 77
     0
 78
     0
  0
ENDTAB
  0
TABLE
  2
LTYPE
  5
5
330
0
100
AcDbSymbolTable
 70
     1
  0
LTYPE
  5
14
330
5
100
AcDbSymbolTableRecord
100
AcDbLinetypeTableRecord
  2
BYBLOCK
 70
     0
  3

 72
    65
 73
     0
 40
0.0
  0
LTYPE
  5
15
330
5
100
AcDbSymbolTableRecord
100
AcDbLinetypeTableRecord
  2
BYLAYER
 70
     0
  3

 72
    65
 73
     0
 40
0.0
  0
LTYPE
  5
16
330
5
100
AcDbSymbolTableRecord
100
AcDbLinetypeTableRecord
  2
CONTINUOUS
 70
     0
  3
Solid line
 72
    65
 73
     0
 40
0.0
  0
ENDTAB
  0
TABLE
  2
LAYER
  5
2
100
AcDbSymbolTable
 70
1
  0
LAYER
  5
50
100
AcDbSymbolTableRecord
100
AcDbLayerTableRecord
  2
0
 70
0
  6
CONTINUOUS
  0
ENDTAB
  0
TABLE
  2
STYLE
  5
3
330
0
100
AcDbSymbolTable
 70
     1
  0
STYLE
  5
11
330
3
100
AcDbSymbolTableRecord
100
AcDbTextStyleTableRecord
  2
STANDARD
 70
     0
 40
0.0
 41
1.0
 50
0.0
 71
     0
 42
2.5
  3
txt
  4

  0
ENDTAB
  0
TABLE
  2
VIEW
  5
6
330
0
100
AcDbSymbolTable
 70
     0
  0
ENDTAB
  0
TABLE
  2
UCS
  5
7
330
0
100
AcDbSymbolTable
 70
     0
  0
ENDTAB
  0
TABLE
  2
APPID
  5
9
330
0
100
AcDbSymbolTable
 70
     2
  0
APPID
  5
12
330
9
100
AcDbSymbolTableRecord
100
AcDbRegAppTableRecord
  2
ACAD
 70
     0
  0
ENDTAB
  0
TABLE
  2
DIMSTYLE
  5
A
330
0
100
AcDbSymbolTable
 70
     1
  0
DIMSTYLE
105
27
330
A
100
AcDbSymbolTableRecord
100
AcDbDimStyleTableRecord
  2
ISO-25
 70
     0
  3

  4

  5

  6

  7

 40
1.0
 41
2.5
 42
0.625
 43
3.75
 44
1.25
 45
0.0
 46
0.0
 47
0.0
 48
0.0
140
2.5
141
2.5
142
0.0
143
0.03937007874016
144
1.0
145
0.0
146
1.0
147
0.625
 71
     0
 72
     0
 73
     0
 74
     0
 75
     0
 76
     0
 77
     1
 78
     8
170
     0
171
     3
172
     1
173
     0
174
     0
175
     0
176
     0
177
     0
178
     0
270
     2
271
     2
272
     2
273
     2
274
     3
340
11
275
     0
280
     0
281
     0
282
     0
283
     0
284
     8
285
     0
286
     0
287
     3
288
     0
  0
ENDTAB
  0
TABLE
  2
BLOCK_RECORD
  5
1
330
0
100
AcDbSymbolTable
 70
     1
  0
BLOCK_RECORD
  5
1F
330
1
100
AcDbSymbolTableRecord
100
AcDbBlockTableRecord
  2
*MODEL_SPACE
  0
BLOCK_RECORD
  5
1B
330
1
100
AcDbSymbolTableRecord
100
AcDbBlockTableRecord
  2
*PAPER_SPACE
  0
ENDTAB
  0
ENDSEC
  0
SECTION
  2
BLOCKS
  0
BLOCK
  5
20
330
1F
100
AcDbEntity
  8
0
100
AcDbBlockBegin
  2
*MODEL_SPACE
 70
     0
 10
0.0
 20
0.0
 30
0.0
  3
*MODEL_SPACE
  1

  0
ENDBLK
  5
21
330
1F
100
AcDbEntity
  8
0
100
AcDbBlockEnd
  0
BLOCK
  5
1C
330
1B
100
AcDbEntity
 67
     1
  8
0
100
AcDbBlockBegin
  2
*PAPER_SPACE
  1

  0
ENDBLK
  5
1D
330
1B
100
AcDbEntity
 67
     1
  8
0
100
AcDbBlockEnd
  0
ENDSEC
  0
SECTION
  2
ENTITIES
  0
SPLINE
  5
100
100
AcDbEntity
  8
0
 62
7
100
AcDbSpline
 70
8
 71
3
 72
8
 73
4
 74
0
 40
0
 40
0
 40
0
 40
0
 40
1
 40
1
 40
1
 40
1
 10
427.309904
 20
185.814920
 30
0.0
 10
464.391024
 20
185.802600
 30
0.0
 10
468.564544
 20
185.424928
 30
0.0
 10
476.559904
 20
181.358040
 30
0.0
  0
SPLINE
  5
101
100
AcDbEntity
  8
0
 62
7
100
AcDbSpline
 70
8
 71
3
 72
8
 73
4
 74
0
 40
0
 40
0
 40
0
 40
0
 40
1
 40
1
 40
1
 40
1
 10
476.559904
 20
181.358040
 30
0.0
 10
483.610624
 20
177.771632
 30
0.0
 10
488.362544
 20
172.944800
 30
0.0
 10
491.999424
 20
165.675032
 30
0.0
  0
LWPOLYLINE
  5
102
100
AcDbEntity
  8
0
 62
7
100
AcDbPolyline
 90
3
 70
1
 10
391.559904
 20
133.826840
 30
0.0
 10
391.559904
 20
185.826840
 30
0.0
 10
427.309904
 20
185.814920
 30
0.0
  0
SPLINE
  5
103
100
AcDbEntity
  8
0
 62
7
100
AcDbSpline
 70
8
 71
3
 72
8
 73
4
 74
0
 40
0
 40
0
 40
0
 40
0
 40
1
 40
1
 40
1
 40
1
 10
463.370784
 20
111.576792
 30
0.0
 10
463.070944
 20
137.394568
 30
0.0
 10
462.791184
 20
141.850648
 30
0.0
 10
461.254464
 20
145.290192
 30
0.0
  0
SPLINE
  5
104
100
AcDbEntity
  8
0
 62
7
100
AcDbSpline
 70
8
 71
3
 72
8
 73
4
 74
0
 40
0
 40
0
 40
0
 40
0
 40
1
 40
1
 40
1
 40
1
 10
461.254464
 20
145.290192
 30
0.0
 10
457.044064
 20
154.713680
 30
0.0
 10
452.528144
 20
156.826824
 30
0.0
 10
436.599744
 20
156.826824
 30
0.0
  0
LWPOLYLINE
  5
105
100
AcDbEntity
  8
0
 62
7
100
AcDbPolyline
 90
7
 70
1
 10
491.999424
 20
165.675032
 30
0.0
 10
495.559904
 20
158.558080
 30
0.0
 10
495.559904
 20
120.192432
 30
0.0
 10
495.559904
 20
81.826808
 30
0.0
 10
479.638144
 20
81.826808
 30
0.0
 10
463.716304
 20
81.826808
 30
0.0
 10
463.370784
 20
111.576792
 30
0.0
  0
SPLINE
  5
106
100
AcDbEntity
  8
0
 62
7
100
AcDbSpline
 70
8
 71
3
 72
8
 73
4
 74
0
 40
0
 40
0
 40
0
 40
0
 40
1
 40
1
 40
1
 40
1
 10
422.687744
 20
111.576840
 30
0.0
 10
422.758144
 20
126.839336
 30
0.0
 10
422.966624
 20
143.601840
 30
0.0
 10
423.151264
 20
148.826840
 30
0.0
  0
LWPOLYLINE
  5
107
100
AcDbEntity
  8
0
 62
7
100
AcDbPolyline
 90
8
 70
1
 10
436.599744
 20
156.826824
 30
0.0
 10
424.559904
 20
156.826824
 30
0.0
 10
424.559904
 20
119.326824
 30
0.0
 10
424.559904
 20
81.826808
 30
0.0
 10
408.059904
 20
81.826808
 30
0.0
 10
391.559904
 20
81.826808
 30
0.0
 10
391.559904
 20
133.826824
 30
0.0
 10
391.559904
 20
133.826840
 30
0.0
  0
SPLINE
  5
108
100
AcDbEntity
  8
0
 62
7
100
AcDbSpline
 70
8
 71
3
 72
8
 73
4
 74
0
 40
0
 40
0
 40
0
 40
0
 40
1
 40
1
 40
1
 40
1
 10
437.602064
 20
158.326840
 30
0.0
 10
450.098144
 20
158.326840
 30
0.0
 10
451.353664
 20
158.474784
 30
0.0
 10
448.547824
 20
159.616696
 30
0.0
  0
SPLINE
  5
109
100
AcDbEntity
  8
0
 62
7
100
AcDbSpline
 70
8
 71
3
 72
8
 73
4
 74
0
 40
0
 40
0
 40
0
 40
0
 40
1
 40
1
 40
1
 40
1
 10
448.547824
 20
159.616696
 30
0.0
 10
445.237824
 20
160.963856
 30
0.0
 10
438.388464
 20
161.381344
 30
0.0
 10
425.309904
 20
161.033168
 30
0.0
  0
LWPOLYLINE
  5
10a
100
AcDbEntity
  8
0
 62
7
100
AcDbPolyline
 90
3
 70
1
 10
423.151264
 20
148.826840
 30
0.0
 10
423.486944
 20
158.326840
 30
0.0
 10
437.602064
 20
158.326840
 30
0.0
  0
SPLINE
  5
10b
100
AcDbEntity
  8
0
 62
7
100
AcDbSpline
 70
8
 71
3
 72
8
 73
4
 74
0
 40
0
 40
0
 40
0
 40
0
 40
1
 40
1
 40
1
 40
1
 10
417.559904
 20
122.826840
 30
0.0
 10
417.559904
 20
91.012856
 30
0.0
 10
417.333104
 20
84.826824
 30
0.0
 10
416.166864
 20
84.826824
 30
0.0
  0
SPLINE
  5
10c
100
AcDbEntity
  8
0
 62
7
100
AcDbSpline
 70
8
 71
3
 72
8
 73
4
 74
0
 40
0
 40
0
 40
0
 40
0
 40
1
 40
1
 40
1
 40
1
 10
416.166864
 20
84.826824
 30
0.0
 10
413.947824
 20
84.826824
 30
0.0
 10
413.549504
 20
87.244424
 30
0.0
 10
413.722864
 20
99.658624
 30
0.0
  0
SPLINE
  5
10d
100
AcDbEntity
  8
0
 62
7
100
AcDbSpline
 70
8
 71
3
 72
8
 73
4
 74
0
 40
0
 40
0
 40
0
 40
0
 40
1
 40
1
 40
1
 40
1
 10
413.722864
 20
99.658624
 30
0.0
 10
413.855344
 20
109.140840
 30
0.0
 10
414.015904
 20
110.296440
 30
0.0
 10
414.579984
 20
105.826840
 30
0.0
  0
SPLINE
  5
10e
100
AcDbEntity
  8
0
 62
7
100
AcDbSpline
 70
8
 71
3
 72
8
 73
4
 74
0
 40
0
 40
0
 40
0
 40
0
 40
1
 40
1
 40
1
 40
1
 10
414.579984
 20
105.826840
 30
0.0
 10
414.961664
 20
102.801840
 30
0.0
 10
415.228064
 20
114.501840
 30
0.0
 10
415.171904
 20
131.826840
 30
0.0
  0
LWPOLYLINE
  5
10f
100
AcDbEntity
  8
0
 62
7
100
AcDbPolyline
 90
3
 70
1
 10
425.309904
 20
161.033168
 30
0.0
 10
417.559904
 20
160.826840
 30
0.0
 10
417.559904
 20
122.826840
 30
0.0
  0
SPLINE
  5
110
100
AcDbEntity
  8
0
 62
7
100
AcDbSpline
 70
8
 71
3
 72
8
 73
4
 74
0
 40
0
 40
0
 40
0
 40
0
 40
1
 40
1
 40
1
 40
1
 10
429.064784
 20
163.642456
 30
0.0
 10
446.263264
 20
164.030320
 30
0.0
 10
451.891024
 20
162.947216
 30
0.0
 10
457.464144
 20
158.176824
 30
0.0
  0
SPLINE
  5
111
100
AcDbEntity
  8
0
 62
7
100
AcDbSpline
 70
8
 71
3
 72
8
 73
4
 74
0
 40
0
 40
0
 40
0
 40
0
 40
1
 40
1
 40
1
 40
1
 10
457.464144
 20
158.176824
 30
0.0
 10
462.520304
 20
153.848896
 30
0.0
 10
465.025104
 20
149.171520
 30
0.0
 10
466.468864
 20
141.361456
 30
0.0
  0
SPLINE
  5
112
100
AcDbEntity
  8
0
 62
7
100
AcDbSpline
 70
8
 71
3
 72
8
 73
4
 74
0
 40
0
 40
0
 40
0
 40
0
 40
1
 40
1
 40
1
 40
1
 10
466.468864
 20
141.361456
 30
0.0
 10
467.850784
 20
133.886016
 30
0.0
 10
467.914064
 20
116.826840
 30
0.0
 10
466.559904
 20
116.826840
 30
0.0
  0
SPLINE
  5
113
100
AcDbEntity
  8
0
 62
7
100
AcDbSpline
 70
8
 71
3
 72
8
 73
4
 74
0
 40
0
 40
0
 40
0
 40
0
 40
1
 40
1
 40
1
 40
1
 10
466.559904
 20
116.826840
 30
0.0
 10
465.933664
 20
116.826840
 30
0.0
 10
465.559904
 20
110.660168
 30
0.0
 10
465.559904
 20
100.326840
 30
0.0
  0
LWPOLYLINE
  5
114
100
AcDbEntity
  8
0
 62
7
100
AcDbPolyline
 90
3
 70
1
 10
415.171904
 20
131.826840
 30
0.0
 10
415.069744
 20
163.326840
 30
0.0
 10
429.064784
 20
163.642456
 30
0.0
  0
SPLINE
  5
115
100
AcDbEntity
  8
0
 62
7
100
AcDbSpline
 70
8
 71
3
 72
8
 73
4
 74
0
 40
0
 40
0
 40
0
 40
0
 40
1
 40
1
 40
1
 40
1
 10
493.818544
 20
87.576840
 30
0.0
 10
494.081184
 20
89.639336
 30
0.0
 10
494.242864
 20
105.960584
 30
0.0
 10
494.177984
 20
123.846288
 30
0.0
  0
LWPOLYLINE
  5
116
100
AcDbEntity
  8
0
 62
7
100
AcDbPolyline
 90
5
 70
1
 10
465.559904
 20
100.326840
 30
0.0
 10
465.559904
 20
83.826824
 30
0.0
 10
479.450464
 20
83.826824
 30
0.0
 10
493.341104
 20
83.826824
 30
0.0
 10
493.818544
 20
87.576840
 30
0.0
  0
SPLINE
  5
117
100
AcDbEntity
  8
0
 62
7
100
AcDbSpline
 70
8
 71
3
 72
8
 73
4
 74
0
 40
0
 40
0
 40
0
 40
0
 40
1
 40
1
 40
1
 40
1
 10
490.758464
 20
163.073448
 30
0.0
 10
488.068384
 20
168.539120
 30
0.0
 10
486.281344
 20
170.651376
 30
0.0
 10
481.107424
 20
174.480816
 30
0.0
  0
SPLINE
  5
118
100
AcDbEntity
  8
0
 62
7
100
AcDbSpline
 70
8
 71
3
 72
8
 73
4
 74
0
 40
0
 40
0
 40
0
 40
0
 40
1
 40
1
 40
1
 40
1
 10
481.107424
 20
174.480816
 30
0.0
 10
469.075824
 20
183.385944
 30
0.0
 10
469.920784
 20
183.236808
 30
0.0
 10
429.309904
 20
183.622736
 30
0.0
  0
SPLINE
  5
119
100
AcDbEntity
  8
0
 62
7
100
AcDbSpline
 70
8
 71
3
 72
8
 73
4
 74
0
 40
0
 40
0
 40
0
 40
0
 40
1
 40
1
 40
1
 40
1
 10
429.309904
 20
183.622736
 30
0.0
 10
393.726224
 20
183.960888
 30
0.0
 10
393.559904
 20
183.952848
 30
0.0
 10
393.559904
 20
181.894656
 30
0.0
  0
SPLINE
  5
11a
100
AcDbEntity
  8
0
 62
7
100
AcDbSpline
 70
8
 71
3
 72
8
 73
4
 74
0
 40
0
 40
0
 40
0
 40
0
 40
1
 40
1
 40
1
 40
1
 10
393.559904
 20
181.894656
 30
0.0
 10
393.559904
 20
180.757360
 30
0.0
 10
394.018944
 20
179.826840
 30
0.0
 10
394.580064
 20
179.826840
 30
0.0
  0
SPLINE
  5
11b
100
AcDbEntity
  8
0
 62
7
100
AcDbSpline
 70
8
 71
3
 72
8
 73
4
 74
0
 40
0
 40
0
 40
0
 40
0
 40
1
 40
1
 40
1
 40
1
 10
394.580064
 20
179.826840
 30
0.0
 10
395.236384
 20
179.826840
 30
0.0
 10
395.420864
 20
176.527520
 30
0.0
 10
395.097264
 20
170.576840
 30
0.0
  0
SPLINE
  5
11c
100
AcDbEntity
  8
0
 62
7
100
AcDbSpline
 70
8
 71
3
 72
8
 73
4
 74
0
 40
0
 40
0
 40
0
 40
0
 40
1
 40
1
 40
1
 40
1
 10
395.097264
 20
170.576840
 30
0.0
 10
394.820624
 20
165.489336
 30
0.0
 10
394.345024
 20
143.889336
 30
0.0
 10
394.040304
 20
122.576840
 30
0.0
  0
LWPOLYLINE
  5
11d
100
AcDbEntity
  8
0
 62
7
100
AcDbPolyline
 90
3
 70
1
 10
494.177984
 20
123.846288
 30
0.0
 10
494.059904
 20
156.365736
 30
0.0
 10
490.758464
 20
163.073448
 30
0.0
  0
SPLINE
  5
11e
100
AcDbEntity
  8
0
 62
7
100
AcDbSpline
 70
8
 71
3
 72
8
 73
4
 74
0
 40
0
 40
0
 40
0
 40
0
 40
1
 40
1
 40
1
 40
1
 10
486.346544
 20
86.076824
 30
0.0
 10
485.443824
 20
88.717528
 30
0.0
 10
485.601984
 20
120.315144
 30
0.0
 10
486.507984
 20
118.326840
 30
0.0
  0
SPLINE
  5
11f
100
AcDbEntity
  8
0
 62
7
100
AcDbSpline
 70
8
 71
3
 72
8
 73
4
 74
0
 40
0
 40
0
 40
0
 40
0
 40
1
 40
1
 40
1
 40
1
 10
486.507984
 20
118.326840
 30
0.0
 10
487.827024
 20
115.432048
 30
0.0
 10
487.818144
 20
143.062520
 30
0.0
 10
486.497584
 20
150.205296
 30
0.0
  0
SPLINE
  5
120
100
AcDbEntity
  8
0
 62
7
100
AcDbSpline
 70
8
 71
3
 72
8
 73
4
 74
0
 40
0
 40
0
 40
0
 40
0
 40
1
 40
1
 40
1
 40
1
 10
486.497584
 20
150.205296
 30
0.0
 10
485.238784
 20
157.014896
 30
0.0
 10
482.067504
 20
164.826840
 30
0.0
 10
480.561904
 20
164.826840
 30
0.0
  0
SPLINE
  5
121
100
AcDbEntity
  8
0
 62
7
100
AcDbSpline
 70
8
 71
3
 72
8
 73
4
 74
0
 40
0
 40
0
 40
0
 40
0
 40
1
 40
1
 40
1
 40
1
 10
480.561904
 20
164.826840
 30
0.0
 10
479.974064
 20
164.826840
 30
0.0
 10
477.925904
 20
166.393968
 30
0.0
 10
476.010544
 20
168.309360
 30
0.0
  0
SPLINE
  5
122
100
AcDbEntity
  8
0
 62
7
100
AcDbSpline
 70
8
 71
3
 72
8
 73
4
 74
0
 40
0
 40
0
 40
0
 40
0
 40
1
 40
1
 40
1
 40
1
 10
476.010544
 20
168.309360
 30
0.0
 10
467.784464
 20
176.535456
 30
0.0
 10
461.341744
 20
177.957856
 30
0.0
 10
428.559744
 20
178.785376
 30
0.0
  0
LWPOLYLINE
  5
123
100
AcDbEntity
  8
0
 62
7
100
AcDbPolyline
 90
6
 70
1
 10
394.040304
 20
122.576840
 30
0.0
 10
393.486224
 20
83.826824
 30
0.0
 10
408.023104
 20
83.826824
 30
0.0
 10
422.559904
 20
83.826824
 30
0.0
 10
422.687744
 20
111.576840
 30
0.0
 10
422.687744
 20
111.576840
 30
0.0
  0
SPLINE
  5
124
100
AcDbEntity
  8
0
 62
7
100
AcDbSpline
 70
8
 71
3
 72
8
 73
4
 74
0
 40
0
 40
0
 40
0
 40
0
 40
1
 40
1
 40
1
 40
1
 10
426.851904
 20
179.640584
 30
0.0
 10
446.502704
 20
179.788208
 30
0.0
 10
453.242464
 20
179.488776
 30
0.0
 10
459.351904
 20
178.196680
 30
0.0
  0
SPLINE
  5
125
100
AcDbEntity
  8
0
 62
7
100
AcDbSpline
 70
8
 71
3
 72
8
 73
4
 74
0
 40
0
 40
0
 40
0
 40
0
 40
1
 40
1
 40
1
 40
1
 10
459.351904
 20
178.196680
 30
0.0
 10
463.591184
 20
177.300088
 30
0.0
 10
467.622224
 20
176.550088
 30
0.0
 10
468.309744
 20
176.530008
 30
0.0
  0
SPLINE
  5
126
100
AcDbEntity
  8
0
 62
7
100
AcDbSpline
 70
8
 71
3
 72
8
 73
4
 74
0
 40
0
 40
0
 40
0
 40
0
 40
1
 40
1
 40
1
 40
1
 10
468.309744
 20
176.530008
 30
0.0
 10
468.997264
 20
176.509928
 30
0.0
 10
469.559744
 20
176.043504
 30
0.0
 10
469.559744
 20
175.493504
 30
0.0
  0
SPLINE
  5
127
100
AcDbEntity
  8
0
 62
7
100
AcDbSpline
 70
8
 71
3
 72
8
 73
4
 74
0
 40
0
 40
0
 40
0
 40
0
 40
1
 40
1
 40
1
 40
1
 10
469.559744
 20
175.493504
 30
0.0
 10
469.559744
 20
174.943504
 30
0.0
 10
469.852784
 20
174.786504
 30
0.0
 10
470.210864
 20
175.144624
 30
0.0
  0
SPLINE
  5
128
100
AcDbEntity
  8
0
 62
7
100
AcDbSpline
 70
8
 71
3
 72
8
 73
4
 74
0
 40
0
 40
0
 40
0
 40
0
 40
1
 40
1
 40
1
 40
1
 10
470.210864
 20
175.144624
 30
0.0
 10
470.568944
 20
175.502744
 30
0.0
 10
471.502384
 20
175.015248
 30
0.0
 10
472.285024
 20
174.061296
 30
0.0
  0
SPLINE
  5
129
100
AcDbEntity
  8
0
 62
7
100
AcDbSpline
 70
8
 71
3
 72
8
 73
4
 74
0
 40
0
 40
0
 40
0
 40
0
 40
1
 40
1
 40
1
 40
1
 10
472.285024
 20
174.061296
 30
0.0
 10
473.067664
 20
173.107344
 30
0.0
 10
473.380144
 20
172.958864
 30
0.0
 10
472.979424
 20
173.731344
 30
0.0
  0
SPLINE
  5
12a
100
AcDbEntity
  8
0
 62
7
100
AcDbSpline
 70
8
 71
3
 72
8
 73
4
 74
0
 40
0
 40
0
 40
0
 40
0
 40
1
 40
1
 40
1
 40
1
 10
472.979424
 20
173.731344
 30
0.0
 10
472.455024
 20
174.742096
 30
0.0
 10
472.644464
 20
174.910656
 30
0.0
 10
473.655264
 20
174.332576
 30
0.0
  0
SPLINE
  5
12b
100
AcDbEntity
  8
0
 62
7
100
AcDbSpline
 70
8
 71
3
 72
8
 73
4
 74
0
 40
0
 40
0
 40
0
 40
0
 40
1
 40
1
 40
1
 40
1
 10
473.655264
 20
174.332576
 30
0.0
 10
476.466704
 20
172.724616
 30
0.0
 10
479.485104
 20
169.515136
 30
0.0
 10
478.969904
 20
168.681480
 30
0.0
  0
SPLINE
  5
12c
100
AcDbEntity
  8
0
 62
7
100
AcDbSpline
 70
8
 71
3
 72
8
 73
4
 74
0
 40
0
 40
0
 40
0
 40
0
 40
1
 40
1
 40
1
 40
1
 10
478.969904
 20
168.681480
 30
0.0
 10
478.679424
 20
168.211424
 30
0.0
 10
479.136864
 20
167.826840
 30
0.0
 10
479.986544
 20
167.826840
 30
0.0
  0
SPLINE
  5
12d
100
AcDbEntity
  8
0
 62
7
100
AcDbSpline
 70
8
 71
3
 72
8
 73
4
 74
0
 40
0
 40
0
 40
0
 40
0
 40
1
 40
1
 40
1
 40
1
 10
479.986544
 20
167.826840
 30
0.0
 10
480.836224
 20
167.826840
 30
0.0
 10
482.645264
 20
166.139336
 30
0.0
 10
484.006624
 20
164.076840
 30
0.0
  0
SPLINE
  5
12e
100
AcDbEntity
  8
0
 62
7
100
AcDbSpline
 70
8
 71
3
 72
8
 73
4
 74
0
 40
0
 40
0
 40
0
 40
0
 40
1
 40
1
 40
1
 40
1
 10
484.006624
 20
164.076840
 30
0.0
 10
488.544704
 20
157.201656
 30
0.0
 10
489.406464
 20
149.995480
 30
0.0
 10
489.746464
 20
116.076320
 30
0.0
  0
SPLINE
  5
12f
100
AcDbEntity
  8
0
 62
7
100
AcDbSpline
 70
8
 71
3
 72
8
 73
4
 74
0
 40
0
 40
0
 40
0
 40
0
 40
1
 40
1
 40
1
 40
1
 10
489.746464
 20
116.076320
 30
0.0
 10
490.031664
 20
87.628528
 30
0.0
 10
489.912384
 20
84.825864
 30
0.0
 10
488.416704
 20
84.826344
 30
0.0
  0
SPLINE
  5
130
100
AcDbEntity
  8
0
 62
7
100
AcDbSpline
 70
8
 71
3
 72
8
 73
4
 74
0
 40
0
 40
0
 40
0
 40
0
 40
1
 40
1
 40
1
 40
1
 10
488.416704
 20
84.826344
 30
0.0
 10
487.513104
 20
84.826584
 30
0.0
 10
486.581424
 20
85.389304
 30
0.0
 10
486.346384
 20
86.076824
 30
0.0
  0
LWPOLYLINE
  5
131
100
AcDbEntity
  8
0
 62
7
100
AcDbPolyline
 90
3
 70
1
 10
428.559744
 20
178.785376
 30
0.0
 10
402.059744
 20
179.454328
 30
0.0
 10
426.851904
 20
179.640584
 30
0.0
  0
SPLINE
  5
132
100
AcDbEntity
  8
0
 62
7
100
AcDbSpline
 70
8
 71
3
 72
8
 73
4
 74
0
 40
0
 40
0
 40
0
 40
0
 40
1
 40
1
 40
1
 40
1
 10
488.283264
 20
96.076840
 30
0.0
 10
488.061504
 20
97.864336
 30
0.0
 10
487.879984
 20
96.401840
 30
0.0
 10
487.879984
 20
92.826840
 30
0.0
  0
SPLINE
  5
133
100
AcDbEntity
  8
0
 62
7
100
AcDbSpline
 70
8
 71
3
 72
8
 73
4
 74
0
 40
0
 40
0
 40
0
 40
0
 40
1
 40
1
 40
1
 40
1
 10
487.879984
 20
92.826840
 30
0.0
 10
487.879984
 20
89.251840
 30
0.0
 10
488.061504
 20
87.789336
 30
0.0
 10
488.283264
 20
89.576840
 30
0.0
  0
SPLINE
  5
134
100
AcDbEntity
  8
0
 62
7
100
AcDbSpline
 70
8
 71
3
 72
8
 73
4
 74
0
 40
0
 40
0
 40
0
 40
0
 40
1
 40
1
 40
1
 40
1
 10
488.283264
 20
89.576840
 30
0.0
 10
488.505104
 20
91.364336
 30
0.0
 10
488.505104
 20
94.289336
 30
0.0
 10
488.283264
 20
96.076840
 30
0.0
  0
LWPOLYLINE
  5
135
100
AcDbEntity
  8
0
 62
7
100
AcDbPolyline
 90
2
 70
1
 10
486.346384
 20
86.076824
 30
0.0
 10
486.346544
 20
86.076824
 30
0.0
  0
SPLINE
  5
136
100
AcDbEntity
  8
0
 62
7
100
AcDbSpline
 70
8
 71
3
 72
8
 73
4
 74
0
 40
0
 40
0
 40
0
 40
0
 40
1
 40
1
 40
1
 40
1
 10
467.754864
 20
95.326840
 30
0.0
 10
467.774864
 20
96.976840
 30
0.0
 10
467.999344
 20
97.530776
 30
0.0
 10
468.252864
 20
96.557808
 30
0.0
  0
SPLINE
  5
137
100
AcDbEntity
  8
0
 62
7
100
AcDbSpline
 70
8
 71
3
 72
8
 73
4
 74
0
 40
0
 40
0
 40
0
 40
0
 40
1
 40
1
 40
1
 40
1
 10
468.252864
 20
96.557808
 30
0.0
 10
468.506464
 20
95.584840
 30
0.0
 10
468.489744
 20
94.234840
 30
0.0
 10
468.216064
 20
93.557808
 30
0.0
  0
SPLINE
  5
138
100
AcDbEntity
  8
0
 62
7
100
AcDbSpline
 70
8
 71
3
 72
8
 73
4
 74
0
 40
0
 40
0
 40
0
 40
0
 40
1
 40
1
 40
1
 40
1
 10
468.216064
 20
93.557808
 30
0.0
 10
467.942064
 20
92.880776
 30
0.0
 10
467.734624
 20
93.676840
 30
0.0
 10
467.755024
 20
95.326840
 30
0.0
  0
LWPOLYLINE
  5
139
100
AcDbEntity
  8
0
 62
7
100
AcDbPolyline
 90
2
 70
1
 10
488.283264
 20
96.076840
 30
0.0
 10
488.283264
 20
96.076840
 30
0.0
  0
SPLINE
  5
13a
100
AcDbEntity
  8
0
 62
7
100
AcDbSpline
 70
8
 71
3
 72
8
 73
4
 74
0
 40
0
 40
0
 40
0
 40
0
 40
1
 40
1
 40
1
 40
1
 10
527.110944
 20
83.058024
 30
0.0
 10
522.324144
 20
98.219400
 30
0.0
 10
517.078864
 20
114.151960
 30
0.0
 10
506.446384
 20
145.826840
 30
0.0
  0
SPLINE
  5
13b
100
AcDbEntity
  8
0
 62
7
100
AcDbSpline
 70
8
 71
3
 72
8
 73
4
 74
0
 40
0
 40
0
 40
0
 40
0
 40
1
 40
1
 40
1
 40
1
 10
506.446384
 20
145.826840
 30
0.0
 10
499.338464
 20
167.001840
 30
0.0
 10
493.531184
 20
184.674264
 30
0.0
 10
493.541344
 20
185.098904
 30
0.0
  0
SPLINE
  5
13c
100
AcDbEntity
  8
0
 62
7
100
AcDbSpline
 70
8
 71
3
 72
8
 73
4
 74
0
 40
0
 40
0
 40
0
 40
0
 40
1
 40
1
 40
1
 40
1
 10
493.541344
 20
185.098904
 30
0.0
 10
493.551744
 20
185.523536
 30
0.0
 10
501.957104
 20
185.748536
 30
0.0
 10
512.220304
 20
185.598904
 30
0.0
  0
LWPOLYLINE
  5
13d
100
AcDbEntity
  8
0
 62
7
100
AcDbPolyline
 90
2
 70
1
 10
467.755024
 20
95.326840
 30
0.0
 10
467.754864
 20
95.326840
 30
0.0
  0
SPLINE
  5
13e
100
AcDbEntity
  8
0
 62
7
100
AcDbSpline
 70
8
 71
3
 72
8
 73
4
 74
0
 40
0
 40
0
 40
0
 40
0
 40
1
 40
1
 40
1
 40
1
 10
552.869264
 20
125.887168
 30
0.0
 10
554.269584
 20
130.528984
 30
0.0
 10
557.065264
 20
139.726840
 30
0.0
 10
559.081824
 20
146.326840
 30
0.0
  0
SPLINE
  5
13f
100
AcDbEntity
  8
0
 62
7
100
AcDbSpline
 70
8
 71
3
 72
8
 73
4
 74
0
 40
0
 40
0
 40
0
 40
0
 40
1
 40
1
 40
1
 40
1
 10
559.081824
 20
146.326840
 30
0.0
 10
561.098464
 20
152.926840
 30
0.0
 10
564.580944
 20
164.514336
 30
0.0
 10
566.820864
 20
172.076840
 30
0.0
  0
LWPOLYLINE
  5
140
100
AcDbEntity
  8
0
 62
7
100
AcDbPolyline
 90
5
 70
1
 10
512.220304
 20
185.598904
 30
0.0
 10
530.880624
 20
185.326840
 30
0.0
 10
540.601904
 20
151.387168
 30
0.0
 10
550.323184
 20
117.447488
 30
0.0
 10
552.869264
 20
125.887168
 30
0.0
  0
SPLINE
  5
141
100
AcDbEntity
  8
0
 62
7
100
AcDbSpline
 70
8
 71
3
 72
8
 73
4
 74
0
 40
0
 40
0
 40
0
 40
0
 40
1
 40
1
 40
1
 40
1
 10
588.226624
 20
185.826840
 30
0.0
 10
605.542384
 20
185.826840
 30
0.0
 10
605.559904
 20
185.825240
 30
0.0
 10
605.535744
 20
183.576840
 30
0.0
  0
SPLINE
  5
142
100
AcDbEntity
  8
0
 62
7
100
AcDbSpline
 70
8
 71
3
 72
8
 73
4
 74
0
 40
0
 40
0
 40
0
 40
0
 40
1
 40
1
 40
1
 40
1
 10
605.535744
 20
183.576840
 30
0.0
 10
605.522144
 20
182.339336
 30
0.0
 10
598.161424
 20
159.051840
 30
0.0
 10
589.177904
 20
131.826840
 30
0.0
  0
LWPOLYLINE
  5
143
100
AcDbEntity
  8
0
 62
7
100
AcDbPolyline
 90
3
 70
1
 10
566.820864
 20
172.076840
 30
0.0
 10
570.893344
 20
185.826840
 30
0.0
 10
588.226624
 20
185.826840
 30
0.0
  0
SPLINE
  5
144
100
AcDbEntity
  8
0
 62
7
100
AcDbSpline
 70
8
 71
3
 72
8
 73
4
 74
0
 40
0
 40
0
 40
0
 40
0
 40
1
 40
1
 40
1
 40
1
 10
550.177984
 20
82.058024
 30
0.0
 10
532.554144
 20
81.848984
 30
0.0
 10
527.422464
 20
82.071624
 30
0.0
 10
527.110944
 20
83.058024
 30
0.0
  0
LWPOLYLINE
  5
145
100
AcDbEntity
  8
0
 62
7
100
AcDbPolyline
 90
3
 70
1
 10
589.177904
 20
131.826840
 30
0.0
 10
572.844304
 20
82.326824
 30
0.0
 10
550.177984
 20
82.058024
 30
0.0
  0
SPLINE
  5
146
100
AcDbEntity
  8
0
 62
7
100
AcDbSpline
 70
8
 71
3
 72
8
 73
4
 74
0
 40
0
 40
0
 40
0
 40
0
 40
1
 40
1
 40
1
 40
1
 10
575.958224
 20
98.576840
 30
0.0
 10
578.639264
 20
106.689336
 30
0.0
 10
585.955424
 20
128.600176
 30
0.0
 10
592.216144
 20
147.267584
 30
0.0
  0
SPLINE
  5
147
100
AcDbEntity
  8
0
 62
7
100
AcDbSpline
 70
8
 71
3
 72
8
 73
4
 74
0
 40
0
 40
0
 40
0
 40
0
 40
1
 40
1
 40
1
 40
1
 10
592.216144
 20
147.267584
 30
0.0
 10
598.476944
 20
165.935000
 30
0.0
 10
603.477984
 20
181.541048
 30
0.0
 10
603.329664
 20
181.947696
 30
0.0
  0
SPLINE
  5
148
100
AcDbEntity
  8
0
 62
7
100
AcDbSpline
 70
8
 71
3
 72
8
 73
4
 74
0
 40
0
 40
0
 40
0
 40
0
 40
1
 40
1
 40
1
 40
1
 10
603.329664
 20
181.947696
 30
0.0
 10
603.181264
 20
182.354344
 30
0.0
 10
602.276464
 20
182.109368
 30
0.0
 10
601.318944
 20
181.403296
 30
0.0
  0
SPLINE
  5
149
100
AcDbEntity
  8
0
 62
7
100
AcDbSpline
 70
8
 71
3
 72
8
 73
4
 74
0
 40
0
 40
0
 40
0
 40
0
 40
1
 40
1
 40
1
 40
1
 10
601.318944
 20
181.403296
 30
0.0
 10
599.812544
 20
180.292520
 30
0.0
 10
591.257664
 20
155.408560
 30
0.0
 10
571.296944
 20
94.076840
 30
0.0
  0
SPLINE
  5
14a
100
AcDbEntity
  8
0
 62
7
100
AcDbSpline
 70
8
 71
3
 72
8
 73
4
 74
0
 40
0
 40
0
 40
0
 40
0
 40
1
 40
1
 40
1
 40
1
 10
571.296944
 20
94.076840
 30
0.0
 10
569.451264
 20
88.405744
 30
0.0
 10
567.759024
 20
84.826824
 30
0.0
 10
566.923184
 20
84.826824
 30
0.0
  0
SPLINE
  5
14b
100
AcDbEntity
  8
0
 62
7
100
AcDbSpline
 70
8
 71
3
 72
8
 73
4
 74
0
 40
0
 40
0
 40
0
 40
0
 40
1
 40
1
 40
1
 40
1
 10
566.923184
 20
84.826824
 30
0.0
 10
565.171984
 20
84.826824
 30
0.0
 10
565.253424
 20
87.517336
 30
0.0
 10
567.120064
 20
91.326840
 30
0.0
  0
SPLINE
  5
14c
100
AcDbEntity
  8
0
 62
7
100
AcDbSpline
 70
8
 71
3
 72
8
 73
4
 74
0
 40
0
 40
0
 40
0
 40
0
 40
1
 40
1
 40
1
 40
1
 10
567.120064
 20
91.326840
 30
0.0
 10
567.928544
 20
92.976840
 30
0.0
 10
568.356384
 20
93.497528
 30
0.0
 10
568.070704
 20
92.483936
 30
0.0
  0
SPLINE
  5
14d
100
AcDbEntity
  8
0
 62
7
100
AcDbSpline
 70
8
 71
3
 72
8
 73
4
 74
0
 40
0
 40
0
 40
0
 40
0
 40
1
 40
1
 40
1
 40
1
 10
568.070704
 20
92.483936
 30
0.0
 10
566.824064
 20
88.060080
 30
0.0
 10
566.318624
 20
85.363624
 30
0.0
 10
566.822864
 20
85.826824
 30
0.0
  0
SPLINE
  5
14e
100
AcDbEntity
  8
0
 62
7
100
AcDbSpline
 70
8
 71
3
 72
8
 73
4
 74
0
 40
0
 40
0
 40
0
 40
0
 40
1
 40
1
 40
1
 40
1
 10
566.822864
 20
85.826824
 30
0.0
 10
567.122224
 20
86.101864
 30
0.0
 10
569.923584
 20
94.876840
 30
0.0
 10
573.048144
 20
105.326840
 30
0.0
  0
SPLINE
  5
14f
100
AcDbEntity
  8
0
 62
7
100
AcDbSpline
 70
8
 71
3
 72
8
 73
4
 74
0
 40
0
 40
0
 40
0
 40
0
 40
1
 40
1
 40
1
 40
1
 10
573.048144
 20
105.326840
 30
0.0
 10
583.482064
 20
140.223560
 30
0.0
 10
596.831344
 20
180.098320
 30
0.0
 10
598.708784
 20
181.975688
 30
0.0
  0
SPLINE
  5
150
100
AcDbEntity
  8
0
 62
7
100
AcDbSpline
 70
8
 71
3
 72
8
 73
4
 74
0
 40
0
 40
0
 40
0
 40
0
 40
1
 40
1
 40
1
 40
1
 10
598.708784
 20
181.975688
 30
0.0
 10
600.510304
 20
183.777216
 30
0.0
 10
600.211424
 20
183.826840
 30
0.0
 10
587.559904
 20
183.826840
 30
0.0
  0
SPLINE
  5
151
100
AcDbEntity
  8
0
 62
7
100
AcDbSpline
 70
8
 71
3
 72
8
 73
4
 74
0
 40
0
 40
0
 40
0
 40
0
 40
1
 40
1
 40
1
 40
1
 10
587.559904
 20
183.826840
 30
0.0
 10
577.559904
 20
183.826840
 30
0.0
 10
574.559904
 20
183.526840
 30
0.0
 10
574.559904
 20
182.526840
 30
0.0
  0
SPLINE
  5
152
100
AcDbEntity
  8
0
 62
7
100
AcDbSpline
 70
8
 71
3
 72
8
 73
4
 74
0
 40
0
 40
0
 40
0
 40
0
 40
1
 40
1
 40
1
 40
1
 10
574.559904
 20
182.526840
 30
0.0
 10
574.559904
 20
181.811840
 30
0.0
 10
575.044384
 20
180.742368
 30
0.0
 10
575.636464
 20
180.150248
 30
0.0
  0
SPLINE
  5
153
100
AcDbEntity
  8
0
 62
7
100
AcDbSpline
 70
8
 71
3
 72
8
 73
4
 74
0
 40
0
 40
0
 40
0
 40
0
 40
1
 40
1
 40
1
 40
1
 10
575.636464
 20
180.150248
 30
0.0
 10
576.405264
 20
179.381456
 30
0.0
 10
573.818784
 20
170.395176
 30
0.0
 10
566.589904
 20
148.719368
 30
0.0
  0
SPLINE
  5
154
100
AcDbEntity
  8
0
 62
7
100
AcDbSpline
 70
8
 71
3
 72
8
 73
4
 74
0
 40
0
 40
0
 40
0
 40
0
 40
1
 40
1
 40
1
 40
1
 10
566.589904
 20
148.719368
 30
0.0
 10
560.239184
 20
129.676680
 30
0.0
 10
556.318704
 20
116.308360
 30
0.0
 10
556.069424
 20
112.845960
 30
0.0
  0
SPLINE
  5
155
100
AcDbEntity
  8
0
 62
7
100
AcDbSpline
 70
8
 71
3
 72
8
 73
4
 74
0
 40
0
 40
0
 40
0
 40
0
 40
1
 40
1
 40
1
 40
1
 10
556.069424
 20
112.845960
 30
0.0
 10
555.619664
 20
106.599344
 30
0.0
 10
554.069504
 20
100.759848
 30
0.0
 10
552.623824
 20
99.866368
 30
0.0
  0
SPLINE
  5
156
100
AcDbEntity
  8
0
 62
7
100
AcDbSpline
 70
8
 71
3
 72
8
 73
4
 74
0
 40
0
 40
0
 40
0
 40
0
 40
1
 40
1
 40
1
 40
1
 10
552.623824
 20
99.866368
 30
0.0
 10
552.088944
 20
99.535768
 30
0.0
 10
549.889904
 20
99.433248
 30
0.0
 10
547.737104
 20
99.638544
 30
0.0
  0
LWPOLYLINE
  5
157
100
AcDbEntity
  8
0
 62
7
100
AcDbPolyline
 90
2
 70
1
 10
527.110944
 20
83.058024
 30
0.0
 10
527.110944
 20
83.058024
 30
0.0
  0
SPLINE
  5
158
100
AcDbEntity
  8
0
 62
7
100
AcDbSpline
 70
8
 71
3
 72
8
 73
4
 74
0
 40
0
 40
0
 40
0
 40
0
 40
1
 40
1
 40
1
 40
1
 10
541.691424
 20
107.789616
 30
0.0
 10
539.267184
 20
116.635496
 30
0.0
 10
538.979984
 20
119.175608
 30
0.0
 10
540.669584
 20
116.826840
 30
0.0
  0
SPLINE
  5
159
100
AcDbEntity
  8
0
 62
7
100
AcDbSpline
 70
8
 71
3
 72
8
 73
4
 74
0
 40
0
 40
0
 40
0
 40
0
 40
1
 40
1
 40
1
 40
1
 10
540.669584
 20
116.826840
 30
0.0
 10
541.567904
 20
115.578016
 30
0.0
 10
541.649424
 20
115.632576
 30
0.0
 10
541.156544
 20
117.152656
 30
0.0
  0
SPLINE
  5
15a
100
AcDbEntity
  8
0
 62
7
100
AcDbSpline
 70
8
 71
3
 72
8
 73
4
 74
0
 40
0
 40
0
 40
0
 40
0
 40
1
 40
1
 40
1
 40
1
 10
541.156544
 20
117.152656
 30
0.0
 10
540.830944
 20
118.156856
 30
0.0
 10
537.866304
 20
128.457280
 30
0.0
 10
534.568624
 20
140.042488
 30
0.0
  0
SPLINE
  5
15b
100
AcDbEntity
  8
0
 62
7
100
AcDbSpline
 70
8
 71
3
 72
8
 73
4
 74
0
 40
0
 40
0
 40
0
 40
0
 40
1
 40
1
 40
1
 40
1
 10
534.568624
 20
140.042488
 30
0.0
 10
531.270864
 20
151.627688
 30
0.0
 10
528.074624
 20
161.706600
 30
0.0
 10
527.465904
 20
162.440064
 30
0.0
  0
SPLINE
  5
15c
100
AcDbEntity
  8
0
 62
7
100
AcDbSpline
 70
8
 71
3
 72
8
 73
4
 74
0
 40
0
 40
0
 40
0
 40
0
 40
1
 40
1
 40
1
 40
1
 10
527.465904
 20
162.440064
 30
0.0
 10
526.857184
 20
163.173528
 30
0.0
 10
525.301584
 20
167.201336
 30
0.0
 10
524.009024
 20
171.390768
 30
0.0
  0
LWPOLYLINE
  5
15d
100
AcDbEntity
  8
0
 62
7
100
AcDbPolyline
 90
3
 70
1
 10
547.737104
 20
99.638544
 30
0.0
 10
543.822944
 20
100.011816
 30
0.0
 10
541.691424
 20
107.789616
 30
0.0
  0
SPLINE
  5
15e
100
AcDbEntity
  8
0
 62
7
100
AcDbSpline
 70
8
 71
3
 72
8
 73
4
 74
0
 40
0
 40
0
 40
0
 40
0
 40
1
 40
1
 40
1
 40
1
 10
512.809904
 20
183.795240
 30
0.0
 10
504.972384
 20
183.812600
 30
0.0
 10
498.559904
 20
183.619368
 30
0.0
 10
498.559904
 20
183.365800
 30
0.0
  0
SPLINE
  5
15f
100
AcDbEntity
  8
0
 62
7
100
AcDbSpline
 70
8
 71
3
 72
8
 73
4
 74
0
 40
0
 40
0
 40
0
 40
0
 40
1
 40
1
 40
1
 40
1
 10
498.559904
 20
183.365800
 30
0.0
 10
498.559904
 20
183.112216
 30
0.0
 10
499.572384
 20
181.921040
 30
0.0
 10
500.809904
 20
180.718728
 30
0.0
  0
SPLINE
  5
160
100
AcDbEntity
  8
0
 62
7
100
AcDbSpline
 70
8
 71
3
 72
8
 73
4
 74
0
 40
0
 40
0
 40
0
 40
0
 40
1
 40
1
 40
1
 40
1
 10
500.809904
 20
180.718728
 30
0.0
 10
502.047424
 20
179.516416
 30
0.0
 10
502.497424
 20
178.850440
 30
0.0
 10
501.809904
 20
179.238784
 30
0.0
  0
SPLINE
  5
161
100
AcDbEntity
  8
0
 62
7
100
AcDbSpline
 70
8
 71
3
 72
8
 73
4
 74
0
 40
0
 40
0
 40
0
 40
0
 40
1
 40
1
 40
1
 40
1
 10
501.809904
 20
179.238784
 30
0.0
 10
500.260304
 20
180.114128
 30
0.0
 10
500.224464
 20
179.322088
 30
0.0
 10
501.689904
 20
176.583864
 30
0.0
  0
SPLINE
  5
162
100
AcDbEntity
  8
0
 62
7
100
AcDbSpline
 70
8
 71
3
 72
8
 73
4
 74
0
 40
0
 40
0
 40
0
 40
0
 40
1
 40
1
 40
1
 40
1
 10
501.689904
 20
176.583864
 30
0.0
 10
502.311424
 20
175.422560
 30
0.0
 10
503.453424
 20
171.739640
 30
0.0
 10
504.227744
 20
168.399616
 30
0.0
  0
SPLINE
  5
163
100
AcDbEntity
  8
0
 62
7
100
AcDbSpline
 70
8
 71
3
 72
8
 73
4
 74
0
 40
0
 40
0
 40
0
 40
0
 40
1
 40
1
 40
1
 40
1
 10
504.227744
 20
168.399616
 30
0.0
 10
505.001984
 20
165.059584
 30
0.0
 10
508.957504
 20
151.976840
 30
0.0
 10
513.017744
 20
139.326840
 30
0.0
  0
SPLINE
  5
164
100
AcDbEntity
  8
0
 62
7
100
AcDbSpline
 70
8
 71
3
 72
8
 73
4
 74
0
 40
0
 40
0
 40
0
 40
0
 40
1
 40
1
 40
1
 40
1
 10
513.017744
 20
139.326840
 30
0.0
 10
517.077984
 20
126.676840
 30
0.0
 10
521.482384
 20
112.835696
 30
0.0
 10
522.805264
 20
108.568760
 30
0.0
  0
SPLINE
  5
165
100
AcDbEntity
  8
0
 62
7
100
AcDbSpline
 70
8
 71
3
 72
8
 73
4
 74
0
 40
0
 40
0
 40
0
 40
0
 40
1
 40
1
 40
1
 40
1
 10
522.805264
 20
108.568760
 30
0.0
 10
524.128064
 20
104.301816
 30
0.0
 10
525.537824
 20
101.138096
 30
0.0
 10
525.937984
 20
101.538280
 30
0.0
  0
SPLINE
  5
166
100
AcDbEntity
  8
0
 62
7
100
AcDbSpline
 70
8
 71
3
 72
8
 73
4
 74
0
 40
0
 40
0
 40
0
 40
0
 40
1
 40
1
 40
1
 40
1
 10
525.937984
 20
101.538280
 30
0.0
 10
526.338224
 20
101.938456
 30
0.0
 10
526.408384
 20
101.595640
 30
0.0
 10
526.094064
 20
100.776456
 30
0.0
  0
SPLINE
  5
167
100
AcDbEntity
  8
0
 62
7
100
AcDbSpline
 70
8
 71
3
 72
8
 73
4
 74
0
 40
0
 40
0
 40
0
 40
0
 40
1
 40
1
 40
1
 40
1
 10
526.094064
 20
100.776456
 30
0.0
 10
525.779744
 20
99.957280
 30
0.0
 10
526.620384
 20
96.059160
 30
0.0
 10
527.962224
 20
92.113960
 30
0.0
  0
SPLINE
  5
168
100
AcDbEntity
  8
0
 62
7
100
AcDbSpline
 70
8
 71
3
 72
8
 73
4
 74
0
 40
0
 40
0
 40
0
 40
0
 40
1
 40
1
 40
1
 40
1
 10
527.962224
 20
92.113960
 30
0.0
 10
529.698624
 20
87.008736
 30
0.0
 10
530.064384
 20
84.803064
 30
0.0
 10
529.230944
 20
84.462824
 30
0.0
  0
SPLINE
  5
169
100
AcDbEntity
  8
0
 62
7
100
AcDbSpline
 70
8
 71
3
 72
8
 73
4
 74
0
 40
0
 40
0
 40
0
 40
0
 40
1
 40
1
 40
1
 40
1
 10
529.230944
 20
84.462824
 30
0.0
 10
528.586864
 20
84.199864
 30
0.0
 10
537.740224
 20
83.949224
 30
0.0
 10
549.571664
 20
83.905784
 30
0.0
  0
LWPOLYLINE
  5
16a
100
AcDbEntity
  8
0
 62
7
100
AcDbPolyline
 90
5
 70
1
 10
524.009024
 20
171.390768
 30
0.0
 10
521.658864
 20
179.007896
 30
0.0
 10
524.359424
 20
181.385768
 30
0.0
 10
527.059904
 20
183.763640
 30
0.0
 10
512.809904
 20
183.795240
 30
0.0
  0
SPLINE
  5
16b
100
AcDbEntity
  8
0
 62
7
100
AcDbSpline
 70
8
 71
3
 72
8
 73
4
 74
0
 40
0
 40
0
 40
0
 40
0
 40
1
 40
1
 40
1
 40
1
 10
506.321584
 20
179.534096
 30
0.0
 10
507.565504
 20
179.773288
 30
0.0
 10
509.365504
 20
179.764208
 30
0.0
 10
510.321584
 20
179.513856
 30
0.0
  0
SPLINE
  5
16c
100
AcDbEntity
  8
0
 62
7
100
AcDbSpline
 70
8
 71
3
 72
8
 73
4
 74
0
 40
0
 40
0
 40
0
 40
0
 40
1
 40
1
 40
1
 40
1
 10
510.321584
 20
179.513856
 30
0.0
 10
511.277664
 20
179.263568
 30
0.0
 10
510.259984
 20
179.067856
 30
0.0
 10
508.059904
 20
179.078960
 30
0.0
  0
SPLINE
  5
16d
100
AcDbEntity
  8
0
 62
7
100
AcDbSpline
 70
8
 71
3
 72
8
 73
4
 74
0
 40
0
 40
0
 40
0
 40
0
 40
1
 40
1
 40
1
 40
1
 10
508.059904
 20
179.078960
 30
0.0
 10
505.859904
 20
179.090080
 30
0.0
 10
505.077664
 20
179.294848
 30
0.0
 10
506.321584
 20
179.534040
 30
0.0
  0
LWPOLYLINE
  5
16e
100
AcDbEntity
  8
0
 62
7
100
AcDbPolyline
 90
4
 70
1
 10
549.571664
 20
83.905784
 30
0.0
 10
571.083424
 20
83.826584
 30
0.0
 10
575.958224
 20
98.576568
 30
0.0
 10
575.958224
 20
98.576840
 30
0.0
  0
SPLINE
  5
16f
100
AcDbEntity
  8
0
 62
7
100
AcDbSpline
 70
8
 71
3
 72
8
 73
4
 74
0
 40
0
 40
0
 40
0
 40
0
 40
1
 40
1
 40
1
 40
1
 10
578.309904
 20
179.489136
 30
0.0
 10
578.997424
 20
179.766544
 30
0.0
 10
580.122384
 20
179.766544
 30
0.0
 10
580.809904
 20
179.489136
 30
0.0
  0
SPLINE
  5
170
100
AcDbEntity
  8
0
 62
7
100
AcDbSpline
 70
8
 71
3
 72
8
 73
4
 74
0
 40
0
 40
0
 40
0
 40
0
 40
1
 40
1
 40
1
 40
1
 10
580.809904
 20
179.489136
 30
0.0
 10
581.497424
 20
179.211728
 30
0.0
 10
580.934864
 20
178.984744
 30
0.0
 10
579.559904
 20
178.984744
 30
0.0
  0
SPLINE
  5
171
100
AcDbEntity
  8
0
 62
7
100
AcDbSpline
 70
8
 71
3
 72
8
 73
4
 74
0
 40
0
 40
0
 40
0
 40
0
 40
1
 40
1
 40
1
 40
1
 10
579.559904
 20
178.984744
 30
0.0
 10
578.184864
 20
178.984744
 30
0.0
 10
577.622384
 20
179.211728
 30
0.0
 10
578.309904
 20
179.489136
 30
0.0
  0
LWPOLYLINE
  5
172
100
AcDbEntity
  8
0
 62
7
100
AcDbPolyline
 90
2
 70
1
 10
506.321584
 20
179.534040
 30
0.0
 10
506.321584
 20
179.534096
 30
0.0
  0
SPLINE
  5
173
100
AcDbEntity
  8
0
 62
7
100
AcDbSpline
 70
8
 71
3
 72
8
 73
4
 74
0
 40
0
 40
0
 40
0
 40
0
 40
1
 40
1
 40
1
 40
1
 10
585.809904
 20
179.543136
 30
0.0
 10
587.322384
 20
179.772264
 30
0.0
 10
589.797424
 20
179.772264
 30
0.0
 10
591.309904
 20
179.543136
 30
0.0
  0
SPLINE
  5
174
100
AcDbEntity
  8
0
 62
7
100
AcDbSpline
 70
8
 71
3
 72
8
 73
4
 74
0
 40
0
 40
0
 40
0
 40
0
 40
1
 40
1
 40
1
 40
1
 10
591.309904
 20
179.543136
 30
0.0
 10
592.822384
 20
179.314016
 30
0.0
 10
591.584864
 20
179.126544
 30
0.0
 10
588.559904
 20
179.126544
 30
0.0
  0
SPLINE
  5
175
100
AcDbEntity
  8
0
 62
7
100
AcDbSpline
 70
8
 71
3
 72
8
 73
4
 74
0
 40
0
 40
0
 40
0
 40
0
 40
1
 40
1
 40
1
 40
1
 10
588.559904
 20
179.126544
 30
0.0
 10
585.534864
 20
179.126544
 30
0.0
 10
584.297424
 20
179.314016
 30
0.0
 10
585.809904
 20
179.543136
 30
0.0
  0
LWPOLYLINE
  5
176
100
AcDbEntity
  8
0
 62
7
100
AcDbPolyline
 90
2
 70
1
 10
578.309904
 20
179.489136
 30
0.0
 10
578.309904
 20
179.489136
 30
0.0
  0
SPLINE
  5
177
100
AcDbEntity
  8
0
 62
7
100
AcDbSpline
 70
8
 71
3
 72
8
 73
4
 74
0
 40
0
 40
0
 40
0
 40
0
 40
1
 40
1
 40
1
 40
1
 10
550.559904
 20
104.126880
 30
0.0
 10
550.559904
 20
105.941880
 30
0.0
 10
551.099904
 20
107.966880
 30
0.0
 10
551.759904
 20
108.626880
 30
0.0
  0
SPLINE
  5
178
100
AcDbEntity
  8
0
 62
7
100
AcDbSpline
 70
8
 71
3
 72
8
 73
4
 74
0
 40
0
 40
0
 40
0
 40
0
 40
1
 40
1
 40
1
 40
1
 10
551.759904
 20
108.626880
 30
0.0
 10
552.419904
 20
109.286880
 30
0.0
 10
552.656064
 20
109.826880
 30
0.0
 10
552.284624
 20
109.826880
 30
0.0
  0
SPLINE
  5
179
100
AcDbEntity
  8
0
 62
7
100
AcDbSpline
 70
8
 71
3
 72
8
 73
4
 74
0
 40
0
 40
0
 40
0
 40
0
 40
1
 40
1
 40
1
 40
1
 10
552.284624
 20
109.826880
 30
0.0
 10
551.913264
 20
109.826880
 30
0.0
 10
552.083904
 20
111.064376
 30
0.0
 10
552.663904
 20
112.576880
 30
0.0
  0
SPLINE
  5
17a
100
AcDbEntity
  8
0
 62
7
100
AcDbSpline
 70
8
 71
3
 72
8
 73
4
 74
0
 40
0
 40
0
 40
0
 40
0
 40
1
 40
1
 40
1
 40
1
 10
552.663904
 20
112.576880
 30
0.0
 10
553.243904
 20
114.089376
 30
0.0
 10
557.023824
 20
126.126880
 30
0.0
 10
561.063664
 20
139.326880
 30
0.0
  0
SPLINE
  5
17b
100
AcDbEntity
  8
0
 62
7
100
AcDbSpline
 70
8
 71
3
 72
8
 73
4
 74
0
 40
0
 40
0
 40
0
 40
0
 40
1
 40
1
 40
1
 40
1
 10
561.063664
 20
139.326880
 30
0.0
 10
565.103504
 20
152.526880
 30
0.0
 10
569.558384
 20
166.476880
 30
0.0
 10
570.963264
 20
170.326880
 30
0.0
  0
SPLINE
  5
17c
100
AcDbEntity
  8
0
 62
7
100
AcDbSpline
 70
8
 71
3
 72
8
 73
4
 74
0
 40
0
 40
0
 40
0
 40
0
 40
1
 40
1
 40
1
 40
1
 10
570.963264
 20
170.326880
 30
0.0
 10
573.480224
 20
177.224200
 30
0.0
 10
574.465424
 20
184.178768
 30
0.0
 10
572.656144
 20
182.276880
 30
0.0
  0
SPLINE
  5
17d
100
AcDbEntity
  8
0
 62
7
100
AcDbSpline
 70
8
 71
3
 72
8
 73
4
 74
0
 40
0
 40
0
 40
0
 40
0
 40
1
 40
1
 40
1
 40
1
 10
572.656144
 20
182.276880
 30
0.0
 10
572.159104
 20
181.754376
 30
0.0
 10
570.146544
 20
175.926880
 30
0.0
 10
568.183824
 20
169.326880
 30
0.0
  0
SPLINE
  5
17e
100
AcDbEntity
  8
0
 62
7
100
AcDbSpline
 70
8
 71
3
 72
8
 73
4
 74
0
 40
0
 40
0
 40
0
 40
0
 40
1
 40
1
 40
1
 40
1
 10
568.183824
 20
169.326880
 30
0.0
 10
557.422224
 20
133.138760
 30
0.0
 10
551.727584
 20
114.661216
 30
0.0
 10
551.161904
 20
114.095544
 30
0.0
  0
SPLINE
  5
17f
100
AcDbEntity
  8
0
 62
7
100
AcDbSpline
 70
8
 71
3
 72
8
 73
4
 74
0
 40
0
 40
0
 40
0
 40
0
 40
1
 40
1
 40
1
 40
1
 10
551.161904
 20
114.095544
 30
0.0
 10
549.694704
 20
112.628360
 30
0.0
 10
548.186144
 20
116.736640
 30
0.0
 10
540.961104
 20
141.875008
 30
0.0
  0
SPLINE
  5
180
100
AcDbEntity
  8
0
 62
7
100
AcDbSpline
 70
8
 71
3
 72
8
 73
4
 74
0
 40
0
 40
0
 40
0
 40
0
 40
1
 40
1
 40
1
 40
1
 10
540.961104
 20
141.875008
 30
0.0
 10
536.779744
 20
156.423536
 30
0.0
 10
532.453104
 20
171.476880
 30
0.0
 10
531.346464
 20
175.326880
 30
0.0
  0
SPLINE
  5
181
100
AcDbEntity
  8
0
 62
7
100
AcDbSpline
 70
8
 71
3
 72
8
 73
4
 74
0
 40
0
 40
0
 40
0
 40
0
 40
1
 40
1
 40
1
 40
1
 10
531.346464
 20
175.326880
 30
0.0
 10
530.239744
 20
179.176880
 30
0.0
 10
529.170864
 20
182.503504
 30
0.0
 10
528.971264
 20
182.719376
 30
0.0
  0
SPLINE
  5
182
100
AcDbEntity
  8
0
 62
7
100
AcDbSpline
 70
8
 71
3
 72
8
 73
4
 74
0
 40
0
 40
0
 40
0
 40
0
 40
1
 40
1
 40
1
 40
1
 10
528.971264
 20
182.719376
 30
0.0
 10
528.771584
 20
182.935256
 30
0.0
 10
527.884304
 20
182.511040
 30
0.0
 10
526.999424
 20
181.776680
 30
0.0
  0
SPLINE
  5
183
100
AcDbEntity
  8
0
 62
7
100
AcDbSpline
 70
8
 71
3
 72
8
 73
4
 74
0
 40
0
 40
0
 40
0
 40
0
 40
1
 40
1
 40
1
 40
1
 10
526.999424
 20
181.776680
 30
0.0
 10
525.021184
 20
180.134888
 30
0.0
 10
525.765824
 20
173.489760
 30
0.0
 10
528.636144
 20
167.171216
 30
0.0
  0
SPLINE
  5
184
100
AcDbEntity
  8
0
 62
7
100
AcDbSpline
 70
8
 71
3
 72
8
 73
4
 74
0
 40
0
 40
0
 40
0
 40
0
 40
1
 40
1
 40
1
 40
1
 10
528.636144
 20
167.171216
 30
0.0
 10
529.674464
 20
164.885600
 30
0.0
 10
532.143744
 20
157.037224
 30
0.0
 10
534.123424
 20
149.730376
 30
0.0
  0
SPLINE
  5
185
100
AcDbEntity
  8
0
 62
7
100
AcDbSpline
 70
8
 71
3
 72
8
 73
4
 74
0
 40
0
 40
0
 40
0
 40
0
 40
1
 40
1
 40
1
 40
1
 10
534.123424
 20
149.730376
 30
0.0
 10
536.103184
 20
142.423528
 30
0.0
 10
539.441664
 20
130.793576
 30
0.0
 10
541.542304
 20
123.886040
 30
0.0
  0
SPLINE
  5
186
100
AcDbEntity
  8
0
 62
7
100
AcDbSpline
 70
8
 71
3
 72
8
 73
4
 74
0
 40
0
 40
0
 40
0
 40
0
 40
1
 40
1
 40
1
 40
1
 10
541.542304
 20
123.886040
 30
0.0
 10
546.277184
 20
108.316328
 30
0.0
 10
547.157904
 20
104.339248
 30
0.0
 10
545.666864
 20
105.260784
 30
0.0
  0
SPLINE
  5
187
100
AcDbEntity
  8
0
 62
7
100
AcDbSpline
 70
8
 71
3
 72
8
 73
4
 74
0
 40
0
 40
0
 40
0
 40
0
 40
1
 40
1
 40
1
 40
1
 10
545.666864
 20
105.260784
 30
0.0
 10
544.395904
 20
106.046264
 30
0.0
 10
544.302704
 20
105.660648
 30
0.0
 10
545.199104
 20
103.324816
 30
0.0
  0
SPLINE
  5
188
100
AcDbEntity
  8
0
 62
7
100
AcDbSpline
 70
8
 71
3
 72
8
 73
4
 74
0
 40
0
 40
0
 40
0
 40
0
 40
1
 40
1
 40
1
 40
1
 10
545.199104
 20
103.324816
 30
0.0
 10
545.708944
 20
101.996128
 30
0.0
 10
546.009264
 20
101.929008
 30
0.0
 10
546.683744
 20
102.993024
 30
0.0
  0
SPLINE
  5
189
100
AcDbEntity
  8
0
 62
7
100
AcDbSpline
 70
8
 71
3
 72
8
 73
4
 74
0
 40
0
 40
0
 40
0
 40
0
 40
1
 40
1
 40
1
 40
1
 10
546.683744
 20
102.993024
 30
0.0
 10
547.331264
 20
104.014520
 30
0.0
 10
547.532864
 20
103.917056
 30
0.0
 10
547.544624
 20
102.576880
 30
0.0
  0
SPLINE
  5
18a
100
AcDbEntity
  8
0
 62
7
100
AcDbSpline
 70
8
 71
3
 72
8
 73
4
 74
0
 40
0
 40
0
 40
0
 40
0
 40
1
 40
1
 40
1
 40
1
 10
547.544624
 20
102.576880
 30
0.0
 10
547.552624
 20
101.614376
 30
0.0
 10
548.234864
 20
100.826880
 30
0.0
 10
549.059904
 20
100.826880
 30
0.0
  0
SPLINE
  5
18b
100
AcDbEntity
  8
0
 62
7
100
AcDbSpline
 70
8
 71
3
 72
8
 73
4
 74
0
 40
0
 40
0
 40
0
 40
0
 40
1
 40
1
 40
1
 40
1
 10
549.059904
 20
100.826880
 30
0.0
 10
550.090224
 20
100.826880
 30
0.0
 10
550.559904
 20
101.860208
 30
0.0
 10
550.559904
 20
104.126880
 30
0.0
  0
LWPOLYLINE
  5
18c
100
AcDbEntity
  8
0
 62
7
100
AcDbPolyline
 90
2
 70
1
 10
585.809904
 20
179.543136
 30
0.0
 10
585.809904
 20
179.543136
 30
0.0
  0
SPLINE
  5
18d
100
AcDbEntity
  8
0
 62
7
100
AcDbSpline
 70
8
 71
3
 72
8
 73
4
 74
0
 40
0
 40
0
 40
0
 40
0
 40
1
 40
1
 40
1
 40
1
 10
553.474304
 20
107.326880
 30
0.0
 10
553.504704
 20
107.876880
 30
0.0
 10
553.093024
 20
107.651880
 30
0.0
 10
552.559904
 20
106.826880
 30
0.0
  0
SPLINE
  5
18e
100
AcDbEntity
  8
0
 62
7
100
AcDbSpline
 70
8
 71
3
 72
8
 73
4
 74
0
 40
0
 40
0
 40
0
 40
0
 40
1
 40
1
 40
1
 40
1
 10
552.559904
 20
106.826880
 30
0.0
 10
552.026704
 20
106.001880
 30
0.0
 10
551.615264
 20
104.651880
 30
0.0
 10
551.645504
 20
103.826880
 30
0.0
  0
SPLINE
  5
18f
100
AcDbEntity
  8
0
 62
7
100
AcDbSpline
 70
8
 71
3
 72
8
 73
4
 74
0
 40
0
 40
0
 40
0
 40
0
 40
1
 40
1
 40
1
 40
1
 10
551.645504
 20
103.826880
 30
0.0
 10
551.703104
 20
102.243024
 30
0.0
 10
553.370144
 20
105.432656
 30
0.0
 10
553.474304
 20
107.326880
 30
0.0
  0
LWPOLYLINE
  5
190
100
AcDbEntity
  8
0
 62
7
100
AcDbPolyline
 90
2
 70
1
 10
550.559904
 20
104.126880
 30
0.0
 10
550.559904
 20
104.126880
 30
0.0
  0
SPLINE
  5
191
100
AcDbEntity
  8
0
 62
7
100
AcDbSpline
 70
8
 71
3
 72
8
 73
4
 74
0
 40
0
 40
0
 40
0
 40
0
 40
1
 40
1
 40
1
 40
1
 10
555.529264
 20
112.326880
 30
0.0
 10
555.529264
 20
112.876880
 30
0.0
 10
555.093024
 20
112.651880
 30
0.0
 10
554.559904
 20
111.826880
 30
0.0
  0
SPLINE
  5
192
100
AcDbEntity
  8
0
 62
7
100
AcDbSpline
 70
8
 71
3
 72
8
 73
4
 74
0
 40
0
 40
0
 40
0
 40
0
 40
1
 40
1
 40
1
 40
1
 10
554.559904
 20
111.826880
 30
0.0
 10
554.026704
 20
111.001880
 30
0.0
 10
553.590544
 20
109.876880
 30
0.0
 10
553.590544
 20
109.326880
 30
0.0
  0
SPLINE
  5
193
100
AcDbEntity
  8
0
 62
7
100
AcDbSpline
 70
8
 71
3
 72
8
 73
4
 74
0
 40
0
 40
0
 40
0
 40
0
 40
1
 40
1
 40
1
 40
1
 10
553.590544
 20
109.326880
 30
0.0
 10
553.590544
 20
108.776880
 30
0.0
 10
554.026704
 20
109.001880
 30
0.0
 10
554.559904
 20
109.826880
 30
0.0
  0
SPLINE
  5
194
100
AcDbEntity
  8
0
 62
7
100
AcDbSpline
 70
8
 71
3
 72
8
 73
4
 74
0
 40
0
 40
0
 40
0
 40
0
 40
1
 40
1
 40
1
 40
1
 10
554.559904
 20
109.826880
 30
0.0
 10
555.093024
 20
110.651880
 30
0.0
 10
555.529264
 20
111.776880
 30
0.0
 10
555.529264
 20
112.326880
 30
0.0
  0
LWPOLYLINE
  5
195
100
AcDbEntity
  8
0
 62
7
100
AcDbPolyline
 90
2
 70
1
 10
553.474304
 20
107.326880
 30
0.0
 10
553.474304
 20
107.326880
 30
0.0
  0
SPLINE
  5
196
100
AcDbEntity
  8
0
 62
7
100
AcDbSpline
 70
8
 71
3
 72
8
 73
4
 74
0
 40
0
 40
0
 40
0
 40
0
 40
1
 40
1
 40
1
 40
1
 10
497.506464
 20
181.183096
 30
0.0
 10
496.543664
 20
182.070544
 30
0.0
 10
496.410544
 20
181.916360
 30
0.0
 10
496.912704
 20
180.495088
 30
0.0
  0
SPLINE
  5
197
100
AcDbEntity
  8
0
 62
7
100
AcDbSpline
 70
8
 71
3
 72
8
 73
4
 74
0
 40
0
 40
0
 40
0
 40
0
 40
1
 40
1
 40
1
 40
1
 10
496.912704
 20
180.495088
 30
0.0
 10
497.268704
 20
179.487608
 30
0.0
 10
497.612064
 20
178.137608
 30
0.0
 10
497.675904
 20
177.495088
 30
0.0
  0
SPLINE
  5
198
100
AcDbEntity
  8
0
 62
7
100
AcDbSpline
 70
8
 71
3
 72
8
 73
4
 74
0
 40
0
 40
0
 40
0
 40
0
 40
1
 40
1
 40
1
 40
1
 10
497.675904
 20
177.495088
 30
0.0
 10
497.739904
 20
176.852576
 30
0.0
 10
498.006864
 20
177.162176
 30
0.0
 10
498.269664
 20
178.183096
 30
0.0
  0
SPLINE
  5
199
100
AcDbEntity
  8
0
 62
7
100
AcDbSpline
 70
8
 71
3
 72
8
 73
4
 74
0
 40
0
 40
0
 40
0
 40
0
 40
1
 40
1
 40
1
 40
1
 10
498.269664
 20
178.183096
 30
0.0
 10
498.532464
 20
179.204016
 30
0.0
 10
498.188944
 20
180.554016
 30
0.0
 10
497.506464
 20
181.183096
 30
0.0
  0
LWPOLYLINE
  5
19a
100
AcDbEntity
  8
0
 62
7
100
AcDbPolyline
 90
2
 70
1
 10
555.529264
 20
112.326880
 30
0.0
 10
555.529264
 20
112.326880
 30
0.0
  0
LWPOLYLINE
  5
19b
100
AcDbEntity
  8
0
 62
7
100
AcDbPolyline
 90
2
 70
1
 10
497.506464
 20
181.183096
 30
0.0
 10
497.506464
 20
181.183096
 30
0.0
  0
SPLINE
  5
19c
100
AcDbEntity
  8
0
 62
7
100
AcDbSpline
 70
8
 71
3
 72
8
 73
4
 74
0
 40
0
 40
0
 40
0
 40
0
 40
1
 40
1
 40
1
 40
1
 10
628.309904
 20
185.601056
 30
0.0
 10
637.522384
 20
185.450256
 30
0.0
 10
644.947424
 20
184.989376
 30
0.0
 10
644.809904
 20
184.576880
 30
0.0
  0
SPLINE
  5
19d
100
AcDbEntity
  8
0
 62
7
100
AcDbSpline
 70
8
 71
3
 72
8
 73
4
 74
0
 40
0
 40
0
 40
0
 40
0
 40
1
 40
1
 40
1
 40
1
 10
644.809904
 20
184.576880
 30
0.0
 10
644.672384
 20
184.164376
 30
0.0
 10
644.559904
 20
160.876880
 30
0.0
 10
644.559904
 20
132.826880
 30
0.0
  0
LWPOLYLINE
  5
19e
100
AcDbEntity
  8
0
 62
7
100
AcDbPolyline
 90
3
 70
1
 10
611.559904
 20
133.851056
 30
0.0
 10
611.559904
 20
185.875240
 30
0.0
 10
628.309904
 20
185.601056
 30
0.0
  0
SPLINE
  5
19f
100
AcDbEntity
  8
0
 62
7
100
AcDbSpline
 70
8
 71
3
 72
8
 73
4
 74
0
 40
0
 40
0
 40
0
 40
0
 40
1
 40
1
 40
1
 40
1
 10
643.559904
 20
132.910208
 30
0.0
 10
643.559904
 20
171.732344
 30
0.0
 10
643.298544
 20
181.906464
 30
0.0
 10
642.309904
 20
181.577040
 30
0.0
  0
SPLINE
  5
1a0
100
AcDbEntity
  8
0
 62
7
100
AcDbSpline
 70
8
 71
3
 72
8
 73
4
 74
0
 40
0
 40
0
 40
0
 40
0
 40
1
 40
1
 40
1
 40
1
 10
642.309904
 20
181.577040
 30
0.0
 10
641.337824
 20
181.253120
 30
0.0
 10
641.002144
 20
170.451824
 30
0.0
 10
640.800304
 20
132.993696
 30
0.0
  0
SPLINE
  5
1a1
100
AcDbEntity
  8
0
 62
7
100
AcDbSpline
 70
8
 71
3
 72
8
 73
4
 74
0
 40
0
 40
0
 40
0
 40
0
 40
1
 40
1
 40
1
 40
1
 10
640.800304
 20
132.993696
 30
0.0
 10
640.579504
 20
92.028208
 30
0.0
 10
640.327024
 20
84.826864
 30
0.0
 10
639.111584
 20
84.826864
 30
0.0
  0
SPLINE
  5
1a2
100
AcDbEntity
  8
0
 62
7
100
AcDbSpline
 70
8
 71
3
 72
8
 73
4
 74
0
 40
0
 40
0
 40
0
 40
0
 40
1
 40
1
 40
1
 40
1
 10
639.111584
 20
84.826864
 30
0.0
 10
637.171104
 20
84.826864
 30
0.0
 10
636.097504
 20
92.513568
 30
0.0
 10
637.113424
 20
99.132496
 30
0.0
  0
SPLINE
  5
1a3
100
AcDbEntity
  8
0
 62
7
100
AcDbSpline
 70
8
 71
3
 72
8
 73
4
 74
0
 40
0
 40
0
 40
0
 40
0
 40
1
 40
1
 40
1
 40
1
 10
637.113424
 20
99.132496
 30
0.0
 10
638.019344
 20
105.034224
 30
0.0
 10
638.382704
 20
160.686928
 30
0.0
 10
637.584864
 20
171.326880
 30
0.0
  0
LWPOLYLINE
  5
1a4
100
AcDbEntity
  8
0
 62
7
100
AcDbPolyline
 90
6
 70
1
 10
644.559904
 20
132.826880
 30
0.0
 10
644.559904
 20
81.826864
 30
0.0
 10
628.059904
 20
81.826864
 30
0.0
 10
611.559904
 20
81.826864
 30
0.0
 10
611.559904
 20
133.851056
 30
0.0
 10
611.559904
 20
133.851056
 30
0.0
  0
SPLINE
  5
1a5
100
AcDbEntity
  8
0
 62
7
100
AcDbSpline
 70
8
 71
3
 72
8
 73
4
 74
0
 40
0
 40
0
 40
0
 40
0
 40
1
 40
1
 40
1
 40
1
 10
617.418464
 20
172.326880
 30
0.0
 10
617.065664
 20
169.026880
 30
0.0
 10
616.728144
 20
148.251880
 30
0.0
 10
616.668464
 20
126.160208
 30
0.0
  0
SPLINE
  5
1a6
100
AcDbEntity
  8
0
 62
7
100
AcDbSpline
 70
8
 71
3
 72
8
 73
4
 74
0
 40
0
 40
0
 40
0
 40
0
 40
1
 40
1
 40
1
 40
1
 10
616.668464
 20
126.160208
 30
0.0
 10
616.583904
 20
94.880376
 30
0.0
 10
616.836464
 20
85.881984
 30
0.0
 10
617.809904
 20
85.489184
 30
0.0
  0
SPLINE
  5
1a7
100
AcDbEntity
  8
0
 62
7
100
AcDbSpline
 70
8
 71
3
 72
8
 73
4
 74
0
 40
0
 40
0
 40
0
 40
0
 40
1
 40
1
 40
1
 40
1
 10
617.809904
 20
85.489184
 30
0.0
 10
618.556624
 20
85.187824
 30
0.0
 10
618.355344
 20
84.953024
 30
0.0
 10
617.309904
 20
84.905824
 30
0.0
  0
SPLINE
  5
1a8
100
AcDbEntity
  8
0
 62
7
100
AcDbSpline
 70
8
 71
3
 72
8
 73
4
 74
0
 40
0
 40
0
 40
0
 40
0
 40
1
 40
1
 40
1
 40
1
 10
617.309904
 20
84.905824
 30
0.0
 10
616.347424
 20
84.862624
 30
0.0
 10
615.479024
 20
84.939424
 30
0.0
 10
615.380144
 20
85.076864
 30
0.0
  0
SPLINE
  5
1a9
100
AcDbEntity
  8
0
 62
7
100
AcDbSpline
 70
8
 71
3
 72
8
 73
4
 74
0
 40
0
 40
0
 40
0
 40
0
 40
1
 40
1
 40
1
 40
1
 10
615.380144
 20
85.076864
 30
0.0
 10
615.281184
 20
85.214384
 30
0.0
 10
614.925824
 20
107.151880
 30
0.0
 10
614.590304
 20
133.826880
 30
0.0
  0
LWPOLYLINE
  5
1aa
100
AcDbEntity
  8
0
 62
7
100
AcDbPolyline
 90
5
 70
1
 10
637.584864
 20
171.326880
 30
0.0
 10
637.059904
 20
178.326880
 30
0.0
 10
627.559904
 20
178.326880
 30
0.0
 10
618.059904
 20
178.326880
 30
0.0
 10
617.418464
 20
172.326880
 30
0.0
  0
SPLINE
  5
1ab
100
AcDbEntity
  8
0
 62
7
100
AcDbSpline
 70
8
 71
3
 72
8
 73
4
 74
0
 40
0
 40
0
 40
0
 40
0
 40
1
 40
1
 40
1
 40
1
 10
617.948464
 20
99.326880
 30
0.0
 10
617.948464
 20
106.476880
 30
0.0
 10
618.109504
 20
109.270664
 30
0.0
 10
618.302384
 20
105.535288
 30
0.0
  0
SPLINE
  5
1ac
100
AcDbEntity
  8
0
 62
7
100
AcDbSpline
 70
8
 71
3
 72
8
 73
4
 74
0
 40
0
 40
0
 40
0
 40
0
 40
1
 40
1
 40
1
 40
1
 10
618.302384
 20
105.535288
 30
0.0
 10
618.495344
 20
101.799920
 30
0.0
 10
618.493904
 20
95.949920
 30
0.0
 10
618.302384
 20
92.535288
 30
0.0
  0
SPLINE
  5
1ad
100
AcDbEntity
  8
0
 62
7
100
AcDbSpline
 70
8
 71
3
 72
8
 73
4
 74
0
 40
0
 40
0
 40
0
 40
0
 40
1
 40
1
 40
1
 40
1
 10
618.302384
 20
92.535288
 30
0.0
 10
618.107664
 20
89.120664
 30
0.0
 10
617.949824
 20
92.176880
 30
0.0
 10
617.951584
 20
99.326880
 30
0.0
  0
LWPOLYLINE
  5
1ae
100
AcDbEntity
  8
0
 62
7
100
AcDbPolyline
 90
8
 70
1
 10
614.590304
 20
133.826880
 30
0.0
 10
613.980304
 20
182.326880
 30
0.0
 10
613.770144
 20
133.076880
 30
0.0
 10
613.559904
 20
83.826864
 30
0.0
 10
628.559904
 20
83.826864
 30
0.0
 10
643.559904
 20
83.826864
 30
0.0
 10
643.559904
 20
132.910208
 30
0.0
 10
643.559904
 20
132.910208
 30
0.0
  0
SPLINE
  5
1af
100
AcDbEntity
  8
0
 62
7
100
AcDbSpline
 70
8
 71
3
 72
8
 73
4
 74
0
 40
0
 40
0
 40
0
 40
0
 40
1
 40
1
 40
1
 40
1
 10
639.243024
 20
88.014376
 30
0.0
 10
638.923824
 20
88.812104
 30
0.0
 10
638.686864
 20
88.575160
 30
0.0
 10
638.638864
 20
87.410208
 30
0.0
  0
SPLINE
  5
1b0
100
AcDbEntity
  8
0
 62
7
100
AcDbSpline
 70
8
 71
3
 72
8
 73
4
 74
0
 40
0
 40
0
 40
0
 40
0
 40
1
 40
1
 40
1
 40
1
 10
638.638864
 20
87.410208
 30
0.0
 10
638.595664
 20
86.356064
 30
0.0
 10
638.831744
 20
85.765424
 30
0.0
 10
639.164064
 20
86.097744
 30
0.0
  0
SPLINE
  5
1b1
100
AcDbEntity
  8
0
 62
7
100
AcDbSpline
 70
8
 71
3
 72
8
 73
4
 74
0
 40
0
 40
0
 40
0
 40
0
 40
1
 40
1
 40
1
 40
1
 10
639.164064
 20
86.097744
 30
0.0
 10
639.496384
 20
86.429984
 30
0.0
 10
639.531904
 20
87.292504
 30
0.0
 10
639.243264
 20
88.014376
 30
0.0
  0
LWPOLYLINE
  5
1b2
100
AcDbEntity
  8
0
 62
7
100
AcDbPolyline
 90
2
 70
1
 10
617.951584
 20
99.326880
 30
0.0
 10
617.948464
 20
99.326880
 30
0.0
  0
LWPOLYLINE
  5
1b3
100
AcDbEntity
  8
0
 62
7
100
AcDbPolyline
 90
2
 70
1
 10
639.243264
 20
88.014376
 30
0.0
 10
639.243024
 20
88.014376
 30
0.0
  0
SPLINE
  5
1b4
100
AcDbEntity
  8
0
 62
7
100
AcDbSpline
 70
8
 71
3
 72
8
 73
4
 74
0
 40
0
 40
0
 40
0
 40
0
 40
1
 40
1
 40
1
 40
1
 10
628.038464
 20
183.826880
 30
0.0
 10
621.175264
 20
183.826880
 30
0.0
 10
615.559904
 20
183.572296
 30
0.0
 10
615.559904
 20
183.261136
 30
0.0
  0
SPLINE
  5
1b5
100
AcDbEntity
  8
0
 62
7
100
AcDbSpline
 70
8
 71
3
 72
8
 73
4
 74
0
 40
0
 40
0
 40
0
 40
0
 40
1
 40
1
 40
1
 40
1
 10
615.559904
 20
183.261136
 30
0.0
 10
615.559904
 20
182.949976
 30
0.0
 10
615.966464
 20
181.937480
 30
0.0
 10
616.463344
 20
181.011136
 30
0.0
  0
SPLINE
  5
1b6
100
AcDbEntity
  8
0
 62
7
100
AcDbSpline
 70
8
 71
3
 72
8
 73
4
 74
0
 40
0
 40
0
 40
0
 40
0
 40
1
 40
1
 40
1
 40
1
 10
616.463344
 20
181.011136
 30
0.0
 10
617.222624
 20
179.595624
 30
0.0
 10
619.050304
 20
179.326880
 30
0.0
 10
627.917744
 20
179.326880
 30
0.0
  0
SPLINE
  5
1b7
100
AcDbEntity
  8
0
 62
7
100
AcDbSpline
 70
8
 71
3
 72
8
 73
4
 74
0
 40
0
 40
0
 40
0
 40
0
 40
1
 40
1
 40
1
 40
1
 10
627.917744
 20
179.326880
 30
0.0
 10
637.889424
 20
179.326880
 30
0.0
 10
638.524944
 20
179.450416
 30
0.0
 10
639.492864
 20
181.576880
 30
0.0
  0
LWPOLYLINE
  5
1b8
100
AcDbEntity
  8
0
 62
7
100
AcDbPolyline
 90
3
 70
1
 10
639.492864
 20
181.576880
 30
0.0
 10
640.517024
 20
183.826880
 30
0.0
 10
628.038464
 20
183.826880
 30
0.0
  0
SPLINE
  5
1b9
100
AcDbEntity
  8
0
 62
7
100
AcDbSpline
 70
8
 71
3
 72
8
 73
4
 74
0
 40
0
 40
0
 40
0
 40
0
 40
1
 40
1
 40
1
 40
1
 10
657.284464
 20
82.435664
 30
0.0
 10
656.885904
 20
82.834144
 30
0.0
 10
656.559904
 20
106.260208
 30
0.0
 10
656.559904
 20
134.493544
 30
0.0
  0
LWPOLYLINE
  5
1ba
100
AcDbEntity
  8
0
 62
7
100
AcDbPolyline
 90
2
 70
1
 10
639.492864
 20
181.576880
 30
0.0
 10
639.492864
 20
181.576880
 30
0.0
  0
SPLINE
  5
1bb
100
AcDbEntity
  8
0
 62
7
100
AcDbSpline
 70
8
 71
3
 72
8
 73
4
 74
0
 40
0
 40
0
 40
0
 40
0
 40
1
 40
1
 40
1
 40
1
 10
689.078704
 20
185.826880
 30
0.0
 10
721.053584
 20
185.826880
 30
0.0
 10
721.715264
 20
185.785680
 30
0.0
 10
728.641744
 20
183.365744
 30
0.0
  0
SPLINE
  5
1bc
100
AcDbEntity
  8
0
 62
7
100
AcDbSpline
 70
8
 71
3
 72
8
 73
4
 74
0
 40
0
 40
0
 40
0
 40
0
 40
1
 40
1
 40
1
 40
1
 10
728.641744
 20
183.365744
 30
0.0
 10
735.932144
 20
180.818624
 30
0.0
 10
742.726464
 20
176.416816
 30
0.0
 10
748.257984
 20
170.656944
 30
0.0
  0
SPLINE
  5
1bd
100
AcDbEntity
  8
0
 62
7
100
AcDbSpline
 70
8
 71
3
 72
8
 73
4
 74
0
 40
0
 40
0
 40
0
 40
0
 40
1
 40
1
 40
1
 40
1
 10
748.257984
 20
170.656944
 30
0.0
 10
753.094784
 20
165.620416
 30
0.0
 10
756.139824
 20
157.650208
 30
0.0
 10
757.427344
 20
146.656440
 30
0.0
  0
SPLINE
  5
1be
100
AcDbEntity
  8
0
 62
7
100
AcDbSpline
 70
8
 71
3
 72
8
 73
4
 74
0
 40
0
 40
0
 40
0
 40
0
 40
1
 40
1
 40
1
 40
1
 10
757.427344
 20
146.656440
 30
0.0
 10
761.399344
 20
112.741096
 30
0.0
 10
754.454224
 20
94.155864
 30
0.0
 10
734.605664
 20
85.585184
 30
0.0
  0
LWPOLYLINE
  5
1bf
100
AcDbEntity
  8
0
 62
7
100
AcDbPolyline
 90
3
 70
1
 10
656.559904
 20
134.493544
 30
0.0
 10
656.559904
 20
185.826880
 30
0.0
 10
689.078704
 20
185.826880
 30
0.0
  0
SPLINE
  5
1c0
100
AcDbEntity
  8
0
 62
7
100
AcDbSpline
 70
8
 71
3
 72
8
 73
4
 74
0
 40
0
 40
0
 40
0
 40
0
 40
1
 40
1
 40
1
 40
1
 10
692.534464
 20
82.019024
 30
0.0
 10
673.545424
 20
81.849664
 30
0.0
 10
657.682944
 20
82.037424
 30
0.0
 10
657.284464
 20
82.435664
 30
0.0
  0
LWPOLYLINE
  5
1c1
100
AcDbEntity
  8
0
 62
7
100
AcDbPolyline
 90
3
 70
1
 10
734.605664
 20
85.585184
 30
0.0
 10
727.059904
 20
82.326864
 30
0.0
 10
692.534464
 20
82.019024
 30
0.0
  0
SPLINE
  5
1c2
100
AcDbEntity
  8
0
 62
7
100
AcDbSpline
 70
8
 71
3
 72
8
 73
4
 74
0
 40
0
 40
0
 40
0
 40
0
 40
1
 40
1
 40
1
 40
1
 10
725.559904
 20
84.826864
 30
0.0
 10
726.934864
 20
85.267264
 30
0.0
 10
727.609904
 20
85.695824
 30
0.0
 10
727.059904
 20
85.779344
 30
0.0
  0
SPLINE
  5
1c3
100
AcDbEntity
  8
0
 62
7
100
AcDbSpline
 70
8
 71
3
 72
8
 73
4
 74
0
 40
0
 40
0
 40
0
 40
0
 40
1
 40
1
 40
1
 40
1
 10
727.059904
 20
85.779344
 30
0.0
 10
726.509904
 20
85.862784
 30
0.0
 10
728.374464
 20
86.821208
 30
0.0
 10
731.203344
 20
87.909128
 30
0.0
  0
SPLINE
  5
1c4
100
AcDbEntity
  8
0
 62
7
100
AcDbSpline
 70
8
 71
3
 72
8
 73
4
 74
0
 40
0
 40
0
 40
0
 40
0
 40
1
 40
1
 40
1
 40
1
 10
731.203344
 20
87.909128
 30
0.0
 10
736.984864
 20
90.132560
 30
0.0
 10
744.867344
 20
96.586896
 30
0.0
 10
747.119104
 20
100.941376
 30
0.0
  0
SPLINE
  5
1c5
100
AcDbEntity
  8
0
 62
7
100
AcDbSpline
 70
8
 71
3
 72
8
 73
4
 74
0
 40
0
 40
0
 40
0
 40
0
 40
1
 40
1
 40
1
 40
1
 10
747.119104
 20
100.941376
 30
0.0
 10
747.939824
 20
102.528408
 30
0.0
 10
748.262224
 20
103.833768
 30
0.0
 10
747.835584
 20
103.842184
 30
0.0
  0
SPLINE
  5
1c6
100
AcDbEntity
  8
0
 62
7
100
AcDbSpline
 70
8
 71
3
 72
8
 73
4
 74
0
 40
0
 40
0
 40
0
 40
0
 40
1
 40
1
 40
1
 40
1
 10
747.835584
 20
103.842184
 30
0.0
 10
747.408944
 20
103.850184
 30
0.0
 10
747.670944
 20
104.244680
 30
0.0
 10
748.417824
 20
104.717896
 30
0.0
  0
SPLINE
  5
1c7
100
AcDbEntity
  8
0
 62
7
100
AcDbSpline
 70
8
 71
3
 72
8
 73
4
 74
0
 40
0
 40
0
 40
0
 40
0
 40
1
 40
1
 40
1
 40
1
 10
748.417824
 20
104.717896
 30
0.0
 10
750.675344
 20
106.148328
 30
0.0
 10
753.543584
 20
120.518024
 30
0.0
 10
753.552064
 20
130.440384
 30
0.0
  0
SPLINE
  5
1c8
100
AcDbEntity
  8
0
 62
7
100
AcDbSpline
 70
8
 71
3
 72
8
 73
4
 74
0
 40
0
 40
0
 40
0
 40
0
 40
1
 40
1
 40
1
 40
1
 10
753.552064
 20
130.440384
 30
0.0
 10
753.566464
 20
147.286824
 30
0.0
 10
750.415104
 20
156.590168
 30
0.0
 10
741.623504
 20
165.654864
 30
0.0
  0
SPLINE
  5
1c9
100
AcDbEntity
  8
0
 62
7
100
AcDbSpline
 70
8
 71
3
 72
8
 73
4
 74
0
 40
0
 40
0
 40
0
 40
0
 40
1
 40
1
 40
1
 40
1
 10
741.623504
 20
165.654864
 30
0.0
 10
733.068864
 20
174.475296
 30
0.0
 10
725.090624
 20
177.029816
 30
0.0
 10
700.559904
 20
178.802864
 30
0.0
  0
LWPOLYLINE
  5
1ca
100
AcDbEntity
  8
0
 62
7
100
AcDbPolyline
 90
2
 70
1
 10
657.284464
 20
82.435664
 30
0.0
 10
657.284464
 20
82.435664
 30
0.0
  0
SPLINE
  5
1cb
100
AcDbEntity
  8
0
 62
7
100
AcDbSpline
 70
8
 71
3
 72
8
 73
4
 74
0
 40
0
 40
0
 40
0
 40
0
 40
1
 40
1
 40
1
 40
1
 10
703.559904
 20
179.285728
 30
0.0
 10
726.157664
 20
178.672496
 30
0.0
 10
733.752384
 20
176.285208
 30
0.0
 10
743.891504
 20
166.607960
 30
0.0
  0
SPLINE
  5
1cc
100
AcDbEntity
  8
0
 62
7
100
AcDbSpline
 70
8
 71
3
 72
8
 73
4
 74
0
 40
0
 40
0
 40
0
 40
0
 40
1
 40
1
 40
1
 40
1
 10
743.891504
 20
166.607960
 30
0.0
 10
752.595504
 20
158.300488
 30
0.0
 10
755.570224
 20
149.218184
 30
0.0
 10
755.545104
 20
131.027656
 30
0.0
  0
SPLINE
  5
1cd
100
AcDbEntity
  8
0
 62
7
100
AcDbSpline
 70
8
 71
3
 72
8
 73
4
 74
0
 40
0
 40
0
 40
0
 40
0
 40
1
 40
1
 40
1
 40
1
 10
755.545104
 20
131.027656
 30
0.0
 10
755.532304
 20
121.754080
 30
0.0
 10
754.402944
 20
113.741624
 30
0.0
 10
752.063584
 20
106.326880
 30
0.0
  0
SPLINE
  5
1ce
100
AcDbEntity
  8
0
 62
7
100
AcDbSpline
 70
8
 71
3
 72
8
 73
4
 74
0
 40
0
 40
0
 40
0
 40
0
 40
1
 40
1
 40
1
 40
1
 10
752.063584
 20
106.326880
 30
0.0
 10
751.650704
 20
105.018184
 30
0.0
 10
751.945904
 20
105.204560
 30
0.0
 10
752.917744
 20
106.866056
 30
0.0
  0
SPLINE
  5
1cf
100
AcDbEntity
  8
0
 62
7
100
AcDbSpline
 70
8
 71
3
 72
8
 73
4
 74
0
 40
0
 40
0
 40
0
 40
0
 40
1
 40
1
 40
1
 40
1
 10
752.917744
 20
106.866056
 30
0.0
 10
754.712304
 20
109.934336
 30
0.0
 10
757.559904
 20
124.368768
 30
0.0
 10
757.559904
 20
130.397296
 30
0.0
  0
SPLINE
  5
1d0
100
AcDbEntity
  8
0
 62
7
100
AcDbSpline
 70
8
 71
3
 72
8
 73
4
 74
0
 40
0
 40
0
 40
0
 40
0
 40
1
 40
1
 40
1
 40
1
 10
757.559904
 20
130.397296
 30
0.0
 10
757.559904
 20
137.891240
 30
0.0
 10
754.405104
 20
155.103344
 30
0.0
 10
752.056784
 20
160.421776
 30
0.0
  0
SPLINE
  5
1d1
100
AcDbEntity
  8
0
 62
7
100
AcDbSpline
 70
8
 71
3
 72
8
 73
4
 74
0
 40
0
 40
0
 40
0
 40
0
 40
1
 40
1
 40
1
 40
1
 10
752.056784
 20
160.421776
 30
0.0
 10
749.524944
 20
166.155736
 30
0.0
 10
746.733584
 20
169.100344
 30
0.0
 10
738.059904
 20
175.186928
 30
0.0
  0
SPLINE
  5
1d2
100
AcDbEntity
  8
0
 62
7
100
AcDbSpline
 70
8
 71
3
 72
8
 73
4
 74
0
 40
0
 40
0
 40
0
 40
0
 40
1
 40
1
 40
1
 40
1
 10
738.059904
 20
175.186928
 30
0.0
 10
726.900464
 20
183.017840
 30
0.0
 10
726.014304
 20
183.177000
 30
0.0
 10
691.199184
 20
183.603296
 30
0.0
  0
LWPOLYLINE
  5
1d3
100
AcDbEntity
  8
0
 62
7
100
AcDbPolyline
 90
3
 70
1
 10
700.559904
 20
178.802864
 30
0.0
 10
688.059904
 20
179.706344
 30
0.0
 10
703.559904
 20
179.285728
 30
0.0
  0
SPLINE
  5
1d4
100
AcDbEntity
  8
0
 62
7
100
AcDbSpline
 70
8
 71
3
 72
8
 73
4
 74
0
 40
0
 40
0
 40
0
 40
0
 40
1
 40
1
 40
1
 40
1
 10
661.887344
 20
181.769768
 30
0.0
 10
663.292064
 20
179.764216
 30
0.0
 10
664.303104
 20
179.553720
 30
0.0
 10
672.748064
 20
179.508504
 30
0.0
  0
LWPOLYLINE
  5
1d5
100
AcDbEntity
  8
0
 62
7
100
AcDbPolyline
 90
3
 70
1
 10
691.199184
 20
183.603296
 30
0.0
 10
660.338384
 20
183.981168
 30
0.0
 10
661.887344
 20
181.769768
 30
0.0
  0
SPLINE
  5
1d6
100
AcDbEntity
  8
0
 62
7
100
AcDbSpline
 70
8
 71
3
 72
8
 73
4
 74
0
 40
0
 40
0
 40
0
 40
0
 40
1
 40
1
 40
1
 40
1
 10
673.319584
 20
179.105304
 30
0.0
 10
665.236784
 20
178.778592
 30
0.0
 10
664.545504
 20
178.585560
 30
0.0
 10
664.130784
 20
176.539416
 30
0.0
  0
SPLINE
  5
1d7
100
AcDbEntity
  8
0
 62
7
100
AcDbSpline
 70
8
 71
3
 72
8
 73
4
 74
0
 40
0
 40
0
 40
0
 40
0
 40
1
 40
1
 40
1
 40
1
 10
664.130784
 20
176.539416
 30
0.0
 10
663.355984
 20
172.716192
 30
0.0
 10
662.821344
 20
100.171640
 30
0.0
 10
663.591264
 20
103.326816
 30
0.0
  0
SPLINE
  5
1d8
100
AcDbEntity
  8
0
 62
7
100
AcDbSpline
 70
8
 71
3
 72
8
 73
4
 74
0
 40
0
 40
0
 40
0
 40
0
 40
1
 40
1
 40
1
 40
1
 10
663.591264
 20
103.326816
 30
0.0
 10
664.071264
 20
105.293952
 30
0.0
 10
664.363984
 20
102.949712
 30
0.0
 10
664.441584
 20
96.517792
 30
0.0
  0
SPLINE
  5
1d9
100
AcDbEntity
  8
0
 62
7
100
AcDbSpline
 70
8
 71
3
 72
8
 73
4
 74
0
 40
0
 40
0
 40
0
 40
0
 40
1
 40
1
 40
1
 40
1
 10
664.441584
 20
96.517792
 30
0.0
 10
664.516784
 20
90.280072
 30
0.0
 10
664.199984
 20
86.931216
 30
0.0
 10
663.571344
 20
87.319736
 30
0.0
  0
SPLINE
  5
1da
100
AcDbEntity
  8
0
 62
7
100
AcDbSpline
 70
8
 71
3
 72
8
 73
4
 74
0
 40
0
 40
0
 40
0
 40
0
 40
1
 40
1
 40
1
 40
1
 10
663.571344
 20
87.319736
 30
0.0
 10
662.987344
 20
87.680696
 30
0.0
 10
662.847904
 20
87.239816
 30
0.0
 10
663.230704
 20
86.242280
 30
0.0
  0
SPLINE
  5
1db
100
AcDbEntity
  8
0
 62
7
100
AcDbSpline
 70
8
 71
3
 72
8
 73
4
 74
0
 40
0
 40
0
 40
0
 40
0
 40
1
 40
1
 40
1
 40
1
 10
663.230704
 20
86.242280
 30
0.0
 10
663.682384
 20
85.065160
 30
0.0
 10
663.451824
 20
84.696120
 30
0.0
 10
662.469264
 20
85.023560
 30
0.0
  0
SPLINE
  5
1dc
100
AcDbEntity
  8
0
 62
7
100
AcDbSpline
 70
8
 71
3
 72
8
 73
4
 74
0
 40
0
 40
0
 40
0
 40
0
 40
1
 40
1
 40
1
 40
1
 10
662.469264
 20
85.023560
 30
0.0
 10
661.288144
 20
85.417080
 30
0.0
 10
661.017824
 20
93.166264
 30
0.0
 10
660.799984
 20
132.869912
 30
0.0
  0
SPLINE
  5
1dd
100
AcDbEntity
  8
0
 62
7
100
AcDbSpline
 70
8
 71
3
 72
8
 73
4
 74
0
 40
0
 40
0
 40
0
 40
0
 40
1
 40
1
 40
1
 40
1
 10
660.799984
 20
132.869912
 30
0.0
 10
660.637744
 20
162.445152
 30
0.0
 10
660.168064
 20
180.618672
 30
0.0
 10
659.549984
 20
181.236736
 30
0.0
  0
SPLINE
  5
1de
100
AcDbEntity
  8
0
 62
7
100
AcDbSpline
 70
8
 71
3
 72
8
 73
4
 74
0
 40
0
 40
0
 40
0
 40
0
 40
1
 40
1
 40
1
 40
1
 10
659.549984
 20
181.236736
 30
0.0
 10
658.896544
 20
181.890216
 30
0.0
 10
658.559904
 20
165.498072
 30
0.0
 10
658.559904
 20
133.026856
 30
0.0
  0
LWPOLYLINE
  5
1df
100
AcDbEntity
  8
0
 62
7
100
AcDbPolyline
 90
3
 70
1
 10
672.748064
 20
179.508504
 30
0.0
 10
682.059904
 20
179.458584
 30
0.0
 10
673.319584
 20
179.105304
 30
0.0
  0
SPLINE
  5
1e0
100
AcDbEntity
  8
0
 62
7
100
AcDbSpline
 70
8
 71
3
 72
8
 73
4
 74
0
 40
0
 40
0
 40
0
 40
0
 40
1
 40
1
 40
1
 40
1
 10
690.809904
 20
83.926520
 30
0.0
 10
708.547424
 20
83.980920
 30
0.0
 10
724.184864
 20
84.386520
 30
0.0
 10
725.559904
 20
84.826840
 30
0.0
  0
LWPOLYLINE
  5
1e1
100
AcDbEntity
  8
0
 62
7
100
AcDbPolyline
 90
3
 70
1
 10
658.559904
 20
133.026856
 30
0.0
 10
658.559904
 20
83.826840
 30
0.0
 10
690.809904
 20
83.926520
 30
0.0
  0
SPLINE
  5
1e2
100
AcDbEntity
  8
0
 62
7
100
AcDbSpline
 70
8
 71
3
 72
8
 73
4
 74
0
 40
0
 40
0
 40
0
 40
0
 40
1
 40
1
 40
1
 40
1
 10
683.226544
 20
98.493544
 30
0.0
 10
682.859904
 20
98.860208
 30
0.0
 10
682.639344
 20
103.922704
 30
0.0
 10
682.736464
 20
109.743544
 30
0.0
  0
SPLINE
  5
1e3
100
AcDbEntity
  8
0
 62
7
100
AcDbSpline
 70
8
 71
3
 72
8
 73
4
 74
0
 40
0
 40
0
 40
0
 40
0
 40
1
 40
1
 40
1
 40
1
 10
682.736464
 20
109.743544
 30
0.0
 10
682.906224
 20
119.918776
 30
0.0
 10
682.937184
 20
120.056960
 30
0.0
 10
683.539184
 20
113.326880
 30
0.0
  0
SPLINE
  5
1e4
100
AcDbEntity
  8
0
 62
7
100
AcDbSpline
 70
8
 71
3
 72
8
 73
4
 74
0
 40
0
 40
0
 40
0
 40
0
 40
1
 40
1
 40
1
 40
1
 10
683.539184
 20
113.326880
 30
0.0
 10
683.883584
 20
109.476880
 30
0.0
 10
684.141584
 20
119.264424
 30
0.0
 10
684.112624
 20
135.077000
 30
0.0
  0
SPLINE
  5
1e5
100
AcDbEntity
  8
0
 62
7
100
AcDbSpline
 70
8
 71
3
 72
8
 73
4
 74
0
 40
0
 40
0
 40
0
 40
0
 40
1
 40
1
 40
1
 40
1
 10
684.112624
 20
135.077000
 30
0.0
 10
684.083824
 20
150.889568
 30
0.0
 10
684.390304
 20
163.939568
 30
0.0
 10
684.794144
 20
164.077000
 30
0.0
  0
SPLINE
  5
1e6
100
AcDbEntity
  8
0
 62
7
100
AcDbSpline
 70
8
 71
3
 72
8
 73
4
 74
0
 40
0
 40
0
 40
0
 40
0
 40
1
 40
1
 40
1
 40
1
 10
684.794144
 20
164.077000
 30
0.0
 10
685.197904
 20
164.214424
 30
0.0
 10
691.497904
 20
164.078600
 30
0.0
 10
698.794144
 20
163.776464
 30
0.0
  0
SPLINE
  5
1e7
100
AcDbEntity
  8
0
 62
7
100
AcDbSpline
 70
8
 71
3
 72
8
 73
4
 74
0
 40
0
 40
0
 40
0
 40
0
 40
1
 40
1
 40
1
 40
1
 10
698.794144
 20
163.776464
 30
0.0
 10
713.724384
 20
163.157008
 30
0.0
 10
718.652384
 20
161.614144
 30
0.0
 10
724.315264
 20
155.786424
 30
0.0
  0
SPLINE
  5
1e8
100
AcDbEntity
  8
0
 62
7
100
AcDbSpline
 70
8
 71
3
 72
8
 73
4
 74
0
 40
0
 40
0
 40
0
 40
0
 40
1
 40
1
 40
1
 40
1
 10
724.315264
 20
155.786424
 30
0.0
 10
730.353184
 20
149.572616
 30
0.0
 10
732.065184
 20
144.580888
 30
0.0
 10
732.017904
 20
133.326880
 30
0.0
  0
SPLINE
  5
1e9
100
AcDbEntity
  8
0
 62
7
100
AcDbSpline
 70
8
 71
3
 72
8
 73
4
 74
0
 40
0
 40
0
 40
0
 40
0
 40
1
 40
1
 40
1
 40
1
 10
732.017904
 20
133.326880
 30
0.0
 10
731.994704
 20
127.826880
 30
0.0
 10
731.740784
 20
121.225144
 30
0.0
 10
731.453424
 20
118.656376
 30
0.0
  0
SPLINE
  5
1ea
100
AcDbEntity
  8
0
 62
7
100
AcDbSpline
 70
8
 71
3
 72
8
 73
4
 74
0
 40
0
 40
0
 40
0
 40
0
 40
1
 40
1
 40
1
 40
1
 10
731.453424
 20
118.656376
 30
0.0
 10
730.385104
 20
109.107168
 30
0.0
 10
722.272784
 20
101.687144
 30
0.0
 10
710.113984
 20
99.137880
 30
0.0
  0
SPLINE
  5
1eb
100
AcDbEntity
  8
0
 62
7
100
AcDbSpline
 70
8
 71
3
 72
8
 73
4
 74
0
 40
0
 40
0
 40
0
 40
0
 40
1
 40
1
 40
1
 40
1
 10
710.113984
 20
99.137880
 30
0.0
 10
703.774304
 20
97.808664
 30
0.0
 10
684.376304
 20
97.343816
 30
0.0
 10
683.226544
 20
98.493544
 30
0.0
  0
LWPOLYLINE
  5
1ec
100
AcDbEntity
  8
0
 62
7
100
AcDbPolyline
 90
2
 70
1
 10
725.559904
 20
84.826840
 30
0.0
 10
725.559904
 20
84.826864
 30
0.0
  0
SPLINE
  5
1ed
100
AcDbEntity
  8
0
 62
7
100
AcDbSpline
 70
8
 71
3
 72
8
 73
4
 74
0
 40
0
 40
0
 40
0
 40
0
 40
1
 40
1
 40
1
 40
1
 10
699.809904
 20
100.564120
 30
0.0
 10
696.922384
 20
100.766120
 30
0.0
 10
692.197424
 20
100.766120
 30
0.0
 10
689.309904
 20
100.564120
 30
0.0
  0
SPLINE
  5
1ee
100
AcDbEntity
  8
0
 62
7
100
AcDbSpline
 70
8
 71
3
 72
8
 73
4
 74
0
 40
0
 40
0
 40
0
 40
0
 40
1
 40
1
 40
1
 40
1
 10
689.309904
 20
100.564120
 30
0.0
 10
686.422384
 20
100.362120
 30
0.0
 10
688.784864
 20
100.196840
 30
0.0
 10
694.559904
 20
100.196840
 30
0.0
  0
SPLINE
  5
1ef
100
AcDbEntity
  8
0
 62
7
100
AcDbSpline
 70
8
 71
3
 72
8
 73
4
 74
0
 40
0
 40
0
 40
0
 40
0
 40
1
 40
1
 40
1
 40
1
 10
694.559904
 20
100.196840
 30
0.0
 10
700.334864
 20
100.196840
 30
0.0
 10
702.697424
 20
100.362120
 30
0.0
 10
699.809904
 20
100.564120
 30
0.0
  0
LWPOLYLINE
  5
1f0
100
AcDbEntity
  8
0
 62
7
100
AcDbPolyline
 90
2
 70
1
 10
683.226544
 20
98.493544
 30
0.0
 10
683.226544
 20
98.493544
 30
0.0
  0
SPLINE
  5
1f1
100
AcDbEntity
  8
0
 62
7
100
AcDbSpline
 70
8
 71
3
 72
8
 73
4
 74
0
 40
0
 40
0
 40
0
 40
0
 40
1
 40
1
 40
1
 40
1
 10
710.809904
 20
101.489160
 30
0.0
 10
710.122384
 20
101.766568
 30
0.0
 10
708.997424
 20
101.766568
 30
0.0
 10
708.309904
 20
101.489160
 30
0.0
  0
SPLINE
  5
1f2
100
AcDbEntity
  8
0
 62
7
100
AcDbSpline
 70
8
 71
3
 72
8
 73
4
 74
0
 40
0
 40
0
 40
0
 40
0
 40
1
 40
1
 40
1
 40
1
 10
708.309904
 20
101.489160
 30
0.0
 10
707.622384
 20
101.211744
 30
0.0
 10
708.184864
 20
100.984768
 30
0.0
 10
709.559904
 20
100.984768
 30
0.0
  0
SPLINE
  5
1f3
100
AcDbEntity
  8
0
 62
7
100
AcDbSpline
 70
8
 71
3
 72
8
 73
4
 74
0
 40
0
 40
0
 40
0
 40
0
 40
1
 40
1
 40
1
 40
1
 10
709.559904
 20
100.984768
 30
0.0
 10
710.934864
 20
100.984768
 30
0.0
 10
711.497424
 20
101.211744
 30
0.0
 10
710.809904
 20
101.489160
 30
0.0
  0
LWPOLYLINE
  5
1f4
100
AcDbEntity
  8
0
 62
7
100
AcDbPolyline
 90
2
 70
1
 10
699.809904
 20
100.564120
 30
0.0
 10
699.809904
 20
100.564120
 30
0.0
  0
SPLINE
  5
1f5
100
AcDbEntity
  8
0
 62
7
100
AcDbSpline
 70
8
 71
3
 72
8
 73
4
 74
0
 40
0
 40
0
 40
0
 40
0
 40
1
 40
1
 40
1
 40
1
 10
713.048704
 20
104.374600
 30
0.0
 10
720.129264
 20
106.778504
 30
0.0
 10
724.116224
 20
110.223776
 30
0.0
 10
727.285184
 20
116.676728
 30
0.0
  0
SPLINE
  5
1f6
100
AcDbEntity
  8
0
 62
7
100
AcDbSpline
 70
8
 71
3
 72
8
 73
4
 74
0
 40
0
 40
0
 40
0
 40
0
 40
1
 40
1
 40
1
 40
1
 10
727.285184
 20
116.676728
 30
0.0
 10
729.728144
 20
121.651376
 30
0.0
 10
730.059424
 20
123.462648
 30
0.0
 10
730.056224
 20
131.826880
 30
0.0
  0
SPLINE
  5
1f7
100
AcDbEntity
  8
0
 62
7
100
AcDbSpline
 70
8
 71
3
 72
8
 73
4
 74
0
 40
0
 40
0
 40
0
 40
0
 40
1
 40
1
 40
1
 40
1
 10
730.056224
 20
131.826880
 30
0.0
 10
730.056224
 20
139.692000
 30
0.0
 10
729.641504
 20
142.237848
 30
0.0
 10
727.664304
 20
146.620376
 30
0.0
  0
SPLINE
  5
1f8
100
AcDbEntity
  8
0
 62
7
100
AcDbSpline
 70
8
 71
3
 72
8
 73
4
 74
0
 40
0
 40
0
 40
0
 40
0
 40
1
 40
1
 40
1
 40
1
 10
727.664304
 20
146.620376
 30
0.0
 10
722.807184
 20
157.386616
 30
0.0
 10
713.632624
 20
161.826880
 30
0.0
 10
696.244304
 20
161.826880
 30
0.0
  0
LWPOLYLINE
  5
1f9
100
AcDbEntity
  8
0
 62
7
100
AcDbPolyline
 90
2
 70
1
 10
710.809904
 20
101.489160
 30
0.0
 10
710.809904
 20
101.489160
 30
0.0
  0
SPLINE
  5
1fa
100
AcDbEntity
  8
0
 62
7
100
AcDbSpline
 70
8
 71
3
 72
8
 73
4
 74
0
 40
0
 40
0
 40
0
 40
0
 40
1
 40
1
 40
1
 40
1
 10
689.309904
 20
102.477920
 30
0.0
 10
694.384624
 20
101.588824
 30
0.0
 10
708.062224
 20
102.681640
 30
0.0
 10
713.048704
 20
104.374600
 30
0.0
  0
LWPOLYLINE
  5
1fb
100
AcDbEntity
  8
0
 62
7
100
AcDbPolyline
 90
5
 70
1
 10
696.244304
 20
161.826880
 30
0.0
 10
686.559904
 20
161.826880
 30
0.0
 10
686.559904
 20
132.393296
 30
0.0
 10
686.559904
 20
102.959720
 30
0.0
 10
689.309904
 20
102.477920
 30
0.0
  0
LWPOLYLINE
  5
1fc
100
AcDbEntity
  8
0
 62
7
100
AcDbPolyline
 90
2
 70
1
 10
713.048704
 20
104.374600
 30
0.0
 10
713.048704
 20
104.374600
 30
0.0
  0
SPLINE
  5
1fd
100
AcDbEntity
  8
0
 62
7
100
AcDbSpline
 70
8
 71
3
 72
8
 73
4
 74
0
 40
0
 40
0
 40
0
 40
0
 40
1
 40
1
 40
1
 40
1
 10
688.322144
 20
125.620224
 30
0.0
 10
688.749584
 20
156.107200
 30
0.0
 10
689.155024
 20
158.963664
 30
0.0
 10
689.364064
 20
132.960568
 30
0.0
  0
LWPOLYLINE
  5
1fe
100
AcDbEntity
  8
0
 62
7
100
AcDbPolyline
 90
3
 70
1
 10
692.559904
 20
106.550480
 30
0.0
 10
688.059904
 20
106.913568
 30
0.0
 10
688.322144
 20
125.620224
 30
0.0
  0
SPLINE
  5
1ff
100
AcDbEntity
  8
0
 62
7
100
AcDbSpline
 70
8
 71
3
 72
8
 73
4
 74
0
 40
0
 40
0
 40
0
 40
0
 40
1
 40
1
 40
1
 40
1
 10
699.309904
 20
109.019896
 30
0.0
 10
716.841984
 20
109.785256
 30
0.0
 10
723.869904
 20
116.208496
 30
0.0
 10
725.255264
 20
132.732816
 30
0.0
  0
SPLINE
  5
200
100
AcDbEntity
  8
0
 62
7
100
AcDbSpline
 70
8
 71
3
 72
8
 73
4
 74
0
 40
0
 40
0
 40
0
 40
0
 40
1
 40
1
 40
1
 40
1
 10
725.255264
 20
132.732816
 30
0.0
 10
726.631024
 20
149.143304
 30
0.0
 10
715.163504
 20
159.418440
 30
0.0
 10
696.334944
 20
158.646040
 30
0.0
  0
SPLINE
  5
201
100
AcDbEntity
  8
0
 62
7
100
AcDbSpline
 70
8
 71
3
 72
8
 73
4
 74
0
 40
0
 40
0
 40
0
 40
0
 40
1
 40
1
 40
1
 40
1
 10
696.334944
 20
158.646040
 30
0.0
 10
691.455344
 20
158.445864
 30
0.0
 10
688.678544
 20
158.699720
 30
0.0
 10
688.887024
 20
159.326880
 30
0.0
  0
SPLINE
  5
202
100
AcDbEntity
  8
0
 62
7
100
AcDbSpline
 70
8
 71
3
 72
8
 73
4
 74
0
 40
0
 40
0
 40
0
 40
0
 40
1
 40
1
 40
1
 40
1
 10
688.887024
 20
159.326880
 30
0.0
 10
689.380544
 20
160.812160
 30
0.0
 10
702.450464
 20
161.134224
 30
0.0
 10
707.059904
 20
159.774696
 30
0.0
  0
SPLINE
  5
203
100
AcDbEntity
  8
0
 62
7
100
AcDbSpline
 70
8
 71
3
 72
8
 73
4
 74
0
 40
0
 40
0
 40
0
 40
0
 40
1
 40
1
 40
1
 40
1
 10
707.059904
 20
159.774696
 30
0.0
 10
722.407584
 20
155.248000
 30
0.0
 10
726.902144
 20
149.380624
 30
0.0
 10
726.936704
 20
133.826880
 30
0.0
  0
SPLINE
  5
204
100
AcDbEntity
  8
0
 62
7
100
AcDbSpline
 70
8
 71
3
 72
8
 73
4
 74
0
 40
0
 40
0
 40
0
 40
0
 40
1
 40
1
 40
1
 40
1
 10
726.936704
 20
133.826880
 30
0.0
 10
726.968704
 20
119.395144
 30
0.0
 10
721.480864
 20
110.830048
 30
0.0
 10
709.963344
 20
107.336048
 30
0.0
  0
SPLINE
  5
205
100
AcDbEntity
  8
0
 62
7
100
AcDbSpline
 70
8
 71
3
 72
8
 73
4
 74
0
 40
0
 40
0
 40
0
 40
0
 40
1
 40
1
 40
1
 40
1
 10
709.963344
 20
107.336048
 30
0.0
 10
705.239664
 20
105.903056
 30
0.0
 10
702.253824
 20
105.768288
 30
0.0
 10
692.559904
 20
106.550480
 30
0.0
  0
LWPOLYLINE
  5
206
100
AcDbEntity
  8
0
 62
7
100
AcDbPolyline
 90
3
 70
1
 10
689.364064
 20
132.960568
 30
0.0
 10
689.559904
 20
108.594264
 30
0.0
 10
699.309904
 20
109.019896
 30
0.0
  0
LWPOLYLINE
  5
207
100
AcDbEntity
  8
0
 62
7
100
AcDbPolyline
 90
2
 70
1
 10
692.559904
 20
106.550480
 30
0.0
 10
692.559904
 20
106.550480
 30
0.0
  0
SPLINE
  5
208
100
AcDbEntity
  8
0
 62
7
100
AcDbSpline
 70
8
 71
3
 72
8
 73
4
 74
0
 40
0
 40
0
 40
0
 40
0
 40
1
 40
1
 40
1
 40
1
 10
724.809904
 20
109.389784
 30
0.0
 10
721.780464
 20
106.652008
 30
0.0
 10
721.100224
 20
105.826880
 30
0.0
 10
721.872784
 20
105.826880
 30
0.0
  0
SPLINE
  5
209
100
AcDbEntity
  8
0
 62
7
100
AcDbSpline
 70
8
 71
3
 72
8
 73
4
 74
0
 40
0
 40
0
 40
0
 40
0
 40
1
 40
1
 40
1
 40
1
 10
721.872784
 20
105.826880
 30
0.0
 10
722.044944
 20
105.826880
 30
0.0
 10
723.507424
 20
107.289376
 30
0.0
 10
725.122784
 20
109.076880
 30
0.0
  0
LWPOLYLINE
  5
20a
100
AcDbEntity
  8
0
 62
7
100
AcDbPolyline
 90
3
 70
1
 10
725.122784
 20
109.076880
 30
0.0
 10
728.059904
 20
112.326880
 30
0.0
 10
724.809904
 20
109.389784
 30
0.0
  0
SPLINE
  5
20b
100
AcDbEntity
  8
0
 62
7
100
AcDbSpline
 70
8
 71
3
 72
8
 73
4
 74
0
 40
0
 40
0
 40
0
 40
0
 40
1
 40
1
 40
1
 40
1
 10
684.309904
 20
179.489160
 30
0.0
 10
684.997424
 20
179.766568
 30
0.0
 10
686.122384
 20
179.766568
 30
0.0
 10
686.809904
 20
179.489160
 30
0.0
  0
SPLINE
  5
20c
100
AcDbEntity
  8
0
 62
7
100
AcDbSpline
 70
8
 71
3
 72
8
 73
4
 74
0
 40
0
 40
0
 40
0
 40
0
 40
1
 40
1
 40
1
 40
1
 10
686.809904
 20
179.489160
 30
0.0
 10
687.497424
 20
179.211744
 30
0.0
 10
686.934864
 20
178.984768
 30
0.0
 10
685.559904
 20
178.984768
 30
0.0
  0
SPLINE
  5
20d
100
AcDbEntity
  8
0
 62
7
100
AcDbSpline
 70
8
 71
3
 72
8
 73
4
 74
0
 40
0
 40
0
 40
0
 40
0
 40
1
 40
1
 40
1
 40
1
 10
685.559904
 20
178.984768
 30
0.0
 10
684.184864
 20
178.984768
 30
0.0
 10
683.622384
 20
179.211744
 30
0.0
 10
684.309904
 20
179.489160
 30
0.0
  0
LWPOLYLINE
  5
20e
100
AcDbEntity
  8
0
 62
7
100
AcDbPolyline
 90
2
 70
1
 10
725.122784
 20
109.076880
 30
0.0
 10
725.122784
 20
109.076880
 30
0.0
  0
SPLINE
  5
20f
100
AcDbEntity
  8
0
 62
7
100
AcDbSpline
 70
8
 71
3
 72
8
 73
4
 74
0
 40
0
 40
0
 40
0
 40
0
 40
1
 40
1
 40
1
 40
1
 10
751.544624
 20
103.187656
 30
0.0
 10
751.528624
 20
104.381040
 30
0.0
 10
750.205024
 20
102.719144
 30
0.0
 10
748.469984
 20
99.326880
 30
0.0
  0
SPLINE
  5
210
100
AcDbEntity
  8
0
 62
7
100
AcDbSpline
 70
8
 71
3
 72
8
 73
4
 74
0
 40
0
 40
0
 40
0
 40
0
 40
1
 40
1
 40
1
 40
1
 10
748.469984
 20
99.326880
 30
0.0
 10
747.665984
 20
97.755104
 30
0.0
 10
747.887264
 20
97.832360
 30
0.0
 10
749.503424
 20
99.687656
 30
0.0
  0
SPLINE
  5
211
100
AcDbEntity
  8
0
 62
7
100
AcDbSpline
 70
8
 71
3
 72
8
 73
4
 74
0
 40
0
 40
0
 40
0
 40
0
 40
1
 40
1
 40
1
 40
1
 10
749.503424
 20
99.687656
 30
0.0
 10
750.634464
 20
100.986096
 30
0.0
 10
751.553024
 20
102.561096
 30
0.0
 10
751.544624
 20
103.187656
 30
0.0
  0
LWPOLYLINE
  5
212
100
AcDbEntity
  8
0
 62
7
100
AcDbPolyline
 90
2
 70
1
 10
684.309904
 20
179.489160
 30
0.0
 10
684.309904
 20
179.489160
 30
0.0
  0
LWPOLYLINE
  5
213
100
AcDbEntity
  8
0
 62
7
100
AcDbPolyline
 90
2
 70
1
 10
751.544624
 20
103.187656
 30
0.0
 10
751.544624
 20
103.187656
 30
0.0
  0
SPLINE
  5
214
100
AcDbEntity
  8
0
 62
7
100
AcDbSpline
 70
8
 71
3
 72
8
 73
4
 74
0
 40
0
 40
0
 40
0
 40
0
 40
1
 40
1
 40
1
 40
1
 10
771.559904
 20
132.493600
 30
0.0
 10
771.172704
 20
170.179136
 30
0.0
 10
770.777824
 20
181.254960
 30
0.0
 10
769.809904
 20
181.577288
 30
0.0
  0
SPLINE
  5
215
100
AcDbEntity
  8
0
 62
7
100
AcDbSpline
 70
8
 71
3
 72
8
 73
4
 74
0
 40
0
 40
0
 40
0
 40
0
 40
1
 40
1
 40
1
 40
1
 10
769.809904
 20
181.577288
 30
0.0
 10
768.821184
 20
181.906520
 30
0.0
 10
768.559904
 20
171.732216
 30
0.0
 10
768.559904
 20
132.910208
 30
0.0
  0
SPLINE
  5
216
100
AcDbEntity
  8
0
 62
7
100
AcDbSpline
 70
8
 71
3
 72
8
 73
4
 74
0
 40
0
 40
0
 40
0
 40
0
 40
1
 40
1
 40
1
 40
1
 10
768.559904
 20
132.910208
 30
0.0
 10
768.559904
 20
86.830976
 30
0.0
 10
768.667024
 20
83.826864
 30
0.0
 10
770.309904
 20
83.826544
 30
0.0
  0
SPLINE
  5
217
100
AcDbEntity
  8
0
 62
7
100
AcDbSpline
 70
8
 71
3
 72
8
 73
4
 74
0
 40
0
 40
0
 40
0
 40
0
 40
1
 40
1
 40
1
 40
1
 10
770.309904
 20
83.826544
 30
0.0
 10
771.959424
 20
83.826224
 30
0.0
 10
772.031184
 20
86.619744
 30
0.0
 10
771.559904
 20
132.493600
 30
0.0
  0
LWPOLYLINE
  5
218
100
AcDbEntity
  8
0
 62
7
100
AcDbPolyline
 90
10
 70
1
 10
766.559904
 20
133.826880
 30
0.0
 10
766.559904
 20
185.826880
 30
0.0
 10
783.059904
 20
185.826880
 30
0.0
 10
799.559904
 20
185.826880
 30
0.0
 10
799.559904
 20
133.826880
 30
0.0
 10
799.559904
 20
81.826864
 30
0.0
 10
783.059904
 20
81.826864
 30
0.0
 10
766.559904
 20
81.826864
 30
0.0
 10
766.559904
 20
133.826880
 30
0.0
 10
766.559904
 20
133.826880
 30
0.0
  0
SPLINE
  5
219
100
AcDbEntity
  8
0
 62
7
100
AcDbSpline
 70
8
 71
3
 72
8
 73
4
 74
0
 40
0
 40
0
 40
0
 40
0
 40
1
 40
1
 40
1
 40
1
 10
797.559904
 20
84.795504
 30
0.0
 10
797.559904
 20
85.328224
 30
0.0
 10
796.903744
 20
85.512304
 30
0.0
 10
796.101744
 20
85.204544
 30
0.0
  0
SPLINE
  5
21a
100
AcDbEntity
  8
0
 62
7
100
AcDbSpline
 70
8
 71
3
 72
8
 73
4
 74
0
 40
0
 40
0
 40
0
 40
0
 40
1
 40
1
 40
1
 40
1
 10
796.101744
 20
85.204544
 30
0.0
 10
793.783104
 20
84.314784
 30
0.0
 10
793.275264
 20
88.646440
 30
0.0
 10
794.124944
 20
102.065896
 30
0.0
  0
SPLINE
  5
21b
100
AcDbEntity
  8
0
 62
7
100
AcDbSpline
 70
8
 71
3
 72
8
 73
4
 74
0
 40
0
 40
0
 40
0
 40
0
 40
1
 40
1
 40
1
 40
1
 10
794.124944
 20
102.065896
 30
0.0
 10
795.013104
 20
116.093784
 30
0.0
 10
795.004624
 20
172.918760
 30
0.0
 10
794.113744
 20
176.468064
 30
0.0
  0
SPLINE
  5
21c
100
AcDbEntity
  8
0
 62
7
100
AcDbSpline
 70
8
 71
3
 72
8
 73
4
 74
0
 40
0
 40
0
 40
0
 40
0
 40
1
 40
1
 40
1
 40
1
 10
794.113744
 20
176.468064
 30
0.0
 10
793.550144
 20
178.713560
 30
0.0
 10
793.115984
 20
178.826880
 30
0.0
 10
785.075984
 20
178.826880
 30
0.0
  0
SPLINE
  5
21d
100
AcDbEntity
  8
0
 62
7
100
AcDbSpline
 70
8
 71
3
 72
8
 73
4
 74
0
 40
0
 40
0
 40
0
 40
0
 40
1
 40
1
 40
1
 40
1
 10
785.075984
 20
178.826880
 30
0.0
 10
777.364864
 20
178.826880
 30
0.0
 10
776.518384
 20
178.631160
 30
0.0
 10
775.345024
 20
176.576880
 30
0.0
  0
SPLINE
  5
21e
100
AcDbEntity
  8
0
 62
7
100
AcDbSpline
 70
8
 71
3
 72
8
 73
4
 74
0
 40
0
 40
0
 40
0
 40
0
 40
1
 40
1
 40
1
 40
1
 10
775.345024
 20
176.576880
 30
0.0
 10
774.362784
 20
174.857224
 30
0.0
 10
774.039824
 20
165.134088
 30
0.0
 10
773.975104
 20
135.326880
 30
0.0
  0
SPLINE
  5
21f
100
AcDbEntity
  8
0
 62
7
100
AcDbSpline
 70
8
 71
3
 72
8
 73
4
 74
0
 40
0
 40
0
 40
0
 40
0
 40
1
 40
1
 40
1
 40
1
 10
773.975104
 20
135.326880
 30
0.0
 10
773.925504
 20
112.330528
 30
0.0
 10
774.169824
 20
100.840728
 30
0.0
 10
774.571504
 20
107.326880
 30
0.0
  0
SPLINE
  5
220
100
AcDbEntity
  8
0
 62
7
100
AcDbSpline
 70
8
 71
3
 72
8
 73
4
 74
0
 40
0
 40
0
 40
0
 40
0
 40
1
 40
1
 40
1
 40
1
 10
774.571504
 20
107.326880
 30
0.0
 10
775.189424
 20
117.304464
 30
0.0
 10
775.243744
 20
116.723464
 30
0.0
 10
775.156304
 20
101.075896
 30
0.0
  0
LWPOLYLINE
  5
221
100
AcDbEntity
  8
0
 62
7
100
AcDbPolyline
 90
2
 70
1
 10
771.559904
 20
132.493600
 30
0.0
 10
771.559904
 20
132.493600
 30
0.0
  0
SPLINE
  5
222
100
AcDbEntity
  8
0
 62
7
100
AcDbSpline
 70
8
 71
3
 72
8
 73
4
 74
0
 40
0
 40
0
 40
0
 40
0
 40
1
 40
1
 40
1
 40
1
 10
786.309744
 20
83.824944
 30
0.0
 10
792.899424
 20
83.825504
 30
0.0
 10
797.559744
 20
84.227184
 30
0.0
 10
797.559744
 20
84.794544
 30
0.0
  0
LWPOLYLINE
  5
223
100
AcDbEntity
  8
0
 62
7
100
AcDbPolyline
 90
3
 70
1
 10
775.156304
 20
101.075896
 30
0.0
 10
775.059744
 20
83.824944
 30
0.0
 10
786.309744
 20
83.824944
 30
0.0
  0
SPLINE
  5
224
100
AcDbEntity
  8
0
 62
7
100
AcDbSpline
 70
8
 71
3
 72
8
 73
4
 74
0
 40
0
 40
0
 40
0
 40
0
 40
1
 40
1
 40
1
 40
1
 10
795.794624
 20
181.174496
 30
0.0
 10
796.198704
 20
181.808304
 30
0.0
 10
796.536144
 20
182.664376
 30
0.0
 10
796.544624
 20
183.076880
 30
0.0
  0
SPLINE
  5
225
100
AcDbEntity
  8
0
 62
7
100
AcDbSpline
 70
8
 71
3
 72
8
 73
4
 74
0
 40
0
 40
0
 40
0
 40
0
 40
1
 40
1
 40
1
 40
1
 10
796.544624
 20
183.076880
 30
0.0
 10
796.552624
 20
183.489376
 30
0.0
 10
790.688864
 20
183.826880
 30
0.0
 10
783.513184
 20
183.826880
 30
0.0
  0
LWPOLYLINE
  5
226
100
AcDbEntity
  8
0
 62
7
100
AcDbPolyline
 90
2
 70
1
 10
797.559744
 20
84.794544
 30
0.0
 10
797.559904
 20
84.795504
 30
0.0
  0
SPLINE
  5
227
100
AcDbEntity
  8
0
 62
7
100
AcDbSpline
 70
8
 71
3
 72
8
 73
4
 74
0
 40
0
 40
0
 40
0
 40
0
 40
1
 40
1
 40
1
 40
1
 10
772.161744
 20
181.576880
 30
0.0
 10
773.765504
 20
179.448248
 30
0.0
 10
774.428864
 20
179.345624
 30
0.0
 10
784.458464
 20
179.674496
 30
0.0
  0
SPLINE
  5
228
100
AcDbEntity
  8
0
 62
7
100
AcDbSpline
 70
8
 71
3
 72
8
 73
4
 74
0
 40
0
 40
0
 40
0
 40
0
 40
1
 40
1
 40
1
 40
1
 10
784.458464
 20
179.674496
 30
0.0
 10
791.009264
 20
179.889296
 30
0.0
 10
795.340624
 20
180.462424
 30
0.0
 10
795.794624
 20
181.174496
 30
0.0
  0
LWPOLYLINE
  5
229
100
AcDbEntity
  8
0
 62
7
100
AcDbPolyline
 90
3
 70
1
 10
783.513184
 20
183.826880
 30
0.0
 10
770.466544
 20
183.826880
 30
0.0
 10
772.161744
 20
181.576880
 30
0.0
  0
SPLINE
  5
22a
100
AcDbEntity
  8
0
 62
7
100
AcDbSpline
 70
8
 71
3
 72
8
 73
4
 74
0
 40
0
 40
0
 40
0
 40
0
 40
1
 40
1
 40
1
 40
1
 10
805.096640
 20
82.767424
 30
0.0
 10
804.776960
 20
83.284704
 30
0.0
 10
813.664720
 20
106.572184
 30
0.0
 10
824.847280
 20
134.517400
 30
0.0
  0
LWPOLYLINE
  5
22b
100
AcDbEntity
  8
0
 62
7
100
AcDbPolyline
 90
2
 70
1
 10
795.794624
 20
181.174496
 30
0.0
 10
795.794624
 20
181.174496
 30
0.0
  0
SPLINE
  5
22c
100
AcDbEntity
  8
0
 62
7
100
AcDbSpline
 70
8
 71
3
 72
8
 73
4
 74
0
 40
0
 40
0
 40
0
 40
0
 40
1
 40
1
 40
1
 40
1
 10
893.119040
 20
172.326880
 30
0.0
 10
916.804160
 20
112.750496
 30
0.0
 10
926.714240
 20
87.305048
 30
0.0
 10
927.223120
 20
84.760544
 30
0.0
  0
LWPOLYLINE
  5
22d
100
AcDbEntity
  8
0
 62
7
100
AcDbPolyline
 90
5
 70
1
 10
824.847280
 20
134.517400
 30
0.0
 10
845.179200
 20
185.326880
 30
0.0
 10
866.565040
 20
185.326880
 30
0.0
 10
887.950800
 20
185.326880
 30
0.0
 10
893.119040
 20
172.326880
 30
0.0
  0
SPLINE
  5
22e
100
AcDbEntity
  8
0
 62
7
100
AcDbSpline
 70
8
 71
3
 72
8
 73
4
 74
0
 40
0
 40
0
 40
0
 40
0
 40
1
 40
1
 40
1
 40
1
 10
842.061360
 20
91.576880
 30
0.0
 10
840.590960
 20
87.589376
 30
0.0
 10
839.215760
 20
83.764384
 30
0.0
 10
839.005280
 20
83.076864
 30
0.0
  0
SPLINE
  5
22f
100
AcDbEntity
  8
0
 62
7
100
AcDbSpline
 70
8
 71
3
 72
8
 73
4
 74
0
 40
0
 40
0
 40
0
 40
0
 40
1
 40
1
 40
1
 40
1
 10
839.005280
 20
83.076864
 30
0.0
 10
838.539440
 20
81.554864
 30
0.0
 10
806.029440
 20
81.258144
 30
0.0
 10
805.096640
 20
82.767424
 30
0.0
  0
LWPOLYLINE
  5
230
100
AcDbEntity
  8
0
 62
7
100
AcDbPolyline
 90
9
 70
1
 10
927.223120
 20
84.760544
 30
0.0
 10
927.819360
 20
81.779664
 30
0.0
 10
909.949600
 20
82.053264
 30
0.0
 10
892.079840
 20
82.326864
 30
0.0
 10
889.116880
 20
90.576880
 30
0.0
 10
886.154000
 20
98.826880
 30
0.0
 10
865.444320
 20
98.826880
 30
0.0
 10
844.734800
 20
98.826880
 30
0.0
 10
842.061360
 20
91.576880
 30
0.0
  0
SPLINE
  5
231
100
AcDbEntity
  8
0
 62
7
100
AcDbSpline
 70
8
 71
3
 72
8
 73
4
 74
0
 40
0
 40
0
 40
0
 40
0
 40
1
 40
1
 40
1
 40
1
 10
813.559920
 20
85.504144
 30
0.0
 10
813.559920
 20
87.415368
 30
0.0
 10
841.859440
 20
157.744616
 30
0.0
 10
844.472320
 20
162.326880
 30
0.0
  0
SPLINE
  5
232
100
AcDbEntity
  8
0
 62
7
100
AcDbSpline
 70
8
 71
3
 72
8
 73
4
 74
0
 40
0
 40
0
 40
0
 40
0
 40
1
 40
1
 40
1
 40
1
 10
844.472320
 20
162.326880
 30
0.0
 10
845.413120
 20
163.976880
 30
0.0
 10
847.242160
 20
168.566088
 30
0.0
 10
848.536800
 20
172.525104
 30
0.0
  0
SPLINE
  5
233
100
AcDbEntity
  8
0
 62
7
100
AcDbSpline
 70
8
 71
3
 72
8
 73
4
 74
0
 40
0
 40
0
 40
0
 40
0
 40
1
 40
1
 40
1
 40
1
 10
848.536800
 20
172.525104
 30
0.0
 10
850.483360
 20
178.477656
 30
0.0
 10
850.667840
 20
179.991888
 30
0.0
 10
849.602880
 20
181.275104
 30
0.0
  0
SPLINE
  5
234
100
AcDbEntity
  8
0
 62
7
100
AcDbSpline
 70
8
 71
3
 72
8
 73
4
 74
0
 40
0
 40
0
 40
0
 40
0
 40
1
 40
1
 40
1
 40
1
 10
849.602880
 20
181.275104
 30
0.0
 10
848.894560
 20
182.128584
 30
0.0
 10
847.965600
 20
182.826880
 30
0.0
 10
847.538560
 20
182.826880
 30
0.0
  0
SPLINE
  5
235
100
AcDbEntity
  8
0
 62
7
100
AcDbSpline
 70
8
 71
3
 72
8
 73
4
 74
0
 40
0
 40
0
 40
0
 40
0
 40
1
 40
1
 40
1
 40
1
 10
847.538560
 20
182.826880
 30
0.0
 10
846.897680
 20
182.826880
 30
0.0
 10
807.559920
 20
85.904864
 30
0.0
 10
807.559920
 20
84.325904
 30
0.0
  0
SPLINE
  5
236
100
AcDbEntity
  8
0
 62
7
100
AcDbSpline
 70
8
 71
3
 72
8
 73
4
 74
0
 40
0
 40
0
 40
0
 40
0
 40
1
 40
1
 40
1
 40
1
 10
807.559920
 20
84.325904
 30
0.0
 10
807.559920
 20
84.051424
 30
0.0
 10
808.909920
 20
83.826864
 30
0.0
 10
810.559920
 20
83.826864
 30
0.0
  0
SPLINE
  5
237
100
AcDbEntity
  8
0
 62
7
100
AcDbSpline
 70
8
 71
3
 72
8
 73
4
 74
0
 40
0
 40
0
 40
0
 40
0
 40
1
 40
1
 40
1
 40
1
 10
810.559920
 20
83.826864
 30
0.0
 10
812.700880
 20
83.826864
 30
0.0
 10
813.559920
 20
84.307184
 30
0.0
 10
813.559920
 20
85.504144
 30
0.0
  0
LWPOLYLINE
  5
238
100
AcDbEntity
  8
0
 62
7
100
AcDbPolyline
 90
2
 70
1
 10
805.096640
 20
82.767424
 30
0.0
 10
805.096640
 20
82.767424
 30
0.0
  0
LWPOLYLINE
  5
239
100
AcDbEntity
  8
0
 62
7
100
AcDbPolyline
 90
2
 70
1
 10
813.559920
 20
85.504144
 30
0.0
 10
813.559920
 20
85.504144
 30
0.0
  0
SPLINE
  5
23a
100
AcDbEntity
  8
0
 62
7
100
AcDbSpline
 70
8
 71
3
 72
8
 73
4
 74
0
 40
0
 40
0
 40
0
 40
0
 40
1
 40
1
 40
1
 40
1
 10
847.559920
 20
101.902168
 30
0.0
 10
845.084880
 20
101.585760
 30
0.0
 10
853.149920
 20
101.101880
 30
0.0
 10
865.482160
 20
100.826880
 30
0.0
  0
LWPOLYLINE
  5
23b
100
AcDbEntity
  8
0
 62
7
100
AcDbPolyline
 90
5
 70
1
 10
839.559920
 20
93.326880
 30
0.0
 10
843.059920
 20
102.821376
 30
0.0
 10
847.559920
 20
102.649416
 30
0.0
 10
852.059920
 20
102.477464
 30
0.0
 10
847.559920
 20
101.902168
 30
0.0
  0
SPLINE
  5
23c
100
AcDbEntity
  8
0
 62
7
100
AcDbSpline
 70
8
 71
3
 72
8
 73
4
 74
0
 40
0
 40
0
 40
0
 40
0
 40
1
 40
1
 40
1
 40
1
 10
890.613200
 20
92.529176
 30
0.0
 10
893.730960
 20
83.554144
 30
0.0
 10
893.729280
 20
83.556624
 30
0.0
 10
896.393760
 20
83.996064
 30
0.0
  0
SPLINE
  5
23d
100
AcDbEntity
  8
0
 62
7
100
AcDbSpline
 70
8
 71
3
 72
8
 73
4
 74
0
 40
0
 40
0
 40
0
 40
0
 40
1
 40
1
 40
1
 40
1
 10
896.393760
 20
83.996064
 30
0.0
 10
898.358480
 20
84.320144
 30
0.0
 10
898.344640
 20
84.498144
 30
0.0
 10
895.714560
 20
92.731376
 30
0.0
  0
SPLINE
  5
23e
100
AcDbEntity
  8
0
 62
7
100
AcDbSpline
 70
8
 71
3
 72
8
 73
4
 74
0
 40
0
 40
0
 40
0
 40
0
 40
1
 40
1
 40
1
 40
1
 10
895.714560
 20
92.731376
 30
0.0
 10
893.832560
 20
98.622864
 30
0.0
 10
892.436320
 20
101.367664
 30
0.0
 10
891.044880
 20
101.911088
 30
0.0
  0
SPLINE
  5
23f
100
AcDbEntity
  8
0
 62
7
100
AcDbSpline
 70
8
 71
3
 72
8
 73
4
 74
0
 40
0
 40
0
 40
0
 40
0
 40
1
 40
1
 40
1
 40
1
 10
891.044880
 20
101.911088
 30
0.0
 10
889.331520
 20
102.580224
 30
0.0
 10
889.433600
 20
102.695928
 30
0.0
 10
891.790880
 20
102.756584
 30
0.0
  0
SPLINE
  5
240
100
AcDbEntity
  8
0
 62
7
100
AcDbSpline
 70
8
 71
3
 72
8
 73
4
 74
0
 40
0
 40
0
 40
0
 40
0
 40
1
 40
1
 40
1
 40
1
 10
891.790880
 20
102.756584
 30
0.0
 10
893.896560
 20
102.810824
 30
0.0
 10
894.665040
 20
102.256096
 30
0.0
 10
895.147520
 20
100.333784
 30
0.0
  0
SPLINE
  5
241
100
AcDbEntity
  8
0
 62
7
100
AcDbSpline
 70
8
 71
3
 72
8
 73
4
 74
0
 40
0
 40
0
 40
0
 40
0
 40
1
 40
1
 40
1
 40
1
 10
895.147520
 20
100.333784
 30
0.0
 10
895.491680
 20
98.962584
 30
0.0
 10
896.140880
 20
98.067928
 30
0.0
 10
896.590240
 20
98.345656
 30
0.0
  0
SPLINE
  5
242
100
AcDbEntity
  8
0
 62
7
100
AcDbSpline
 70
8
 71
3
 72
8
 73
4
 74
0
 40
0
 40
0
 40
0
 40
0
 40
1
 40
1
 40
1
 40
1
 10
896.590240
 20
98.345656
 30
0.0
 10
897.535040
 20
98.929560
 30
0.0
 10
901.559920
 20
88.728576
 30
0.0
 10
901.559920
 20
85.750144
 30
0.0
  0
SPLINE
  5
243
100
AcDbEntity
  8
0
 62
7
100
AcDbSpline
 70
8
 71
3
 72
8
 73
4
 74
0
 40
0
 40
0
 40
0
 40
0
 40
1
 40
1
 40
1
 40
1
 10
901.559920
 20
85.750144
 30
0.0
 10
901.559920
 20
83.852304
 30
0.0
 10
902.175760
 20
83.755904
 30
0.0
 10
913.435040
 20
83.891024
 30
0.0
  0
LWPOLYLINE
  5
244
100
AcDbEntity
  8
0
 62
7
100
AcDbPolyline
 90
3
 70
1
 10
865.482160
 20
100.826880
 30
0.0
 10
887.904480
 20
100.326880
 30
0.0
 10
890.613200
 20
92.529176
 30
0.0
  0
SPLINE
  5
245
100
AcDbEntity
  8
0
 62
7
100
AcDbSpline
 70
8
 71
3
 72
8
 73
4
 74
0
 40
0
 40
0
 40
0
 40
0
 40
1
 40
1
 40
1
 40
1
 10
920.355280
 20
96.680200
 30
0.0
 10
917.630080
 20
103.635864
 30
0.0
 10
914.710640
 20
111.263768
 30
0.0
 10
913.867680
 20
113.631080
 30
0.0
  0
SPLINE
  5
246
100
AcDbEntity
  8
0
 62
7
100
AcDbSpline
 70
8
 71
3
 72
8
 73
4
 74
0
 40
0
 40
0
 40
0
 40
0
 40
1
 40
1
 40
1
 40
1
 10
913.867680
 20
113.631080
 30
0.0
 10
913.024720
 20
115.998384
 30
0.0
 10
912.148000
 20
117.748296
 30
0.0
 10
911.919440
 20
117.519768
 30
0.0
  0
SPLINE
  5
247
100
AcDbEntity
  8
0
 62
7
100
AcDbSpline
 70
8
 71
3
 72
8
 73
4
 74
0
 40
0
 40
0
 40
0
 40
0
 40
1
 40
1
 40
1
 40
1
 10
911.919440
 20
117.519768
 30
0.0
 10
911.690880
 20
117.291240
 30
0.0
 10
911.969040
 20
115.804344
 30
0.0
 10
912.537760
 20
114.215568
 30
0.0
  0
SPLINE
  5
248
100
AcDbEntity
  8
0
 62
7
100
AcDbSpline
 70
8
 71
3
 72
8
 73
4
 74
0
 40
0
 40
0
 40
0
 40
0
 40
1
 40
1
 40
1
 40
1
 10
912.537760
 20
114.215568
 30
0.0
 10
913.445280
 20
111.679800
 30
0.0
 10
913.403680
 20
111.542000
 30
0.0
 10
912.197600
 20
113.087648
 30
0.0
  0
SPLINE
  5
249
100
AcDbEntity
  8
0
 62
7
100
AcDbSpline
 70
8
 71
3
 72
8
 73
4
 74
0
 40
0
 40
0
 40
0
 40
0
 40
1
 40
1
 40
1
 40
1
 10
912.197600
 20
113.087648
 30
0.0
 10
911.441920
 20
114.056080
 30
0.0
 10
905.959120
 20
126.881080
 30
0.0
 10
900.013520
 20
141.587648
 30
0.0
  0
SPLINE
  5
24a
100
AcDbEntity
  8
0
 62
7
100
AcDbSpline
 70
8
 71
3
 72
8
 73
4
 74
0
 40
0
 40
0
 40
0
 40
0
 40
1
 40
1
 40
1
 40
1
 10
900.013520
 20
141.587648
 30
0.0
 10
883.609200
 20
182.164304
 30
0.0
 10
885.500960
 20
178.646208
 30
0.0
 10
879.847440
 20
179.090304
 30
0.0
  0
LWPOLYLINE
  5
24b
100
AcDbEntity
  8
0
 62
7
100
AcDbPolyline
 90
3
 70
1
 10
913.435040
 20
83.891024
 30
0.0
 10
925.310160
 20
84.033504
 30
0.0
 10
920.355280
 20
96.680200
 30
0.0
  0
SPLINE
  5
24c
100
AcDbEntity
  8
0
 62
7
100
AcDbSpline
 70
8
 71
3
 72
8
 73
4
 74
0
 40
0
 40
0
 40
0
 40
0
 40
1
 40
1
 40
1
 40
1
 10
880.202880
 20
179.646624
 30
0.0
 10
883.559840
 20
179.764280
 30
0.0
 10
885.532800
 20
180.313848
 30
0.0
 10
885.884000
 20
181.229104
 30
0.0
  0
SPLINE
  5
24d
100
AcDbEntity
  8
0
 62
7
100
AcDbSpline
 70
8
 71
3
 72
8
 73
4
 74
0
 40
0
 40
0
 40
0
 40
0
 40
1
 40
1
 40
1
 40
1
 10
885.884000
 20
181.229104
 30
0.0
 10
886.179920
 20
182.000336
 30
0.0
 10
886.153120
 20
182.900336
 30
0.0
 10
885.824000
 20
183.229104
 30
0.0
  0
SPLINE
  5
24e
100
AcDbEntity
  8
0
 62
7
100
AcDbSpline
 70
8
 71
3
 72
8
 73
4
 74
0
 40
0
 40
0
 40
0
 40
0
 40
1
 40
1
 40
1
 40
1
 10
885.824000
 20
183.229104
 30
0.0
 10
885.495280
 20
183.557888
 30
0.0
 10
877.131520
 20
183.826880
 30
0.0
 10
867.237920
 20
183.826880
 30
0.0
  0
SPLINE
  5
24f
100
AcDbEntity
  8
0
 62
7
100
AcDbSpline
 70
8
 71
3
 72
8
 73
4
 74
0
 40
0
 40
0
 40
0
 40
0
 40
1
 40
1
 40
1
 40
1
 10
867.237920
 20
183.826880
 30
0.0
 10
849.312960
 20
183.826880
 30
0.0
 10
849.256000
 20
183.819680
 30
0.0
 10
851.059600
 20
181.826880
 30
0.0
  0
SPLINE
  5
250
100
AcDbEntity
  8
0
 62
7
100
AcDbSpline
 70
8
 71
3
 72
8
 73
4
 74
0
 40
0
 40
0
 40
0
 40
0
 40
1
 40
1
 40
1
 40
1
 10
851.059600
 20
181.826880
 30
0.0
 10
852.451600
 20
180.288744
 30
0.0
 10
854.277120
 20
179.789240
 30
0.0
 10
858.964560
 20
179.663880
 30
0.0
  0
LWPOLYLINE
  5
251
100
AcDbEntity
  8
0
 62
7
100
AcDbPolyline
 90
3
 70
1
 10
879.847440
 20
179.090304
 30
0.0
 10
875.059920
 20
179.466376
 30
0.0
 10
880.202880
 20
179.646624
 30
0.0
  0
SPLINE
  5
252
100
AcDbEntity
  8
0
 62
7
100
AcDbSpline
 70
8
 71
3
 72
8
 73
4
 74
0
 40
0
 40
0
 40
0
 40
0
 40
1
 40
1
 40
1
 40
1
 10
850.283920
 20
168.326880
 30
0.0
 10
848.182000
 20
162.826880
 30
0.0
 10
845.840240
 20
157.850008
 30
0.0
 10
845.080000
 20
157.267168
 30
0.0
  0
SPLINE
  5
253
100
AcDbEntity
  8
0
 62
7
100
AcDbSpline
 70
8
 71
3
 72
8
 73
4
 74
0
 40
0
 40
0
 40
0
 40
0
 40
1
 40
1
 40
1
 40
1
 10
845.080000
 20
157.267168
 30
0.0
 10
843.077200
 20
155.731624
 30
0.0
 10
831.267840
 20
125.107976
 30
0.0
 10
832.136560
 20
123.702400
 30
0.0
  0
SPLINE
  5
254
100
AcDbEntity
  8
0
 62
7
100
AcDbSpline
 70
8
 71
3
 72
8
 73
4
 74
0
 40
0
 40
0
 40
0
 40
0
 40
1
 40
1
 40
1
 40
1
 10
832.136560
 20
123.702400
 30
0.0
 10
832.558800
 20
123.019088
 30
0.0
 10
832.442000
 20
122.781536
 30
0.0
 10
831.860320
 20
123.141008
 30
0.0
  0
SPLINE
  5
255
100
AcDbEntity
  8
0
 62
7
100
AcDbSpline
 70
8
 71
3
 72
8
 73
4
 74
0
 40
0
 40
0
 40
0
 40
0
 40
1
 40
1
 40
1
 40
1
 10
831.860320
 20
123.141008
 30
0.0
 10
831.305760
 20
123.483744
 30
0.0
 10
830.336240
 20
122.632096
 30
0.0
 10
829.705840
 20
121.248464
 30
0.0
  0
SPLINE
  5
256
100
AcDbEntity
  8
0
 62
7
100
AcDbSpline
 70
8
 71
3
 72
8
 73
4
 74
0
 40
0
 40
0
 40
0
 40
0
 40
1
 40
1
 40
1
 40
1
 10
829.705840
 20
121.248464
 30
0.0
 10
828.106880
 20
117.739104
 30
0.0
 10
828.337120
 20
116.813744
 30
0.0
 10
830.059600
 20
119.826880
 30
0.0
  0
SPLINE
  5
257
100
AcDbEntity
  8
0
 62
7
100
AcDbSpline
 70
8
 71
3
 72
8
 73
4
 74
0
 40
0
 40
0
 40
0
 40
0
 40
1
 40
1
 40
1
 40
1
 10
830.059600
 20
119.826880
 30
0.0
 10
832.997760
 20
124.966624
 30
0.0
 10
831.381440
 20
119.721456
 30
0.0
 10
825.719920
 20
105.744104
 30
0.0
  0
SPLINE
  5
258
100
AcDbEntity
  8
0
 62
7
100
AcDbSpline
 70
8
 71
3
 72
8
 73
4
 74
0
 40
0
 40
0
 40
0
 40
0
 40
1
 40
1
 40
1
 40
1
 10
825.719920
 20
105.744104
 30
0.0
 10
822.508160
 20
97.814624
 30
0.0
 10
819.127120
 20
89.639376
 30
0.0
 10
818.206560
 20
87.576880
 30
0.0
  0
LWPOLYLINE
  5
259
100
AcDbEntity
  8
0
 62
7
100
AcDbPolyline
 90
5
 70
1
 10
858.964560
 20
179.663880
 30
0.0
 10
865.059600
 20
179.500888
 30
0.0
 10
859.582560
 20
178.913880
 30
0.0
 10
854.105520
 20
178.326880
 30
0.0
 10
850.283920
 20
168.326880
 30
0.0
  0
SPLINE
  5
25a
100
AcDbEntity
  8
0
 62
7
100
AcDbSpline
 70
8
 71
3
 72
8
 73
4
 74
0
 40
0
 40
0
 40
0
 40
0
 40
1
 40
1
 40
1
 40
1
 10
863.357360
 20
102.571624
 30
0.0
 10
867.920960
 20
102.757344
 30
0.0
 10
875.120960
 20
102.756304
 30
0.0
 10
879.357360
 20
102.569224
 30
0.0
  0
SPLINE
  5
25b
100
AcDbEntity
  8
0
 62
7
100
AcDbSpline
 70
8
 71
3
 72
8
 73
4
 74
0
 40
0
 40
0
 40
0
 40
0
 40
1
 40
1
 40
1
 40
1
 10
879.357360
 20
102.569224
 30
0.0
 10
883.593760
 20
102.382248
 30
0.0
 10
879.859920
 20
102.230296
 30
0.0
 10
871.059920
 20
102.231568
 30
0.0
  0
SPLINE
  5
25c
100
AcDbEntity
  8
0
 62
7
100
AcDbSpline
 70
8
 71
3
 72
8
 73
4
 74
0
 40
0
 40
0
 40
0
 40
0
 40
1
 40
1
 40
1
 40
1
 10
871.059920
 20
102.231568
 30
0.0
 10
862.259920
 20
102.232368
 30
0.0
 10
858.793760
 20
102.385816
 30
0.0
 10
863.357360
 20
102.571528
 30
0.0
  0
LWPOLYLINE
  5
25d
100
AcDbEntity
  8
0
 62
7
100
AcDbPolyline
 90
6
 70
1
 10
818.206560
 20
87.576880
 30
0.0
 10
816.532720
 20
83.826864
 30
0.0
 10
826.296160
 20
83.826864
 30
0.0
 10
836.059600
 20
83.826864
 30
0.0
 10
839.559600
 20
93.321376
 30
0.0
 10
839.559920
 20
93.326880
 30
0.0
  0
SPLINE
  5
25e
100
AcDbEntity
  8
0
 62
7
100
AcDbSpline
 70
8
 71
3
 72
8
 73
4
 74
0
 40
0
 40
0
 40
0
 40
0
 40
1
 40
1
 40
1
 40
1
 10
845.559920
 20
113.745088
 30
0.0
 10
845.559920
 20
116.739896
 30
0.0
 10
846.663680
 20
118.880768
 30
0.0
 10
847.834640
 20
118.157088
 30
0.0
  0
SPLINE
  5
25f
100
AcDbEntity
  8
0
 62
7
100
AcDbSpline
 70
8
 71
3
 72
8
 73
4
 74
0
 40
0
 40
0
 40
0
 40
0
 40
1
 40
1
 40
1
 40
1
 10
847.834640
 20
118.157088
 30
0.0
 10
848.494000
 20
117.749600
 30
0.0
 10
848.665920
 20
118.108208
 30
0.0
 10
848.286000
 20
119.098224
 30
0.0
  0
SPLINE
  5
260
100
AcDbEntity
  8
0
 62
7
100
AcDbSpline
 70
8
 71
3
 72
8
 73
4
 74
0
 40
0
 40
0
 40
0
 40
0
 40
1
 40
1
 40
1
 40
1
 10
848.286000
 20
119.098224
 30
0.0
 10
847.948480
 20
119.977920
 30
0.0
 10
848.122160
 20
120.847640
 30
0.0
 10
848.672080
 20
121.030928
 30
0.0
  0
SPLINE
  5
261
100
AcDbEntity
  8
0
 62
7
100
AcDbSpline
 70
8
 71
3
 72
8
 73
4
 74
0
 40
0
 40
0
 40
0
 40
0
 40
1
 40
1
 40
1
 40
1
 10
848.672080
 20
121.030928
 30
0.0
 10
849.222000
 20
121.214224
 30
0.0
 10
850.728320
 20
124.955800
 30
0.0
 10
852.019520
 20
129.345536
 30
0.0
  0
SPLINE
  5
262
100
AcDbEntity
  8
0
 62
7
100
AcDbSpline
 70
8
 71
3
 72
8
 73
4
 74
0
 40
0
 40
0
 40
0
 40
0
 40
1
 40
1
 40
1
 40
1
 10
852.019520
 20
129.345536
 30
0.0
 10
854.522800
 20
137.855896
 30
0.0
 10
862.372240
 20
158.629528
 30
0.0
 10
865.017520
 20
163.744936
 30
0.0
  0
SPLINE
  5
263
100
AcDbEntity
  8
0
 62
7
100
AcDbSpline
 70
8
 71
3
 72
8
 73
4
 74
0
 40
0
 40
0
 40
0
 40
0
 40
1
 40
1
 40
1
 40
1
 10
865.017520
 20
163.744936
 30
0.0
 10
866.255840
 20
166.139520
 30
0.0
 10
867.274640
 20
166.826880
 30
0.0
 10
869.585600
 20
166.826880
 30
0.0
  0
SPLINE
  5
264
100
AcDbEntity
  8
0
 62
7
100
AcDbSpline
 70
8
 71
3
 72
8
 73
4
 74
0
 40
0
 40
0
 40
0
 40
0
 40
1
 40
1
 40
1
 40
1
 10
869.585600
 20
166.826880
 30
0.0
 10
871.288880
 20
166.826880
 30
0.0
 10
872.567520
 20
166.292696
 30
0.0
 10
872.577760
 20
165.576880
 30
0.0
  0
SPLINE
  5
265
100
AcDbEntity
  8
0
 62
7
100
AcDbSpline
 70
8
 71
3
 72
8
 73
4
 74
0
 40
0
 40
0
 40
0
 40
0
 40
1
 40
1
 40
1
 40
1
 10
872.577760
 20
165.576880
 30
0.0
 10
872.616960
 20
162.828864
 30
0.0
 10
886.294560
 20
127.889640
 30
0.0
 10
887.059680
 20
128.582968
 30
0.0
  0
SPLINE
  5
266
100
AcDbEntity
  8
0
 62
7
100
AcDbSpline
 70
8
 71
3
 72
8
 73
4
 74
0
 40
0
 40
0
 40
0
 40
0
 40
1
 40
1
 40
1
 40
1
 10
887.059680
 20
128.582968
 30
0.0
 10
887.511120
 20
128.992120
 30
0.0
 10
887.550560
 20
128.754264
 30
0.0
 10
887.147360
 20
128.054408
 30
0.0
  0
SPLINE
  5
267
100
AcDbEntity
  8
0
 62
7
100
AcDbSpline
 70
8
 71
3
 72
8
 73
4
 74
0
 40
0
 40
0
 40
0
 40
0
 40
1
 40
1
 40
1
 40
1
 10
887.147360
 20
128.054408
 30
0.0
 10
886.437200
 20
126.821928
 30
0.0
 10
889.349200
 20
116.282848
 30
0.0
 10
890.172480
 20
117.106104
 30
0.0
  0
SPLINE
  5
268
100
AcDbEntity
  8
0
 62
7
100
AcDbSpline
 70
8
 71
3
 72
8
 73
4
 74
0
 40
0
 40
0
 40
0
 40
0
 40
1
 40
1
 40
1
 40
1
 10
890.172480
 20
117.106104
 30
0.0
 10
890.397360
 20
117.330936
 30
0.0
 10
889.896640
 20
119.455288
 30
0.0
 10
889.059920
 20
121.826880
 30
0.0
  0
SPLINE
  5
269
100
AcDbEntity
  8
0
 62
7
100
AcDbSpline
 70
8
 71
3
 72
8
 73
4
 74
0
 40
0
 40
0
 40
0
 40
0
 40
1
 40
1
 40
1
 40
1
 10
889.059920
 20
121.826880
 30
0.0
 10
888.223200
 20
124.198464
 30
0.0
 10
887.703440
 20
126.303696
 30
0.0
 10
887.904880
 20
126.505160
 30
0.0
  0
SPLINE
  5
26a
100
AcDbEntity
  8
0
 62
7
100
AcDbSpline
 70
8
 71
3
 72
8
 73
4
 74
0
 40
0
 40
0
 40
0
 40
0
 40
1
 40
1
 40
1
 40
1
 10
887.904880
 20
126.505160
 30
0.0
 10
888.409840
 20
127.010120
 30
0.0
 10
891.378880
 20
119.046648
 30
0.0
 10
892.165760
 20
115.076880
 30
0.0
  0
LWPOLYLINE
  5
26b
100
AcDbEntity
  8
0
 62
7
100
AcDbPolyline
 90
2
 70
1
 10
863.357360
 20
102.571528
 30
0.0
 10
863.357360
 20
102.571624
 30
0.0
  0
SPLINE
  5
26c
100
AcDbEntity
  8
0
 62
7
100
AcDbSpline
 70
8
 71
3
 72
8
 73
4
 74
0
 40
0
 40
0
 40
0
 40
0
 40
1
 40
1
 40
1
 40
1
 10
869.184880
 20
111.826880
 30
0.0
 10
846.562320
 20
111.826880
 30
0.0
 10
845.559920
 20
111.908264
 30
0.0
 10
845.559920
 20
113.745088
 30
0.0
  0
LWPOLYLINE
  5
26d
100
AcDbEntity
  8
0
 62
7
100
AcDbPolyline
 90
3
 70
1
 10
892.165760
 20
115.076880
 30
0.0
 10
892.809920
 20
111.826880
 30
0.0
 10
869.184880
 20
111.826880
 30
0.0
  0
SPLINE
  5
26e
100
AcDbEntity
  8
0
 62
7
100
AcDbSpline
 70
8
 71
3
 72
8
 73
4
 74
0
 40
0
 40
0
 40
0
 40
0
 40
1
 40
1
 40
1
 40
1
 10
847.839280
 20
114.866536
 30
0.0
 10
847.545920
 20
115.988360
 30
0.0
 10
847.082480
 20
116.682768
 30
0.0
 10
846.809360
 20
116.409664
 30
0.0
  0
SPLINE
  5
26f
100
AcDbEntity
  8
0
 62
7
100
AcDbSpline
 70
8
 71
3
 72
8
 73
4
 74
0
 40
0
 40
0
 40
0
 40
0
 40
1
 40
1
 40
1
 40
1
 10
846.809360
 20
116.409664
 30
0.0
 10
846.268400
 20
115.868680
 30
0.0
 10
847.224000
 20
112.826880
 30
0.0
 10
847.934880
 20
112.826880
 30
0.0
  0
SPLINE
  5
270
100
AcDbEntity
  8
0
 62
7
100
AcDbSpline
 70
8
 71
3
 72
8
 73
4
 74
0
 40
0
 40
0
 40
0
 40
0
 40
1
 40
1
 40
1
 40
1
 10
847.934880
 20
112.826880
 30
0.0
 10
848.175680
 20
112.826880
 30
0.0
 10
848.132640
 20
113.744728
 30
0.0
 10
847.839280
 20
114.866536
 30
0.0
  0
LWPOLYLINE
  5
271
100
AcDbEntity
  8
0
 62
7
100
AcDbPolyline
 90
2
 70
1
 10
845.559920
 20
113.745088
 30
0.0
 10
845.559920
 20
113.745088
 30
0.0
  0
SPLINE
  5
272
100
AcDbEntity
  8
0
 62
7
100
AcDbSpline
 70
8
 71
3
 72
8
 73
4
 74
0
 40
0
 40
0
 40
0
 40
0
 40
1
 40
1
 40
1
 40
1
 10
883.809920
 20
114.489160
 30
0.0
 10
883.122400
 20
114.766568
 30
0.0
 10
881.997360
 20
114.766568
 30
0.0
 10
881.309920
 20
114.489160
 30
0.0
  0
SPLINE
  5
273
100
AcDbEntity
  8
0
 62
7
100
AcDbSpline
 70
8
 71
3
 72
8
 73
4
 74
0
 40
0
 40
0
 40
0
 40
0
 40
1
 40
1
 40
1
 40
1
 10
881.309920
 20
114.489160
 30
0.0
 10
880.622400
 20
114.211744
 30
0.0
 10
881.184880
 20
113.984768
 30
0.0
 10
882.559920
 20
113.984768
 30
0.0
  0
SPLINE
  5
274
100
AcDbEntity
  8
0
 62
7
100
AcDbSpline
 70
8
 71
3
 72
8
 73
4
 74
0
 40
0
 40
0
 40
0
 40
0
 40
1
 40
1
 40
1
 40
1
 10
882.559920
 20
113.984768
 30
0.0
 10
883.934880
 20
113.984768
 30
0.0
 10
884.497360
 20
114.211744
 30
0.0
 10
883.809920
 20
114.489160
 30
0.0
  0
LWPOLYLINE
  5
275
100
AcDbEntity
  8
0
 62
7
100
AcDbPolyline
 90
2
 70
1
 10
847.839280
 20
114.866536
 30
0.0
 10
847.839280
 20
114.866536
 30
0.0
  0
SPLINE
  5
276
100
AcDbEntity
  8
0
 62
7
100
AcDbSpline
 70
8
 71
3
 72
8
 73
4
 74
0
 40
0
 40
0
 40
0
 40
0
 40
1
 40
1
 40
1
 40
1
 10
880.559920
 20
116.957720
 30
0.0
 10
880.559920
 20
117.689080
 30
0.0
 10
881.781840
 20
117.890264
 30
0.0
 10
884.018960
 20
117.527240
 30
0.0
  0
LWPOLYLINE
  5
277
100
AcDbEntity
  8
0
 62
7
100
AcDbPolyline
 90
2
 70
1
 10
883.809920
 20
114.489160
 30
0.0
 10
883.809920
 20
114.489160
 30
0.0
  0
SPLINE
  5
278
100
AcDbEntity
  8
0
 62
7
100
AcDbSpline
 70
8
 71
3
 72
8
 73
4
 74
0
 40
0
 40
0
 40
0
 40
0
 40
1
 40
1
 40
1
 40
1
 10
883.643120
 20
127.646400
 30
0.0
 10
873.872160
 20
154.859560
 30
0.0
 10
870.214240
 20
163.826880
 30
0.0
 10
868.884480
 20
163.826880
 30
0.0
  0
SPLINE
  5
279
100
AcDbEntity
  8
0
 62
7
100
AcDbSpline
 70
8
 71
3
 72
8
 73
4
 74
0
 40
0
 40
0
 40
0
 40
0
 40
1
 40
1
 40
1
 40
1
 10
868.884480
 20
163.826880
 30
0.0
 10
866.743440
 20
163.826880
 30
0.0
 10
865.616320
 20
159.677744
 30
0.0
 10
867.120160
 20
157.332056
 30
0.0
  0
SPLINE
  5
27a
100
AcDbEntity
  8
0
 62
7
100
AcDbSpline
 70
8
 71
3
 72
8
 73
4
 74
0
 40
0
 40
0
 40
0
 40
0
 40
1
 40
1
 40
1
 40
1
 10
867.120160
 20
157.332056
 30
0.0
 10
868.512400
 20
155.160400
 30
0.0
 10
877.951920
 20
131.026400
 30
0.0
 10
880.144640
 20
124.032288
 30
0.0
  0
SPLINE
  5
27b
100
AcDbEntity
  8
0
 62
7
100
AcDbSpline
 70
8
 71
3
 72
8
 73
4
 74
0
 40
0
 40
0
 40
0
 40
0
 40
1
 40
1
 40
1
 40
1
 10
880.144640
 20
124.032288
 30
0.0
 10
881.304960
 20
120.331360
 30
0.0
 10
881.289280
 20
119.660256
 30
0.0
 10
880.031200
 20
119.177504
 30
0.0
  0
SPLINE
  5
27c
100
AcDbEntity
  8
0
 62
7
100
AcDbSpline
 70
8
 71
3
 72
8
 73
4
 74
0
 40
0
 40
0
 40
0
 40
0
 40
1
 40
1
 40
1
 40
1
 10
880.031200
 20
119.177504
 30
0.0
 10
879.228320
 20
118.869400
 30
0.0
 10
878.863360
 20
118.144928
 30
0.0
 10
879.220160
 20
117.567584
 30
0.0
  0
SPLINE
  5
27d
100
AcDbEntity
  8
0
 62
7
100
AcDbSpline
 70
8
 71
3
 72
8
 73
4
 74
0
 40
0
 40
0
 40
0
 40
0
 40
1
 40
1
 40
1
 40
1
 10
879.220160
 20
117.567584
 30
0.0
 10
879.576960
 20
116.990240
 30
0.0
 10
879.403760
 20
116.805344
 30
0.0
 10
878.835200
 20
117.156728
 30
0.0
  0
SPLINE
  5
27e
100
AcDbEntity
  8
0
 62
7
100
AcDbSpline
 70
8
 71
3
 72
8
 73
4
 74
0
 40
0
 40
0
 40
0
 40
0
 40
1
 40
1
 40
1
 40
1
 10
878.835200
 20
117.156728
 30
0.0
 10
878.266640
 20
117.508104
 30
0.0
 10
872.459600
 20
118.046960
 30
0.0
 10
865.930720
 20
118.354184
 30
0.0
  0
SPLINE
  5
27f
100
AcDbEntity
  8
0
 62
7
100
AcDbSpline
 70
8
 71
3
 72
8
 73
4
 74
0
 40
0
 40
0
 40
0
 40
0
 40
1
 40
1
 40
1
 40
1
 10
865.930720
 20
118.354184
 30
0.0
 10
859.401760
 20
118.661416
 30
0.0
 10
853.325680
 20
119.131864
 30
0.0
 10
852.428320
 20
119.399624
 30
0.0
  0
SPLINE
  5
280
100
AcDbEntity
  8
0
 62
7
100
AcDbSpline
 70
8
 71
3
 72
8
 73
4
 74
0
 40
0
 40
0
 40
0
 40
0
 40
1
 40
1
 40
1
 40
1
 10
852.428320
 20
119.399624
 30
0.0
 10
851.493520
 20
119.678576
 30
0.0
 10
850.525040
 20
119.178280
 30
0.0
 10
850.160400
 20
118.228088
 30
0.0
  0
SPLINE
  5
281
100
AcDbEntity
  8
0
 62
7
100
AcDbSpline
 70
8
 71
3
 72
8
 73
4
 74
0
 40
0
 40
0
 40
0
 40
0
 40
1
 40
1
 40
1
 40
1
 10
850.160400
 20
118.228088
 30
0.0
 10
849.628560
 20
116.842280
 30
0.0
 10
850.013680
 20
116.667624
 30
0.0
 10
852.503200
 20
117.165528
 30
0.0
  0
SPLINE
  5
282
100
AcDbEntity
  8
0
 62
7
100
AcDbSpline
 70
8
 71
3
 72
8
 73
4
 74
0
 40
0
 40
0
 40
0
 40
0
 40
1
 40
1
 40
1
 40
1
 10
852.503200
 20
117.165528
 30
0.0
 10
854.141760
 20
117.493240
 30
0.0
 10
855.751360
 20
117.326104
 30
0.0
 10
856.080160
 20
116.794128
 30
0.0
  0
SPLINE
  5
283
100
AcDbEntity
  8
0
 62
7
100
AcDbSpline
 70
8
 71
3
 72
8
 73
4
 74
0
 40
0
 40
0
 40
0
 40
0
 40
1
 40
1
 40
1
 40
1
 10
856.080160
 20
116.794128
 30
0.0
 10
856.959120
 20
115.371984
 30
0.0
 10
880.559920
 20
115.529704
 30
0.0
 10
880.559920
 20
116.957720
 30
0.0
  0
LWPOLYLINE
  5
284
100
AcDbEntity
  8
0
 62
7
100
AcDbPolyline
 90
3
 70
1
 10
884.018960
 20
117.527240
 30
0.0
 10
887.478000
 20
116.965904
 30
0.0
 10
883.643120
 20
127.646400
 30
0.0
  0
SPLINE
  5
285
100
AcDbEntity
  8
0
 62
7
100
AcDbSpline
 70
8
 71
3
 72
8
 73
4
 74
0
 40
0
 40
0
 40
0
 40
0
 40
1
 40
1
 40
1
 40
1
 10
879.241680
 20
122.076880
 30
0.0
 10
876.524880
 20
128.457744
 30
0.0
 10
870.032400
 20
145.541520
 30
0.0
 10
868.377760
 20
150.663016
 30
0.0
  0
LWPOLYLINE
  5
286
100
AcDbEntity
  8
0
 62
7
100
AcDbPolyline
 90
2
 70
1
 10
880.559920
 20
116.957720
 30
0.0
 10
880.559920
 20
116.957720
 30
0.0
  0
SPLINE
  5
287
100
AcDbEntity
  8
0
 62
7
100
AcDbSpline
 70
8
 71
3
 72
8
 73
4
 74
0
 40
0
 40
0
 40
0
 40
0
 40
1
 40
1
 40
1
 40
1
 10
860.361840
 20
140.698960
 30
0.0
 10
857.091760
 20
131.694320
 30
0.0
 10
854.171040
 20
123.539376
 30
0.0
 10
853.871440
 20
122.576880
 30
0.0
  0
SPLINE
  5
288
100
AcDbEntity
  8
0
 62
7
100
AcDbSpline
 70
8
 71
3
 72
8
 73
4
 74
0
 40
0
 40
0
 40
0
 40
0
 40
1
 40
1
 40
1
 40
1
 10
853.871440
 20
122.576880
 30
0.0
 10
853.371520
 20
120.970976
 30
0.0
 10
854.415520
 20
120.826880
 30
0.0
 10
866.550240
 20
120.826880
 30
0.0
  0
SPLINE
  5
289
100
AcDbEntity
  8
0
 62
7
100
AcDbSpline
 70
8
 71
3
 72
8
 73
4
 74
0
 40
0
 40
0
 40
0
 40
0
 40
1
 40
1
 40
1
 40
1
 10
866.550240
 20
120.826880
 30
0.0
 10
876.746320
 20
120.826880
 30
0.0
 10
879.652000
 20
121.113064
 30
0.0
 10
879.241680
 20
122.076880
 30
0.0
  0
LWPOLYLINE
  5
28a
100
AcDbEntity
  8
0
 62
7
100
AcDbPolyline
 90
3
 70
1
 10
868.377760
 20
150.663016
 30
0.0
 10
866.307600
 20
157.071048
 30
0.0
 10
860.361840
 20
140.698960
 30
0.0
  0
SPLINE
  5
28b
100
AcDbEntity
  8
0
 62
7
100
AcDbSpline
 70
8
 71
3
 72
8
 73
4
 74
0
 40
0
 40
0
 40
0
 40
0
 40
1
 40
1
 40
1
 40
1
 10
867.321520
 20
179.534136
 30
0.0
 10
868.565440
 20
179.773328
 30
0.0
 10
870.365440
 20
179.764248
 30
0.0
 10
871.321520
 20
179.513896
 30
0.0
  0
SPLINE
  5
28c
100
AcDbEntity
  8
0
 62
7
100
AcDbSpline
 70
8
 71
3
 72
8
 73
4
 74
0
 40
0
 40
0
 40
0
 40
0
 40
1
 40
1
 40
1
 40
1
 10
871.321520
 20
179.513896
 30
0.0
 10
872.277680
 20
179.263608
 30
0.0
 10
871.259920
 20
179.067896
 30
0.0
 10
869.059920
 20
179.079000
 30
0.0
  0
SPLINE
  5
28d
100
AcDbEntity
  8
0
 62
7
100
AcDbSpline
 70
8
 71
3
 72
8
 73
4
 74
0
 40
0
 40
0
 40
0
 40
0
 40
1
 40
1
 40
1
 40
1
 10
869.059920
 20
179.079000
 30
0.0
 10
866.859920
 20
179.090120
 30
0.0
 10
866.077680
 20
179.294888
 30
0.0
 10
867.321520
 20
179.534080
 30
0.0
  0
LWPOLYLINE
  5
28e
100
AcDbEntity
  8
0
 62
7
100
AcDbPolyline
 90
2
 70
1
 10
879.241680
 20
122.076880
 30
0.0
 10
879.241680
 20
122.076880
 30
0.0
  0
SPLINE
  5
28f
100
AcDbEntity
  8
0
 62
7
100
AcDbSpline
 70
8
 71
3
 72
8
 73
4
 74
0
 40
0
 40
0
 40
0
 40
0
 40
1
 40
1
 40
1
 40
1
 10
897.988480
 20
94.255448
 30
0.0
 10
897.620640
 20
95.720960
 30
0.0
 10
897.126880
 20
96.727160
 30
0.0
 10
896.891120
 20
96.491448
 30
0.0
  0
SPLINE
  5
290
100
AcDbEntity
  8
0
 62
7
100
AcDbSpline
 70
8
 71
3
 72
8
 73
4
 74
0
 40
0
 40
0
 40
0
 40
0
 40
1
 40
1
 40
1
 40
1
 10
896.891120
 20
96.491448
 30
0.0
 10
896.655440
 20
96.255728
 30
0.0
 10
896.763520
 20
94.863816
 30
0.0
 10
897.131360
 20
93.398304
 30
0.0
  0
SPLINE
  5
291
100
AcDbEntity
  8
0
 62
7
100
AcDbSpline
 70
8
 71
3
 72
8
 73
4
 74
0
 40
0
 40
0
 40
0
 40
0
 40
1
 40
1
 40
1
 40
1
 10
897.131360
 20
93.398304
 30
0.0
 10
897.499120
 20
91.932800
 30
0.0
 10
897.992960
 20
90.926600
 30
0.0
 10
898.228640
 20
91.162304
 30
0.0
  0
SPLINE
  5
292
100
AcDbEntity
  8
0
 62
7
100
AcDbSpline
 70
8
 71
3
 72
8
 73
4
 74
0
 40
0
 40
0
 40
0
 40
0
 40
1
 40
1
 40
1
 40
1
 10
898.228640
 20
91.162304
 30
0.0
 10
898.464400
 20
91.398024
 30
0.0
 10
898.356320
 20
92.789936
 30
0.0
 10
897.988480
 20
94.255448
 30
0.0
  0
LWPOLYLINE
  5
293
100
AcDbEntity
  8
0
 62
7
100
AcDbPolyline
 90
2
 70
1
 10
867.321520
 20
179.534080
 30
0.0
 10
867.321520
 20
179.534136
 30
0.0
  0
SPLINE
  5
294
100
AcDbEntity
  8
0
 62
7
100
AcDbSpline
 70
8
 71
3
 72
8
 73
4
 74
0
 40
0
 40
0
 40
0
 40
0
 40
1
 40
1
 40
1
 40
1
 10
747.465744
 20
230.765960
 30
0.0
 10
731.257264
 20
234.957208
 30
0.0
 10
736.760864
 20
234.570160
 30
0.0
 10
661.059904
 20
236.842536
 30
0.0
  0
SPLINE
  5
295
100
AcDbEntity
  8
0
 62
7
100
AcDbSpline
 70
8
 71
3
 72
8
 73
4
 74
0
 40
0
 40
0
 40
0
 40
0
 40
1
 40
1
 40
1
 40
1
 10
661.059904
 20
236.842536
 30
0.0
 10
611.056944
 20
238.343520
 30
0.0
 10
604.559904
 20
238.755528
 30
0.0
 10
604.559904
 20
240.425488
 30
0.0
  0
SPLINE
  5
296
100
AcDbEntity
  8
0
 62
7
100
AcDbSpline
 70
8
 71
3
 72
8
 73
4
 74
0
 40
0
 40
0
 40
0
 40
0
 40
1
 40
1
 40
1
 40
1
 10
604.559904
 20
240.425488
 30
0.0
 10
604.559904
 20
241.313064
 30
0.0
 10
605.649904
 20
241.826840
 30
0.0
 10
607.533024
 20
241.826840
 30
0.0
  0
SPLINE
  5
297
100
AcDbEntity
  8
0
 62
7
100
AcDbSpline
 70
8
 71
3
 72
8
 73
4
 74
0
 40
0
 40
0
 40
0
 40
0
 40
1
 40
1
 40
1
 40
1
 10
607.533024
 20
241.826840
 30
0.0
 10
612.446224
 20
241.826840
 30
0.0
 10
644.992064
 20
247.634008
 30
0.0
 10
661.559904
 20
251.466888
 30
0.0
  0
SPLINE
  5
298
100
AcDbEntity
  8
0
 62
7
100
AcDbSpline
 70
8
 71
3
 72
8
 73
4
 74
0
 40
0
 40
0
 40
0
 40
0
 40
1
 40
1
 40
1
 40
1
 10
661.559904
 20
251.466888
 30
0.0
 10
756.283664
 20
273.380720
 30
0.0
 10
851.276320
 20
319.318160
 30
0.0
 10
919.559920
 20
376.232984
 30
0.0
  0
SPLINE
  5
299
100
AcDbEntity
  8
0
 62
7
100
AcDbSpline
 70
8
 71
3
 72
8
 73
4
 74
0
 40
0
 40
0
 40
0
 40
0
 40
1
 40
1
 40
1
 40
1
 10
919.559920
 20
376.232984
 30
0.0
 10
925.334880
 20
381.046488
 30
0.0
 10
930.538800
 20
385.190344
 30
0.0
 10
931.124160
 20
385.441560
 30
0.0
  0
SPLINE
  5
29a
100
AcDbEntity
  8
0
 62
7
100
AcDbSpline
 70
8
 71
3
 72
8
 73
4
 74
0
 40
0
 40
0
 40
0
 40
0
 40
1
 40
1
 40
1
 40
1
 10
931.124160
 20
385.441560
 30
0.0
 10
931.709600
 20
385.692760
 30
0.0
 10
935.084560
 20
383.966536
 30
0.0
 10
938.624160
 20
381.605504
 30
0.0
  0
SPLINE
  5
29b
100
AcDbEntity
  8
0
 62
7
100
AcDbSpline
 70
8
 71
3
 72
8
 73
4
 74
0
 40
0
 40
0
 40
0
 40
0
 40
1
 40
1
 40
1
 40
1
 10
938.624160
 20
381.605504
 30
0.0
 10
942.163840
 20
379.244480
 30
0.0
 10
952.709920
 20
373.718496
 30
0.0
 10
962.059920
 20
369.325560
 30
0.0
  0
SPLINE
  5
29c
100
AcDbEntity
  8
0
 62
7
100
AcDbSpline
 70
8
 71
3
 72
8
 73
4
 74
0
 40
0
 40
0
 40
0
 40
0
 40
1
 40
1
 40
1
 40
1
 10
962.059920
 20
369.325560
 30
0.0
 10
1004.053440
 20
349.595600
 30
0.0
 10
1027.063120
 20
337.035448
 30
0.0
 10
1028.295680
 20
333.169784
 30
0.0
  0
SPLINE
  5
29d
100
AcDbEntity
  8
0
 62
7
100
AcDbSpline
 70
8
 71
3
 72
8
 73
4
 74
0
 40
0
 40
0
 40
0
 40
0
 40
1
 40
1
 40
1
 40
1
 10
1028.295680
 20
333.169784
 30
0.0
 10
1029.417760
 20
329.650640
 30
0.0
 10
948.398240
 20
284.394208
 30
0.0
 10
913.059920
 20
268.800608
 30
0.0
  0
SPLINE
  5
29e
100
AcDbEntity
  8
0
 62
7
100
AcDbSpline
 70
8
 71
3
 72
8
 73
4
 74
0
 40
0
 40
0
 40
0
 40
0
 40
1
 40
1
 40
1
 40
1
 10
913.059920
 20
268.800608
 30
0.0
 10
865.429040
 20
247.782760
 30
0.0
 10
812.069920
 20
232.805440
 30
0.0
 10
765.559904
 20
227.398976
 30
0.0
  0
SPLINE
  5
29f
100
AcDbEntity
  8
0
 62
7
100
AcDbSpline
 70
8
 71
3
 72
8
 73
4
 74
0
 40
0
 40
0
 40
0
 40
0
 40
1
 40
1
 40
1
 40
1
 10
765.559904
 20
227.398976
 30
0.0
 10
763.508704
 20
227.160544
 30
0.0
 10
756.018704
 20
228.554288
 30
0.0
 10
747.465744
 20
230.765960
 30
0.0
  0
LWPOLYLINE
  5
2a0
100
AcDbEntity
  8
0
 62
7
100
AcDbPolyline
 90
2
 70
1
 10
897.988480
 20
94.255448
 30
0.0
 10
897.988480
 20
94.255448
 30
0.0
  0
SPLINE
  5
2a1
100
AcDbEntity
  8
0
 62
7
100
AcDbSpline
 70
8
 71
3
 72
8
 73
4
 74
0
 40
0
 40
0
 40
0
 40
0
 40
1
 40
1
 40
1
 40
1
 10
784.559904
 20
231.766640
 30
0.0
 10
832.740240
 20
239.935240
 30
0.0
 10
874.724960
 20
253.118064
 30
0.0
 10
924.103280
 20
275.582016
 30
0.0
  0
SPLINE
  5
2a2
100
AcDbEntity
  8
0
 62
7
100
AcDbSpline
 70
8
 71
3
 72
8
 73
4
 74
0
 40
0
 40
0
 40
0
 40
0
 40
1
 40
1
 40
1
 40
1
 10
924.103280
 20
275.582016
 30
0.0
 10
937.639440
 20
281.740104
 30
0.0
 10
969.604800
 20
298.449744
 30
0.0
 10
980.059920
 20
304.832888
 30
0.0
  0
SPLINE
  5
2a3
100
AcDbEntity
  8
0
 62
7
100
AcDbSpline
 70
8
 71
3
 72
8
 73
4
 74
0
 40
0
 40
0
 40
0
 40
0
 40
1
 40
1
 40
1
 40
1
 10
980.059920
 20
304.832888
 30
0.0
 10
983.359920
 20
306.847640
 30
0.0
 10
986.509920
 20
308.682984
 30
0.0
 10
987.059920
 20
308.911456
 30
0.0
  0
SPLINE
  5
2a4
100
AcDbEntity
  8
0
 62
7
100
AcDbSpline
 70
8
 71
3
 72
8
 73
4
 74
0
 40
0
 40
0
 40
0
 40
0
 40
1
 40
1
 40
1
 40
1
 10
987.059920
 20
308.911456
 30
0.0
 10
987.925440
 20
309.270984
 30
0.0
 10
995.243120
 20
313.636864
 30
0.0
 10
1020.095760
 20
328.621344
 30
0.0
  0
SPLINE
  5
2a5
100
AcDbEntity
  8
0
 62
7
100
AcDbSpline
 70
8
 71
3
 72
8
 73
4
 74
0
 40
0
 40
0
 40
0
 40
0
 40
1
 40
1
 40
1
 40
1
 10
1020.095760
 20
328.621344
 30
0.0
 10
1023.100960
 20
330.433328
 30
0.0
 10
1025.559920
 20
332.302064
 30
0.0
 10
1025.559920
 20
332.774104
 30
0.0
  0
SPLINE
  5
2a6
100
AcDbEntity
  8
0
 62
7
100
AcDbSpline
 70
8
 71
3
 72
8
 73
4
 74
0
 40
0
 40
0
 40
0
 40
0
 40
1
 40
1
 40
1
 40
1
 10
1025.559920
 20
332.774104
 30
0.0
 10
1025.559920
 20
335.410168
 30
0.0
 10
999.653600
 20
349.710016
 30
0.0
 10
973.681520
 20
361.410088
 30
0.0
  0
SPLINE
  5
2a7
100
AcDbEntity
  8
0
 62
7
100
AcDbSpline
 70
8
 71
3
 72
8
 73
4
 74
0
 40
0
 40
0
 40
0
 40
0
 40
1
 40
1
 40
1
 40
1
 10
973.681520
 20
361.410088
 30
0.0
 10
958.653840
 20
368.179856
 30
0.0
 10
940.104720
 20
377.653848
 30
0.0
 10
935.405520
 20
380.959568
 30
0.0
  0
SPLINE
  5
2a8
100
AcDbEntity
  8
0
 62
7
100
AcDbSpline
 70
8
 71
3
 72
8
 73
4
 74
0
 40
0
 40
0
 40
0
 40
0
 40
1
 40
1
 40
1
 40
1
 10
935.405520
 20
380.959568
 30
0.0
 10
933.945600
 20
381.986568
 30
0.0
 10
932.357680
 20
382.826840
 30
0.0
 10
931.876720
 20
382.826840
 30
0.0
  0
SPLINE
  5
2a9
100
AcDbEntity
  8
0
 62
7
100
AcDbSpline
 70
8
 71
3
 72
8
 73
4
 74
0
 40
0
 40
0
 40
0
 40
0
 40
1
 40
1
 40
1
 40
1
 10
931.876720
 20
382.826840
 30
0.0
 10
931.395760
 20
382.826840
 30
0.0
 10
926.965200
 20
379.410304
 30
0.0
 10
922.031040
 20
375.234544
 30
0.0
  0
SPLINE
  5
2aa
100
AcDbEntity
  8
0
 62
7
100
AcDbSpline
 70
8
 71
3
 72
8
 73
4
 74
0
 40
0
 40
0
 40
0
 40
0
 40
1
 40
1
 40
1
 40
1
 10
922.031040
 20
375.234544
 30
0.0
 10
903.732000
 20
359.748040
 30
0.0
 10
874.486720
 20
339.190520
 30
0.0
 10
850.059920
 20
324.643496
 30
0.0
  0
SPLINE
  5
2ab
100
AcDbEntity
  8
0
 62
7
100
AcDbSpline
 70
8
 71
3
 72
8
 73
4
 74
0
 40
0
 40
0
 40
0
 40
0
 40
1
 40
1
 40
1
 40
1
 10
850.059920
 20
324.643496
 30
0.0
 10
792.257344
 20
290.220048
 30
0.0
 10
720.778864
 20
261.817904
 30
0.0
 10
658.059904
 20
248.351816
 30
0.0
  0
SPLINE
  5
2ac
100
AcDbEntity
  8
0
 62
7
100
AcDbSpline
 70
8
 71
3
 72
8
 73
4
 74
0
 40
0
 40
0
 40
0
 40
0
 40
1
 40
1
 40
1
 40
1
 10
658.059904
 20
248.351816
 30
0.0
 10
651.459904
 20
246.934760
 30
0.0
 10
644.259904
 20
245.374720
 30
0.0
 10
642.059904
 20
244.885056
 30
0.0
  0
SPLINE
  5
2ad
100
AcDbEntity
  8
0
 62
7
100
AcDbSpline
 70
8
 71
3
 72
8
 73
4
 74
0
 40
0
 40
0
 40
0
 40
0
 40
1
 40
1
 40
1
 40
1
 10
642.059904
 20
244.885056
 30
0.0
 10
639.859904
 20
244.395400
 30
0.0
 10
633.907104
 20
243.422288
 30
0.0
 10
628.831424
 20
242.722584
 30
0.0
  0
SPLINE
  5
2ae
100
AcDbEntity
  8
0
 62
7
100
AcDbSpline
 70
8
 71
3
 72
8
 73
4
 74
0
 40
0
 40
0
 40
0
 40
0
 40
1
 40
1
 40
1
 40
1
 10
628.831424
 20
242.722584
 30
0.0
 10
623.755824
 20
242.022888
 30
0.0
 10
619.803584
 20
241.249840
 30
0.0
 10
620.048704
 20
241.004704
 30
0.0
  0
SPLINE
  5
2af
100
AcDbEntity
  8
0
 62
7
100
AcDbSpline
 70
8
 71
3
 72
8
 73
4
 74
0
 40
0
 40
0
 40
0
 40
0
 40
1
 40
1
 40
1
 40
1
 10
620.048704
 20
241.004704
 30
0.0
 10
621.318704
 20
239.734728
 30
0.0
 10
635.818624
 20
239.071680
 30
0.0
 10
701.059904
 20
237.300248
 30
0.0
  0
SPLINE
  5
2b0
100
AcDbEntity
  8
0
 62
7
100
AcDbSpline
 70
8
 71
3
 72
8
 73
4
 74
0
 40
0
 40
0
 40
0
 40
0
 40
1
 40
1
 40
1
 40
1
 10
701.059904
 20
237.300248
 30
0.0
 10
729.808624
 20
236.519656
 30
0.0
 10
733.609424
 20
236.118824
 30
0.0
 10
748.059904
 20
232.343560
 30
0.0
  0
SPLINE
  5
2b1
100
AcDbEntity
  8
0
 62
7
100
AcDbSpline
 70
8
 71
3
 72
8
 73
4
 74
0
 40
0
 40
0
 40
0
 40
0
 40
1
 40
1
 40
1
 40
1
 10
748.059904
 20
232.343560
 30
0.0
 10
762.643664
 20
228.533464
 30
0.0
 10
765.247184
 20
228.492320
 30
0.0
 10
784.559904
 20
231.766640
 30
0.0
  0
LWPOLYLINE
  5
2b2
100
AcDbEntity
  8
0
 62
7
100
AcDbPolyline
 90
2
 70
1
 10
747.465744
 20
230.765960
 30
0.0
 10
747.465744
 20
230.765960
 30
0.0
  0
SPLINE
  5
2b3
100
AcDbEntity
  8
0
 62
7
100
AcDbSpline
 70
8
 71
3
 72
8
 73
4
 74
0
 40
0
 40
0
 40
0
 40
0
 40
1
 40
1
 40
1
 40
1
 10
628.809904
 20
241.543088
 30
0.0
 10
630.322384
 20
241.772216
 30
0.0
 10
632.797424
 20
241.772216
 30
0.0
 10
634.309904
 20
241.543088
 30
0.0
  0
SPLINE
  5
2b4
100
AcDbEntity
  8
0
 62
7
100
AcDbSpline
 70
8
 71
3
 72
8
 73
4
 74
0
 40
0
 40
0
 40
0
 40
0
 40
1
 40
1
 40
1
 40
1
 10
634.309904
 20
241.543088
 30
0.0
 10
635.822384
 20
241.313968
 30
0.0
 10
634.584864
 20
241.126496
 30
0.0
 10
631.559904
 20
241.126496
 30
0.0
  0
SPLINE
  5
2b5
100
AcDbEntity
  8
0
 62
7
100
AcDbSpline
 70
8
 71
3
 72
8
 73
4
 74
0
 40
0
 40
0
 40
0
 40
0
 40
1
 40
1
 40
1
 40
1
 10
631.559904
 20
241.126496
 30
0.0
 10
628.534864
 20
241.126496
 30
0.0
 10
627.297424
 20
241.313968
 30
0.0
 10
628.809904
 20
241.543088
 30
0.0
  0
LWPOLYLINE
  5
2b6
100
AcDbEntity
  8
0
 62
7
100
AcDbPolyline
 90
2
 70
1
 10
784.559904
 20
231.766640
 30
0.0
 10
784.559904
 20
231.766640
 30
0.0
  0
SPLINE
  5
2b7
100
AcDbEntity
  8
0
 62
7
100
AcDbSpline
 70
8
 71
3
 72
8
 73
4
 74
0
 40
0
 40
0
 40
0
 40
0
 40
1
 40
1
 40
1
 40
1
 10
639.809904
 20
242.516168
 30
0.0
 10
640.772384
 20
242.767688
 30
0.0
 10
642.347424
 20
242.767688
 30
0.0
 10
643.309904
 20
242.516168
 30
0.0
  0
SPLINE
  5
2b8
100
AcDbEntity
  8
0
 62
7
100
AcDbSpline
 70
8
 71
3
 72
8
 73
4
 74
0
 40
0
 40
0
 40
0
 40
0
 40
1
 40
1
 40
1
 40
1
 10
643.309904
 20
242.516168
 30
0.0
 10
644.272384
 20
242.264640
 30
0.0
 10
643.484864
 20
242.058840
 30
0.0
 10
641.559904
 20
242.058840
 30
0.0
  0
SPLINE
  5
2b9
100
AcDbEntity
  8
0
 62
7
100
AcDbSpline
 70
8
 71
3
 72
8
 73
4
 74
0
 40
0
 40
0
 40
0
 40
0
 40
1
 40
1
 40
1
 40
1
 10
641.559904
 20
242.058840
 30
0.0
 10
639.634864
 20
242.058840
 30
0.0
 10
638.847424
 20
242.264640
 30
0.0
 10
639.809904
 20
242.516168
 30
0.0
  0
LWPOLYLINE
  5
2ba
100
AcDbEntity
  8
0
 62
7
100
AcDbPolyline
 90
2
 70
1
 10
628.809904
 20
241.543088
 30
0.0
 10
628.809904
 20
241.543088
 30
0.0
  0
SPLINE
  5
2bb
100
AcDbEntity
  8
0
 62
7
100
AcDbSpline
 70
8
 71
3
 72
8
 73
4
 74
0
 40
0
 40
0
 40
0
 40
0
 40
1
 40
1
 40
1
 40
1
 10
647.059904
 20
242.826840
 30
0.0
 10
648.159904
 20
243.299528
 30
0.0
 10
649.734864
 20
243.711008
 30
0.0
 10
650.559904
 20
243.741240
 30
0.0
  0
SPLINE
  5
2bc
100
AcDbEntity
  8
0
 62
7
100
AcDbSpline
 70
8
 71
3
 72
8
 73
4
 74
0
 40
0
 40
0
 40
0
 40
0
 40
1
 40
1
 40
1
 40
1
 10
650.559904
 20
243.741240
 30
0.0
 10
651.893264
 20
243.790120
 30
0.0
 10
651.893264
 20
243.688520
 30
0.0
 10
650.559904
 20
242.826840
 30
0.0
  0
SPLINE
  5
2bd
100
AcDbEntity
  8
0
 62
7
100
AcDbSpline
 70
8
 71
3
 72
8
 73
4
 74
0
 40
0
 40
0
 40
0
 40
0
 40
1
 40
1
 40
1
 40
1
 10
650.559904
 20
242.826840
 30
0.0
 10
649.734864
 20
242.293680
 30
0.0
 10
648.159904
 20
241.882200
 30
0.0
 10
647.059904
 20
241.912440
 30
0.0
  0
SPLINE
  5
2be
100
AcDbEntity
  8
0
 62
7
100
AcDbSpline
 70
8
 71
3
 72
8
 73
4
 74
0
 40
0
 40
0
 40
0
 40
0
 40
1
 40
1
 40
1
 40
1
 10
647.059904
 20
241.912440
 30
0.0
 10
645.059904
 20
241.967480
 30
0.0
 10
645.059904
 20
241.967480
 30
0.0
 10
647.059904
 20
242.826840
 30
0.0
  0
LWPOLYLINE
  5
2bf
100
AcDbEntity
  8
0
 62
7
100
AcDbPolyline
 90
2
 70
1
 10
639.809904
 20
242.516168
 30
0.0
 10
639.809904
 20
242.516168
 30
0.0
  0
SPLINE
  5
2c0
100
AcDbEntity
  8
0
 62
7
100
AcDbSpline
 70
8
 71
3
 72
8
 73
4
 74
0
 40
0
 40
0
 40
0
 40
0
 40
1
 40
1
 40
1
 40
1
 10
856.293280
 20
324.950928
 30
0.0
 10
856.971600
 20
325.634344
 30
0.0
 10
857.778480
 20
325.941600
 30
0.0
 10
858.086400
 20
325.633704
 30
0.0
  0
SPLINE
  5
2c1
100
AcDbEntity
  8
0
 62
7
100
AcDbSpline
 70
8
 71
3
 72
8
 73
4
 74
0
 40
0
 40
0
 40
0
 40
0
 40
1
 40
1
 40
1
 40
1
 10
858.086400
 20
325.633704
 30
0.0
 10
858.394240
 20
325.325816
 30
0.0
 10
857.839280
 20
324.766656
 30
0.0
 10
856.853040
 20
324.391128
 30
0.0
  0
SPLINE
  5
2c2
100
AcDbEntity
  8
0
 62
7
100
AcDbSpline
 70
8
 71
3
 72
8
 73
4
 74
0
 40
0
 40
0
 40
0
 40
0
 40
1
 40
1
 40
1
 40
1
 10
856.853040
 20
324.391128
 30
0.0
 10
855.427840
 20
323.848448
 30
0.0
 10
855.312960
 20
323.963304
 30
0.0
 10
856.293280
 20
324.950928
 30
0.0
  0
LWPOLYLINE
  5
2c3
100
AcDbEntity
  8
0
 62
7
100
AcDbPolyline
 90
2
 70
1
 10
647.059904
 20
242.826840
 30
0.0
 10
647.059904
 20
242.826840
 30
0.0
  0
SPLINE
  5
2c4
100
AcDbEntity
  8
0
 62
7
100
AcDbSpline
 70
8
 71
3
 72
8
 73
4
 74
0
 40
0
 40
0
 40
0
 40
0
 40
1
 40
1
 40
1
 40
1
 10
612.809904
 20
240.532568
 30
0.0
 10
611.572384
 20
240.770928
 30
0.0
 10
609.547424
 20
240.770928
 30
0.0
 10
608.309904
 20
240.532568
 30
0.0
  0
SPLINE
  5
2c5
100
AcDbEntity
  8
0
 62
7
100
AcDbSpline
 70
8
 71
3
 72
8
 73
4
 74
0
 40
0
 40
0
 40
0
 40
0
 40
1
 40
1
 40
1
 40
1
 10
608.309904
 20
240.532568
 30
0.0
 10
607.072384
 20
240.294216
 30
0.0
 10
608.084864
 20
240.099200
 30
0.0
 10
610.559904
 20
240.099200
 30
0.0
  0
SPLINE
  5
2c6
100
AcDbEntity
  8
0
 62
7
100
AcDbSpline
 70
8
 71
3
 72
8
 73
4
 74
0
 40
0
 40
0
 40
0
 40
0
 40
1
 40
1
 40
1
 40
1
 10
610.559904
 20
240.099200
 30
0.0
 10
613.034864
 20
240.099200
 30
0.0
 10
614.047424
 20
240.294216
 30
0.0
 10
612.809904
 20
240.532568
 30
0.0
  0
LWPOLYLINE
  5
2c7
100
AcDbEntity
  8
0
 62
7
100
AcDbPolyline
 90
2
 70
1
 10
856.293280
 20
324.950928
 30
0.0
 10
856.293280
 20
324.950928
 30
0.0
  0
SPLINE
  5
2c8
100
AcDbEntity
  8
0
 62
7
100
AcDbSpline
 70
8
 71
3
 72
8
 73
4
 74
0
 40
0
 40
0
 40
0
 40
0
 40
1
 40
1
 40
1
 40
1
 10
497.059904
 20
246.762328
 30
0.0
 10
499.059904
 20
247.557256
 30
0.0
 10
499.059904
 20
247.557256
 30
0.0
 10
497.059904
 20
247.967000
 30
0.0
  0
SPLINE
  5
2c9
100
AcDbEntity
  8
0
 62
7
100
AcDbSpline
 70
8
 71
3
 72
8
 73
4
 74
0
 40
0
 40
0
 40
0
 40
0
 40
1
 40
1
 40
1
 40
1
 10
497.059904
 20
247.967000
 30
0.0
 10
495.803104
 20
248.224488
 30
0.0
 10
498.590224
 20
249.641296
 30
0.0
 10
504.559904
 20
251.779624
 30
0.0
  0
SPLINE
  5
2ca
100
AcDbEntity
  8
0
 62
7
100
AcDbSpline
 70
8
 71
3
 72
8
 73
4
 74
0
 40
0
 40
0
 40
0
 40
0
 40
1
 40
1
 40
1
 40
1
 10
504.559904
 20
251.779624
 30
0.0
 10
528.725824
 20
260.435800
 30
0.0
 10
567.890944
 20
277.399464
 30
0.0
 10
593.930464
 20
290.488896
 30
0.0
  0
LWPOLYLINE
  5
2cb
100
AcDbEntity
  8
0
 62
7
100
AcDbPolyline
 90
2
 70
1
 10
612.809904
 20
240.532568
 30
0.0
 10
612.809904
 20
240.532568
 30
0.0
  0
SPLINE
  5
2cc
100
AcDbEntity
  8
0
 62
7
100
AcDbSpline
 70
8
 71
3
 72
8
 73
4
 74
0
 40
0
 40
0
 40
0
 40
0
 40
1
 40
1
 40
1
 40
1
 10
633.860704
 20
325.845896
 30
0.0
 10
663.998864
 20
338.255080
 30
0.0
 10
696.754944
 20
358.576784
 30
0.0
 10
726.559904
 20
383.355928
 30
0.0
  0
SPLINE
  5
2cd
100
AcDbEntity
  8
0
 62
7
100
AcDbSpline
 70
8
 71
3
 72
8
 73
4
 74
0
 40
0
 40
0
 40
0
 40
0
 40
1
 40
1
 40
1
 40
1
 10
726.559904
 20
383.355928
 30
0.0
 10
757.216944
 20
408.843496
 30
0.0
 10
793.877104
 20
450.493344
 30
0.0
 10
815.056960
 20
483.897984
 30
0.0
  0
SPLINE
  5
2ce
100
AcDbEntity
  8
0
 62
7
100
AcDbSpline
 70
8
 71
3
 72
8
 73
4
 74
0
 40
0
 40
0
 40
0
 40
0
 40
1
 40
1
 40
1
 40
1
 10
815.056960
 20
483.897984
 30
0.0
 10
820.456560
 20
492.414184
 30
0.0
 10
821.344640
 20
494.404288
 30
0.0
 10
820.337680
 20
495.731408
 30
0.0
  0
SPLINE
  5
2cf
100
AcDbEntity
  8
0
 62
7
100
AcDbSpline
 70
8
 71
3
 72
8
 73
4
 74
0
 40
0
 40
0
 40
0
 40
0
 40
1
 40
1
 40
1
 40
1
 10
820.337680
 20
495.731408
 30
0.0
 10
811.507920
 20
507.368344
 30
0.0
 10
789.065664
 20
531.325200
 30
0.0
 10
774.059904
 20
545.132528
 30
0.0
  0
SPLINE
  5
2d0
100
AcDbEntity
  8
0
 62
7
100
AcDbSpline
 70
8
 71
3
 72
8
 73
4
 74
0
 40
0
 40
0
 40
0
 40
0
 40
1
 40
1
 40
1
 40
1
 10
774.059904
 20
545.132528
 30
0.0
 10
713.558464
 20
600.801896
 30
0.0
 10
648.584144
 20
637.531080
 30
0.0
 10
585.059904
 20
651.971888
 30
0.0
  0
SPLINE
  5
2d1
100
AcDbEntity
  8
0
 62
7
100
AcDbSpline
 70
8
 71
3
 72
8
 73
4
 74
0
 40
0
 40
0
 40
0
 40
0
 40
1
 40
1
 40
1
 40
1
 10
585.059904
 20
651.971888
 30
0.0
 10
577.909904
 20
653.597280
 30
0.0
 10
571.272384
 20
655.159896
 30
0.0
 10
570.309904
 20
655.444376
 30
0.0
  0
SPLINE
  5
2d2
100
AcDbEntity
  8
0
 62
7
100
AcDbSpline
 70
8
 71
3
 72
8
 73
4
 74
0
 40
0
 40
0
 40
0
 40
0
 40
1
 40
1
 40
1
 40
1
 10
570.309904
 20
655.444376
 30
0.0
 10
568.995344
 20
655.832912
 30
0.0
 10
568.559904
 20
657.029712
 30
0.0
 10
568.559904
 20
660.254672
 30
0.0
  0
SPLINE
  5
2d3
100
AcDbEntity
  8
0
 62
7
100
AcDbSpline
 70
8
 71
3
 72
8
 73
4
 74
0
 40
0
 40
0
 40
0
 40
0
 40
1
 40
1
 40
1
 40
1
 10
568.559904
 20
660.254672
 30
0.0
 10
568.559904
 20
662.615792
 30
0.0
 10
568.283904
 20
666.561312
 30
0.0
 10
567.946544
 20
669.022352
 30
0.0
  0
LWPOLYLINE
  5
2d4
100
AcDbEntity
  8
0
 62
7
100
AcDbPolyline
 90
5
 70
1
 10
593.930464
 20
290.488896
 30
0.0
 10
607.800944
 20
297.461280
 30
0.0
 10
614.930464
 20
309.224136
 30
0.0
 10
622.059904
 20
320.986984
 30
0.0
 10
633.860704
 20
325.845896
 30
0.0
  0
SPLINE
  5
2d5
100
AcDbEntity
  8
0
 62
7
100
AcDbSpline
 70
8
 71
3
 72
8
 73
4
 74
0
 40
0
 40
0
 40
0
 40
0
 40
1
 40
1
 40
1
 40
1
 10
528.927904
 20
684.411952
 30
0.0
 10
499.056944
 20
692.901312
 30
0.0
 10
490.584544
 20
695.660192
 30
0.0
 10
490.801344
 20
696.826832
 30
0.0
  0
SPLINE
  5
2d6
100
AcDbEntity
  8
0
 62
7
100
AcDbSpline
 70
8
 71
3
 72
8
 73
4
 74
0
 40
0
 40
0
 40
0
 40
0
 40
1
 40
1
 40
1
 40
1
 10
490.801344
 20
696.826832
 30
0.0
 10
491.187024
 20
698.902752
 30
0.0
 10
501.809184
 20
699.605872
 30
0.0
 10
534.559904
 20
699.723552
 30
0.0
  0
SPLINE
  5
2d7
100
AcDbEntity
  8
0
 62
7
100
AcDbSpline
 70
8
 71
3
 72
8
 73
4
 74
0
 40
0
 40
0
 40
0
 40
0
 40
1
 40
1
 40
1
 40
1
 10
534.559904
 20
699.723552
 30
0.0
 10
570.771584
 20
699.853632
 30
0.0
 10
596.306944
 20
697.453312
 30
0.0
 10
630.059904
 20
690.746592
 30
0.0
  0
SPLINE
  5
2d8
100
AcDbEntity
  8
0
 62
7
100
AcDbSpline
 70
8
 71
3
 72
8
 73
4
 74
0
 40
0
 40
0
 40
0
 40
0
 40
1
 40
1
 40
1
 40
1
 10
630.059904
 20
690.746592
 30
0.0
 10
723.851104
 20
672.110272
 30
0.0
 10
817.330320
 20
624.889128
 30
0.0
 10
887.496560
 20
560.701944
 30
0.0
  0
SPLINE
  5
2d9
100
AcDbEntity
  8
0
 62
7
100
AcDbSpline
 70
8
 71
3
 72
8
 73
4
 74
0
 40
0
 40
0
 40
0
 40
0
 40
1
 40
1
 40
1
 40
1
 10
887.496560
 20
560.701944
 30
0.0
 10
894.335680
 20
554.445640
 30
0.0
 10
904.432480
 20
544.376840
 30
0.0
 10
909.934000
 20
538.326840
 30
0.0
  0
SPLINE
  5
2da
100
AcDbEntity
  8
0
 62
7
100
AcDbSpline
 70
8
 71
3
 72
8
 73
4
 74
0
 40
0
 40
0
 40
0
 40
0
 40
1
 40
1
 40
1
 40
1
 10
909.934000
 20
538.326840
 30
0.0
 10
920.698720
 20
526.488808
 30
0.0
 10
935.551600
 20
507.167000
 30
0.0
 10
935.556720
 20
504.994680
 30
0.0
  0
SPLINE
  5
2db
100
AcDbEntity
  8
0
 62
7
100
AcDbSpline
 70
8
 71
3
 72
8
 73
4
 74
0
 40
0
 40
0
 40
0
 40
0
 40
1
 40
1
 40
1
 40
1
 10
935.556720
 20
504.994680
 30
0.0
 10
935.564720
 20
502.720600
 30
0.0
 10
917.914160
 20
477.591976
 30
0.0
 10
904.711200
 20
461.074216
 30
0.0
  0
SPLINE
  5
2dc
100
AcDbEntity
  8
0
 62
7
100
AcDbSpline
 70
8
 71
3
 72
8
 73
4
 74
0
 40
0
 40
0
 40
0
 40
0
 40
1
 40
1
 40
1
 40
1
 10
904.711200
 20
461.074216
 30
0.0
 10
891.183680
 20
444.150400
 30
0.0
 10
856.575680
 20
408.559344
 30
0.0
 10
841.171520
 20
395.729696
 30
0.0
  0
SPLINE
  5
2dd
100
AcDbEntity
  8
0
 62
7
100
AcDbSpline
 70
8
 71
3
 72
8
 73
4
 74
0
 40
0
 40
0
 40
0
 40
0
 40
1
 40
1
 40
1
 40
1
 10
841.171520
 20
395.729696
 30
0.0
 10
796.350464
 20
358.399544
 30
0.0
 10
747.694224
 20
328.238376
 30
0.0
 10
692.059904
 20
303.298024
 30
0.0
  0
SPLINE
  5
2de
100
AcDbEntity
  8
0
 62
7
100
AcDbSpline
 70
8
 71
3
 72
8
 73
4
 74
0
 40
0
 40
0
 40
0
 40
0
 40
1
 40
1
 40
1
 40
1
 10
692.059904
 20
303.298024
 30
0.0
 10
635.508704
 20
277.946648
 30
0.0
 10
567.579824
 20
257.333376
 30
0.0
 10
509.196384
 20
247.807448
 30
0.0
  0
SPLINE
  5
2df
100
AcDbEntity
  8
0
 62
7
100
AcDbSpline
 70
8
 71
3
 72
8
 73
4
 74
0
 40
0
 40
0
 40
0
 40
0
 40
1
 40
1
 40
1
 40
1
 10
509.196384
 20
247.807448
 30
0.0
 10
496.272464
 20
245.698744
 30
0.0
 10
493.861664
 20
245.491144
 30
0.0
 10
497.059904
 20
246.762328
 30
0.0
  0
LWPOLYLINE
  5
2e0
100
AcDbEntity
  8
0
 62
7
100
AcDbPolyline
 90
3
 70
1
 10
567.946544
 20
669.022352
 30
0.0
 10
567.333264
 20
673.497072
 30
0.0
 10
528.927904
 20
684.411952
 30
0.0
  0
SPLINE
  5
2e1
100
AcDbEntity
  8
0
 62
7
100
AcDbSpline
 70
8
 71
3
 72
8
 73
4
 74
0
 40
0
 40
0
 40
0
 40
0
 40
1
 40
1
 40
1
 40
1
 10
530.733664
 20
253.182024
 30
0.0
 10
534.213104
 20
253.999768
 30
0.0
 10
542.459904
 20
255.871008
 30
0.0
 10
549.059904
 20
257.340344
 30
0.0
  0
SPLINE
  5
2e2
100
AcDbEntity
  8
0
 62
7
100
AcDbSpline
 70
8
 71
3
 72
8
 73
4
 74
0
 40
0
 40
0
 40
0
 40
0
 40
1
 40
1
 40
1
 40
1
 10
549.059904
 20
257.340344
 30
0.0
 10
627.240784
 20
274.745504
 30
0.0
 10
705.741824
 20
306.496296
 30
0.0
 10
772.059904
 20
347.535624
 30
0.0
  0
SPLINE
  5
2e3
100
AcDbEntity
  8
0
 62
7
100
AcDbSpline
 70
8
 71
3
 72
8
 73
4
 74
0
 40
0
 40
0
 40
0
 40
0
 40
1
 40
1
 40
1
 40
1
 10
772.059904
 20
347.535624
 30
0.0
 10
783.415664
 20
354.562864
 30
0.0
 10
808.561360
 20
371.796344
 30
0.0
 10
816.987920
 20
378.326840
 30
0.0
  0
SPLINE
  5
2e4
100
AcDbEntity
  8
0
 62
7
100
AcDbSpline
 70
8
 71
3
 72
8
 73
4
 74
0
 40
0
 40
0
 40
0
 40
0
 40
1
 40
1
 40
1
 40
1
 10
816.987920
 20
378.326840
 30
0.0
 10
860.739600
 20
412.233808
 30
0.0
 10
897.118080
 20
450.543368
 30
0.0
 10
925.241520
 20
492.326840
 30
0.0
  0
SPLINE
  5
2e5
100
AcDbEntity
  8
0
 62
7
100
AcDbSpline
 70
8
 71
3
 72
8
 73
4
 74
0
 40
0
 40
0
 40
0
 40
0
 40
1
 40
1
 40
1
 40
1
 10
925.241520
 20
492.326840
 30
0.0
 10
934.538800
 20
506.140024
 30
0.0
 10
934.591920
 20
503.694464
 30
0.0
 10
924.710240
 20
516.794608
 30
0.0
  0
SPLINE
  5
2e6
100
AcDbEntity
  8
0
 62
7
100
AcDbSpline
 70
8
 71
3
 72
8
 73
4
 74
0
 40
0
 40
0
 40
0
 40
0
 40
1
 40
1
 40
1
 40
1
 10
924.710240
 20
516.794608
 30
0.0
 10
907.279200
 20
539.902968
 30
0.0
 10
873.457520
 20
571.815544
 30
0.0
 10
843.559920
 20
593.364456
 30
0.0
  0
SPLINE
  5
2e7
100
AcDbEntity
  8
0
 62
7
100
AcDbSpline
 70
8
 71
3
 72
8
 73
4
 74
0
 40
0
 40
0
 40
0
 40
0
 40
1
 40
1
 40
1
 40
1
 10
843.559920
 20
593.364456
 30
0.0
 10
815.784640
 20
613.383640
 30
0.0
 10
791.038384
 20
628.174024
 30
0.0
 10
759.059904
 20
643.868504
 30
0.0
  0
SPLINE
  5
2e8
100
AcDbEntity
  8
0
 62
7
100
AcDbSpline
 70
8
 71
3
 72
8
 73
4
 74
0
 40
0
 40
0
 40
0
 40
0
 40
1
 40
1
 40
1
 40
1
 10
759.059904
 20
643.868504
 30
0.0
 10
680.363904
 20
682.491152
 30
0.0
 10
598.313744
 20
700.518432
 30
0.0
 10
516.059904
 20
697.258032
 30
0.0
  0
SPLINE
  5
2e9
100
AcDbEntity
  8
0
 62
7
100
AcDbSpline
 70
8
 71
3
 72
8
 73
4
 74
0
 40
0
 40
0
 40
0
 40
0
 40
1
 40
1
 40
1
 40
1
 10
516.059904
 20
697.258032
 30
0.0
 10
502.836144
 20
696.733872
 30
0.0
 10
496.911424
 20
696.208032
 30
0.0
 10
500.059904
 20
695.837872
 30
0.0
  0
SPLINE
  5
2ea
100
AcDbEntity
  8
0
 62
7
100
AcDbSpline
 70
8
 71
3
 72
8
 73
4
 74
0
 40
0
 40
0
 40
0
 40
0
 40
1
 40
1
 40
1
 40
1
 10
500.059904
 20
695.837872
 30
0.0
 10
502.809904
 20
695.514672
 30
0.0
 10
505.964864
 20
694.663792
 30
0.0
 10
507.070944
 20
693.947232
 30
0.0
  0
SPLINE
  5
2eb
100
AcDbEntity
  8
0
 62
7
100
AcDbSpline
 70
8
 71
3
 72
8
 73
4
 74
0
 40
0
 40
0
 40
0
 40
0
 40
1
 40
1
 40
1
 40
1
 10
507.070944
 20
693.947232
 30
0.0
 10
508.176944
 20
693.230592
 30
0.0
 10
522.801984
 20
688.727952
 30
0.0
 10
539.570944
 20
683.941472
 30
0.0
  0
LWPOLYLINE
  5
2ec
100
AcDbEntity
  8
0
 62
7
100
AcDbPolyline
 90
2
 70
1
 10
497.059904
 20
246.762328
 30
0.0
 10
497.059904
 20
246.762328
 30
0.0
  0
SPLINE
  5
2ed
100
AcDbEntity
  8
0
 62
7
100
AcDbSpline
 70
8
 71
3
 72
8
 73
4
 74
0
 40
0
 40
0
 40
0
 40
0
 40
1
 40
1
 40
1
 40
1
 10
570.315664
 20
668.782752
 30
0.0
 10
570.685664
 20
659.444192
 30
0.0
 10
571.279744
 20
657.349392
 30
0.0
 10
573.123984
 20
658.880032
 30
0.0
  0
SPLINE
  5
2ee
100
AcDbEntity
  8
0
 62
7
100
AcDbSpline
 70
8
 71
3
 72
8
 73
4
 74
0
 40
0
 40
0
 40
0
 40
0
 40
1
 40
1
 40
1
 40
1
 10
573.123984
 20
658.880032
 30
0.0
 10
574.337344
 20
659.887072
 30
0.0
 10
574.498224
 20
659.829632
 30
0.0
 10
574.012224
 20
658.563232
 30
0.0
  0
SPLINE
  5
2ef
100
AcDbEntity
  8
0
 62
7
100
AcDbSpline
 70
8
 71
3
 72
8
 73
4
 74
0
 40
0
 40
0
 40
0
 40
0
 40
1
 40
1
 40
1
 40
1
 10
574.012224
 20
658.563232
 30
0.0
 10
573.573984
 20
657.421232
 30
0.0
 10
574.287264
 20
656.845152
 30
0.0
 10
576.739344
 20
656.360672
 30
0.0
  0
SPLINE
  5
2f0
100
AcDbEntity
  8
0
 62
7
100
AcDbSpline
 70
8
 71
3
 72
8
 73
4
 74
0
 40
0
 40
0
 40
0
 40
0
 40
1
 40
1
 40
1
 40
1
 10
576.739344
 20
656.360672
 30
0.0
 10
635.934224
 20
644.665360
 30
0.0
 10
700.687184
 20
611.525376
 30
0.0
 10
755.548704
 20
564.847680
 30
0.0
  0
SPLINE
  5
2f1
100
AcDbEntity
  8
0
 62
7
100
AcDbSpline
 70
8
 71
3
 72
8
 73
4
 74
0
 40
0
 40
0
 40
0
 40
0
 40
1
 40
1
 40
1
 40
1
 10
755.548704
 20
564.847680
 30
0.0
 10
773.860224
 20
549.267744
 30
0.0
 10
795.172624
 20
528.417960
 30
0.0
 10
809.994800
 20
511.583376
 30
0.0
  0
SPLINE
  5
2f2
100
AcDbEntity
  8
0
 62
7
100
AcDbSpline
 70
8
 71
3
 72
8
 73
4
 74
0
 40
0
 40
0
 40
0
 40
0
 40
1
 40
1
 40
1
 40
1
 10
809.994800
 20
511.583376
 30
0.0
 10
824.046800
 20
495.623584
 30
0.0
 10
824.533120
 20
494.778680
 30
0.0
 10
822.109680
 20
490.535424
 30
0.0
  0
SPLINE
  5
2f3
100
AcDbEntity
  8
0
 62
7
100
AcDbSpline
 70
8
 71
3
 72
8
 73
4
 74
0
 40
0
 40
0
 40
0
 40
0
 40
1
 40
1
 40
1
 40
1
 10
822.109680
 20
490.535424
 30
0.0
 10
818.306640
 20
483.876488
 30
0.0
 10
808.818880
 20
469.953960
 30
0.0
 10
800.176320
 20
458.349960
 30
0.0
  0
SPLINE
  5
2f4
100
AcDbEntity
  8
0
 62
7
100
AcDbSpline
 70
8
 71
3
 72
8
 73
4
 74
0
 40
0
 40
0
 40
0
 40
0
 40
1
 40
1
 40
1
 40
1
 10
800.176320
 20
458.349960
 30
0.0
 10
764.574064
 20
410.548168
 30
0.0
 10
718.371184
 20
368.754168
 30
0.0
 10
671.020704
 20
341.519008
 30
0.0
  0
SPLINE
  5
2f5
100
AcDbEntity
  8
0
 62
7
100
AcDbSpline
 70
8
 71
3
 72
8
 73
4
 74
0
 40
0
 40
0
 40
0
 40
0
 40
1
 40
1
 40
1
 40
1
 10
671.020704
 20
341.519008
 30
0.0
 10
661.189984
 20
335.864536
 30
0.0
 10
638.027024
 20
324.662776
 30
0.0
 10
629.666064
 20
321.519640
 30
0.0
  0
LWPOLYLINE
  5
2f6
100
AcDbEntity
  8
0
 62
7
100
AcDbPolyline
 90
3
 70
1
 10
539.570944
 20
683.941472
 30
0.0
 10
570.059904
 20
675.238592
 30
0.0
 10
570.315664
 20
668.782752
 30
0.0
  0
SPLINE
  5
2f7
100
AcDbEntity
  8
0
 62
7
100
AcDbSpline
 70
8
 71
3
 72
8
 73
4
 74
0
 40
0
 40
0
 40
0
 40
0
 40
1
 40
1
 40
1
 40
1
 10
596.059904
 20
288.863776
 30
0.0
 10
588.909904
 20
285.227480
 30
0.0
 10
579.459904
 20
280.611880
 30
0.0
 10
575.059904
 20
278.606896
 30
0.0
  0
SPLINE
  5
2f8
100
AcDbEntity
  8
0
 62
7
100
AcDbSpline
 70
8
 71
3
 72
8
 73
4
 74
0
 40
0
 40
0
 40
0
 40
0
 40
1
 40
1
 40
1
 40
1
 10
575.059904
 20
278.606896
 30
0.0
 10
570.659904
 20
276.601904
 30
0.0
 10
563.459904
 20
273.314008
 30
0.0
 10
559.059904
 20
271.300448
 30
0.0
  0
SPLINE
  5
2f9
100
AcDbEntity
  8
0
 62
7
100
AcDbSpline
 70
8
 71
3
 72
8
 73
4
 74
0
 40
0
 40
0
 40
0
 40
0
 40
1
 40
1
 40
1
 40
1
 10
559.059904
 20
271.300448
 30
0.0
 10
548.632464
 20
266.528544
 30
0.0
 10
521.516064
 20
255.538664
 30
0.0
 10
514.809904
 20
253.366568
 30
0.0
  0
SPLINE
  5
2fa
100
AcDbEntity
  8
0
 62
7
100
AcDbSpline
 70
8
 71
3
 72
8
 73
4
 74
0
 40
0
 40
0
 40
0
 40
0
 40
1
 40
1
 40
1
 40
1
 10
514.809904
 20
253.366568
 30
0.0
 10
511.922384
 20
252.431304
 30
0.0
 10
509.559904
 20
251.523016
 30
0.0
 10
509.559904
 20
251.348136
 30
0.0
  0
SPLINE
  5
2fb
100
AcDbEntity
  8
0
 62
7
100
AcDbSpline
 70
8
 71
3
 72
8
 73
4
 74
0
 40
0
 40
0
 40
0
 40
0
 40
1
 40
1
 40
1
 40
1
 10
509.559904
 20
251.348136
 30
0.0
 10
509.559904
 20
250.516376
 30
0.0
 10
525.129104
 20
251.864848
 30
0.0
 10
530.733664
 20
253.182024
 30
0.0
  0
LWPOLYLINE
  5
2fc
100
AcDbEntity
  8
0
 62
7
100
AcDbPolyline
 90
5
 70
1
 10
629.666064
 20
321.519640
 30
0.0
 10
623.517824
 20
319.208304
 30
0.0
 10
616.288864
 20
307.341768
 30
0.0
 10
609.059904
 20
295.475224
 30
0.0
 10
596.059904
 20
288.863776
 30
0.0
  0
SPLINE
  5
2fd
100
AcDbEntity
  8
0
 62
7
100
AcDbSpline
 70
8
 71
3
 72
8
 73
4
 74
0
 40
0
 40
0
 40
0
 40
0
 40
1
 40
1
 40
1
 40
1
 10
525.059904
 20
255.343264
 30
0.0
 10
531.109904
 20
257.292928
 30
0.0
 10
537.747424
 20
259.513120
 30
0.0
 10
539.809904
 20
260.277024
 30
0.0
  0
SPLINE
  5
2fe
100
AcDbEntity
  8
0
 62
7
100
AcDbSpline
 70
8
 71
3
 72
8
 73
4
 74
0
 40
0
 40
0
 40
0
 40
0
 40
1
 40
1
 40
1
 40
1
 10
539.809904
 20
260.277024
 30
0.0
 10
541.873904
 20
261.041480
 30
0.0
 10
543.559904
 20
261.238400
 30
0.0
 10
543.559904
 20
260.715008
 30
0.0
  0
SPLINE
  5
2ff
100
AcDbEntity
  8
0
 62
7
100
AcDbSpline
 70
8
 71
3
 72
8
 73
4
 74
0
 40
0
 40
0
 40
0
 40
0
 40
1
 40
1
 40
1
 40
1
 10
543.559904
 20
260.715008
 30
0.0
 10
543.559904
 20
260.191984
 30
0.0
 10
542.997424
 20
259.596336
 30
0.0
 10
542.309904
 20
259.391344
 30
0.0
  0
SPLINE
  5
300
100
AcDbEntity
  8
0
 62
7
100
AcDbSpline
 70
8
 71
3
 72
8
 73
4
 74
0
 40
0
 40
0
 40
0
 40
0
 40
1
 40
1
 40
1
 40
1
 10
542.309904
 20
259.391344
 30
0.0
 10
541.622384
 20
259.186344
 30
0.0
 10
536.784864
 20
257.651120
 30
0.0
 10
531.559904
 20
255.979728
 30
0.0
  0
SPLINE
  5
301
100
AcDbEntity
  8
0
 62
7
100
AcDbSpline
 70
8
 71
3
 72
8
 73
4
 74
0
 40
0
 40
0
 40
0
 40
0
 40
1
 40
1
 40
1
 40
1
 10
531.559904
 20
255.979728
 30
0.0
 10
526.334864
 20
254.308336
 30
0.0
 10
520.259904
 20
252.683800
 30
0.0
 10
518.059904
 20
252.369640
 30
0.0
  0
SPLINE
  5
302
100
AcDbEntity
  8
0
 62
7
100
AcDbSpline
 70
8
 71
3
 72
8
 73
4
 74
0
 40
0
 40
0
 40
0
 40
0
 40
1
 40
1
 40
1
 40
1
 10
518.059904
 20
252.369640
 30
0.0
 10
515.859904
 20
252.055480
 30
0.0
 10
519.009904
 20
253.393608
 30
0.0
 10
525.059904
 20
255.343264
 30
0.0
  0
LWPOLYLINE
  5
303
100
AcDbEntity
  8
0
 62
7
100
AcDbPolyline
 90
2
 70
1
 10
530.733664
 20
253.182024
 30
0.0
 10
530.733664
 20
253.182024
 30
0.0
  0
SPLINE
  5
304
100
AcDbEntity
  8
0
 62
7
100
AcDbSpline
 70
8
 71
3
 72
8
 73
4
 74
0
 40
0
 40
0
 40
0
 40
0
 40
1
 40
1
 40
1
 40
1
 10
719.559904
 20
370.204400
 30
0.0
 10
719.559904
 20
370.412048
 30
0.0
 10
720.347424
 20
371.199544
 30
0.0
 10
721.309904
 20
371.954400
 30
0.0
  0
SPLINE
  5
305
100
AcDbEntity
  8
0
 62
7
100
AcDbSpline
 70
8
 71
3
 72
8
 73
4
 74
0
 40
0
 40
0
 40
0
 40
0
 40
1
 40
1
 40
1
 40
1
 10
721.309904
 20
371.954400
 30
0.0
 10
722.895984
 20
373.198264
 30
0.0
 10
722.931344
 20
373.162896
 30
0.0
 10
721.687424
 20
371.576840
 30
0.0
  0
SPLINE
  5
306
100
AcDbEntity
  8
0
 62
7
100
AcDbSpline
 70
8
 71
3
 72
8
 73
4
 74
0
 40
0
 40
0
 40
0
 40
0
 40
1
 40
1
 40
1
 40
1
 10
721.687424
 20
371.576840
 30
0.0
 10
720.381104
 20
369.911088
 30
0.0
 10
719.559904
 20
369.381360
 30
0.0
 10
719.559904
 20
370.204400
 30
0.0
  0
LWPOLYLINE
  5
307
100
AcDbEntity
  8
0
 62
7
100
AcDbPolyline
 90
2
 70
1
 10
525.059904
 20
255.343264
 30
0.0
 10
525.059904
 20
255.343264
 30
0.0
  0
SPLINE
  5
308
100
AcDbEntity
  8
0
 62
7
100
AcDbSpline
 70
8
 71
3
 72
8
 73
4
 74
0
 40
0
 40
0
 40
0
 40
0
 40
1
 40
1
 40
1
 40
1
 10
738.559904
 20
386.826840
 30
0.0
 10
738.559904
 20
387.376840
 30
0.0
 10
739.036464
 20
387.826840
 30
0.0
 10
739.618944
 20
387.826840
 30
0.0
  0
SPLINE
  5
309
100
AcDbEntity
  8
0
 62
7
100
AcDbSpline
 70
8
 71
3
 72
8
 73
4
 74
0
 40
0
 40
0
 40
0
 40
0
 40
1
 40
1
 40
1
 40
1
 10
739.618944
 20
387.826840
 30
0.0
 10
740.201344
 20
387.826840
 30
0.0
 10
740.399824
 20
387.376840
 30
0.0
 10
740.059904
 20
386.826840
 30
0.0
  0
SPLINE
  5
30a
100
AcDbEntity
  8
0
 62
7
100
AcDbSpline
 70
8
 71
3
 72
8
 73
4
 74
0
 40
0
 40
0
 40
0
 40
0
 40
1
 40
1
 40
1
 40
1
 10
740.059904
 20
386.826840
 30
0.0
 10
739.719984
 20
386.276840
 30
0.0
 10
739.243424
 20
385.826840
 30
0.0
 10
739.000864
 20
385.826840
 30
0.0
  0
SPLINE
  5
30b
100
AcDbEntity
  8
0
 62
7
100
AcDbSpline
 70
8
 71
3
 72
8
 73
4
 74
0
 40
0
 40
0
 40
0
 40
0
 40
1
 40
1
 40
1
 40
1
 10
739.000864
 20
385.826840
 30
0.0
 10
738.758304
 20
385.826840
 30
0.0
 10
738.559904
 20
386.276840
 30
0.0
 10
738.559904
 20
386.826840
 30
0.0
  0
LWPOLYLINE
  5
30c
100
AcDbEntity
  8
0
 62
7
100
AcDbPolyline
 90
2
 70
1
 10
719.559904
 20
370.204400
 30
0.0
 10
719.559904
 20
370.204400
 30
0.0
  0
SPLINE
  5
30d
100
AcDbEntity
  8
0
 62
7
100
AcDbSpline
 70
8
 71
3
 72
8
 73
4
 74
0
 40
0
 40
0
 40
0
 40
0
 40
1
 40
1
 40
1
 40
1
 10
759.059904
 20
406.826840
 30
0.0
 10
759.399824
 20
407.376840
 30
0.0
 10
760.127904
 20
407.826840
 30
0.0
 10
760.677904
 20
407.826840
 30
0.0
  0
SPLINE
  5
30e
100
AcDbEntity
  8
0
 62
7
100
AcDbSpline
 70
8
 71
3
 72
8
 73
4
 74
0
 40
0
 40
0
 40
0
 40
0
 40
1
 40
1
 40
1
 40
1
 10
760.677904
 20
407.826840
 30
0.0
 10
761.227904
 20
407.826840
 30
0.0
 10
761.399824
 20
407.376840
 30
0.0
 10
761.059904
 20
406.826840
 30
0.0
  0
SPLINE
  5
30f
100
AcDbEntity
  8
0
 62
7
100
AcDbSpline
 70
8
 71
3
 72
8
 73
4
 74
0
 40
0
 40
0
 40
0
 40
0
 40
1
 40
1
 40
1
 40
1
 10
761.059904
 20
406.826840
 30
0.0
 10
760.719984
 20
406.276840
 30
0.0
 10
759.991904
 20
405.826840
 30
0.0
 10
759.441904
 20
405.826840
 30
0.0
  0
SPLINE
  5
310
100
AcDbEntity
  8
0
 62
7
100
AcDbSpline
 70
8
 71
3
 72
8
 73
4
 74
0
 40
0
 40
0
 40
0
 40
0
 40
1
 40
1
 40
1
 40
1
 10
759.441904
 20
405.826840
 30
0.0
 10
758.891904
 20
405.826840
 30
0.0
 10
758.719984
 20
406.276840
 30
0.0
 10
759.059904
 20
406.826840
 30
0.0
  0
LWPOLYLINE
  5
311
100
AcDbEntity
  8
0
 62
7
100
AcDbPolyline
 90
2
 70
1
 10
738.559904
 20
386.826840
 30
0.0
 10
738.559904
 20
386.826840
 30
0.0
  0
SPLINE
  5
312
100
AcDbEntity
  8
0
 62
7
100
AcDbSpline
 70
8
 71
3
 72
8
 73
4
 74
0
 40
0
 40
0
 40
0
 40
0
 40
1
 40
1
 40
1
 40
1
 10
627.559904
 20
644.795456
 30
0.0
 10
627.559904
 20
645.328184
 30
0.0
 10
628.234864
 20
645.505048
 30
0.0
 10
629.059904
 20
645.188464
 30
0.0
  0
SPLINE
  5
313
100
AcDbEntity
  8
0
 62
7
100
AcDbSpline
 70
8
 71
3
 72
8
 73
4
 74
0
 40
0
 40
0
 40
0
 40
0
 40
1
 40
1
 40
1
 40
1
 10
629.059904
 20
645.188464
 30
0.0
 10
629.884864
 20
644.871880
 30
0.0
 10
630.559904
 20
644.436008
 30
0.0
 10
630.559904
 20
644.219848
 30
0.0
  0
SPLINE
  5
314
100
AcDbEntity
  8
0
 62
7
100
AcDbSpline
 70
8
 71
3
 72
8
 73
4
 74
0
 40
0
 40
0
 40
0
 40
0
 40
1
 40
1
 40
1
 40
1
 10
630.559904
 20
644.219848
 30
0.0
 10
630.559904
 20
644.003696
 30
0.0
 10
629.884864
 20
643.826840
 30
0.0
 10
629.059904
 20
643.826840
 30
0.0
  0
SPLINE
  5
315
100
AcDbEntity
  8
0
 62
7
100
AcDbSpline
 70
8
 71
3
 72
8
 73
4
 74
0
 40
0
 40
0
 40
0
 40
0
 40
1
 40
1
 40
1
 40
1
 10
629.059904
 20
643.826840
 30
0.0
 10
628.234864
 20
643.826840
 30
0.0
 10
627.559904
 20
644.262720
 30
0.0
 10
627.559904
 20
644.795456
 30
0.0
  0
LWPOLYLINE
  5
316
100
AcDbEntity
  8
0
 62
7
100
AcDbPolyline
 90
2
 70
1
 10
759.059904
 20
406.826840
 30
0.0
 10
759.059904
 20
406.826840
 30
0.0
  0
SPLINE
  5
317
100
AcDbEntity
  8
0
 62
7
100
AcDbSpline
 70
8
 71
3
 72
8
 73
4
 74
0
 40
0
 40
0
 40
0
 40
0
 40
1
 40
1
 40
1
 40
1
 10
625.559904
 20
375.158864
 30
0.0
 10
625.559904
 20
375.341480
 30
0.0
 10
628.894464
 20
384.681464
 30
0.0
 10
632.969984
 20
395.914376
 30
0.0
  0
SPLINE
  5
318
100
AcDbEntity
  8
0
 62
7
100
AcDbSpline
 70
8
 71
3
 72
8
 73
4
 74
0
 40
0
 40
0
 40
0
 40
0
 40
1
 40
1
 40
1
 40
1
 10
632.969984
 20
395.914376
 30
0.0
 10
641.548464
 20
419.558000
 30
0.0
 10
649.244624
 20
444.422136
 30
0.0
 10
654.125504
 20
464.261824
 30
0.0
  0
LWPOLYLINE
  5
319
100
AcDbEntity
  8
0
 62
7
100
AcDbPolyline
 90
2
 70
1
 10
627.559904
 20
644.795456
 30
0.0
 10
627.559904
 20
644.795456
 30
0.0
  0
SPLINE
  5
31a
100
AcDbEntity
  8
0
 62
7
100
AcDbSpline
 70
8
 71
3
 72
8
 73
4
 74
0
 40
0
 40
0
 40
0
 40
0
 40
1
 40
1
 40
1
 40
1
 10
652.138304
 20
485.267176
 30
0.0
 10
633.619344
 20
509.445320
 30
0.0
 10
604.539744
 20
536.359864
 30
0.0
 10
576.812944
 20
554.984416
 30
0.0
  0
SPLINE
  5
31b
100
AcDbEntity
  8
0
 62
7
100
AcDbSpline
 70
8
 71
3
 72
8
 73
4
 74
0
 40
0
 40
0
 40
0
 40
0
 40
1
 40
1
 40
1
 40
1
 10
576.812944
 20
554.984416
 30
0.0
 10
548.759664
 20
573.828280
 30
0.0
 10
517.806464
 20
587.880088
 30
0.0
 10
486.589984
 20
595.942864
 30
0.0
  0
SPLINE
  5
31c
100
AcDbEntity
  8
0
 62
7
100
AcDbSpline
 70
8
 71
3
 72
8
 73
4
 74
0
 40
0
 40
0
 40
0
 40
0
 40
1
 40
1
 40
1
 40
1
 10
486.589984
 20
595.942864
 30
0.0
 10
426.751264
 20
611.398384
 30
0.0
 10
344.552064
 20
604.786984
 30
0.0
 10
301.736872
 20
581.074856
 30
0.0
  0
SPLINE
  5
31d
100
AcDbEntity
  8
0
 62
7
100
AcDbSpline
 70
8
 71
3
 72
8
 73
4
 74
0
 40
0
 40
0
 40
0
 40
0
 40
1
 40
1
 40
1
 40
1
 10
301.736872
 20
581.074856
 30
0.0
 10
297.416072
 20
578.681896
 30
0.0
 10
295.088952
 20
577.897768
 30
0.0
 10
294.388152
 20
578.598624
 30
0.0
  0
SPLINE
  5
31e
100
AcDbEntity
  8
0
 62
7
100
AcDbSpline
 70
8
 71
3
 72
8
 73
4
 74
0
 40
0
 40
0
 40
0
 40
0
 40
1
 40
1
 40
1
 40
1
 10
294.388152
 20
578.598624
 30
0.0
 10
293.127592
 20
579.859184
 30
0.0
 10
299.500552
 20
585.034616
 30
0.0
 10
315.000952
 20
595.338008
 30
0.0
  0
SPLINE
  5
31f
100
AcDbEntity
  8
0
 62
7
100
AcDbSpline
 70
8
 71
3
 72
8
 73
4
 74
0
 40
0
 40
0
 40
0
 40
0
 40
1
 40
1
 40
1
 40
1
 10
315.000952
 20
595.338008
 30
0.0
 10
343.679584
 20
614.401224
 30
0.0
 10
378.168784
 20
629.709336
 30
0.0
 10
409.559904
 20
637.308280
 30
0.0
  0
SPLINE
  5
320
100
AcDbEntity
  8
0
 62
7
100
AcDbSpline
 70
8
 71
3
 72
8
 73
4
 74
0
 40
0
 40
0
 40
0
 40
0
 40
1
 40
1
 40
1
 40
1
 10
409.559904
 20
637.308280
 30
0.0
 10
415.884864
 20
638.839384
 30
0.0
 10
421.439104
 20
640.434120
 30
0.0
 10
421.902544
 20
640.852120
 30
0.0
  0
SPLINE
  5
321
100
AcDbEntity
  8
0
 62
7
100
AcDbSpline
 70
8
 71
3
 72
8
 73
4
 74
0
 40
0
 40
0
 40
0
 40
0
 40
1
 40
1
 40
1
 40
1
 10
421.902544
 20
640.852120
 30
0.0
 10
423.292224
 20
642.105536
 30
0.0
 10
420.833104
 20
645.506336
 30
0.0
 10
416.056784
 20
648.936480
 30
0.0
  0
SPLINE
  5
322
100
AcDbEntity
  8
0
 62
7
100
AcDbSpline
 70
8
 71
3
 72
8
 73
4
 74
0
 40
0
 40
0
 40
0
 40
0
 40
1
 40
1
 40
1
 40
1
 10
416.056784
 20
648.936480
 30
0.0
 10
408.444064
 20
654.403480
 30
0.0
 10
409.618384
 20
655.236424
 30
0.0
 10
423.809904
 20
654.436000
 30
0.0
  0
SPLINE
  5
323
100
AcDbEntity
  8
0
 62
7
100
AcDbSpline
 70
8
 71
3
 72
8
 73
4
 74
0
 40
0
 40
0
 40
0
 40
0
 40
1
 40
1
 40
1
 40
1
 10
423.809904
 20
654.436000
 30
0.0
 10
466.115664
 20
652.049864
 30
0.0
 10
516.309664
 20
640.173000
 30
0.0
 10
557.935904
 20
622.699208
 30
0.0
  0
SPLINE
  5
324
100
AcDbEntity
  8
0
 62
7
100
AcDbSpline
 70
8
 71
3
 72
8
 73
4
 74
0
 40
0
 40
0
 40
0
 40
0
 40
1
 40
1
 40
1
 40
1
 10
557.935904
 20
622.699208
 30
0.0
 10
624.814304
 20
594.625144
 30
0.0
 10
678.879664
 20
552.294696
 30
0.0
 10
721.751424
 20
494.439968
 30
0.0
  0
SPLINE
  5
325
100
AcDbEntity
  8
0
 62
7
100
AcDbSpline
 70
8
 71
3
 72
8
 73
4
 74
0
 40
0
 40
0
 40
0
 40
0
 40
1
 40
1
 40
1
 40
1
 10
721.751424
 20
494.439968
 30
0.0
 10
726.596064
 20
487.902184
 30
0.0
 10
730.559904
 20
481.884176
 30
0.0
 10
730.559904
 20
481.066608
 30
0.0
  0
SPLINE
  5
326
100
AcDbEntity
  8
0
 62
7
100
AcDbSpline
 70
8
 71
3
 72
8
 73
4
 74
0
 40
0
 40
0
 40
0
 40
0
 40
1
 40
1
 40
1
 40
1
 10
730.559904
 20
481.066608
 30
0.0
 10
730.559904
 20
478.939720
 30
0.0
 10
722.591264
 20
466.059256
 30
0.0
 10
713.707744
 20
453.826840
 30
0.0
  0
SPLINE
  5
327
100
AcDbEntity
  8
0
 62
7
100
AcDbSpline
 70
8
 71
3
 72
8
 73
4
 74
0
 40
0
 40
0
 40
0
 40
0
 40
1
 40
1
 40
1
 40
1
 10
713.707744
 20
453.826840
 30
0.0
 10
698.420864
 20
432.777088
 30
0.0
 10
679.407744
 20
412.729608
 30
0.0
 10
659.523824
 20
396.695000
 30
0.0
  0
SPLINE
  5
328
100
AcDbEntity
  8
0
 62
7
100
AcDbSpline
 70
8
 71
3
 72
8
 73
4
 74
0
 40
0
 40
0
 40
0
 40
0
 40
1
 40
1
 40
1
 40
1
 10
659.523824
 20
396.695000
 30
0.0
 10
643.675104
 20
383.914400
 30
0.0
 10
625.559904
 20
372.427760
 30
0.0
 10
625.559904
 20
375.158864
 30
0.0
  0
LWPOLYLINE
  5
329
100
AcDbEntity
  8
0
 62
7
100
AcDbPolyline
 90
3
 70
1
 10
654.125504
 20
464.261824
 30
0.0
 10
657.553744
 20
478.196808
 30
0.0
 10
652.138304
 20
485.267176
 30
0.0
  0
SPLINE
  5
32a
100
AcDbEntity
  8
0
 62
7
100
AcDbSpline
 70
8
 71
3
 72
8
 73
4
 74
0
 40
0
 40
0
 40
0
 40
0
 40
1
 40
1
 40
1
 40
1
 10
630.916944
 20
379.136488
 30
0.0
 10
631.738304
 20
378.315104
 30
0.0
 10
646.405344
 20
388.138744
 30
0.0
 10
657.059904
 20
396.646408
 30
0.0
  0
SPLINE
  5
32b
100
AcDbEntity
  8
0
 62
7
100
AcDbSpline
 70
8
 71
3
 72
8
 73
4
 74
0
 40
0
 40
0
 40
0
 40
0
 40
1
 40
1
 40
1
 40
1
 10
657.059904
 20
396.646408
 30
0.0
 10
674.589024
 20
410.643416
 30
0.0
 10
691.266624
 20
427.666976
 30
0.0
 10
706.220544
 20
446.826840
 30
0.0
  0
SPLINE
  5
32c
100
AcDbEntity
  8
0
 62
7
100
AcDbSpline
 70
8
 71
3
 72
8
 73
4
 74
0
 40
0
 40
0
 40
0
 40
0
 40
1
 40
1
 40
1
 40
1
 10
706.220544
 20
446.826840
 30
0.0
 10
711.237264
 20
453.254600
 30
0.0
 10
723.587824
 20
471.411576
 30
0.0
 10
727.047904
 20
477.445800
 30
0.0
  0
LWPOLYLINE
  5
32d
100
AcDbEntity
  8
0
 62
7
100
AcDbPolyline
 90
2
 70
1
 10
625.559904
 20
375.158864
 30
0.0
 10
625.559904
 20
375.158864
 30
0.0
  0
SPLINE
  5
32e
100
AcDbEntity
  8
0
 62
7
100
AcDbSpline
 70
8
 71
3
 72
8
 73
4
 74
0
 40
0
 40
0
 40
0
 40
0
 40
1
 40
1
 40
1
 40
1
 10
725.529584
 20
485.445800
 30
0.0
 10
706.694464
 20
513.248296
 30
0.0
 10
673.708144
 20
547.679296
 30
0.0
 10
644.559904
 20
569.961536
 30
0.0
  0
SPLINE
  5
32f
100
AcDbEntity
  8
0
 62
7
100
AcDbSpline
 70
8
 71
3
 72
8
 73
4
 74
0
 40
0
 40
0
 40
0
 40
0
 40
1
 40
1
 40
1
 40
1
 10
644.559904
 20
569.961536
 30
0.0
 10
588.256944
 20
613.002088
 30
0.0
 10
515.805664
 20
641.746160
 30
0.0
 10
442.059904
 20
650.300688
 30
0.0
  0
SPLINE
  5
330
100
AcDbEntity
  8
0
 62
7
100
AcDbSpline
 70
8
 71
3
 72
8
 73
4
 74
0
 40
0
 40
0
 40
0
 40
0
 40
1
 40
1
 40
1
 40
1
 10
442.059904
 20
650.300688
 30
0.0
 10
434.909904
 20
651.130088
 30
0.0
 10
426.659584
 20
651.812768
 30
0.0
 10
423.725904
 20
651.817768
 30
0.0
  0
LWPOLYLINE
  5
331
100
AcDbEntity
  8
0
 62
7
100
AcDbPolyline
 90
3
 70
1
 10
727.047904
 20
477.445800
 30
0.0
 10
728.836304
 20
480.564760
 30
0.0
 10
725.529584
 20
485.445800
 30
0.0
  0
SPLINE
  5
332
100
AcDbEntity
  8
0
 62
7
100
AcDbSpline
 70
8
 71
3
 72
8
 73
4
 74
0
 40
0
 40
0
 40
0
 40
0
 40
1
 40
1
 40
1
 40
1
 10
421.342384
 20
648.076808
 30
0.0
 10
425.127584
 20
643.265880
 30
0.0
 10
426.009344
 20
640.444736
 30
0.0
 10
424.197744
 20
638.941216
 30
0.0
  0
SPLINE
  5
333
100
AcDbEntity
  8
0
 62
7
100
AcDbSpline
 70
8
 71
3
 72
8
 73
4
 74
0
 40
0
 40
0
 40
0
 40
0
 40
1
 40
1
 40
1
 40
1
 10
424.197744
 20
638.941216
 30
0.0
 10
423.423744
 20
638.298848
 30
0.0
 10
417.451104
 20
636.466528
 30
0.0
 10
410.925184
 20
634.869408
 30
0.0
  0
SPLINE
  5
334
100
AcDbEntity
  8
0
 62
7
100
AcDbSpline
 70
8
 71
3
 72
8
 73
4
 74
0
 40
0
 40
0
 40
0
 40
0
 40
1
 40
1
 40
1
 40
1
 10
410.925184
 20
634.869408
 30
0.0
 10
393.889664
 20
630.700208
 30
0.0
 10
383.927184
 20
627.389216
 30
0.0
 10
368.221184
 20
620.676896
 30
0.0
  0
SPLINE
  5
335
100
AcDbEntity
  8
0
 62
7
100
AcDbSpline
 70
8
 71
3
 72
8
 73
4
 74
0
 40
0
 40
0
 40
0
 40
0
 40
1
 40
1
 40
1
 40
1
 10
368.221184
 20
620.676896
 30
0.0
 10
350.371904
 20
613.048608
 30
0.0
 10
343.177824
 20
609.394088
 30
0.0
 10
327.165112
 20
599.820904
 30
0.0
  0
SPLINE
  5
336
100
AcDbEntity
  8
0
 62
7
100
AcDbSpline
 70
8
 71
3
 72
8
 73
4
 74
0
 40
0
 40
0
 40
0
 40
0
 40
1
 40
1
 40
1
 40
1
 10
327.165112
 20
599.820904
 30
0.0
 10
314.250232
 20
592.099784
 30
0.0
 10
305.765032
 20
586.303120
 30
0.0
 10
314.587352
 20
591.228416
 30
0.0
  0
SPLINE
  5
337
100
AcDbEntity
  8
0
 62
7
100
AcDbSpline
 70
8
 71
3
 72
8
 73
4
 74
0
 40
0
 40
0
 40
0
 40
0
 40
1
 40
1
 40
1
 40
1
 10
314.587352
 20
591.228416
 30
0.0
 10
317.077432
 20
592.618576
 30
0.0
 10
320.002392
 20
593.611496
 30
0.0
 10
321.087352
 20
593.434920
 30
0.0
  0
SPLINE
  5
338
100
AcDbEntity
  8
0
 62
7
100
AcDbSpline
 70
8
 71
3
 72
8
 73
4
 74
0
 40
0
 40
0
 40
0
 40
0
 40
1
 40
1
 40
1
 40
1
 10
321.087352
 20
593.434920
 30
0.0
 10
322.172232
 20
593.258328
 30
0.0
 10
322.405432
 20
593.324984
 30
0.0
 10
321.605432
 20
593.583024
 30
0.0
  0
SPLINE
  5
339
100
AcDbEntity
  8
0
 62
7
100
AcDbSpline
 70
8
 71
3
 72
8
 73
4
 74
0
 40
0
 40
0
 40
0
 40
0
 40
1
 40
1
 40
1
 40
1
 10
321.605432
 20
593.583024
 30
0.0
 10
319.504952
 20
594.260616
 30
0.0
 10
334.296384
 20
600.980928
 30
0.0
 10
339.059904
 20
601.513248
 30
0.0
  0
SPLINE
  5
33a
100
AcDbEntity
  8
0
 62
7
100
AcDbSpline
 70
8
 71
3
 72
8
 73
4
 74
0
 40
0
 40
0
 40
0
 40
0
 40
1
 40
1
 40
1
 40
1
 10
339.059904
 20
601.513248
 30
0.0
 10
342.172304
 20
601.861048
 30
0.0
 10
341.185024
 20
601.279968
 30
0.0
 10
334.610944
 20
598.894576
 30
0.0
  0
SPLINE
  5
33b
100
AcDbEntity
  8
0
 62
7
100
AcDbSpline
 70
8
 71
3
 72
8
 73
4
 74
0
 40
0
 40
0
 40
0
 40
0
 40
1
 40
1
 40
1
 40
1
 10
334.610944
 20
598.894576
 30
0.0
 10
329.964072
 20
597.208456
 30
0.0
 10
325.689032
 20
595.312208
 30
0.0
 10
325.110952
 20
594.680680
 30
0.0
  0
SPLINE
  5
33c
100
AcDbEntity
  8
0
 62
7
100
AcDbSpline
 70
8
 71
3
 72
8
 73
4
 74
0
 40
0
 40
0
 40
0
 40
0
 40
1
 40
1
 40
1
 40
1
 10
325.110952
 20
594.680680
 30
0.0
 10
324.345912
 20
593.844928
 30
0.0
 10
324.510152
 20
593.690064
 30
0.0
 10
325.714552
 20
594.111640
 30
0.0
  0
SPLINE
  5
33d
100
AcDbEntity
  8
0
 62
7
100
AcDbSpline
 70
8
 71
3
 72
8
 73
4
 74
0
 40
0
 40
0
 40
0
 40
0
 40
1
 40
1
 40
1
 40
1
 10
325.714552
 20
594.111640
 30
0.0
 10
333.212144
 20
596.736144
 30
0.0
 10
358.072304
 20
602.048224
 30
0.0
 10
371.559904
 20
603.907784
 30
0.0
  0
SPLINE
  5
33e
100
AcDbEntity
  8
0
 62
7
100
AcDbSpline
 70
8
 71
3
 72
8
 73
4
 74
0
 40
0
 40
0
 40
0
 40
0
 40
1
 40
1
 40
1
 40
1
 10
371.559904
 20
603.907784
 30
0.0
 10
393.410144
 20
606.920344
 30
0.0
 10
435.161984
 20
607.219528
 30
0.0
 10
454.559904
 20
604.502560
 30
0.0
  0
SPLINE
  5
33f
100
AcDbEntity
  8
0
 62
7
100
AcDbSpline
 70
8
 71
3
 72
8
 73
4
 74
0
 40
0
 40
0
 40
0
 40
0
 40
1
 40
1
 40
1
 40
1
 10
454.559904
 20
604.502560
 30
0.0
 10
513.869824
 20
596.195304
 30
0.0
 10
562.923104
 20
573.289968
 30
0.0
 10
611.732864
 20
531.110880
 30
0.0
  0
SPLINE
  5
340
100
AcDbEntity
  8
0
 62
7
100
AcDbSpline
 70
8
 71
3
 72
8
 73
4
 74
0
 40
0
 40
0
 40
0
 40
0
 40
1
 40
1
 40
1
 40
1
 10
611.732864
 20
531.110880
 30
0.0
 10
628.019504
 20
517.036784
 30
0.0
 10
654.030704
 20
488.789688
 30
0.0
 10
658.646944
 20
480.164208
 30
0.0
  0
SPLINE
  5
341
100
AcDbEntity
  8
0
 62
7
100
AcDbSpline
 70
8
 71
3
 72
8
 73
4
 74
0
 40
0
 40
0
 40
0
 40
0
 40
1
 40
1
 40
1
 40
1
 10
658.646944
 20
480.164208
 30
0.0
 10
659.798144
 20
478.013096
 30
0.0
 10
659.663424
 20
476.434448
 30
0.0
 10
657.651584
 20
468.501576
 30
0.0
  0
SPLINE
  5
342
100
AcDbEntity
  8
0
 62
7
100
AcDbSpline
 70
8
 71
3
 72
8
 73
4
 74
0
 40
0
 40
0
 40
0
 40
0
 40
1
 40
1
 40
1
 40
1
 10
657.651584
 20
468.501576
 30
0.0
 10
650.100704
 20
438.727968
 30
0.0
 10
635.085184
 20
392.028376
 30
0.0
 10
629.095504
 20
379.689616
 30
0.0
  0
SPLINE
  5
343
100
AcDbEntity
  8
0
 62
7
100
AcDbSpline
 70
8
 71
3
 72
8
 73
4
 74
0
 40
0
 40
0
 40
0
 40
0
 40
1
 40
1
 40
1
 40
1
 10
629.095504
 20
379.689616
 30
0.0
 10
628.004944
 20
377.443016
 30
0.0
 10
627.926864
 20
376.902520
 30
0.0
 10
628.860384
 20
378.061264
 30
0.0
  0
SPLINE
  5
344
100
AcDbEntity
  8
0
 62
7
100
AcDbSpline
 70
8
 71
3
 72
8
 73
4
 74
0
 40
0
 40
0
 40
0
 40
0
 40
1
 40
1
 40
1
 40
1
 10
628.860384
 20
378.061264
 30
0.0
 10
629.628864
 20
379.015216
 30
0.0
 10
630.554304
 20
379.499048
 30
0.0
 10
630.916944
 20
379.136456
 30
0.0
  0
LWPOLYLINE
  5
345
100
AcDbEntity
  8
0
 62
7
100
AcDbPolyline
 90
3
 70
1
 10
423.725904
 20
651.817768
 30
0.0
 10
418.391824
 20
651.826808
 30
0.0
 10
421.342384
 20
648.076808
 30
0.0
  0
SPLINE
  5
346
100
AcDbEntity
  8
0
 62
7
100
AcDbSpline
 70
8
 71
3
 72
8
 73
4
 74
0
 40
0
 40
0
 40
0
 40
0
 40
1
 40
1
 40
1
 40
1
 10
630.641184
 20
380.326840
 30
0.0
 10
630.641184
 20
380.876840
 30
0.0
 10
631.972864
 20
382.884840
 30
0.0
 10
633.600544
 20
384.789064
 30
0.0
  0
SPLINE
  5
347
100
AcDbEntity
  8
0
 62
7
100
AcDbSpline
 70
8
 71
3
 72
8
 73
4
 74
0
 40
0
 40
0
 40
0
 40
0
 40
1
 40
1
 40
1
 40
1
 10
633.600544
 20
384.789064
 30
0.0
 10
635.228224
 20
386.693288
 30
0.0
 10
636.559904
 20
387.801288
 30
0.0
 10
636.559904
 20
387.251288
 30
0.0
  0
SPLINE
  5
348
100
AcDbEntity
  8
0
 62
7
100
AcDbSpline
 70
8
 71
3
 72
8
 73
4
 74
0
 40
0
 40
0
 40
0
 40
0
 40
1
 40
1
 40
1
 40
1
 10
636.559904
 20
387.251288
 30
0.0
 10
636.559904
 20
386.701288
 30
0.0
 10
635.228224
 20
384.693288
 30
0.0
 10
633.600544
 20
382.789064
 30
0.0
  0
SPLINE
  5
349
100
AcDbEntity
  8
0
 62
7
100
AcDbSpline
 70
8
 71
3
 72
8
 73
4
 74
0
 40
0
 40
0
 40
0
 40
0
 40
1
 40
1
 40
1
 40
1
 10
633.600544
 20
382.789064
 30
0.0
 10
631.972864
 20
380.884840
 30
0.0
 10
630.641184
 20
379.776840
 30
0.0
 10
630.641184
 20
380.326840
 30
0.0
  0
LWPOLYLINE
  5
34a
100
AcDbEntity
  8
0
 62
7
100
AcDbPolyline
 90
2
 70
1
 10
630.916944
 20
379.136456
 30
0.0
 10
630.916944
 20
379.136488
 30
0.0
  0
LWPOLYLINE
  5
34b
100
AcDbEntity
  8
0
 62
7
100
AcDbPolyline
 90
2
 70
1
 10
630.641184
 20
380.326840
 30
0.0
 10
630.641184
 20
380.326840
 30
0.0
  0
ENDSEC
  0
SECTION
  2
OBJECTS
  0
DICTIONARY
  5
C
330
0
100
AcDbDictionary
  3
ACAD_GROUP
350
D
  3
ACAD_MLINESTYLE
350
17
  0
DICTIONARY
  5
D
330
C
100
AcDbDictionary
  0
DICTIONARY
  5
1A
330
C
100
AcDbDictionary
  0
DICTIONARY
  5
17
330
C
100
AcDbDictionary
  3
STANDARD
350
18
  0
DICTIONARY
  5
19
330
C
100
AcDbDictionary
  0
ENDSEC
  0
EOF
