  0
SECTION
  2
HEADER
  9
$ACADVER
  1
AC1018
  9
$ACADMAINTVER
 70
     0
  9
$DWGCODEPAGE
  3
ANSI_1252
  9
$INSBASE
 10
0.0
 20
0.0
 30
0.0
  9
$EXTMIN
 10
799.2044245022
 20
453.7221270433
 30
0.0
  9
$EXTMAX
 10
883.8044245022
 20
537.5851519507
 30
0.0
  9
$LIMMIN
 10
0.0
 20
0.0
  9
$LIMMAX
 10
420.0
 20
297.0
  9
$ORTHOMODE
 70
     0
  9
$REGENMODE
 70
     1
  9
$FILLMODE
 70
     1
  9
$QTEXTMODE
 70
     0
  9
$MIRRTEXT
 70
     1
  9
$LTSCALE
 40
1.0
  9
$ATTMODE
 70
     1
  9
$TEXTSIZE
 40
3.5
  9
$TRACEWID
 40
1.0
  9
$TEXTSTYLE
  7
Standard
  9
$CLAYER
  8
0
  9
$CELTYPE
  6
ByLayer
  9
$CECOLOR
 62
   256
  9
$CELTSCALE
 40
1.0
  9
$DISPSILH
 70
     0
  9
$DIMSCALE
 40
1.0
  9
$DIMASZ
 40
3.302
  9
$DIMEXO
 40
1.0
  9
$DIMDLI
 40
3.75
  9
$DIMRND
 40
0.0
  9
$DIMDLE
 40
0.0
  9
$DIMEXE
 40
1.0
  9
$DIMTP
 40
0.0
  9
$DIMTM
 40
0.0
  9
$DIMTXT
 40
3.5
  9
$DIMCEN
 40
2.5
  9
$DIMTSZ
 40
0.0
  9
$DIMTOL
 70
     0
  9
$DIMLIM
 70
     0
  9
$DIMTIH
 70
     1
  9
$DIMTOH
 70
     1
  9
$DIMSE1
 70
     0
  9
$DIMSE2
 70
     0
  9
$DIMTAD
 70
     1
  9
$DIMZIN
 70
     0
  9
$DIMBLK
  1

  9
$DIMASO
 70
     1
  9
$DIMSHO
 70
     1
  9
$DIMPOST
  1

  9
$DIMAPOST
  1

  9
$DIMALT
 70
     0
  9
$DIMALTD
 70
     3
  9
$DIMALTF
 40
0.0393700787
  9
$DIMLFAC
 40
1.0
  9
$DIMTOFL
 70
     1
  9
$DIMTVP
 40
0.0
  9
$DIMTIX
 70
     0
  9
$DIMSOXD
 70
     0
  9
$DIMSAH
 70
     0
  9
$DIMBLK1
  1

  9
$DIMBLK2
  1

  9
$DIMSTYLE
  2
ISO-25
  9
$DIMCLRD
 70
     0
  9
$DIMCLRE
 70
     0
  9
$DIMCLRT
 70
     0
  9
$DIMTFAC
 40
1.0
  9
$DIMGAP
 40
1.524
  9
$DIMJUST
 70
     0
  9
$DIMSD1
 70
     0
  9
$DIMSD2
 70
     0
  9
$DIMTOLJ
 70
     0
  9
$DIMTZIN
 70
     0
  9
$DIMALTZ
 70
     0
  9
$DIMALTTZ
 70
     0
  9
$DIMUPT
 70
     0
  9
$DIMDEC
 70
     2
  9
$DIMTDEC
 70
     2
  9
$DIMALTU
 70
     2
  9
$DIMALTTD
 70
     3
  9
$DIMTXSTY
  7
Standard
  9
$DIMAUNIT
 70
     0
  9
$DIMADEC
 70
     2
  9
$DIMALTRND
 40
0.0
  9
$DIMAZIN
 70
     0
  9
$DIMDSEP
 70
    44
  9
$DIMATFIT
 70
     3
  9
$DIMFRAC
 70
     0
  9
$DIMLDRBLK
  1

  9
$DIMLUNIT
 70
     2
  9
$DIMLWD
 70
    -2
  9
$DIMLWE
 70
    -2
  9
$DIMTMOVE
 70
     0
  9
$LUNITS
 70
     2
  9
$LUPREC
 70
     4
  9
$SKETCHINC
 40
1.0
  9
$FILLETRAD
 40
10.0
  9
$AUNITS
 70
     0
  9
$AUPREC
 70
     2
  9
$MENU
  1
.
  9
$ELEVATION
 40
0.0
  9
$PELEVATION
 40
0.0
  9
$THICKNESS
 40
0.0
  9
$LIMCHECK
 70
     0
  9
$CHAMFERA
 40
0.0
  9
$CHAMFERB
 40
0.0
  9
$CHAMFERC
 40
0.0
  9
$CHAMFERD
 40
0.0
  9
$SKPOLY
 70
     0
  9
$TDCREATE
 40
2457067.393315093
  9
$TDUCREATE
 40
2457067.601648426
  9
$TDUPDATE
 40
2457067.393341123
  9
$TDUUPDATE
 40
2457067.601674456
  9
$TDINDWG
 40
0.0000000116
  9
$TDUSRTIMER
 40
0.0000000116
  9
$USRTIMER
 70
     1
  9
$ANGBASE
 50
0.0
  9
$ANGDIR
 70
     0
  9
$PDMODE
 70
     0
  9
$PDSIZE
 40
-1.0
  9
$PLINEWID
 40
0.0
  9
$SPLFRAME
 70
     0
  9
$SPLINETYPE
 70
     6
  9
$SPLINESEGS
 70
     8
  9
$HANDSEED
  5
169
  9
$SURFTAB1
 70
     6
  9
$SURFTAB2
 70
     6
  9
$SURFTYPE
 70
     6
  9
$SURFU
 70
     6
  9
$SURFV
 70
     6
  9
$UCSBASE
  2

  9
$UCSNAME
  2

  9
$UCSORG
 10
0.0
 20
0.0
 30
0.0
  9
$UCSXDIR
 10
1.0
 20
0.0
 30
0.0
  9
$UCSYDIR
 10
0.0
 20
1.0
 30
0.0
  9
$UCSORTHOREF
  2

  9
$UCSORTHOVIEW
 70
     0
  9
$UCSORGTOP
 10
0.0
 20
0.0
 30
0.0
  9
$UCSORGBOTTOM
 10
0.0
 20
0.0
 30
0.0
  9
$UCSORGLEFT
 10
0.0
 20
0.0
 30
0.0
  9
$UCSORGRIGHT
 10
0.0
 20
0.0
 30
0.0
  9
$UCSORGFRONT
 10
0.0
 20
0.0
 30
0.0
  9
$UCSORGBACK
 10
0.0
 20
0.0
 30
0.0
  9
$PUCSBASE
  2

  9
$PUCSNAME
  2

  9
$PUCSORG
 10
0.0
 20
0.0
 30
0.0
  9
$PUCSXDIR
 10
1.0
 20
0.0
 30
0.0
  9
$PUCSYDIR
 10
0.0
 20
1.0
 30
0.0
  9
$PUCSORTHOREF
  2

  9
$PUCSORTHOVIEW
 70
     0
  9
$PUCSORGTOP
 10
0.0
 20
0.0
 30
0.0
  9
$PUCSORGBOTTOM
 10
0.0
 20
0.0
 30
0.0
  9
$PUCSORGLEFT
 10
0.0
 20
0.0
 30
0.0
  9
$PUCSORGRIGHT
 10
0.0
 20
0.0
 30
0.0
  9
$PUCSORGFRONT
 10
0.0
 20
0.0
 30
0.0
  9
$PUCSORGBACK
 10
0.0
 20
0.0
 30
0.0
  9
$USERI1
 70
     0
  9
$USERI2
 70
     0
  9
$USERI3
 70
     0
  9
$USERI4
 70
     0
  9
$USERI5
 70
     0
  9
$USERR1
 40
0.0
  9
$USERR2
 40
0.0
  9
$USERR3
 40
0.0
  9
$USERR4
 40
0.0
  9
$USERR5
 40
0.0
  9
$WORLDVIEW
 70
     1
  9
$SHADEDGE
 70
     3
  9
$SHADEDIF
 70
    70
  9
$TILEMODE
 70
     1
  9
$MAXACTVP
 70
    64
  9
$PINSBASE
 10
0.0
 20
0.0
 30
0.0
  9
$PLIMCHECK
 70
     0
  9
$PEXTMIN
 10
1.0000000000E+20
 20
1.0000000000E+20
 30
1.0000000000E+20
  9
$PEXTMAX
 10
-1.0000000000E+20
 20
-1.0000000000E+20
 30
-1.0000000000E+20
  9
$PLIMMIN
 10
0.0
 20
0.0
  9
$PLIMMAX
 10
420.0
 20
297.0
  9
$UNITMODE
 70
     0
  9
$VISRETAIN
 70
     1
  9
$PLINEGEN
 70
     0
  9
$PSLTSCALE
 70
     1
  9
$TREEDEPTH
 70
  3020
  9
$CMLSTYLE
  2
Standard
  9
$CMLJUST
 70
     0
  9
$CMLSCALE
 40
20.0
  9
$PROXYGRAPHICS
 70
     1
  9
$MEASUREMENT
 70
     1
  9
$CELWEIGHT
370
    -1
  9
$ENDCAPS
280
     0
  9
$JOINSTYLE
280
     0
  9
$LWDISPLAY
290
     1
  9
$INSUNITS
 70
     4
  9
$HYPERLINKBASE
  1

  9
$STYLESHEET
  1

  9
$XEDIT
290
     1
  9
$CEPSNTYPE
380
     0
  9
$PSTYLEMODE
290
     1
  9
$FINGERPRINTGUID
  2
{14E39112-763E-45B2-A24B-09CCBD7D80D3}
  9
$VERSIONGUID
  2
{FAEB1C32-E019-11D5-929B-00C0DF256EC4}
  9
$EXTNAMES
290
     1
  9
$PSVPSCALE
 40
0.0
  9
$OLESTARTUP
290
     0
  9
$SORTENTS
280
   127
  9
$INDEXCTL
280
     0
  9
$HIDETEXT
280
     1
  9
$XCLIPFRAME
290
     0
  9
$HALOGAP
280
     0
  9
$OBSCOLOR
 70
   257
  9
$OBSLTYPE
280
     0
  9
$INTERSECTIONDISPLAY
280
     0
  9
$INTERSECTIONCOLOR
 70
   257
  9
$DIMASSOC
280
     2
  9
$PROJECTNAME
  1

  0
ENDSEC
  0
SECTION
  2
CLASSES
  0
CLASS
  1
ACDBDICTIONARYWDFLT
  2
AcDbDictionaryWithDefault
  3
ObjectDBX Classes
 90
        0
 91
        4
280
     0
281
     0
  0
CLASS
  1
VISUALSTYLE
  2
AcDbVisualStyle
  3
ObjectDBX Classes
 90
     4095
 91
        4
280
     0
281
     0
  0
CLASS
  1
MATERIAL
  2
AcDbMaterial
  3
ObjectDBX Classes
 90
     1153
 91
        4
280
     0
281
     0
  0
CLASS
  1
SCALE
  2
AcDbScale
  3
ObjectDBX Classes
 90
     1153
 91
        4
280
     0
281
     0
  0
CLASS
  1
TABLESTYLE
  2
AcDbTableStyle
  3
ObjectDBX Classes
 90
     4095
 91
        4
280
     0
281
     0
  0
CLASS
  1
MLEADERSTYLE
  2
AcDbMLeaderStyle
  3
ACDB_MLEADERSTYLE_CLASS
 90
     4095
 91
        4
280
     0
281
     0
  0
CLASS
  1
SUN
  2
AcDbSun
  3
SCENEOE
 90
     1153
 91
        4
280
     0
281
     0
  0
CLASS
  1
DICTIONARYVAR
  2
AcDbDictionaryVar
  3
ObjectDBX Classes
 90
        0
 91
        4
280
     0
281
     0
  0
CLASS
  1
CELLSTYLEMAP
  2
AcDbCellStyleMap
  3
ObjectDBX Classes
 90
     1152
 91
        4
280
     0
281
     0
  0
ENDSEC
  0
SECTION
  2
TABLES
  0
TABLE
  2
VPORT
  5
8
330
0
100
AcDbSymbolTable
 70
     1
  0
VPORT
  5
29
330
8
100
AcDbSymbolTableRecord
100
AcDbViewportTableRecord
  2
*Active
 70
     0
 10
0.0
 20
0.0
 11
1.0
 21
1.0
 12
841.5044245022
 22
495.653639497
 13
0.0
 23
0.0
 14
10.0
 24
10.0
 15
10.0
 25
10.0
 16
0.0
 26
0.0
 36
1.0
 17
0.0
 27
0.0
 37
0.0
 40
85.5402854055
 41
1.008787843
 42
50.0
 43
0.0
 44
0.0
 50
0.0
 51
0.0
 71
     0
 72
   100
 73
     1
 74
     3
 75
     0
 76
     0
 77
     0
 78
     0
281
     0
 65
     1
110
0.0
120
0.0
130
0.0
111
1.0
121
0.0
131
0.0
112
0.0
122
1.0
132
0.0
 79
     0
146
0.0
  0
ENDTAB
  0
TABLE
  2
LTYPE
  5
5
330
0
100
AcDbSymbolTable
 70
     6
  0
LTYPE
  5
14
330
5
100
AcDbSymbolTableRecord
100
AcDbLinetypeTableRecord
  2
ByBlock
 70
     0
  3

 72
    65
 73
     0
 40
0.0
  0
LTYPE
  5
15
330
5
100
AcDbSymbolTableRecord
100
AcDbLinetypeTableRecord
  2
ByLayer
 70
     0
  3

 72
    65
 73
     0
 40
0.0
  0
LTYPE
  5
16
330
5
100
AcDbSymbolTableRecord
100
AcDbLinetypeTableRecord
  2
Continuous
 70
     0
  3
Solid line
 72
    65
 73
     0
 40
0.0
  0
LTYPE
  5
6E
330
5
100
AcDbSymbolTableRecord
100
AcDbLinetypeTableRecord
  2
HIDDEN
 70
     0
  3
Hidden __ __ __ __ __ __ __ __ __ __ __ __ __ __
 72
    65
 73
     2
 40
1.905
 49
1.27
 74
     0
 49
-0.635
 74
     0
  0
LTYPE
  5
6F
330
5
100
AcDbSymbolTableRecord
100
AcDbLinetypeTableRecord
  2
PHANTOM
 70
     0
  3
Phantom ______  __  __  ______  __  __  ______
 72
    65
 73
     6
 40
12.7
 49
6.35
 74
     0
 49
-1.27
 74
     0
 49
1.27
 74
     0
 49
-1.27
 74
     0
 49
1.27
 74
     0
 49
-1.27
 74
     0
  0
LTYPE
  5
70
330
5
100
AcDbSymbolTableRecord
100
AcDbLinetypeTableRecord
  2
CENTER
 70
     0
  3
Center ____ _ ____ _ ____ _ ____ _ ____ _ ____
 72
    65
 73
     4
 40
10.16
 49
6.35
 74
     0
 49
-1.27
 74
     0
 49
1.27
 74
     0
 49
-1.27
 74
     0
  0
LTYPE
  5
71
330
5
100
AcDbSymbolTableRecord
100
AcDbLinetypeTableRecord
  2
CENTERX2
 70
     0
  3
Center (2x) ________  __  ________  __  _____
 72
    65
 73
     4
 40
20.32
 49
12.7
 74
     0
 49
-2.54
 74
     0
 49
2.54
 74
     0
 49
-2.54
 74
     0
  0
LTYPE
  5
72
330
5
100
AcDbSymbolTableRecord
100
AcDbLinetypeTableRecord
  2
DOT2
 70
     0
  3
Dot (.5x) ........................................
 72
    65
 73
     2
 40
0.635
 49
0.0
 74
     0
 49
-0.635
 74
     0
  0
ENDTAB
  0
TABLE
  2
LAYER
  5
2
330
0
100
AcDbSymbolTable
 70
     1
  0
LAYER
  5
10
330
2
100
AcDbSymbolTableRecord
100
AcDbLayerTableRecord
  2
0
 70
     0
 62
     7
  6
Continuous
370
    -3
390
F
  0
ENDTAB
  0
TABLE
  2
STYLE
  5
3
330
0
100
AcDbSymbolTable
 70
     1
  0
STYLE
  5
11
330
3
100
AcDbSymbolTableRecord
100
AcDbTextStyleTableRecord
  2
Standard
 70
     0
 40
0.0
 41
1.0
 50
0.0
 71
     0
 42
3.5
  3
txt
  4

  0
ENDTAB
  0
TABLE
  2
VIEW
  5
6
330
0
100
AcDbSymbolTable
 70
     0
  0
ENDTAB
  0
TABLE
  2
UCS
  5
7
330
0
100
AcDbSymbolTable
 70
     0
  0
ENDTAB
  0
TABLE
  2
APPID
  5
9
330
0
100
AcDbSymbolTable
 70
     2
  0
APPID
  5
12
330
9
100
AcDbSymbolTableRecord
100
AcDbRegAppTableRecord
  2
ACAD
 70
     0
  0
APPID
  5
163
330
9
100
AcDbSymbolTableRecord
100
AcDbRegAppTableRecord
  2
ACAD_MLEADERVER
 70
     0
  0
ENDTAB
  0
TABLE
  2
DIMSTYLE
  5
A
330
0
100
AcDbSymbolTable
 70
     1
100
AcDbDimStyleTable
  0
DIMSTYLE
105
27
330
A
100
AcDbSymbolTableRecord
100
AcDbDimStyleTableRecord
  2
ISO-25
 70
     0
 41
2.5
 42
0.625
 43
3.75
 44
1.25
 73
     0
 74
     0
 77
     1
 78
     8
140
2.5
141
2.5
143
0.0393700787
147
0.625
171
     3
172
     1
178
     0
271
     2
272
     2
274
     3
278
    44
283
     0
284
     8
340
11
  0
ENDTAB
  0
TABLE
  2
BLOCK_RECORD
  5
1
330
0
100
AcDbSymbolTable
 70
     1
  0
BLOCK_RECORD
  5
1F
330
1
100
AcDbSymbolTableRecord
100
AcDbBlockTableRecord
  2
*Model_Space
340
22
  0
BLOCK_RECORD
  5
1B
330
1
100
AcDbSymbolTableRecord
100
AcDbBlockTableRecord
  2
*Paper_Space
340
1E
  0
BLOCK_RECORD
  5
23
330
1
100
AcDbSymbolTableRecord
100
AcDbBlockTableRecord
  2
*Paper_Space0
340
26
  0
ENDTAB
  0
ENDSEC
  0
SECTION
  2
BLOCKS
  0
BLOCK
  5
20
330
1F
100
AcDbEntity
  8
0
100
AcDbBlockBegin
  2
*Model_Space
 70
     0
 10
0.0
 20
0.0
 30
0.0
  3
*Model_Space
  1

  0
ENDBLK
  5
21
330
1F
100
AcDbEntity
  8
0
100
AcDbBlockEnd
  0
BLOCK
  5
1C
330
1B
100
AcDbEntity
 67
     1
  8
0
100
AcDbBlockBegin
  2
*Paper_Space
 70
     0
 10
0.0
 20
0.0
 30
0.0
  3
*Paper_Space
  1

  0
ENDBLK
  5
1D
330
1B
100
AcDbEntity
 67
     1
  8
0
100
AcDbBlockEnd
  0
BLOCK
  5
24
330
23
100
AcDbEntity
  8
0
100
AcDbBlockBegin
  2
*Paper_Space0
 70
     0
 10
0.0
 20
0.0
 30
0.0
  3
*Paper_Space0
  1

  0
ENDBLK
  5
25
330
23
100
AcDbEntity
  8
0
100
AcDbBlockEnd
  0
ENDSEC
  0
SECTION
  2
ENTITIES
  0
LWPOLYLINE
  5
73
330
1F
100
AcDbEntity
  8
0
  6
Continuous
 62
     7
370
    15
100
AcDbPolyline
 90
       12
 70
   128
 43
0.0
 10
853.1929524264
 20
475.6709311966
 10
853.7950063273
 20
475.6632658639
 10
854.2010194569
 20
475.6491564122
 10
854.4210925422
 20
475.6234192805
 10
854.4773416146
 20
475.6083147381
 10
854.5185168444
 20
475.5897634138
 10
854.5428811959
 20
475.5707144802
 10
854.5578641961
 20
475.5485377072
 10
854.5642939954
 20
475.5229678417
 10
854.5629987445
 20
475.4937396308
 10
854.5280758634
 20
475.3958952589
 10
854.4598125499
 20
475.2651197622
  0
LWPOLYLINE
  5
75
330
1F
100
AcDbEntity
  8
0
  6
Continuous
 62
     7
370
    15
100
AcDbPolyline
 90
        9
 70
   128
 43
0.0
 10
850.0991818249
 20
480.5506125091
 10
850.112288296
 20
479.5585177978
 10
850.140284045
 20
478.7516130303
 10
850.1904146042
 20
478.1039879104
 10
850.2699255058
 20
477.5897321416
 10
850.3860622821
 20
477.1829354277
 10
850.6056184235
 20
476.7695000067
 10
850.9166784206
 20
476.4377234807
 10
851.3355131327
 20
476.1294206435
  0
LWPOLYLINE
  5
78
330
1F
100
AcDbEntity
  8
0
  6
Continuous
 62
     7
370
    15
100
AcDbPolyline
 90
        8
 70
   128
 43
0.0
 10
844.7755735999
 20
490.043745431
 10
844.7196396524
 20
489.8338935959
 10
844.7076822741
 20
489.6572160382
 10
844.7562215893
 20
489.4979077553
 10
844.881777722
 20
489.3401637443
 10
845.1975431384
 20
489.1049544195
 10
845.7187552643
 20
488.8069645299
 10
846.4845729124
 20
488.4087303653
  0
LWPOLYLINE
  5
7C
330
1F
100
AcDbEntity
  8
0
  6
Continuous
 62
     7
370
    15
100
AcDbPolyline
 90
        7
 70
   128
 43
0.0
 10
851.1113011811
 20
499.0380162261
 10
851.0467443815
 20
498.6557514993
 10
850.8320013315
 20
498.2992625631
 10
850.4354630543
 20
497.9422368308
 10
849.9757715879
 20
497.6441994549
 10
849.3690034927
 20
497.3168235564
 10
848.5998265718
 20
496.9473459964
  0
LWPOLYLINE
  5
7D
330
1F
100
AcDbEntity
  8
0
  6
Continuous
 62
     7
370
    15
100
AcDbPolyline
 90
        6
 70
   128
 43
0.0
 10
853.0327824077
 20
500.3800928933
 10
852.4359445553
 20
500.3247429143
 10
851.9294834165
 20
500.1665752648
 10
851.530327005
 20
499.917413376
 10
851.2206763661
 20
499.5230222363
 10
851.1113011811
 20
499.0380162261
  0
LWPOLYLINE
  5
81
330
1F
100
AcDbEntity
  8
0
  6
Continuous
 62
     7
370
    15
100
AcDbPolyline
 90
       10
 70
   128
 43
0.0
 10
856.3826314436
 20
499.0429364839
 10
856.5053191375
 20
498.9303651249
 10
856.5830104778
 20
498.8293697802
 10
856.6087165129
 20
498.7662133396
 10
856.6127888421
 20
498.7048157994
 10
856.5945733348
 20
498.6438227616
 10
856.5469042
 20
498.5743185257
 10
856.4695376553
 20
498.5017199093
 10
856.3615546942
 20
498.4241240807
 10
855.9806044108
 20
498.2105128011
  0
LWPOLYLINE
  5
84
330
1F
100
AcDbEntity
  8
0
  6
Continuous
 62
     7
370
    15
100
AcDbPolyline
 90
        6
 70
   128
 43
0.0
 10
855.3713961264
 20
505.2597634902
 10
855.3697851087
 20
504.8987601537
 10
855.3322761729
 20
504.6526232469
 10
855.2256074635
 20
504.4751957606
 10
854.9658600166
 20
504.291510436
 10
854.5093937468
 20
504.0635887638
  0
LWPOLYLINE
  5
89
330
1F
100
AcDbEntity
  8
0
  6
Continuous
 62
     7
370
    15
100
AcDbPolyline
 90
        7
 70
   128
 43
0.0
 10
862.0524757999
 20
511.520629706
 10
862.0605662677
 20
511.4587806376
 10
862.0407589616
 20
511.3890097818
 10
861.9934316283
 20
511.3116949376
 10
861.9189620145
 20
511.2272139041
 10
861.6901069324
 20
511.0382644653
 10
861.3572156889
 20
510.8251838575
  0
LWPOLYLINE
  5
8A
330
1F
100
AcDbEntity
  8
0
  6
Continuous
 62
     7
370
    15
100
AcDbPolyline
 90
       10
 70
   128
 43
0.0
 10
860.4974189421
 20
510.8326316634
 10
861.0981100256
 20
511.2524583688
 10
861.527032605
 20
511.514382144
 10
861.7848493661
 20
511.6241909931
 10
861.8599361917
 20
511.6383851997
 10
861.9220144887
 20
511.6370345659
 10
861.9659290702
 20
511.6238152188
 10
862.001813926
 20
511.5997881234
 10
862.0304143908
 20
511.5652830342
 10
862.0524757999
 20
511.520629706
  0
LWPOLYLINE
  5
8C
330
1F
100
AcDbEntity
  8
0
  6
Continuous
 62
     7
370
    15
100
AcDbPolyline
 90
       10
 70
   128
 43
0.0
 10
856.8643077171
 20
510.0334837913
 10
856.8472470871
 20
510.1507312061
 10
856.8569495306
 20
510.2529818115
 10
856.8928041637
 20
510.3400724135
 10
856.9636400436
 20
510.4197252038
 10
857.0659318458
 20
510.4797522125
 10
857.1988097768
 20
510.5199210795
 10
857.3614040435
 20
510.5399994447
 10
857.7722624103
 20
510.5189552294
 10
858.2915485999
 20
510.414760686
  0
LWPOLYLINE
  5
8D
330
1F
100
AcDbEntity
  8
0
  6
Continuous
 62
     7
370
    15
100
AcDbPolyline
 90
        6
 70
   128
 43
0.0
 10
856.001744553
 20
509.1128475208
 10
856.3783084807
 20
509.3431753912
 10
856.6378271178
 20
509.527339783
 10
856.7964779047
 20
509.6826072923
 10
856.8759697814
 20
509.8519896253
 10
856.8643077171
 20
510.0334837913
  0
LWPOLYLINE
  5
8E
330
1F
100
AcDbEntity
  8
0
  6
Continuous
 62
     7
370
    15
100
AcDbPolyline
 90
        7
 70
   128
 43
0.0
 10
854.7820796139
 20
508.7207605696
 10
854.873636699
 20
508.6811962559
 10
854.9821280913
 20
508.6695400649
 10
855.112716547
 20
508.6874516686
 10
855.2705648222
 20
508.7365907392
 10
855.5861057812
 20
508.8808934301
 10
856.001744553
 20
509.1128475208
  0
LWPOLYLINE
  5
8F
330
1F
100
AcDbEntity
  8
0
  6
Continuous
 62
     7
370
    15
100
AcDbPolyline
 90
        8
 70
   128
 43
0.0
 10
854.0413548921
 20
508.2187141163
 10
854.0711536644
 20
508.4347996833
 10
854.1531715129
 20
508.6079226075
 10
854.2763407348
 20
508.7305815237
 10
854.3890653252
 20
508.7849461653
 10
854.5140427932
 20
508.8035406459
 10
854.6466039518
 20
508.7832003268
 10
854.7820796139
 20
508.7207605696
  0
LWPOLYLINE
  5
90
330
1F
100
AcDbEntity
  8
0
  6
Continuous
 62
     7
370
    15
100
AcDbPolyline
 90
        9
 70
   128
 43
0.0
 10
850.5523027436
 20
505.8700214593
 10
851.6449190265
 20
506.4919517945
 10
852.4906626715
 20
506.9846753826
 10
853.1188012442
 20
507.3678940091
 10
853.5586023097
 20
507.6613094593
 10
853.8130761865
 20
507.8608752923
 10
853.9643113267
 20
508.0195808234
 10
854.0237064175
 20
508.124359396
 10
854.0413548921
 20
508.2187141163
  0
LWPOLYLINE
  5
93
330
1F
100
AcDbEntity
  8
0
  6
Continuous
 62
     7
370
    15
100
AcDbPolyline
 90
       10
 70
   128
 43
0.0
 10
843.576877353
 20
503.1290210646
 10
843.5833343089
 20
503.0990667999
 10
843.6026404502
 20
503.0769376345
 10
843.6346986876
 20
503.0626064375
 10
843.6794119316
 20
503.0560460782
 10
843.7975116529
 20
503.0646737527
 10
843.9594248814
 20
503.1005366547
 10
844.300825466
 20
503.211484205
 10
844.6936781527
 20
503.366427524
 10
845.1677208264
 20
503.5735714925
  0
LWPOLYLINE
  5
95
330
1F
100
AcDbEntity
  8
0
  6
Continuous
 62
     7
370
    15
100
AcDbPolyline
 90
        7
 70
   128
 43
0.0
 10
844.0652830389
 20
504.0565035032
 10
843.7637545602
 20
503.8848757327
 10
843.5686848112
 20
503.7303478393
 10
843.5096149912
 20
503.6579966823
 10
843.4754114906
 20
503.5881208974
 10
843.4654915216
 20
503.520120619
 10
843.4792722968
 20
503.4533959814
  0
LWPOLYLINE
  5
96
330
1F
100
AcDbEntity
  8
0
  6
Continuous
 62
     7
370
    15
100
AcDbPolyline
 90
        8
 70
   128
 43
0.0
 10
844.4856373624
 20
505.4264684775
 10
844.6369057822
 20
505.1035207834
 10
844.7146879019
 20
504.8445382859
 10
844.7209966252
 20
504.6753241564
 10
844.676433881
 20
504.5276578722
 10
844.5536953122
 20
504.3690138312
 10
844.3513405777
 20
504.2164019063
 10
844.0652830389
 20
504.0565035032
  0
LWPOLYLINE
  5
98
330
1F
100
AcDbEntity
  8
0
  6
Continuous
 62
     7
370
    15
100
AcDbPolyline
 90
        6
 70
   128
 43
0.0
 10
843.8551907093
 20
507.0643450614
 10
844.1126496756
 20
506.7626602747
 10
844.2753651285
 20
506.5012117414
 10
844.3206050054
 20
506.3843383159
 10
844.3371340861
 20
506.283508068
 10
844.3240189483
 20
506.2004408816
  0
LWPOLYLINE
  5
A3
330
1F
100
AcDbEntity
  8
0
  6
Continuous
 62
     7
370
    15
100
AcDbPolyline
 90
        7
 70
   128
 43
0.0
 10
838.6281499108
 20
500.9196424714
 10
838.8195236621
 20
501.2784123818
 10
838.8773020331
 20
501.596250865
 10
838.8563831309
 20
501.7302560797
 10
838.8024135995
 20
501.8425507474
 10
838.715509511
 20
501.9293089716
 10
838.5957869374
 20
501.9867048554
  0
LWPOLYLINE
  5
A4
330
1F
100
AcDbEntity
  8
0
  6
Continuous
 62
     7
370
    15
100
AcDbPolyline
 90
        6
 70
   128
 43
0.0
 10
836.5782910319
 20
500.7848720558
 10
837.2294792479
 20
500.5720236242
 10
837.8910926124
 20
500.5587085985
 10
838.1966300544
 20
500.6283957974
 10
838.4487628579
 20
500.7491309656
 10
838.6281499108
 20
500.9196424714
  0
LWPOLYLINE
  5
A8
330
1F
100
AcDbEntity
  8
0
  6
Continuous
 62
     7
370
    15
100
AcDbPolyline
 90
       13
 70
   128
 43
0.0
 10
826.0800253413
 20
506.533205463
 10
825.8598928911
 20
507.1298985529
 10
825.7407842707
 20
507.5912305786
 10
825.7211272724
 20
507.9139509202
 10
825.7364035605
 20
507.9901599355
 10
825.7624971092
 20
508.0504860792
 10
825.7993496885
 20
508.0948089581
 10
825.8469030687
 20
508.1230081789
 10
825.9050990196
 20
508.1349633481
 10
825.9738793115
 20
508.1305540726
 10
826.0531857144
 20
508.1096599589
 10
826.3156876079
 20
507.9724341966
 10
826.6515235554
 20
507.7148437743
  0
LWPOLYLINE
  5
A9
330
1F
100
AcDbEntity
  8
0
  6
Continuous
 62
     7
370
    15
100
AcDbPolyline
 90
        9
 70
   128
 43
0.0
 10
825.595888046
 20
506.2402000919
 10
825.8382982162
 20
506.2460706589
 10
825.9994609507
 20
506.2677719627
 10
826.0527420557
 20
506.2864761423
 10
826.0895123333
 20
506.3114384077
 10
826.1110387939
 20
506.3434255594
 10
826.1185884479
 20
506.383204398
 10
826.109102849
 20
506.4496885855
 10
826.0800253413
 20
506.533205463
  0
LWPOLYLINE
  5
AA
330
1F
100
AcDbEntity
  8
0
  6
Continuous
 62
     7
370
    15
100
AcDbPolyline
 90
        6
 70
   128
 43
0.0
 10
824.99501116
 20
506.1146263614
 10
824.9978452148
 20
506.1274182655
 10
825.0067449543
 20
506.1398514751
 10
825.0415104148
 20
506.1633842865
 10
825.1702877544
 20
506.2033128086
 10
825.595888046
 20
506.2402000919
  0
LWPOLYLINE
  5
AC
330
1F
100
AcDbEntity
  8
0
  6
Continuous
 62
     7
370
    15
100
AcDbPolyline
 90
        6
 70
   128
 43
0.0
 10
825.720158935
 20
504.2031220515
 10
825.8371550205
 20
504.3473322313
 10
825.8894170455
 20
504.4774934803
 10
825.8698417791
 20
504.6271856402
 10
825.7448842005
 20
504.8743582434
 10
825.498647321
 20
505.2502759204
  0
LWPOLYLINE
  5
AF
330
1F
100
AcDbEntity
  8
0
  6
Continuous
 62
     7
370
    15
100
AcDbPolyline
 90
        9
 70
   128
 43
0.0
 10
820.806173335
 20
504.6412848507
 10
820.8132346455
 20
504.6775326887
 10
820.8340836558
 20
504.7051434537
 10
820.868217985
 20
504.7242468928
 10
820.9151352516
 20
504.734972753
 10
821.0363072476
 20
504.7328979496
 10
821.1976108639
 20
504.7024866995
 10
821.5241206125
 20
504.5995253319
 10
822.2923447975
 20
504.2574598696
  0
LWPOLYLINE
  5
B1
330
1F
100
AcDbEntity
  8
0
  6
Continuous
 62
     7
370
    15
100
AcDbPolyline
 90
       10
 70
   128
 43
0.0
 10
820.9697919991
 20
502.3892723575
 10
821.3183275109
 20
502.4062055369
 10
821.5934907106
 20
502.4556895698
 10
821.7938983617
 20
502.5357511985
 10
821.894313668
 20
502.6146769293
 10
821.9513173548
 20
502.7088601322
 10
821.9643258691
 20
502.8174683391
 10
821.9327556581
 20
502.9396690817
 10
821.8203087496
 20
503.122308516
 10
821.62619011
 20
503.3256592573
  0
LWPOLYLINE
  5
B3
330
1F
100
AcDbEntity
  8
0
  6
Continuous
 62
     7
370
    15
100
AcDbPolyline
 90
        8
 70
   128
 43
0.0
 10
821.4712957507
 20
501.5495502179
 10
821.0736659192
 20
501.6260545795
 10
820.6943450725
 20
501.8082810764
 10
820.4343440497
 20
502.0320787986
 10
820.3998247242
 20
502.0870060484
 10
820.3806543594
 20
502.1395197099
 10
820.3784112498
 20
502.1886174251
 10
820.3946736897
 20
502.2332968362
  0
LWPOLYLINE
  5
B4
330
1F
100
AcDbEntity
  8
0
  6
Continuous
 62
     7
370
    15
100
AcDbPolyline
 90
        7
 70
   128
 43
0.0
 10
822.3273581022
 20
501.1566736591
 10
822.3241287572
 20
501.2035996015
 10
822.3030352871
 20
501.2504614765
 10
822.265721883
 20
501.29650471
 10
822.072903978
 20
501.4221768205
 10
821.7932975472
 20
501.51331649
 10
821.4712957507
 20
501.5495502179
  0
LWPOLYLINE
  5
B5
330
1F
100
AcDbEntity
  8
0
  6
Continuous
 62
     7
370
    15
100
AcDbPolyline
 90
        6
 70
   128
 43
0.0
 10
822.7970614507
 20
500.5288114808
 10
822.5894778697
 20
500.6113462292
 10
822.4462920932
 20
500.6972825604
 10
822.3591406182
 20
500.797800309
 10
822.3169870883
 20
500.9501943039
 10
822.3273581022
 20
501.1566736591
  0
LWPOLYLINE
  5
B6
330
1F
100
AcDbEntity
  8
0
  6
Continuous
 62
     7
370
    15
100
AcDbPolyline
 90
        6
 70
   128
 43
0.0
 10
823.1941110757
 20
500.027570262
 10
823.2137005186
 20
500.1564179712
 10
823.1952558418
 20
500.2627856753
 10
823.1343284566
 20
500.3522894677
 10
823.0019307874
 20
500.4437652825
 10
822.7970614507
 20
500.5288114808
  0
LWPOLYLINE
  5
B8
330
1F
100
AcDbEntity
  8
0
  6
Continuous
 62
     7
370
    15
100
AcDbPolyline
 90
       10
 70
   128
 43
0.0
 10
823.2697812475
 20
499.0265094308
 10
823.5405180326
 20
499.1611387885
 10
823.5798925181
 20
499.1886506051
 10
823.606764671
 20
499.2146636716
 10
823.6214370294
 20
499.2400635771
 10
823.6245393698
 20
499.2618918358
 10
823.6191872051
 20
499.2844662145
 10
823.6055678258
 20
499.3083349495
 10
823.5838685225
 20
499.3340462777
 10
823.4200178819
 20
499.4662822526
  0
LWPOLYLINE
  5
B9
330
1F
100
AcDbEntity
  8
0
  6
Continuous
 62
     7
370
    15
100
AcDbPolyline
 90
       11
 70
   128
 43
0.0
 10
823.86989911
 20
498.0370143308
 10
823.4204978737
 20
498.2140004152
 10
823.1059861259
 20
498.379449257
 10
822.9945650408
 20
498.4623498809
 10
822.9195190035
 20
498.5431327104
 10
822.8806295793
 20
498.6221579105
 10
822.87510543
 20
498.6810757505
 10
822.8901119839
 20
498.7393481521
 10
822.9255542681
 20
498.7971317108
 10
823.0573661352
 20
498.9118586824
 10
823.2697812475
 20
499.0265094308
  0
LWPOLYLINE
  5
BA
330
1F
100
AcDbEntity
  8
0
  6
Continuous
 62
     7
370
    15
100
AcDbPolyline
 90
        3
 70
   128
 43
0.0
 10
824.5847223804
 20
497.2812966636
 10
824.23563884
 20
497.8049453179
 10
823.86989911
 20
498.0370143308
  0
LWPOLYLINE
  5
BB
330
1F
100
AcDbEntity
  8
0
  6
Continuous
 62
     7
370
    15
100
AcDbPolyline
 90
        8
 70
   128
 43
0.0
 10
826.2841812147
 20
497.1425864698
 10
825.8198643457
 20
496.9567292823
 10
825.4615763684
 20
496.8350684285
 10
825.2421655652
 20
496.7855158466
 10
825.067427577
 20
496.7772910368
 10
824.911482462
 20
496.8190572817
 10
824.7879960844
 20
496.9162501177
 10
824.5847223804
 20
497.2812966636
  0
LWPOLYLINE
  5
BC
330
1F
100
AcDbEntity
  8
0
  6
Continuous
 62
     7
370
    15
100
AcDbPolyline
 90
       10
 70
   128
 43
0.0
 10
827.0011440382
 20
497.0215784886
 10
826.9871916805
 20
497.2530511691
 10
826.9753255342
 20
497.2884669393
 10
826.9581795514
 20
497.3152272576
 10
826.9347894253
 20
497.333494878
 10
826.906220396
 20
497.3430732817
 10
826.8704681495
 20
497.3454143396
 10
826.8267297013
 20
497.3406535782
 10
826.6874190833
 20
497.3021113004
 10
826.2841812147
 20
497.1425864698
  0
LWPOLYLINE
  5
BD
330
1F
100
AcDbEntity
  8
0
  6
Continuous
 62
     7
370
    15
100
AcDbPolyline
 90
        9
 70
   128
 43
0.0
 10
827.1560276819
 20
496.7725580792
 10
827.1350853013
 20
496.7627771103
 10
827.1149764698
 20
496.7595562806
 10
827.0958894178
 20
496.7625929665
 10
827.0695864303
 20
496.7782188488
 10
827.0466412425
 20
496.8062218849
 10
827.0276891318
 20
496.8455807208
 10
827.0081376552
 20
496.9236768878
 10
827.0011440382
 20
497.0215784886
  0
LWPOLYLINE
  5
BE
330
1F
100
AcDbEntity
  8
0
  6
Continuous
 62
     7
370
    15
100
AcDbPolyline
 90
        5
 70
   128
 43
0.0
 10
827.7227038647
 20
496.6806573073
 10
827.3502098704
 20
496.7901973821
 10
827.2231601183
 20
496.7928001213
 10
827.1853599076
 20
496.7852341134
 10
827.1560276819
 20
496.7725580792
  0
LWPOLYLINE
  5
C0
330
1F
100
AcDbEntity
  8
0
  6
Continuous
 62
     7
370
    15
100
AcDbPolyline
 90
        9
 70
   128
 43
0.0
 10
830.5172084913
 20
497.0194032167
 10
830.5083360458
 20
497.1049624025
 10
830.4814830358
 20
497.1739317483
 10
830.436295951
 20
497.226292607
 10
830.3527092191
 20
497.2685912748
 10
830.2387469241
 20
497.2844554038
 10
829.9965914029
 20
497.2558864739
 10
829.6247635255
 20
497.1438901087
 10
829.1462496429
 20
496.9470816776
  0
LWPOLYLINE
  5
C1
330
1F
100
AcDbEntity
  8
0
  6
Continuous
 62
     7
370
    15
100
AcDbPolyline
 90
        7
 70
   128
 43
0.0
 10
829.7637661085
 20
496.4936250027
 10
830.0883464816
 20
496.6669971619
 10
830.3427520775
 20
496.8327229878
 10
830.4809983217
 20
496.952989325
 10
830.5099907447
 20
496.9938285449
 10
830.5153836793
 20
497.0073827527
 10
830.5172084913
 20
497.0194032167
  0
LWPOLYLINE
  5
C2
330
1F
100
AcDbEntity
  8
0
  6
Continuous
 62
     7
370
    15
100
AcDbPolyline
 90
        5
 70
   128
 43
0.0
 10
829.0103237257
 20
495.6645338792
 10
829.0489355059
 20
495.9386240314
 10
829.1965945618
 20
496.1525758384
 10
829.4202083614
 20
496.3127098856
 10
829.7637661085
 20
496.4936250027
  0
LWPOLYLINE
  5
C4
330
1F
100
AcDbEntity
  8
0
  6
Continuous
 62
     7
370
    15
100
AcDbPolyline
 90
        9
 70
   128
 43
0.0
 10
829.4959540647
 20
494.5836219964
 10
829.5450227303
 20
494.6472774813
 10
829.5789852327
 20
494.7033144199
 10
829.5973108944
 20
494.753374239
 10
829.5994690377
 20
494.7990983658
 10
829.5849289852
 20
494.8421282272
 10
829.5397523452
 20
494.8971408599
 10
829.4638390159
 20
494.9540340846
 10
829.3559972866
 20
495.0164939558
  0
LWPOLYLINE
  5
C5
330
1F
100
AcDbEntity
  8
0
  6
Continuous
 62
     7
370
    15
100
AcDbPolyline
 90
        8
 70
   128
 43
0.0
 10
829.5417455022
 20
494.0842399386
 10
829.4684875761
 20
494.1633311307
 10
829.4175104948
 20
494.2337997664
 10
829.3885128705
 20
494.2989326181
 10
829.3811933157
 20
494.3620164579
 10
829.3964479038
 20
494.4294878218
 10
829.4348169954
 20
494.5020966597
 10
829.4959540647
 20
494.5836219964
  0
LWPOLYLINE
  5
C6
330
1F
100
AcDbEntity
  8
0
  6
Continuous
 62
     7
370
    15
100
AcDbPolyline
 90
        6
 70
   128
 43
0.0
 10
830.2675076397
 20
494.0488140823
 10
830.0708544548
 20
493.9664504344
 10
829.9191427155
 20
493.9241055223
 10
829.7973061007
 20
493.9225147255
 10
829.6715731855
 20
493.9739603086
 10
829.5417455022
 20
494.0842399386
  0
LWPOLYLINE
  5
C7
330
1F
100
AcDbEntity
  8
0
  6
Continuous
 62
     7
370
    15
100
AcDbPolyline
 90
        7
 70
   128
 43
0.0
 10
830.8029549194
 20
494.0813235026
 10
830.7812676281
 20
494.1230976586
 10
830.7479529837
 20
494.1518541092
 10
830.7023612886
 20
494.1675534451
 10
830.6438428454
 20
494.1701562571
 10
830.4854269242
 20
494.1359146728
 10
830.2675076397
 20
494.0488140823
  0
LWPOLYLINE
  5
C8
330
1F
100
AcDbEntity
  8
0
  6
Continuous
 62
     7
370
    15
100
AcDbPolyline
 90
        3
 70
   128
 43
0.0
 10
831.0795359163
 20
493.6031849482
 10
830.8918741351
 20
493.8959769398
 10
830.8029549194
 20
494.0813235026
  0
LWPOLYLINE
  5
C9
330
1F
100
AcDbEntity
  8
0
  6
Continuous
 62
     7
370
    15
100
AcDbPolyline
 90
        7
 70
   128
 43
0.0
 10
831.8186247194
 20
493.5794409091
 10
831.4703080913
 20
493.4173635868
 10
831.3804889953
 20
493.3954965931
 10
831.3071621226
 20
493.3975349113
 10
831.2321909148
 20
493.4314255054
 10
831.1600390597
 20
493.4998558846
 10
831.0795359163
 20
493.6031849482
  0
LWPOLYLINE
  5
D0
330
1F
100
AcDbEntity
  8
0
  6
Continuous
 62
     7
370
    15
100
AcDbPolyline
 90
        9
 70
   128
 43
0.0
 10
835.5105790132
 20
493.8502586857
 10
835.4581690029
 20
493.7330297203
 10
835.4387224793
 20
493.7102059961
 10
835.4173901793
 20
493.695405869
 10
835.3936335932
 20
493.6885677179
 10
835.3634832128
 20
493.6902853638
 10
835.3288597337
 20
493.701826642
 10
835.2890065885
 20
493.7231049791
 10
835.170027521
 20
493.8112895294
  0
LWPOLYLINE
  5
D3
330
1F
100
AcDbEntity
  8
0
  6
Continuous
 62
     7
370
    15
100
AcDbPolyline
 90
        8
 70
   128
 43
0.0
 10
836.6106415038
 20
492.9814393825
 10
837.1422909708
 20
493.498259238
 10
837.5038220528
 20
493.8927346542
 10
837.7104553026
 20
494.1950566628
 10
837.7729346517
 20
494.379484288
 10
837.7632667023
 20
494.5417949181
 10
837.6878726252
 20
494.6947253946
 10
837.5531735913
 20
494.8510125589
  0
LWPOLYLINE
  5
D9
330
1F
100
AcDbEntity
  8
0
  6
Continuous
 62
     7
370
    15
100
AcDbPolyline
 90
        7
 70
   128
 43
0.0
 10
826.8422652522
 20
483.3780426794
 10
826.9996414475
 20
483.2540688451
 10
827.1637091799
 20
483.2021657144
 10
827.3908329682
 20
483.2331622036
 10
827.650240174
 20
483.3227273954
 10
828.0107113843
 20
483.4754082678
 10
828.4995866772
 20
483.6964574763
  0
LWPOLYLINE
  5
DD
330
1F
100
AcDbEntity
  8
0
  6
Continuous
 62
     7
370
    15
100
AcDbPolyline
 90
       12
 70
   128
 43
0.0
 10
825.4105434522
 20
476.82349132
 10
825.1638877532
 20
476.9518070052
 10
824.9859052507
 20
477.0570478268
 10
824.9011918944
 20
477.1461695466
 10
824.8406847629
 20
477.2727065826
 10
824.8018577778
 20
477.4557272593
 10
824.7809913057
 20
477.7513112268
 10
824.7806027384
 20
478.1684572023
 10
824.7971431176
 20
478.7339548088
 10
824.8197034371
 20
479.2997988978
 10
824.8488023997
 20
479.9867604329
 10
824.8827185538
 20
480.8078339435
  0
LWPOLYLINE
  5
DE
330
1F
100
AcDbEntity
  8
0
  6
Continuous
 62
     7
370
    15
100
AcDbPolyline
 90
       11
 70
   128
 43
0.0
 10
826.4988491163
 20
477.2497678122
 10
826.4921153506
 20
476.9397055032
 10
826.4660449047
 20
476.7099048579
 10
826.4430072632
 20
476.6240250665
 10
826.4118340555
 20
476.5569175798
 10
826.3714248162
 20
476.5081513608
 10
826.32067908
 20
476.4772953724
 10
826.2407202748
 20
476.4632528125
 10
826.1405930644
 20
476.4758633113
 10
825.9372773991
 20
476.5474835044
 10
825.4105434522
 20
476.82349132
  0
LWPOLYLINE
  5
E6
330
1F
100
AcDbEntity
  8
0
  6
Continuous
 62
     7
370
    15
100
AcDbPolyline
 90
        5
 70
   128
 43
0.0
 10
840.5319717874
 20
485.1314511138
 10
840.3231125456
 20
485.3982786311
 10
840.2445375471
 20
485.4619892844
 10
840.2193988903
 20
485.4743945848
 10
840.198455103
 20
485.4786766544
  0
LWPOLYLINE
  5
EC
330
1F
100
AcDbEntity
  8
0
  6
Continuous
 62
     7
370
    15
100
AcDbPolyline
 90
        8
 70
   128
 43
0.0
 10
849.4037449061
 20
474.4402970294
 10
848.8970009953
 20
474.3285641361
 10
848.5117417533
 20
474.2723331493
 10
848.2846394129
 20
474.271318798
 10
848.1162487214
 20
474.3117282818
 10
847.9870685064
 20
474.4119280401
 10
847.9139346518
 20
474.5743103192
 10
847.8937436796
 20
475.1041139247
  0
CIRCLE
  5
F0
330
1F
100
AcDbEntity
  8
0
  6
Continuous
 62
     7
370
    15
100
AcDbCircle
 10
817.2044245022
 20
471.5851519507
 30
0.0
 40
3.75
  0
CIRCLE
  5
F1
330
1F
100
AcDbEntity
  8
0
  6
Continuous
 62
     7
370
    15
100
AcDbCircle
 10
865.8044245022
 20
474.5851519507
 30
0.0
 40
3.749999999999886
  0
CIRCLE
  5
F2
330
1F
100
AcDbEntity
  8
0
  6
Continuous
 62
     7
370
    15
100
AcDbCircle
 10
865.8044245022
 20
516.5851519507
 30
0.0
 40
3.749999999999886
  0
CIRCLE
  5
F3
330
1F
100
AcDbEntity
  8
0
  6
Continuous
 62
     7
370
    15
100
AcDbCircle
 10
817.2044245022
 20
519.5851519507
 30
0.0
 40
3.75
  0
CIRCLE
  5
104
330
1F
100
AcDbEntity
  8
0
  6
Continuous
 62
     7
370
    15
100
AcDbCircle
 10
841.5044245022
 20
532.5851519507
 30
0.0
 40
1.499999999987722
  0
CIRCLE
  5
105
330
1F
100
AcDbEntity
  8
0
  6
Continuous
 62
     7
370
    15
100
AcDbCircle
 10
841.5044245022
 20
462.7728414047
 30
0.0
 40
1.49999999999784
  0
LINE
  5
106
330
1F
100
AcDbEntity
  8
0
  6
Continuous
 62
     7
370
    15
100
AcDbLine
 10
855.324659928
 20
497.8758763339
 30
0.0
 11
854.8938489405
 21
498.6110003558
 31
0.0
  0
LINE
  5
107
330
1F
100
AcDbEntity
  8
0
  6
Continuous
 62
     7
370
    15
100
AcDbLine
 10
855.9806044108
 20
498.2105128011
 30
0.0
 11
855.324659928
 21
497.8758763339
 31
0.0
  0
LINE
  5
108
330
1F
100
AcDbEntity
  8
0
  6
Continuous
 62
     7
370
    15
100
AcDbLine
 10
855.3619842358
 20
506.037359115
 30
0.0
 11
855.3713961264
 21
505.2597634902
 31
0.0
  0
LINE
  5
109
330
1F
100
AcDbEntity
  8
0
  6
Continuous
 62
     7
370
    15
100
AcDbLine
 10
856.6903520468
 20
506.6829324355
 30
0.0
 11
855.3619842358
 21
506.037359115
 31
0.0
  0
LINE
  5
10A
330
1F
100
AcDbEntity
  8
0
  6
Continuous
 62
     7
370
    15
100
AcDbLine
 10
841.2578767999
 20
510.8375554931
 30
0.0
 11
841.9877108749
 21
510.003904648
 31
0.0
  0
LINE
  5
10B
330
1F
100
AcDbEntity
  8
0
  6
Continuous
 62
     7
370
    15
100
AcDbLine
 10
840.1714267249
 20
510.54805748
 30
0.0
 11
841.2578767999
 21
510.8375554931
 31
0.0
  0
LINE
  5
10C
330
1F
100
AcDbEntity
  8
0
  6
Continuous
 62
     7
370
    15
100
AcDbLine
 10
833.5853758929
 20
494.5272524511
 30
0.0
 11
833.1550471085
 21
494.188754787
 31
0.0
  0
LINE
  5
10D
330
1F
100
AcDbEntity
  8
0
  6
Continuous
 62
     7
370
    15
100
AcDbLine
 10
833.9682362444
 20
494.1675735683
 30
0.0
 11
833.5853758929
 21
494.5272524511
 31
0.0
  0
LINE
  5
10E
330
1F
100
AcDbEntity
  8
0
  6
Continuous
 62
     7
370
    15
100
AcDbLine
 10
828.0894497022
 20
480.4605048185
 30
0.0
 11
827.7058767616
 21
479.8302474747
 31
0.0
  0
LINE
  5
10F
330
1F
100
AcDbEntity
  8
0
  6
Continuous
 62
     7
370
    15
100
AcDbLine
 10
831.4636732132
 20
480.4464137716
 30
0.0
 11
828.0894497022
 21
480.4605048185
 31
0.0
  0
LINE
  5
110
330
1F
100
AcDbEntity
  8
0
  6
Continuous
 62
     7
370
    15
100
AcDbLine
 10
799.2044245022
 20
525.5851519507
 30
0.0
 11
799.2044245022
 21
521.7115259254
 31
0.0
  0
LINE
  5
111
330
1F
100
AcDbEntity
  8
0
  6
Continuous
 62
     7
370
    15
100
AcDbLine
 10
811.2044245022
 20
537.5851519507
 30
0.0
 11
871.8044245022
 21
537.5851519507
 31
0.0
  0
LINE
  5
112
330
1F
100
AcDbEntity
  8
0
  6
Continuous
 62
     7
370
    15
100
AcDbLine
 10
883.8044245022
 20
525.5851519507
 30
0.0
 11
883.8044245022
 21
521.7115259254
 31
0.0
  0
ARC
  5
113
330
1F
100
AcDbEntity
  8
0
  6
Continuous
 62
     7
370
    15
100
AcDbCircle
 10
852.9243754453
 20
478.5745557452
 30
0.0
 40
2.916019395323469
100
AcDbArc
 50
236.983966016
 51
275.2846589061
  0
ARC
  5
114
330
1F
100
AcDbEntity
  8
0
  6
Continuous
 62
     7
370
    15
100
AcDbCircle
 10
816.7893327528
 20
480.7744203818
 30
0.0
 40
33.3106009427461
100
AcDbArc
 50
359.615037176
 51
6.0870518016
  0
ARC
  5
115
330
1F
100
AcDbEntity
  8
0
  6
Continuous
 62
     7
370
    15
100
AcDbCircle
 10
844.2037305251
 20
483.0199260206
 30
0.0
 40
5.851619798126666
100
AcDbArc
 50
12.7027375811
 51
67.0592099727
  0
ARC
  5
116
330
1F
100
AcDbEntity
  8
0
  6
Continuous
 62
     7
370
    15
100
AcDbCircle
 10
832.23655408
 20
493.0391563431
 30
0.0
 40
12.89183838919012
100
AcDbArc
 50
346.5645697001
 51
355.2140133607
  0
ARC
  5
117
330
1F
100
AcDbEntity
  8
0
  6
Continuous
 62
     7
370
    15
100
AcDbCircle
 10
852.6111555206
 20
491.3776914867
 30
0.0
 40
7.550475444614859
100
AcDbArc
 50
143.1298816317
 51
175.549915179
  0
ARC
  5
118
330
1F
100
AcDbEntity
  8
0
  6
Continuous
 62
     7
370
    15
100
AcDbCircle
 10
855.1695569553
 20
481.621539336
 30
0.0
 40
16.674582666572
100
AcDbArc
 50
113.20341489
 51
121.0429803281
  0
ARC
  5
119
330
1F
100
AcDbEntity
  8
0
  6
Continuous
 62
     7
370
    15
100
AcDbCircle
 10
852.354330337
 20
497.8029111636
 30
0.0
 40
2.66498834518522
100
AcDbArc
 50
17.6513646408
 51
75.2513151118
  0
ARC
  5
11A
330
1F
100
AcDbEntity
  8
0
  6
Continuous
 62
     7
370
    15
100
AcDbCircle
 10
877.6644572944
 20
515.1885112666
 30
0.0
 40
26.71321202342014
100
AcDbArc
 50
205.8803375377
 51
217.1859733075
  0
ARC
  5
11B
330
1F
100
AcDbEntity
  8
0
  6
Continuous
 62
     7
370
    15
100
AcDbCircle
 10
855.0842687854
 20
502.1299803815
 30
0.0
 40
2.017256227132176
100
AcDbArc
 50
106.5575748382
 51
136.1145771953
  0
ARC
  5
11C
330
1F
100
AcDbEntity
  8
0
  6
Continuous
 62
     7
370
    15
100
AcDbCircle
 10
855.4769933362
 20
510.5617994766
 30
0.0
 40
4.064215654105569
100
AcDbArc
 50
287.3703434155
 51
334.6804307917
  0
ARC
  5
11D
330
1F
100
AcDbEntity
  8
0
  6
Continuous
 62
     7
370
    15
100
AcDbCircle
 10
863.642698785
 20
506.088793334
 30
0.0
 40
5.258975962432578
100
AcDbArc
 50
115.7590231235
 51
148.665079502
  0
ARC
  5
11E
330
1F
100
AcDbEntity
  8
0
  6
Continuous
 62
     7
370
    15
100
AcDbCircle
 10
859.027969393
 20
512.558463699
 30
0.0
 40
2.266666758142724
100
AcDbArc
 50
251.0409975151
 51
310.4125385338
  0
ARC
  5
11F
330
1F
100
AcDbEntity
  8
0
  6
Continuous
 62
     7
370
    15
100
AcDbCircle
 10
843.4004344857
 20
515.6845006773
 30
0.0
 40
12.14385531454137
100
AcDbArc
 50
285.6821220879
 51
306.0810417723
  0
ARC
  5
120
330
1F
100
AcDbEntity
  8
0
  6
Continuous
 62
     7
370
    15
100
AcDbCircle
 10
846.724022461
 20
500.8956343465
 30
0.0
 40
3.097324996822012
100
AcDbArc
 50
90.7603711133
 51
120.1633080329
  0
ARC
  5
121
330
1F
100
AcDbEntity
  8
0
  6
Continuous
 62
     7
370
    15
100
AcDbCircle
 10
842.3407691784
 20
502.9339458975
 30
0.0
 40
1.251406305004787
100
AcDbArc
 50
8.9681128201
 51
24.5251776256
  0
ARC
  5
122
330
1F
100
AcDbEntity
  8
0
  6
Continuous
 62
     7
370
    15
100
AcDbCircle
 10
845.3863213129
 20
506.0184069061
 30
0.0
 40
1.077786009407198
100
AcDbArc
 50
170.2763512405
 51
213.3133143704
  0
ARC
  5
123
330
1F
100
AcDbEntity
  8
0
  6
Continuous
 62
     7
370
    15
100
AcDbCircle
 10
847.315931201
 20
510.1956416196
 30
0.0
 40
4.667091480396715
100
AcDbArc
 50
202.4045133247
 51
222.1389639303
  0
ARC
  5
124
330
1F
100
AcDbEntity
  8
0
  6
Continuous
 62
     7
370
    15
100
AcDbCircle
 10
837.3313064233
 20
505.913512816
 30
0.0
 40
6.197855093156491
100
AcDbArc
 50
23.8220615625
 51
41.2975037253
  0
ARC
  5
125
330
1F
100
AcDbEntity
  8
0
  6
Continuous
 62
     7
370
    15
100
AcDbCircle
 10
837.9535629273
 20
518.4678808582
 30
0.0
 40
8.224507411811874
100
AcDbArc
 50
273.4097944316
 51
285.6443478931
  0
ARC
  5
126
330
1F
100
AcDbEntity
  8
0
  6
Continuous
 62
     7
370
    15
100
AcDbCircle
 10
838.5031048397
 20
507.8299707644
 30
0.0
 40
2.4287132176268
100
AcDbArc
 50
91.4244003208
 51
149.5499612573
  0
ARC
  5
127
330
1F
100
AcDbEntity
  8
0
  6
Continuous
 62
     7
370
    15
100
AcDbCircle
 10
828.9294365032
 20
513.4990472527
 30
0.0
 40
8.697557603647255
100
AcDbArc
 50
319.0475408726
 51
329.317158559
  0
ARC
  5
128
330
1F
100
AcDbEntity
  8
0
  6
Continuous
 62
     7
370
    15
100
AcDbCircle
 10
837.1410084108
 20
506.2472138958
 30
0.0
 40
2.259341714544578
100
AcDbArc
 50
136.641687468
 51
206.9406968728
  0
ARC
  5
129
330
1F
100
AcDbEntity
  8
0
  6
Continuous
 62
     7
370
    15
100
AcDbCircle
 10
839.6775470884
 20
506.7033802668
 30
0.0
 40
4.785245028838194
100
AcDbArc
 50
198.0135953265
 51
241.9637557912
  0
ARC
  5
12A
330
1F
100
AcDbEntity
  8
0
  6
Continuous
 62
     7
370
    15
100
AcDbCircle
 10
843.1731291723
 20
514.4554315749
 30
0.0
 40
13.28236454630204
100
AcDbArc
 50
244.3728741117
 51
249.8415196676
  0
ARC
  5
12B
330
1F
100
AcDbEntity
  8
0
  6
Continuous
 62
     7
370
    15
100
AcDbCircle
 10
840.633512692
 20
506.6895768827
 30
0.0
 40
7.163125142366711
100
AcDbArc
 50
208.1500050631
 51
235.5195750131
  0
ARC
  5
12C
330
1F
100
AcDbEntity
  8
0
  6
Continuous
 62
     7
370
    15
100
AcDbCircle
 10
830.1381453129
 20
501.4347158395
 30
0.0
 40
4.581015657723166
100
AcDbArc
 50
24.1666384058
 51
83.8098343284
  0
ARC
  5
12D
330
1F
100
AcDbEntity
  8
0
  6
Continuous
 62
     7
370
    15
100
AcDbCircle
 10
831.6778213506
 20
513.8544390609
 30
0.0
 40
7.934626633301353
100
AcDbArc
 50
230.6938685225
 51
262.4269104227
  0
ARC
  5
12E
330
1F
100
AcDbEntity
  8
0
  6
Continuous
 62
     7
370
    15
100
AcDbCircle
 10
827.944006629
 20
507.2540313714
 30
0.0
 40
3.161458216143673
100
AcDbArc
 50
201.1250639627
 51
219.3315837961
  0
ARC
  5
12F
330
1F
100
AcDbEntity
  8
0
  6
Continuous
 62
     7
370
    15
100
AcDbCircle
 10
824.1354932673
 20
506.0992482969
 30
0.0
 40
2.471125253242299
100
AcDbArc
 50
259.8647213649
 51
309.8868023754
  0
ARC
  5
130
330
1F
100
AcDbEntity
  8
0
  6
Continuous
 62
     7
370
    15
100
AcDbCircle
 10
826.3727584598
 20
512.0104591009
 30
0.0
 40
8.761208406098872
100
AcDbArc
 50
242.242108996
 51
252.2421955437
  0
ARC
  5
131
330
1F
100
AcDbEntity
  8
0
  6
Continuous
 62
     7
370
    15
100
AcDbCircle
 10
823.3141704091
 20
505.2911282181
 30
0.0
 40
2.590819508487715
100
AcDbArc
 50
194.5263611059
 51
229.34341931
  0
ARC
  5
132
330
1F
100
AcDbEntity
  8
0
  6
Continuous
 62
     7
370
    15
100
AcDbCircle
 10
820.8459691748
 20
501.707550365
 30
0.0
 40
0.69287586689686
100
AcDbArc
 50
79.7054559175
 51
130.642459786
  0
ARC
  5
133
330
1F
100
AcDbEntity
  8
0
  6
Continuous
 62
     7
370
    15
100
AcDbCircle
 10
823.7044384154
 20
499.906861042
 30
0.0
 40
0.524408914386042
100
AcDbArc
 50
166.6922435355
 51
237.155285755
  0
ARC
  5
134
330
1F
100
AcDbEntity
  8
0
  6
Continuous
 62
     7
370
    15
100
AcDbCircle
 10
828.1739558858
 20
498.2058719631
 30
0.0
 40
1.590568493524862
100
AcDbArc
 50
253.5185522614
 51
307.6826158312
  0
ARC
  5
135
330
1F
100
AcDbEntity
  8
0
  6
Continuous
 62
     7
370
    15
100
AcDbCircle
 10
829.6964313188
 20
495.6142997494
 30
0.0
 40
0.6879441090797026
100
AcDbArc
 50
175.8124976796
 51
240.3396716844
  0
ARC
  5
136
330
1F
100
AcDbEntity
  8
0
  6
Continuous
 62
     7
370
    15
100
AcDbCircle
 10
832.8943668738
 20
491.8187171029
 30
0.0
 40
2.063339405956607
100
AcDbArc
 50
100.0718745865
 51
121.4235063298
  0
ARC
  5
137
330
1F
100
AcDbEntity
  8
0
  6
Continuous
 62
     7
370
    15
100
AcDbCircle
 10
832.3142640593
 20
494.9926961623
 30
0.0
 40
1.16328752711959
100
AcDbArc
 50
280.8642177317
 51
316.2832055355
  0
ARC
  5
138
330
1F
100
AcDbEntity
  8
0
  6
Continuous
 62
     7
370
    15
100
AcDbCircle
 10
834.4978745819
 20
494.5627454204
 30
0.0
 40
0.6608158300810993
100
AcDbArc
 50
216.7272232581
 51
281.7093537374
  0
ARC
  5
139
330
1F
100
AcDbEntity
  8
0
  6
Continuous
 62
     7
370
    15
100
AcDbCircle
 10
834.8013589214
 20
493.3498959692
 30
0.0
 40
0.5905933912251633
100
AcDbArc
 50
51.3739973731
 51
106.6656087656
  0
ARC
  5
13A
330
1F
100
AcDbEntity
  8
0
  6
Continuous
 62
     7
370
    15
100
AcDbCircle
 10
837.9314191506
 20
492.6944026691
 30
0.0
 40
2.682623734676531
100
AcDbArc
 50
111.5378990273
 51
154.4773585072
  0
ARC
  5
13B
330
1F
100
AcDbEntity
  8
0
  6
Continuous
 62
     7
370
    15
100
AcDbCircle
 10
836.7925731286
 20
494.2013561966
 30
0.0
 40
1.000283186383543
100
AcDbArc
 50
40.5018379534
 51
81.1431232704
  0
ARC
  5
13C
330
1F
100
AcDbEntity
  8
0
  6
Continuous
 62
     7
370
    15
100
AcDbCircle
 10
841.2657947157
 20
487.723574981
 30
0.0
 40
7.022505926777261
100
AcDbArc
 50
131.5207012473
 51
145.9624835492
  0
ARC
  5
13D
330
1F
100
AcDbEntity
  8
0
  6
Continuous
 62
     7
370
    15
100
AcDbCircle
 10
854.5187920981
 20
484.6429215564
 30
0.0
 40
20.32028833808053
100
AcDbArc
 50
159.8154984536
 51
167.4543244088
  0
ARC
  5
13E
330
1F
100
AcDbEntity
  8
0
  6
Continuous
 62
     7
370
    15
100
AcDbCircle
 10
817.0356387714
 20
493.0707478794
 30
0.0
 40
18.09875736920777
100
AcDbArc
 50
336.7743748359
 51
347.1865442014
  0
ARC
  5
13F
330
1F
100
AcDbEntity
  8
0
  6
Continuous
 62
     7
370
    15
100
AcDbCircle
 10
831.2768264821
 20
486.8491653433
 30
0.0
 40
2.560195364893661
100
AcDbArc
 50
263.1427492534
 51
339.0425720135
  0
ARC
  5
140
330
1F
100
AcDbEntity
  8
0
  6
Continuous
 62
     7
370
    15
100
AcDbCircle
 10
830.9167150854
 20
479.2218323171
 30
0.0
 40
5.085742822551679
100
AcDbArc
 50
89.3867361894
 51
118.3772822167
  0
ARC
  5
141
330
1F
100
AcDbEntity
  8
0
  6
Continuous
 62
     7
370
    15
100
AcDbCircle
 10
826.319687407
 20
482.8169441371
 30
0.0
 40
0.7667588790311363
100
AcDbArc
 50
47.035796406
 51
121.2380405532
  0
ARC
  5
142
330
1F
100
AcDbEntity
  8
0
  6
Continuous
 62
     7
370
    15
100
AcDbCircle
 10
826.3307658727
 20
482.0477110962
 30
0.0
 40
1.482289231841078
100
AcDbArc
 50
106.0056838882
 51
143.5111962097
  0
ARC
  5
143
330
1F
100
AcDbEntity
  8
0
  6
Continuous
 62
     7
370
    15
100
AcDbCircle
 10
831.7633599689
 20
481.0525888475
 30
0.0
 40
6.884993191431531
100
AcDbArc
 50
164.1832110359
 51
182.0372392472
  0
ARC
  5
144
330
1F
100
AcDbEntity
  8
0
  6
Continuous
 62
     7
370
    15
100
AcDbCircle
 10
828.5856827902
 20
477.3797623666
 30
0.0
 40
2.090878611155763
100
AcDbArc
 50
143.2399697756
 51
183.5645044015
  0
ARC
  5
145
330
1F
100
AcDbEntity
  8
0
  6
Continuous
 62
     7
370
    15
100
AcDbCircle
 10
809.3658770395
 20
491.1302000928
 30
0.0
 40
21.54169257461193
100
AcDbArc
 50
324.5333307835
 51
328.361240268
  0
ARC
  5
146
330
1F
100
AcDbEntity
  8
0
  6
Continuous
 62
     7
370
    15
100
AcDbCircle
 10
832.4822450009
 20
493.2219289847
 30
0.0
 40
12.81605545579165
100
AcDbArc
 50
265.4415398614
 51
283.5527968931
  0
ARC
  5
147
330
1F
100
AcDbEntity
  8
0
  6
Continuous
 62
     7
370
    15
100
AcDbCircle
 10
825.4726459361
 20
494.5966522483
 30
0.0
 40
17.0773467830688
100
AcDbArc
 50
305.8968765732
 51
323.122845799
  0
ARC
  5
148
330
1F
100
AcDbEntity
  8
0
  6
Continuous
 62
     7
370
    15
100
AcDbCircle
 10
842.7089722568
 20
482.0453054961
 30
0.0
 40
4.253320337153509
100
AcDbArc
 50
126.1746646026
 51
147.213622101
  0
ARC
  5
149
330
1F
100
AcDbEntity
  8
0
  6
Continuous
 62
     7
370
    15
100
AcDbCircle
 10
843.4546162162
 20
488.5592289072
 30
0.0
 40
4.504609978492483
100
AcDbArc
 50
229.5479181661
 51
270.8757964348
  0
ARC
  5
14A
330
1F
100
AcDbEntity
  8
0
  6
Continuous
 62
     7
370
    15
100
AcDbCircle
 10
843.1257206106
 20
478.8192115686
 30
0.0
 40
5.251019358993418
100
AcDbArc
 50
63.8162610244
 51
85.6558631115
  0
ARC
  5
14B
330
1F
100
AcDbEntity
  8
0
  6
Continuous
 62
     7
370
    15
100
AcDbCircle
 10
843.2737756567
 20
481.8124837369
 30
0.0
 40
2.767497554555155
100
AcDbArc
 50
348.5088278641
 51
38.396875346
  0
ARC
  5
14C
330
1F
100
AcDbEntity
  8
0
  6
Continuous
 62
     7
370
    15
100
AcDbCircle
 10
848.7367894696
 20
480.9720671022
 30
0.0
 40
2.766136930565765
100
AcDbArc
 50
174.0011627779
 51
228.2228008461
  0
ARC
  5
14D
330
1F
100
AcDbEntity
  8
0
  6
Continuous
 62
     7
370
    15
100
AcDbCircle
 10
841.3314568819
 20
475.4137060597
 30
0.0
 40
6.569585626574905
100
AcDbArc
 50
357.2989324225
 51
32.1460350082
  0
ARC
  5
14E
330
1F
100
AcDbEntity
  8
0
  6
Continuous
 62
     7
370
    15
100
AcDbCircle
 10
850.1445519382
 20
472.3251293425
 30
0.0
 40
2.241144663426998
100
AcDbArc
 50
67.4845040536
 51
109.3020712644
  0
ARC
  5
14F
330
1F
100
AcDbEntity
  8
0
  6
Continuous
 62
     7
370
    15
100
AcDbCircle
 10
852.6397999378
 20
478.6038913135
 30
0.0
 40
4.515630349878716
100
AcDbArc
 50
248.7445147959
 51
263.9429266088
  0
ARC
  5
150
330
1F
100
AcDbEntity
  8
0
  6
Continuous
 62
     7
370
    15
100
AcDbCircle
 10
851.9013385057
 20
477.5014176408
 30
0.0
 40
3.398060864141152
100
AcDbArc
 50
274.4216529655
 51
318.8441095853
  0
ARC
  5
151
330
1F
100
AcDbEntity
  8
0
  6
Continuous
 62
     7
370
    15
100
AcDbCircle
 10
815.9296935754
 20
465.7221270433
 30
0.0
 40
11.99999999998752
100
AcDbArc
 50
257.7337305065
 51
285.9162039883
  0
ARC
  5
152
330
1F
100
AcDbEntity
  8
0
  6
Continuous
 62
     7
370
    15
100
AcDbCircle
 10
817.2044245022
 20
471.5851519507
 30
0.0
 40
18.0000000000008
100
AcDbArc
 50
203.6184652769
 51
257.7337305066
  0
ARC
  5
153
330
1F
100
AcDbEntity
  8
0
  6
Continuous
 62
     7
370
    15
100
AcDbCircle
 10
814.4557235296
 20
470.3832189396
 30
0.0
 40
14.999999999991
100
AcDbArc
 50
165.0727804243
 51
203.6184652769
  0
ARC
  5
154
330
1F
100
AcDbEntity
  8
0
  6
Continuous
 62
     7
370
    15
100
AcDbCircle
 10
719.9206565449
 20
495.5851519507
 30
0.0
 40
82.83668185959424
100
AcDbArc
 50
345.0727804243
 51
15.4882456242
  0
ARC
  5
155
330
1F
100
AcDbEntity
  8
0
  6
Continuous
 62
     7
370
    15
100
AcDbCircle
 10
814.2044245022
 20
521.7115259254
 30
0.0
 40
14.99999999997925
100
AcDbArc
 50
180.0
 51
195.4882456242
  0
ARC
  5
156
330
1F
100
AcDbEntity
  8
0
  6
Continuous
 62
     7
370
    15
100
AcDbCircle
 10
811.2044245022
 20
525.5851519507
 30
0.0
 40
12.00000000000239
100
AcDbArc
 50
90.0
 51
180.0
  0
ARC
  5
157
330
1F
100
AcDbEntity
  8
0
  6
Continuous
 62
     7
370
    15
100
AcDbCircle
 10
871.8044245022
 20
525.5851519507
 30
0.0
 40
11.99999999999079
100
AcDbArc
 50
360.0
 51
90.0
  0
ARC
  5
158
330
1F
100
AcDbEntity
  8
0
  6
Continuous
 62
     7
370
    15
100
AcDbCircle
 10
868.8044245022
 20
521.7115259254
 30
0.0
 40
14.99999999997494
100
AcDbArc
 50
344.5117543758
 51
0.0
  0
ARC
  5
159
330
1F
100
AcDbEntity
  8
0
  6
Continuous
 62
     7
370
    15
100
AcDbCircle
 10
963.0881924595
 20
495.5851519507
 30
0.0
 40
82.8366818596093
100
AcDbArc
 50
164.5117543758
 51
194.9272195757
  0
ARC
  5
15A
330
1F
100
AcDbEntity
  8
0
  6
Continuous
 62
     7
370
    15
100
AcDbCircle
 10
868.5531254748
 20
470.3832189396
 30
0.0
 40
15.00000000000091
100
AcDbArc
 50
336.3815347231
 51
14.9272195757
  0
ARC
  5
15B
330
1F
100
AcDbEntity
  8
0
  6
Continuous
 62
     7
370
    15
100
AcDbCircle
 10
865.8044245022
 20
471.5851519507
 30
0.0
 40
18.00000000000416
100
AcDbArc
 50
282.2662694935
 51
336.3815347231
  0
ARC
  5
15C
330
1F
100
AcDbEntity
  8
0
  6
Continuous
 62
     7
370
    15
100
AcDbCircle
 10
867.0791554289
 20
465.7221270433
 30
0.0
 40
12.00000000000619
100
AcDbArc
 50
254.0837960117
 51
282.2662694935
  0
ARC
  5
15D
330
1F
100
AcDbEntity
  8
0
  6
Continuous
 62
     7
370
    15
100
AcDbCircle
 10
841.5044245022
 20
386.8297722154
 30
0.0
 40
70.9430691892092
100
AcDbArc
 50
71.6928816082
 51
108.3071183918
  0
ENDSEC
  0
SECTION
  2
OBJECTS
  0
DICTIONARY
  5
C
330
0
100
AcDbDictionary
281
     1
  3
ACAD_DETAILVIEWSTYLE
350
167
  3
ACAD_GROUP
350
D
  3
ACAD_LAYOUT
350
1A
  3
ACAD_MATERIAL
350
43
  3
ACAD_MLEADERSTYLE
350
6B
  3
ACAD_MLINESTYLE
350
17
  3
ACAD_PLOTSETTINGS
350
19
  3
ACAD_PLOTSTYLENAME
350
E
  3
ACAD_SCALELIST
350
47
  3
ACAD_SECTIONVIEWSTYLE
350
168
  3
ACAD_TABLESTYLE
350
69
  3
ACDB_RECOMPOSE_DATA
350
164
  3
AcDbVariableDictionary
350
15E
  0
DICTIONARY
  5
167
102
{ACAD_REACTORS
330
C
102
}
330
C
100
AcDbDictionary
281
     1
  0
DICTIONARY
  5
D
102
{ACAD_REACTORS
330
C
102
}
330
C
100
AcDbDictionary
281
     1
  0
DICTIONARY
  5
1A
102
{ACAD_REACTORS
330
C
102
}
330
C
100
AcDbDictionary
281
     1
  3
Layout1
350
1E
  3
Layout2
350
26
  3
Model
350
22
  0
DICTIONARY
  5
43
102
{ACAD_REACTORS
330
C
102
}
330
C
100
AcDbDictionary
281
     1
  3
ByBlock
350
45
  3
ByLayer
350
44
  3
Global
350
46
  0
DICTIONARY
  5
6B
102
{ACAD_REACTORS
330
C
102
}
330
C
100
AcDbDictionary
281
     1
  3
Standard
350
6C
  0
DICTIONARY
  5
17
102
{ACAD_REACTORS
330
C
102
}
330
C
100
AcDbDictionary
281
     1
  3
Standard
350
18
  0
DICTIONARY
  5
19
102
{ACAD_REACTORS
330
C
102
}
330
C
100
AcDbDictionary
281
     1
  0
ACDBDICTIONARYWDFLT
  5
E
102
{ACAD_REACTORS
330
C
102
}
330
C
100
AcDbDictionary
281
     1
  3
Normal
350
F
100
AcDbDictionaryWithDefault
340
F
  0
DICTIONARY
  5
47
102
{ACAD_REACTORS
330
C
102
}
330
C
100
AcDbDictionary
281
     1
  3
A0
350
48
  3
A1
350
49
  3
A2
350
4A
  3
A3
350
4B
  3
A4
350
4C
  3
A5
350
4D
  3
A6
350
4E
  3
A7
350
4F
  3
A8
350
50
  3
A9
350
51
  3
B0
350
52
  3
B1
350
53
  3
B2
350
54
  3
B3
350
55
  3
B4
350
56
  3
B5
350
57
  3
B6
350
58
  3
B7
350
59
  3
B8
350
5A
  3
B9
350
5B
  3
C0
350
5C
  3
C1
350
5D
  3
C2
350
5E
  3
C3
350
5F
  3
C4
350
60
  3
C5
350
61
  3
C6
350
62
  3
C7
350
63
  3
C8
350
64
  3
C9
350
65
  3
D0
350
66
  3
D1
350
67
  3
D2
350
68
  0
DICTIONARY
  5
168
102
{ACAD_REACTORS
330
C
102
}
330
C
100
AcDbDictionary
281
     1
  0
DICTIONARY
  5
69
102
{ACAD_REACTORS
330
C
102
}
330
C
100
AcDbDictionary
281
     1
  3
Standard
350
6A
  0
XRECORD
  5
164
102
{ACAD_REACTORS
330
C
102
}
330
C
100
AcDbXrecord
280
     1
 90
        1
330
6A
  0
DICTIONARY
  5
15E
102
{ACAD_REACTORS
330
C
102
}
330
C
100
AcDbDictionary
281
     1
  3
CANNOSCALE
350
15F
  3
CMLEADERSTYLE
350
166
  3
CTABLESTYLE
350
165
  0
LAYOUT
  5
1E
102
{ACAD_REACTORS
330
1A
102
}
330
1A
100
AcDbPlotSettings
  1

  2
none_device
  4

  6

 40
0.0
 41
0.0
 42
0.0
 43
0.0
 44
0.0
 45
0.0
 46
0.0
 47
0.0
 48
0.0
 49
0.0
140
0.0
141
0.0
142
1.0
143
1.0
 70
   688
 72
     1
 73
     0
 74
     5
  7

 75
    16
 76
     0
 77
     2
 78
   300
147
1.0
148
0.0
149
0.0
100
AcDbLayout
  1
Layout1
 70
     1
 71
     1
 10
0.0
 20
0.0
 11
420.0
 21
297.0
 12
0.0
 22
0.0
 32
0.0
 14
1.0000000000E+20
 24
1.0000000000E+20
 34
1.0000000000E+20
 15
-1.0000000000E+20
 25
-1.0000000000E+20
 35
-1.0000000000E+20
146
0.0
 13
0.0
 23
0.0
 33
0.0
 16
1.0
 26
0.0
 36
0.0
 17
0.0
 27
1.0
 37
0.0
 76
     0
330
1B
  0
LAYOUT
  5
26
102
{ACAD_REACTORS
330
1A
102
}
330
1A
100
AcDbPlotSettings
  1

  2
none_device
  4

  6

 40
0.0
 41
0.0
 42
0.0
 43
0.0
 44
0.0
 45
0.0
 46
0.0
 47
0.0
 48
0.0
 49
0.0
140
0.0
141
0.0
142
1.0
143
1.0
 70
   688
 72
     1
 73
     0
 74
     5
  7

 75
    16
 76
     0
 77
     2
 78
   300
147
1.0
148
0.0
149
0.0
100
AcDbLayout
  1
Layout2
 70
     1
 71
     2
 10
0.0
 20
0.0
 11
0.0
 21
0.0
 12
0.0
 22
0.0
 32
0.0
 14
0.0
 24
0.0
 34
0.0
 15
0.0
 25
0.0
 35
0.0
146
0.0
 13
0.0
 23
0.0
 33
0.0
 16
1.0
 26
0.0
 36
0.0
 17
0.0
 27
1.0
 37
0.0
 76
     0
330
23
  0
LAYOUT
  5
22
102
{ACAD_REACTORS
330
1A
102
}
330
1A
100
AcDbPlotSettings
  1

  2
none_device
  4
ANSI_A_(11.00_x_8.50_Inches)
  6

 40
6.35
 41
19.05
 42
6.35000508
 43
19.05000254
 44
279.4
 45
215.9
 46
-2011.3853897526
 47
-1174.3683448188
 48
0.0
 49
0.0
140
0.0
141
0.0
142
0.100342195
143
1.0
 70
  1696
 72
     0
 73
     0
 74
     0
  7

 75
     0
 76
     0
 77
     2
 78
   300
147
0.0179189148
148
-1300.4909072572
149
0.0
100
AcDbLayout
  1
Model
 70
     1
 71
     0
 10
0.0
 20
0.0
 11
420.0
 21
297.0
 12
0.0
 22
0.0
 32
0.0
 14
799.2044245022
 24
453.7221270433
 34
0.0
 15
883.8044245022
 25
537.5851519507
 35
0.0
146
0.0
 13
0.0
 23
0.0
 33
0.0
 16
1.0
 26
0.0
 36
0.0
 17
0.0
 27
1.0
 37
0.0
 76
     0
330
1F
331
29
  0
MATERIAL
  5
45
102
{ACAD_REACTORS
330
43
102
}
330
43
100
AcDbMaterial
  1
ByBlock
  0
MATERIAL
  5
44
102
{ACAD_REACTORS
330
43
102
}
330
43
100
AcDbMaterial
  1
ByLayer
  0
MATERIAL
  5
46
102
{ACAD_REACTORS
330
43
102
}
330
43
100
AcDbMaterial
  1
Global
  0
MLEADERSTYLE
  5
6C
102
{ACAD_REACTORS
330
6B
102
}
330
6B
100
AcDbMLeaderStyle
170
     2
171
     1
172
     0
 90
        2
 40
0.0
 41
0.0
173
     1
 91
-1056964608
340
14
 92
       -2
290
     1
 42
2.0
291
     1
 43
8.0
  3
Standard
341
0
 44
4.0
300

342
11
174
     1
178
     6
175
     1
176
     0
 93
-1056964608
 45
4.0
292
     0
297
     0
 46
4.0
343
0
 94
-1056964608
 47
1.0
 49
1.0
140
1.0
293
     1
141
0.0
294
     1
177
     0
142
1.0
295
     0
296
     0
143
3.75
1001
ACAD_MLEADERVER
1070
     2
  0
MLINESTYLE
  5
18
102
{ACAD_REACTORS
330
17
102
}
330
17
100
AcDbMlineStyle
  2
Standard
 70
     0
  3

 62
   256
 51
90.0
 52
90.0
 71
     2
 49
0.5
 62
   256
  6
BYLAYER
 49
-0.5
 62
   256
  6
BYLAYER
  0
ACDBPLACEHOLDER
  5
F
102
{ACAD_REACTORS
330
E
102
}
330
E
  0
SCALE
  5
48
102
{ACAD_REACTORS
330
47
102
}
330
47
100
AcDbScale
 70
     0
300
1:1
140
1.0
141
1.0
290
     1
  0
SCALE
  5
49
102
{ACAD_REACTORS
330
47
102
}
330
47
100
AcDbScale
 70
     0
300
1:2
140
1.0
141
2.0
290
     0
  0
SCALE
  5
4A
102
{ACAD_REACTORS
330
47
102
}
330
47
100
AcDbScale
 70
     0
300
1:4
140
1.0
141
4.0
290
     0
  0
SCALE
  5
4B
102
{ACAD_REACTORS
330
47
102
}
330
47
100
AcDbScale
 70
     0
300
1:5
140
1.0
141
5.0
290
     0
  0
SCALE
  5
4C
102
{ACAD_REACTORS
330
47
102
}
330
47
100
AcDbScale
 70
     0
300
1:8
140
1.0
141
8.0
290
     0
  0
SCALE
  5
4D
102
{ACAD_REACTORS
330
47
102
}
330
47
100
AcDbScale
 70
     0
300
1:10
140
1.0
141
10.0
290
     0
  0
SCALE
  5
4E
102
{ACAD_REACTORS
330
47
102
}
330
47
100
AcDbScale
 70
     0
300
1:16
140
1.0
141
16.0
290
     0
  0
SCALE
  5
4F
102
{ACAD_REACTORS
330
47
102
}
330
47
100
AcDbScale
 70
     0
300
1:20
140
1.0
141
20.0
290
     0
  0
SCALE
  5
50
102
{ACAD_REACTORS
330
47
102
}
330
47
100
AcDbScale
 70
     0
300
1:30
140
1.0
141
30.0
290
     0
  0
SCALE
  5
51
102
{ACAD_REACTORS
330
47
102
}
330
47
100
AcDbScale
 70
     0
300
1:40
140
1.0
141
40.0
290
     0
  0
SCALE
  5
52
102
{ACAD_REACTORS
330
47
102
}
330
47
100
AcDbScale
 70
     0
300
1:50
140
1.0
141
50.0
290
     0
  0
SCALE
  5
53
102
{ACAD_REACTORS
330
47
102
}
330
47
100
AcDbScale
 70
     0
300
1:100
140
1.0
141
100.0
290
     0
  0
SCALE
  5
54
102
{ACAD_REACTORS
330
47
102
}
330
47
100
AcDbScale
 70
     0
300
2:1
140
2.0
141
1.0
290
     0
  0
SCALE
  5
55
102
{ACAD_REACTORS
330
47
102
}
330
47
100
AcDbScale
 70
     0
300
4:1
140
4.0
141
1.0
290
     0
  0
SCALE
  5
56
102
{ACAD_REACTORS
330
47
102
}
330
47
100
AcDbScale
 70
     0
300
8:1
140
8.0
141
1.0
290
     0
  0
SCALE
  5
57
102
{ACAD_REACTORS
330
47
102
}
330
47
100
AcDbScale
 70
     0
300
10:1
140
10.0
141
1.0
290
     0
  0
SCALE
  5
58
102
{ACAD_REACTORS
330
47
102
}
330
47
100
AcDbScale
 70
     0
300
100:1
140
100.0
141
1.0
290
     0
  0
SCALE
  5
59
102
{ACAD_REACTORS
330
47
102
}
330
47
100
AcDbScale
 70
     0
300
1/128" = 1'-0"
140
0.0078125
141
12.0
290
     0
  0
SCALE
  5
5A
102
{ACAD_REACTORS
330
47
102
}
330
47
100
AcDbScale
 70
     0
300
1/64" = 1'-0"
140
0.015625
141
12.0
290
     0
  0
SCALE
  5
5B
102
{ACAD_REACTORS
330
47
102
}
330
47
100
AcDbScale
 70
     0
300
1/32" = 1'-0"
140
0.03125
141
12.0
290
     0
  0
SCALE
  5
5C
102
{ACAD_REACTORS
330
47
102
}
330
47
100
AcDbScale
 70
     0
300
1/16" = 1'-0"
140
0.0625
141
12.0
290
     0
  0
SCALE
  5
5D
102
{ACAD_REACTORS
330
47
102
}
330
47
100
AcDbScale
 70
     0
300
3/32" = 1'-0"
140
0.09375
141
12.0
290
     0
  0
SCALE
  5
5E
102
{ACAD_REACTORS
330
47
102
}
330
47
100
AcDbScale
 70
     0
300
1/8" = 1'-0"
140
0.125
141
12.0
290
     0
  0
SCALE
  5
5F
102
{ACAD_REACTORS
330
47
102
}
330
47
100
AcDbScale
 70
     0
300
3/16" = 1'-0"
140
0.1875
141
12.0
290
     0
  0
SCALE
  5
60
102
{ACAD_REACTORS
330
47
102
}
330
47
100
AcDbScale
 70
     0
300
1/4" = 1'-0"
140
0.25
141
12.0
290
     0
  0
SCALE
  5
61
102
{ACAD_REACTORS
330
47
102
}
330
47
100
AcDbScale
 70
     0
300
3/8" = 1'-0"
140
0.375
141
12.0
290
     0
  0
SCALE
  5
62
102
{ACAD_REACTORS
330
47
102
}
330
47
100
AcDbScale
 70
     0
300
1/2" = 1'-0"
140
0.5
141
12.0
290
     0
  0
SCALE
  5
63
102
{ACAD_REACTORS
330
47
102
}
330
47
100
AcDbScale
 70
     0
300
3/4" = 1'-0"
140
0.75
141
12.0
290
     0
  0
SCALE
  5
64
102
{ACAD_REACTORS
330
47
102
}
330
47
100
AcDbScale
 70
     0
300
1" = 1'-0"
140
1.0
141
12.0
290
     0
  0
SCALE
  5
65
102
{ACAD_REACTORS
330
47
102
}
330
47
100
AcDbScale
 70
     0
300
1-1/2" = 1'-0"
140
1.5
141
12.0
290
     0
  0
SCALE
  5
66
102
{ACAD_REACTORS
330
47
102
}
330
47
100
AcDbScale
 70
     0
300
3" = 1'-0"
140
3.0
141
12.0
290
     0
  0
SCALE
  5
67
102
{ACAD_REACTORS
330
47
102
}
330
47
100
AcDbScale
 70
     0
300
6" = 1'-0"
140
6.0
141
12.0
290
     0
  0
SCALE
  5
68
102
{ACAD_REACTORS
330
47
102
}
330
47
100
AcDbScale
 70
     0
300
1'-0" = 1'-0"
140
12.0
141
12.0
290
     0
  0
TABLESTYLE
  5
6A
102
{ACAD_REACTORS
330
69
102
}
102
{ACAD_XDICTIONARY
360
160
102
}
330
69
100
AcDbTableStyle
  3
Standard
 70
     0
 71
     0
 40
0.06
 41
0.06
280
     0
281
     0
  7
Standard
140
4.5
170
     2
 62
     0
 63
   257
283
     0
274
    -2
284
     1
 64
     0
275
    -2
285
     1
 65
     0
276
    -2
286
     1
 66
     0
277
    -2
287
     1
 67
     0
278
    -2
288
     1
 68
     0
279
    -2
289
     1
 69
     0
  7
Standard
140
6.0
170
     5
 62
     0
 63
   257
283
     0
274
    -2
284
     1
 64
     0
275
    -2
285
     1
 65
     0
276
    -2
286
     1
 66
     0
277
    -2
287
     1
 67
     0
278
    -2
288
     1
 68
     0
279
    -2
289
     1
 69
     0
  7
Standard
140
4.5
170
     5
 62
     0
 63
   257
283
     0
274
    -2
284
     1
 64
     0
275
    -2
285
     1
 65
     0
276
    -2
286
     1
 66
     0
277
    -2
287
     1
 67
     0
278
    -2
288
     1
 68
     0
279
    -2
289
     1
 69
     0
  0
DICTIONARYVAR
  5
15F
102
{ACAD_REACTORS
330
15E
102
}
330
15E
100
DictionaryVariables
280
     0
  1
1:1
  0
DICTIONARYVAR
  5
166
102
{ACAD_REACTORS
330
15E
102
}
330
15E
100
DictionaryVariables
280
     0
  1
Standard
  0
DICTIONARYVAR
  5
165
102
{ACAD_REACTORS
330
15E
102
}
330
15E
100
DictionaryVariables
280
     0
  1
Standard
  0
DICTIONARY
  5
160
330
6A
100
AcDbDictionary
280
     1
281
     1
  3
ACAD_ROUNDTRIP_2008_TABLESTYLE_CELLSTYLEMAP
360
162
  3
ACAD_XREC_ROUNDTRIP
360
161
  0
CELLSTYLEMAP
  5
162
102
{ACAD_REACTORS
330
160
102
}
330
160
100
AcDbCellStyleMap
 90
        3
300
CELLSTYLE
  1
TABLEFORMAT_BEGIN
 90
        5
170
     1
 91
        0
 92
    32768
 62
   257
 93
        1
300
CONTENTFORMAT
  1
CONTENTFORMAT_BEGIN
 90
        0
 91
        0
 92
        4
 93
        0
300

 40
0.0
140
1.0
 94
        5
 62
     0
340
11
144
6.0
309
CONTENTFORMAT_END
171
     1
301
MARGIN
  1
CELLMARGIN_BEGIN
 40
1.5
 40
1.5
 40
1.5
 40
1.5
 40
1.5
 40
1.5
309
CELLMARGIN_END
 94
        6
 95
        1
302
GRIDFORMAT
  1
GRIDFORMAT_BEGIN
 90
        0
 91
        1
 62
     0
 92
       -2
340
14
 93
        0
 40
0.045
309
GRIDFORMAT_END
 95
        2
302
GRIDFORMAT
  1
GRIDFORMAT_BEGIN
 90
        0
 91
        1
 62
     0
 92
       -2
340
14
 93
        0
 40
0.045
309
GRIDFORMAT_END
 95
        4
302
GRIDFORMAT
  1
GRIDFORMAT_BEGIN
 90
        0
 91
        1
 62
     0
 92
       -2
340
14
 93
        0
 40
0.045
309
GRIDFORMAT_END
 95
        8
302
GRIDFORMAT
  1
GRIDFORMAT_BEGIN
 90
        0
 91
        1
 62
     0
 92
       -2
340
14
 93
        0
 40
0.045
309
GRIDFORMAT_END
 95
       16
302
GRIDFORMAT
  1
GRIDFORMAT_BEGIN
 90
        0
 91
        1
 62
     0
 92
       -2
340
14
 93
        0
 40
0.045
309
GRIDFORMAT_END
 95
       32
302
GRIDFORMAT
  1
GRIDFORMAT_BEGIN
 90
        0
 91
        1
 62
     0
 92
       -2
340
14
 93
        0
 40
0.045
309
GRIDFORMAT_END
309
TABLEFORMAT_END
  1
CELLSTYLE_BEGIN
 90
        1
 91
        1
300
_TITLE
309
CELLSTYLE_END
300
CELLSTYLE
  1
TABLEFORMAT_BEGIN
 90
        5
170
     1
 91
        0
 92
        0
 62
   257
 93
        1
300
CONTENTFORMAT
  1
CONTENTFORMAT_BEGIN
 90
        0
 91
        0
 92
        4
 93
        0
300

 40
0.0
140
1.0
 94
        5
 62
     0
340
11
144
4.5
309
CONTENTFORMAT_END
171
     1
301
MARGIN
  1
CELLMARGIN_BEGIN
 40
1.5
 40
1.5
 40
1.5
 40
1.5
 40
1.5
 40
1.5
309
CELLMARGIN_END
 94
        6
 95
        1
302
GRIDFORMAT
  1
GRIDFORMAT_BEGIN
 90
        0
 91
        1
 62
     0
 92
       -2
340
14
 93
        0
 40
0.045
309
GRIDFORMAT_END
 95
        2
302
GRIDFORMAT
  1
GRIDFORMAT_BEGIN
 90
        0
 91
        1
 62
     0
 92
       -2
340
14
 93
        0
 40
0.045
309
GRIDFORMAT_END
 95
        4
302
GRIDFORMAT
  1
GRIDFORMAT_BEGIN
 90
        0
 91
        1
 62
     0
 92
       -2
340
14
 93
        0
 40
0.045
309
GRIDFORMAT_END
 95
        8
302
GRIDFORMAT
  1
GRIDFORMAT_BEGIN
 90
        0
 91
        1
 62
     0
 92
       -2
340
14
 93
        0
 40
0.045
309
GRIDFORMAT_END
 95
       16
302
GRIDFORMAT
  1
GRIDFORMAT_BEGIN
 90
        0
 91
        1
 62
     0
 92
       -2
340
14
 93
        0
 40
0.045
309
GRIDFORMAT_END
 95
       32
302
GRIDFORMAT
  1
GRIDFORMAT_BEGIN
 90
        0
 91
        1
 62
     0
 92
       -2
340
14
 93
        0
 40
0.045
309
GRIDFORMAT_END
309
TABLEFORMAT_END
  1
CELLSTYLE_BEGIN
 90
        2
 91
        1
300
_HEADER
309
CELLSTYLE_END
300
CELLSTYLE
  1
TABLEFORMAT_BEGIN
 90
        5
170
     1
 91
        0
 92
        0
 62
   257
 93
        1
300
CONTENTFORMAT
  1
CONTENTFORMAT_BEGIN
 90
        0
 91
        0
 92
        4
 93
        0
300

 40
0.0
140
1.0
 94
        2
 62
     0
340
11
144
4.5
309
CONTENTFORMAT_END
171
     1
301
MARGIN
  1
CELLMARGIN_BEGIN
 40
1.5
 40
1.5
 40
1.5
 40
1.5
 40
1.5
 40
1.5
309
CELLMARGIN_END
 94
        6
 95
        1
302
GRIDFORMAT
  1
GRIDFORMAT_BEGIN
 90
        0
 91
        1
 62
     0
 92
       -2
340
14
 93
        0
 40
0.045
309
GRIDFORMAT_END
 95
        2
302
GRIDFORMAT
  1
GRIDFORMAT_BEGIN
 90
        0
 91
        1
 62
     0
 92
       -2
340
14
 93
        0
 40
0.045
309
GRIDFORMAT_END
 95
        4
302
GRIDFORMAT
  1
GRIDFORMAT_BEGIN
 90
        0
 91
        1
 62
     0
 92
       -2
340
14
 93
        0
 40
0.045
309
GRIDFORMAT_END
 95
        8
302
GRIDFORMAT
  1
GRIDFORMAT_BEGIN
 90
        0
 91
        1
 62
     0
 92
       -2
340
14
 93
        0
 40
0.045
309
GRIDFORMAT_END
 95
       16
302
GRIDFORMAT
  1
GRIDFORMAT_BEGIN
 90
        0
 91
        1
 62
     0
 92
       -2
340
14
 93
        0
 40
0.045
309
GRIDFORMAT_END
 95
       32
302
GRIDFORMAT
  1
GRIDFORMAT_BEGIN
 90
        0
 91
        1
 62
     0
 92
       -2
340
14
 93
        0
 40
0.045
309
GRIDFORMAT_END
309
TABLEFORMAT_END
  1
CELLSTYLE_BEGIN
 90
        3
 91
        2
300
_DATA
309
CELLSTYLE_END
  0
XRECORD
  5
161
102
{ACAD_REACTORS
330
160
102
}
330
160
100
AcDbXrecord
280
     1
102
ACAD_ROUNDTRIP_PRE2007_TABLESTYLE
 90
        4
 91
        0
  1

 92
        4
 93
        0
  2

 94
        4
 95
        0
  3

  0
ENDSEC
  0
EOF
